<svg xmlns="http://www.w3.org/2000/svg" xmlns:xlink="http://www.w3.org/1999/xlink" viewBox="0 0 500 500" width="500" height="500" preserveAspectRatio="xMidYMid meet" style="width: 100%; height: 100%; transform: translate3d(0px, 0px, 0px); content-visibility: visible;"><defs><clipPath id="__lottie_element_2027"><rect width="500" height="500" x="0" y="0"></rect></clipPath><clipPath id="__lottie_element_2034"><path d="M0,0 L500,0 L500,500 L0,500z"></path></clipPath><clipPath id="__lottie_element_2063"><path d="M0,0 L500,0 L500,500 L0,500z"></path></clipPath></defs><g clip-path="url(#__lottie_element_2027)"><g clip-path="url(#__lottie_element_2063)" transform="matrix(1,0,0,1,0,0)" opacity="0" style="display: block;"><g transform="matrix(-1.588966727256775,3.118522882461548,-3.118522882461548,-1.588966727256775,253.76220703125,268.7437744140625)" opacity="1" style="display: block;"><g opacity="1" transform="matrix(1,0,0,1,0,0)"><path stroke-linecap="round" stroke-linejoin="round" fill-opacity="0" stroke="inherit" stroke-opacity="1" stroke-width="3.5" d=" M2.2780001163482666,-38.71799850463867 C11.677000045776367,-31.55900001525879 19.606000900268555,-22.180999755859375 25.211000442504883,-10.878999710083008 C30.81599998474121,0.4230000078678131 33.47700119018555,12.402999877929688 33.487998962402344,24.218000411987305"></path></g><g opacity="1" transform="matrix(1,0,0,1,0.5,-0.5)"><path stroke-linecap="round" stroke-linejoin="round" fill-opacity="0" stroke="inherit" stroke-opacity="1" stroke-width="3.5" d=" M-9.633000373840332,9.609999656677246 C-9.633000373840332,12.897000312805176 -12.29699993133545,15.562000274658203 -15.583999633789062,15.562000274658203 C-18.871000289916992,15.562000274658203 -21.535999298095703,12.897000312805176 -21.535999298095703,9.609999656677246 C-21.535999298095703,6.322999954223633 -18.871000289916992,3.6589999198913574 -15.583999633789062,3.6589999198913574 C-12.29699993133545,3.6589999198913574 -9.633000373840332,6.322999954223633 -9.633000373840332,9.609999656677246z"></path></g><g opacity="1" transform="matrix(1,0,0,1,0,0)"><path stroke-linecap="round" stroke-linejoin="round" fill-opacity="0" stroke="inherit" stroke-opacity="1" stroke-width="3.5" d=" M17.868000030517578,9.145999908447266 C17.868000030517578,12.432999610900879 15.20300006866455,15.097000122070312 11.916000366210938,15.097000122070312 C8.628999710083008,15.097000122070312 5.965000152587891,12.432999610900879 5.965000152587891,9.145999908447266 C5.965000152587891,5.859000205993652 8.628999710083008,3.194999933242798 11.916000366210938,3.194999933242798 C15.20300006866455,3.194999933242798 17.868000030517578,5.859000205993652 17.868000030517578,9.145999908447266z"></path></g><g opacity="1" transform="matrix(1,0,0,1,0,0)"><path stroke-linecap="round" stroke-linejoin="round" fill-opacity="0" stroke="inherit" stroke-opacity="1" stroke-width="3.5" d=" M5.951000213623047,-12.038999557495117 C5.951000213623047,-8.751999855041504 3.2869999408721924,-6.0879998207092285 0,-6.0879998207092285 C-3.2869999408721924,-6.0879998207092285 -5.951000213623047,-8.751999855041504 -5.951000213623047,-12.038999557495117 C-5.951000213623047,-15.326000213623047 -3.2869999408721924,-17.989999771118164 0,-17.989999771118164 C3.2869999408721924,-17.989999771118164 5.951000213623047,-15.326000213623047 5.951000213623047,-12.038999557495117z"></path></g><g opacity="1" transform="matrix(1,0,0,1,0,0)"><path stroke-linecap="round" stroke-linejoin="round" fill-opacity="0" stroke="inherit" stroke-opacity="1" stroke-width="3.5" d=" M9.72700023651123,-48.465999603271484 C9.72700023651123,-48.465999603271484 2.2780001163482666,-38.71900177001953 2.2780001163482666,-38.71900177001953 C2.2780001163482666,-38.71900177001953 -45.909000396728516,24.388999938964844 -45.909000396728516,24.388999938964844 C-45.909000396728516,24.388999938964844 33.65700149536133,24.21500015258789 33.65700149536133,24.21500015258789 C33.65700149536133,24.21500015258789 45.75600051879883,24.187999725341797 45.75600051879883,24.187999725341797 C45.74700164794922,10.553000450134277 42.66699981689453,-3.2850000858306885 36.19900131225586,-16.327999114990234 C29.731000900268555,-29.371000289916992 20.57200050354004,-40.194000244140625 9.72700023651123,-48.465999603271484z"></path></g></g><g style="display: none;"><g><path stroke-linecap="round" stroke-linejoin="round" fill-opacity="0"></path></g></g></g><g clip-path="url(#__lottie_element_2034)" transform="matrix(1,0,0,1,0,0)" opacity="1" style="display: block;"><g transform="matrix(-1.5889674425125122,3.1185243129730225,-3.1185243129730225,-1.5889674425125122,253.76138305664062,268.7431945800781)" opacity="1" style="display: block;"><g opacity="1" transform="matrix(1,0,0,1,0,0)"><path stroke-linecap="round" stroke-linejoin="round" fill-opacity="0" stroke="inherit" stroke-opacity="1" stroke-width="3.5" d=" M2.2780001163482666,-38.71799850463867 C11.677000045776367,-31.55900001525879 19.606000900268555,-22.180999755859375 25.211000442504883,-10.878999710083008 C30.81599998474121,0.4230000078678131 33.47700119018555,12.402999877929688 33.487998962402344,24.218000411987305"></path></g></g><g transform="matrix(-1.5889674425125122,3.1185243129730225,-3.1185243129730225,-1.5889674425125122,253.76138305664062,268.7431945800781)" opacity="1" style="display: block;"><g opacity="1" transform="matrix(1,0,0,1,0,0)"><path stroke-linecap="round" stroke-linejoin="round" fill-opacity="0" stroke="inherit" stroke-opacity="1" stroke-width="3.5" d=" M45.75600051879883,24.187999725341797 C45.74700164794922,10.553000450134277 42.66699981689453,-3.2850000858306885 36.19900131225586,-16.327999114990234 C29.731000900268555,-29.371000289916992 20.57200050354004,-40.194000244140625 9.72700023651123,-48.465999603271484 C9.72700023651123,-48.465999603271484 2.2780001163482666,-38.71900177001953 2.2780001163482666,-38.71900177001953 C2.2780001163482666,-38.71900177001953 -45.909000396728516,24.388999938964844 -45.909000396728516,24.388999938964844"></path></g></g><g transform="matrix(-1.5889674425125122,3.1185243129730225,-3.1185243129730225,-1.5889674425125122,253.7599639892578,268.74249267578125)" opacity="1" style="display: block;"><g opacity="1" transform="matrix(1,0,0,1,0,0)"><path stroke-linecap="round" stroke-linejoin="round" fill-opacity="0" stroke="inherit" stroke-opacity="1" stroke-width="3.5" d=" M5.951000213623047,-12.038999557495117 C5.951000213623047,-8.751999855041504 3.2869999408721924,-6.0879998207092285 0,-6.0879998207092285 C-3.2869999408721924,-6.0879998207092285 -5.951000213623047,-8.751999855041504 -5.951000213623047,-12.038999557495117 C-5.951000213623047,-15.326000213623047 -3.2869999408721924,-17.989999771118164 0,-17.989999771118164 C3.2869999408721924,-17.989999771118164 5.951000213623047,-15.326000213623047 5.951000213623047,-12.038999557495117z"></path></g></g><g transform="matrix(-1.5889674425125122,3.1185243129730225,-3.1185243129730225,-1.5889674425125122,253.76312255859375,268.7436828613281)" opacity="1" style="display: block;"><g opacity="1" transform="matrix(1,0,0,1,0,0)"><path stroke-linecap="round" stroke-linejoin="round" fill-opacity="0" stroke="inherit" stroke-opacity="1" stroke-width="3.5" d=" M17.808000564575195,9.10099983215332 C17.808000564575195,12.387999534606934 15.144000053405762,15.052000045776367 11.857000350952148,15.052000045776367 C8.569999694824219,15.052000045776367 5.906000137329102,12.387999534606934 5.906000137329102,9.10099983215332 C5.906000137329102,5.814000129699707 8.569999694824219,3.1489999294281006 11.857000350952148,3.1489999294281006 C15.144000053405762,3.1489999294281006 17.808000564575195,5.814000129699707 17.808000564575195,9.10099983215332z"></path></g></g><g transform="matrix(-1.5889674425125122,3.1185243129730225,-3.1185243129730225,-1.5889674425125122,253.76333618164062,268.7432556152344)" opacity="1" style="display: block;"><g opacity="1" transform="matrix(1,0,0,1,0,0)"><path stroke-linecap="round" stroke-linejoin="round" fill-opacity="0" stroke="inherit" stroke-opacity="1" stroke-width="3.5" d=" M-9.144000053405762,9.10099983215332 C-9.144000053405762,12.387999534606934 -11.807999610900879,15.052000045776367 -15.095000267028809,15.052000045776367 C-18.381999969482422,15.052000045776367 -21.04599952697754,12.387999534606934 -21.04599952697754,9.10099983215332 C-21.04599952697754,5.814000129699707 -18.381999969482422,3.1489999294281006 -15.095000267028809,3.1489999294281006 C-11.807999610900879,3.1489999294281006 -9.144000053405762,5.814000129699707 -9.144000053405762,9.10099983215332z"></path></g></g><g style="display: none;"><g><path stroke-linecap="round" stroke-linejoin="round" fill-opacity="0"></path></g></g><g style="display: none;"><g><path stroke-linecap="round" stroke-linejoin="round" fill-opacity="0"></path></g></g><g transform="matrix(-0.45399001240730286,0.8910056352615356,-0.8910056352615356,-0.45399001240730286,246.864501953125,280.96539306640625)" opacity="1" style="display: block;"><g opacity="1" transform="matrix(1,0,0,1,0,0)"><path stroke-linecap="round" stroke-linejoin="round" fill-opacity="0" stroke="inherit" stroke-opacity="1" stroke-width="12" d=" M145.5,84.69000244140625 C145.5,84.69000244140625 -174.26400756835938,85.06900024414062 -174.26400756835938,85.06900024414062"></path></g></g></g><g style="display: none;"><path></path></g></g></svg>