<svg xmlns="http://www.w3.org/2000/svg" xmlns:xlink="http://www.w3.org/1999/xlink" viewBox="0 0 500 500" width="500" height="500" preserveAspectRatio="xMidYMid meet" style="width: 100%; height: 100%; transform: translate3d(0px, 0px, 0px); content-visibility: visible;"><defs><clipPath id="__lottie_element_2073"><rect width="500" height="500" x="0" y="0"></rect></clipPath><symbol id="__lottie_element_2084"><g><g transform="matrix(1,0,0,1,0,0)" opacity="1" style="display: block;"><g opacity="1" transform="matrix(1,0,0,1,0,0)"><g opacity="1" transform="matrix(1,0,0,1,322.7149963378906,313.7749938964844)"><path fill="inherit" fill-opacity="1" d=" M74.37699890136719,44.0880012512207 C74.37699890136719,49.11800003051758 73.5009994506836,54.03799819946289 71.83300018310547,58.790000915527344 C68.31099700927734,65.26899719238281 61.42900085449219,69.65799713134766 53.5260009765625,69.65799713134766 C53.5260009765625,69.65799713134766 -174.50599670410156,69.65799713134766 -174.50599670410156,69.65799713134766 C-182.41700744628906,69.65799713134766 -189.29100036621094,65.26899719238281 -192.81300354003906,58.790000915527344 C-194.4810028076172,54.03799819946289 -195.35800170898438,49.11800003051758 -195.35800170898438,44.0880012512207 C-195.35800170898438,21.660999298095703 -177.98500061035156,1.5160000324249268 -150.3679962158203,-12.343000411987305 C-143.35000610351562,-15.864999771118164 -135.66700744628906,-18.98200035095215 -127.44400024414062,-21.618999481201172 C-108.19300079345703,-27.81100082397461 -85.96800231933594,-31.41699981689453 -62.268001556396484,-31.57699966430664 C-61.678001403808594,-31.5939998626709 -61.0880012512207,-31.5939998626709 -60.4900016784668,-31.5939998626709 C-41.23899841308594,-31.5939998626709 -22.923999786376953,-29.32699966430664 -6.360000133514404,-25.240999221801758 C6.7829999923706055,-22.013999938964844 18.83099937438965,-17.642000198364258 29.38800048828125,-12.343000411987305 C57.005001068115234,1.5160000324249268 74.37699890136719,21.660999298095703 74.37699890136719,44.0880012512207z"></path></g></g></g></g></symbol><filter id="__lottie_element_2090" filterUnits="objectBoundingBox" x="0%" y="0%" width="100%" height="100%"><feComponentTransfer in="SourceGraphic"><feFuncA type="table" tableValues="1.0 0.0"></feFuncA></feComponentTransfer></filter><mask id="__lottie_element_2084_2" mask-type="alpha"><g filter="url(#__lottie_element_2090)"><rect width="500" height="500" x="0" y="0" fill="#ffffff" opacity="0"></rect><use xlink:href="#__lottie_element_2084"></use></g></mask></defs><g clip-path="url(#__lottie_element_2073)"><g mask="url(#__lottie_element_2084_2)" style="display: block;"><g transform="matrix(1,0,0,1,0,0)" opacity="1"><g opacity="1" transform="matrix(1,0,0,1,198.5500030517578,115.13999938964844)"><path stroke-linecap="round" stroke-linejoin="round" fill-opacity="0" stroke="inherit" stroke-opacity="1" stroke-width="12.04" d=" M17.18600082397461,25.259000778198242 C17.18600082397461,25.259000778198242 17.18600082397461,-25.259000778198242 17.18600082397461,-25.259000778198242 C17.18600082397461,-25.259000778198242 -17.18600082397461,-25.259000778198242 -17.18600082397461,-25.259000778198242 C-17.18600082397461,-25.259000778198242 -17.18600082397461,25.259000778198242 -17.18600082397461,25.259000778198242"></path></g><g opacity="1" transform="matrix(1,0,0,1,198.5500030517578,261.9159851074219)"><path stroke-linecap="round" stroke-linejoin="round" fill-opacity="0" stroke="inherit" stroke-opacity="1" stroke-width="12.04" d=" M96.6520004272461,54.441001892089844 C96.6520004272461,80.49299621582031 86.3239974975586,104.13899993896484 69.572998046875,121.51699829101562 C69.572998046875,121.51699829101562 -69.572998046875,121.51699829101562 -69.572998046875,121.51699829101562 C-86.3239974975586,104.13899993896484 -96.6520004272461,80.49299621582031 -96.6520004272461,54.441001892089844 C-96.6520004272461,21.575000762939453 -80.24299621582031,-7.459000110626221 -55.17300033569336,-24.920000076293945 C-40.43000030517578,-35.1879997253418 -31.518999099731445,-51.90700149536133 -31.518999099731445,-69.87300109863281 C-31.518999099731445,-69.87300109863281 -31.518999099731445,-121.51699829101562 -31.518999099731445,-121.51699829101562 C-31.518999099731445,-121.51699829101562 31.518999099731445,-121.51699829101562 31.518999099731445,-121.51699829101562 C31.518999099731445,-121.51699829101562 31.518999099731445,-69.87300109863281 31.518999099731445,-69.87300109863281 C31.518999099731445,-51.90700149536133 40.43000030517578,-35.1879997253418 55.17300033569336,-24.920000076293945 C80.24299621582031,-7.459000110626221 96.6520004272461,21.575000762939453 96.6520004272461,54.441001892089844z"></path></g><g opacity="1" transform="matrix(1,0,0,1,261.0169982910156,209.13999938964844)"><path stroke-linecap="round" stroke-linejoin="round" fill-opacity="0" stroke="inherit" stroke-opacity="1" stroke-width="12.04" d=" M-30.947999954223633,-40.73699951171875 C-26.281999588012695,-42.28900146484375 -21.288000106811523,-43.13100051879883 -16.097999572753906,-43.13100051879883 C9.881999969482422,-43.13100051879883 30.947999954223633,-22.065000534057617 30.947999954223633,3.9149999618530273 C30.947999954223633,20.29599952697754 22.58300018310547,34.7140007019043 9.880999565124512,43.13100051879883"></path></g></g></g><g transform="matrix(1,0,0,1,0,0)" opacity="1" style="display: block;"><g opacity="1" transform="matrix(1,0,0,1,0,0)"><g opacity="1" transform="matrix(1,0,0,1,322.7149963378906,313.7749938964844)"><path stroke-linecap="round" stroke-linejoin="round" fill-opacity="0" stroke="inherit" stroke-opacity="1" stroke-width="12.04" d=" M74.37699890136719,44.0880012512207 C74.37699890136719,49.11800003051758 73.5009994506836,54.03799819946289 71.83300018310547,58.790000915527344 C68.31099700927734,65.26899719238281 61.42900085449219,69.65799713134766 53.5260009765625,69.65799713134766 C53.5260009765625,69.65799713134766 -174.50599670410156,69.65799713134766 -174.50599670410156,69.65799713134766 C-182.41700744628906,69.65799713134766 -189.29100036621094,65.26899719238281 -192.81300354003906,58.790000915527344 C-194.4810028076172,54.03799819946289 -195.35800170898438,49.11800003051758 -195.35800170898438,44.0880012512207 C-195.35800170898438,21.660999298095703 -177.98500061035156,1.5160000324249268 -150.3679962158203,-12.343000411987305 C-143.35000610351562,-15.864999771118164 -135.66700744628906,-18.98200035095215 -127.44400024414062,-21.618999481201172 C-108.19300079345703,-27.81100082397461 -85.96800231933594,-31.41699981689453 -62.268001556396484,-31.57699966430664 C-61.678001403808594,-31.5939998626709 -61.0880012512207,-31.5939998626709 -60.4900016784668,-31.5939998626709 C-41.23899841308594,-31.5939998626709 -22.923999786376953,-29.32699966430664 -6.360000133514404,-25.240999221801758 C6.7829999923706055,-22.013999938964844 18.83099937438965,-17.642000198364258 29.38800048828125,-12.343000411987305 C57.005001068115234,1.5160000324249268 74.37699890136719,21.660999298095703 74.37699890136719,44.0880012512207z M-62.268001556396484,-31.57699966430664 C-67.4749984741211,-24.635000228881836 -70.2969970703125,-16.049999237060547 -69.95999908447266,-7.170000076293945 C-69.13400268554688,14.23799991607666 -50.45600128173828,24.76099967956543 -49.57099914550781,25.240999221801758 M-127.44400024414062,-21.618999481201172 C-129.12100219726562,-17.05299949645996 -129.9290008544922,-12.157999992370605 -129.73500061035156,-7.170000076293945 C-128.90899658203125,14.23799991607666 -110.23100280761719,24.76099967956543 -109.3550033569336,25.240999221801758 M-6.360000133514404,-25.240999221801758 C-9.055999755859375,-19.69700050354004 -10.420000076293945,-13.505999565124512 -10.175999641418457,-7.170000076293945 C-9.359000205993652,14.23799991607666 9.319000244140625,24.76099967956543 10.204000473022461,25.240999221801758"></path></g></g></g><g class="com" style="display: none;"><g><path></path></g><g><path></path></g><g><path></path></g><g><path></path></g><g><path></path></g><g><path></path></g><g><path></path></g><g><path></path></g><g><path></path></g><g><path></path></g><g><path></path></g><g><path></path></g></g></g></svg>