<svg xmlns="http://www.w3.org/2000/svg" xmlns:xlink="http://www.w3.org/1999/xlink" viewBox="0 0 500 500" width="500" height="500" preserveAspectRatio="xMidYMid meet" style="width: 100%; height: 100%; transform: translate3d(0px, 0px, 0px); content-visibility: visible;"><defs><clipPath id="__lottie_element_2092"><rect width="500" height="500" x="0" y="0"></rect></clipPath></defs><g clip-path="url(#__lottie_element_2092)"><g transform="matrix(1,0,0,1,250,256.90899658203125)" opacity="1" style="display: block;"><g opacity="1" transform="matrix(1,0,0,1,216.60400390625,296.9570007324219)"><path stroke-linecap="round" stroke-linejoin="round" fill-opacity="0" stroke="inherit" stroke-opacity="1" stroke-width="11.97" d=" M-216.41400146484375,-260.35400390625 C-216.41400146484375,-260.35400390625 -216.41400146484375,-272.1400146484375 -216.41400146484375,-272.1400146484375 M-242.75399780273438,-249.4429931640625 C-242.75399780273438,-249.4429931640625 -256.86700439453125,-263.5570068359375 -256.86700439453125,-263.5570068359375 M-253.66400146484375,-223.10400390625 C-253.66400146484375,-223.10400390625 -265.45098876953125,-223.10400390625 -265.45098876953125,-223.10400390625 M-242.75399780273438,-196.76400756835938 C-242.75399780273438,-196.76400756835938 -256.864013671875,-182.6529998779297 -256.864013671875,-182.6529998779297 M-216.41400146484375,-185.85400390625 C-216.41400146484375,-185.85400390625 -216.41400146484375,-174.06700134277344 -216.41400146484375,-174.06700134277344 M-179.16400146484375,-223.10400390625 C-179.16400146484375,-223.10400390625 -167.3780059814453,-223.10400390625 -167.3780059814453,-223.10400390625 M-190.07400512695312,-249.4429931640625 C-190.07400512695312,-249.4429931640625 -175.96099853515625,-263.5570068359375 -175.96099853515625,-263.5570068359375 M-190.04400634765625,-196.4409942626953 C-190.04400634765625,-196.4409942626953 -175.93099975585938,-182.32699584960938 -175.93099975585938,-182.32699584960938 M-196.8300018310547,-223.08700561523438 C-196.8300018310547,-212.26199340820312 -205.60499572753906,-203.48699951171875 -216.42999267578125,-203.48699951171875 C-227.2550048828125,-203.48699951171875 -236.031005859375,-212.26199340820312 -236.031005859375,-223.08700561523438 C-236.031005859375,-233.91200256347656 -227.2550048828125,-242.68800354003906 -216.42999267578125,-242.68800354003906 C-205.60499572753906,-242.68800354003906 -196.8300018310547,-233.91200256347656 -196.8300018310547,-223.08700561523438z"></path></g><g opacity="1" transform="matrix(1,0,0,1,0,0)"><path stroke-linecap="round" stroke-linejoin="round" fill-opacity="0" stroke="inherit" stroke-opacity="1" stroke-width="11.97" d=" M121.96900177001953,-60.233001708984375 C121.96900177001953,-60.233001708984375 121.96900177001953,-33.909000396728516 121.96900177001953,-3.9089999198913574 C121.96900177001953,29.090999603271484 121.96900177001953,50.43600082397461 121.96900177001953,50.43600082397461 C121.96900177001953,107.19599914550781 75.95500183105469,153.2100067138672 19.19499969482422,153.2100067138672 C19.19499969482422,153.2100067138672 -19.19499969482422,153.2100067138672 -19.19499969482422,153.2100067138672 C-75.95500183105469,153.2100067138672 -121.96900177001953,107.19599914550781 -121.96900177001953,50.43600082397461 C-121.96900177001953,50.43600082397461 -121.96900177001953,27.090999603271484 -121.96900177001953,0.09099999815225601 C-121.96900177001953,-39.909000396728516 -121.96900177001953,-60.233001708984375 -121.96900177001953,-60.233001708984375 C-121.96900177001953,-92.56700134277344 -109.38400268554688,-121.96199798583984 -88.84100341796875,-143.78900146484375 C-75.38600158691406,-158.0850067138672 -52.06800079345703,-155.8000030517578 -41.82600021362305,-139.052001953125 C-41.82600021362305,-139.052001953125 -41.82600021362305,-139.052001953125 -41.82600021362305,-139.052001953125 C-34.98400115966797,-127.86299896240234 -36.369998931884766,-113.56700134277344 -45.07600021362305,-103.75800323486328 C-54.516998291015625,-93.12200164794922 -60.24800109863281,-79.1259994506836 -60.24800109863281,-63.7859992980957 C-60.24800109863281,-62.597999572753906 -60.2140007019043,-61.40999984741211 -60.14500045776367,-60.233001708984375 C-58.30500030517578,-28.618000030517578 -32.08300018310547,-3.5380001068115234 0,-3.5380001068115234 C32.08300018310547,-3.5380001068115234 58.30500030517578,-28.618000030517578 60.14500045776367,-60.233001708984375 C60.2140007019043,-61.40999984741211 60.24800109863281,-62.597999572753906 60.24800109863281,-63.7859992980957 C60.24800109863281,-79.1259994506836 54.516998291015625,-93.12200164794922 45.07600021362305,-103.75800323486328 C36.369998931884766,-113.56700134277344 34.98400115966797,-127.86299896240234 41.82600021362305,-139.052001953125 C41.82600021362305,-139.052001953125 41.82600021362305,-139.052001953125 41.82600021362305,-139.052001953125 C52.06800079345703,-155.8000030517578 75.38600158691406,-158.0850067138672 88.84100341796875,-143.78900146484375 C109.38400268554688,-121.96199798583984 121.96900177001953,-92.56700134277344 121.96900177001953,-60.233001708984375z"></path></g></g><g class="com" style="display: none;"><g><path></path></g><g><path></path></g><g><path></path></g><g><path></path></g><g><path></path></g><g><path></path></g><g><path></path></g><g><path></path></g><g><path></path></g><g><path></path></g><g><path></path></g><g><path></path></g></g></g></svg>