<svg xmlns="http://www.w3.org/2000/svg" xmlns:xlink="http://www.w3.org/1999/xlink" viewBox="0 0 500 500" width="500" height="500" preserveAspectRatio="xMidYMid meet" style="width: 100%; height: 100%; transform: translate3d(0px, 0px, 0px); content-visibility: visible;"><defs><clipPath id="__lottie_element_2103"><rect width="500" height="500" x="0" y="0"></rect></clipPath></defs><g clip-path="url(#__lottie_element_2103)"><g transform="matrix(0.9659258127212524,-0.258819043636322,0.258819043636322,0.9659258127212524,-54.00621032714844,84.30635070800781)" opacity="1" style="display: block;"><g opacity="1" transform="matrix(1,0,0,1,147.56500244140625,165.28799438476562)"><path stroke-linecap="round" stroke-linejoin="round" fill-opacity="0" stroke="inherit" stroke-opacity="1" stroke-width="11.97" d=" M185.11900329589844,172.6699981689453 C185.11900329589844,172.6699981689453 147.65499877929688,209.97900390625 147.65499877929688,209.97900390625 M185.2729949951172,98.3479995727539 C185.2729949951172,98.3479995727539 147.8090057373047,135.65699768066406 147.8090057373047,135.65699768066406 M185.427001953125,24.025999069213867 C185.427001953125,24.025999069213867 147.96299743652344,61.33399963378906 147.96299743652344,61.33399963378906 M175.87399291992188,-40.630001068115234 C175.87399291992188,-40.630001068115234 146.7429962158203,-11.619000434875488 146.7429962158203,-11.619000434875488 M140.3249969482422,-79.39700317382812 C140.3249969482422,-79.39700317382812 112.46099853515625,-51.64799880981445 112.46099853515625,-51.64799880981445 M71.89199829101562,-51.80699920654297 C71.89199829101562,-51.80699920654297 44.12200164794922,-79.7040023803711 44.12200164794922,-79.7040023803711 M40.4010009765625,-21.54800033569336 C40.4010009765625,-21.54800033569336 12.866000175476074,-49.196998596191406 12.866000175476074,-49.196998596191406"></path></g><g opacity="1" transform="matrix(1,0,0,1,171.83200073242188,221.30299377441406)"><path stroke-linecap="round" stroke-linejoin="round" fill-opacity="0" stroke="inherit" stroke-opacity="1" stroke-width="11.97" d=" M161.20799255371094,-55.23099899291992 C161.20799255371094,-55.23099899291992 160.6909942626953,194.42799377441406 160.6909942626953,194.42799377441406 C160.6909942626953,194.42799377441406 123.30500030517578,194.3509979248047 123.30500030517578,194.3509979248047 C123.30500030517578,194.3509979248047 123.8219985961914,-55.308998107910156 123.8219985961914,-55.308998107910156 C123.83100128173828,-59.54100036621094 123.35700225830078,-63.665000915527344 122.47599792480469,-67.63400268554688 C118.41000366210938,-85.94499969482422 105.35099792480469,-100.90499877929688 88.19400024414062,-107.66400146484375 C81.87699890136719,-110.1520004272461 75.01100158691406,-111.5270004272461 67.82099914550781,-111.54199981689453 C60.70600128173828,-111.55699920654297 53.90299987792969,-110.23300170898438 47.625999450683594,-107.8219985961914 C33.50299835205078,-102.39700317382812 22.09000015258789,-91.42500305175781 16.134000778198242,-77.56300354003906 C13.22700023651123,-70.7959976196289 11.604000091552734,-63.35300064086914 11.588000297546387,-55.54100036621094 C11.588000297546387,-55.54100036621094 11.536999702453613,-30.628000259399414 11.536999702453613,-30.628000259399414 C11.536999702453613,-30.628000259399414 -25.850000381469727,-30.704999923706055 -25.850000381469727,-30.704999923706055 C-25.850000381469727,-30.704999923706055 -25.79800033569336,-55.61899948120117 -25.79800033569336,-55.61899948120117 C-25.760000228881836,-73.83499908447266 -20.474000930786133,-90.83200073242188 -11.401000022888184,-105.21199798583984 C-3.5420000553131104,-117.66799926757812 7.198999881744385,-128.14199829101562 19.854999542236328,-135.718994140625 C33.90999984741211,-144.13400268554688 50.34700012207031,-148.9530029296875 67.89900207519531,-148.91700744628906 C85.51499938964844,-148.88099670410156 101.98899841308594,-143.93899536132812 116.05799865722656,-135.41200256347656 C131.29800415039062,-126.1760025024414 143.6739959716797,-112.69000244140625 151.60699462890625,-96.6449966430664 C157.78500366210938,-84.14900207519531 161.23899841308594,-70.08200073242188 161.20799255371094,-55.23099899291992z M11.538000106811523,-31.334999084472656 C11.538000106811523,-31.334999084472656 10.829000473022461,-30.628999710083008 10.829000473022461,-30.628999710083008"></path></g></g><g class="com" style="display: none;"><g><path></path></g><g><path></path></g><g><path></path></g><g><path></path></g><g><path></path></g><g><path></path></g><g><path></path></g><g><path></path></g><g><path></path></g><g><path></path></g><g><path></path></g><g><path></path></g></g></g></svg>