<svg xmlns="http://www.w3.org/2000/svg" xmlns:xlink="http://www.w3.org/1999/xlink" viewBox="0 0 500 500" width="500" height="500" preserveAspectRatio="xMidYMid meet" style="width: 100%; height: 100%; transform: translate3d(0px, 0px, 0px); content-visibility: visible;"><defs><clipPath id="__lottie_element_2114"><rect width="500" height="500" x="0" y="0"></rect></clipPath><symbol id="__lottie_element_2136"><g><g transform="matrix(1,0,0,1,0,0)" opacity="1" style="display: block;"><g opacity="1" transform="matrix(1,0,0,1,250,303.4259948730469)"><path fill="inherit" fill-opacity="1" d=" M-119.75,26.632999420166016 C-112.9000015258789,18.87299919128418 -110.9800033569336,22.26300048828125 -99.2699966430664,12.583000183105469 C-93.13999938964844,7.5229997634887695 -87.94000244140625,-1.2369999885559082 -79.18000030517578,-6.427000045776367 C-71.8499984741211,-10.777000427246094 -61.880001068115234,-11.32699966430664 -52.83000183105469,-14.817000389099121 C-44.720001220703125,-17.94700050354004 -37.02000045776367,-24.386999130249023 -27.610000610351562,-26.156999588012695 C-19.040000915527344,-27.777000427246094 -9.579999923706055,-24.73699951171875 0,-24.73699951171875 C9.579999923706055,-24.73699951171875 19.040000915527344,-27.777000427246094 27.610000610351562,-26.156999588012695 C37.02000045776367,-24.386999130249023 44.709999084472656,-17.94700050354004 52.83000183105469,-14.817000389099121 C61.880001068115234,-11.32699966430664 71.83999633789062,-10.777000427246094 79.18000030517578,-6.436999797821045 C87.94000244140625,-1.2369999885559082 93.13999938964844,7.5229997634887695 99.2699966430664,12.583000183105469 C110.98999786376953,22.26300048828125 112.9000015258789,18.87299919128418 119.75,26.632999420166016"></path></g></g></g></symbol><mask id="__lottie_element_2136_1" mask-type="alpha"><use xlink:href="#__lottie_element_2136"></use></mask></defs><g clip-path="url(#__lottie_element_2114)"><g transform="matrix(1,0,0,1,0,0)" opacity="1" style="display: block;"><g opacity="1" transform="matrix(1,0,0,1,250,303.4259948730469)"><path stroke-linecap="round" stroke-linejoin="round" fill-opacity="0" stroke="inherit" stroke-opacity="1" stroke-width="11.97" d=" M-119.75,26.632999420166016 C-112.9000015258789,18.87299919128418 -110.9800033569336,22.26300048828125 -99.2699966430664,12.583000183105469 C-93.13999938964844,7.5229997634887695 -87.94000244140625,-1.2369999885559082 -79.18000030517578,-6.427000045776367 C-71.8499984741211,-10.777000427246094 -61.880001068115234,-11.32699966430664 -52.83000183105469,-14.817000389099121 C-44.720001220703125,-17.94700050354004 -37.02000045776367,-24.386999130249023 -27.610000610351562,-26.156999588012695 C-19.040000915527344,-27.777000427246094 -9.579999923706055,-24.73699951171875 0,-24.73699951171875 C9.579999923706055,-24.73699951171875 19.040000915527344,-27.777000427246094 27.610000610351562,-26.156999588012695 C37.02000045776367,-24.386999130249023 44.709999084472656,-17.94700050354004 52.83000183105469,-14.817000389099121 C61.880001068115234,-11.32699966430664 71.83999633789062,-10.777000427246094 79.18000030517578,-6.436999797821045 C87.94000244140625,-1.2369999885559082 93.13999938964844,7.5229997634887695 99.2699966430664,12.583000183105469 C110.98999786376953,22.26300048828125 112.9000015258789,18.87299919128418 119.75,26.632999420166016"></path></g><g opacity="1" transform="matrix(1,0,0,1,0,0)"><g opacity="1" transform="matrix(1,0,0,1,250,390.0450134277344)"><path stroke-linecap="round" stroke-linejoin="round" fill-opacity="0" stroke="inherit" stroke-opacity="1" stroke-width="11.97" d=" M186.80599975585938,-59.98500061035156 C186.80599975585938,-59.98500061035156 106.74600219726562,-19.954999923706055 106.74600219726562,-19.954999923706055 C106.74600219726562,-19.954999923706055 -106.74600219726562,-19.954999923706055 -106.74600219726562,-19.954999923706055 C-106.74600219726562,-19.954999923706055 -186.80599975585938,-59.98500061035156 -186.80599975585938,-59.98500061035156 C-186.80599975585938,-59.98500061035156 186.80599975585938,-59.98500061035156 186.80599975585938,-59.98500061035156z M106.74600219726562,-19.954999923706055 C106.74600219726562,-19.954999923706055 85.68800354003906,19.954999923706055 85.68800354003906,19.954999923706055 C85.68800354003906,19.954999923706055 -85.68800354003906,19.954999923706055 -85.68800354003906,19.954999923706055 C-85.68800354003906,19.954999923706055 -106.74600219726562,-19.954999923706055 -106.74600219726562,-19.954999923706055"></path></g></g></g><g mask="url(#__lottie_element_2136_1)" style="display: block;"><g transform="matrix(1,0,0,1,0,0)" opacity="1"><g opacity="1" transform="matrix(1,0,0,1,183.2989959716797,301.37298583984375)"><path stroke-linecap="round" stroke-linejoin="round" fill-opacity="0" stroke="inherit" stroke-opacity="1" stroke-width="11.97" d=" M53.145999908447266,-2.802999973297119 C53.145999908447266,-2.802999973297119 39.803001403808594,10.539999961853027 39.803001403808594,10.539999961853027 M81.38800048828125,-2.802999973297119 C81.38800048828125,-2.802999973297119 94.73100280761719,10.539999961853027 94.73100280761719,10.539999961853027 M139.5469970703125,-6.671999931335449 C139.5469970703125,-6.671999931335449 126.2040023803711,6.671999931335449 126.2040023803711,6.671999931335449 M-6.671999931335449,-6.671999931335449 C-6.671999931335449,-6.671999931335449 6.671999931335449,6.671999931335449 6.671999931335449,6.671999931335449"></path></g><g opacity="1" transform="matrix(1,0,0,1,-5.201000213623047,301.37298583984375)"><path stroke-linecap="round" stroke-linejoin="round" fill-opacity="0" stroke="inherit" stroke-opacity="1" stroke-width="11.97" d=" M53.145999908447266,-2.802999973297119 C53.145999908447266,-2.802999973297119 39.803001403808594,10.539999961853027 39.803001403808594,10.539999961853027 M81.38800048828125,-2.802999973297119 C81.38800048828125,-2.802999973297119 94.73100280761719,10.539999961853027 94.73100280761719,10.539999961853027 M139.5469970703125,-6.671999931335449 C139.5469970703125,-6.671999931335449 126.2040023803711,6.671999931335449 126.2040023803711,6.671999931335449 M-6.671999931335449,-6.671999931335449 C-6.671999931335449,-6.671999931335449 6.671999931335449,6.671999931335449 6.671999931335449,6.671999931335449"></path></g></g></g><g transform="matrix(1,0,0,1,282.26300048828125,228.54598999023438)" opacity="1" style="display: block;"><g opacity="1" transform="matrix(1,0,0,1,0,0)"><path stroke-linecap="round" stroke-linejoin="round" fill-opacity="0" stroke="inherit" stroke-opacity="1" stroke-width="11.97" d=" M12.142999649047852,12.142000198364258 C3.4049999713897705,20.8799991607666 -9.093000411987305,23.541000366210938 -20.125,20.131000518798828 C-23.542999267578125,9.090999603271484 -20.884000778198242,-3.4079999923706055 -12.145999908447266,-12.145999908447266 C-3.4079999923706055,-20.884000778198242 9.090999603271484,-23.542999267578125 20.131000518798828,-20.125 C23.541000366210938,-9.093000411987305 20.881000518798828,3.4040000438690186 12.142999649047852,12.142000198364258z"></path></g></g><g transform="matrix(1,0,0,1,222.49899291992188,233.78500366210938)" opacity="1" style="display: block;"><g opacity="1" transform="matrix(1,0,0,1,0,0)"><path stroke-linecap="round" stroke-linejoin="round" fill-opacity="0" stroke="inherit" stroke-opacity="1" stroke-width="11.97" d=" M-9.192999839782715,9.192999839782715 C-2.5769999027252197,15.809000015258789 6.885000228881836,17.822999954223633 15.237000465393066,15.241000175476074 C17.825000762939453,6.881999969482422 15.810999870300293,-2.5799999237060547 9.194999694824219,-9.196000099182129 C2.5789999961853027,-15.812000274658203 -6.881999969482422,-17.825000762939453 -15.241000175476074,-15.237000465393066 C-17.822999954223633,-6.885000228881836 -15.809000015258789,2.5769999027252197 -9.192999839782715,9.192999839782715z"></path></g></g><g transform="matrix(1,0,0,1,249.72500610351562,240)" opacity="1" style="display: block;"><g opacity="1" transform="matrix(1,0,0,1,0,0)"><path stroke-linecap="round" stroke-linejoin="round" fill-opacity="0" stroke="inherit" stroke-opacity="1" stroke-width="11.97" d=" M3.1410000324249268,-147.5709991455078 C3.1589999198913574,-147.177001953125 3.1679999828338623,-146.76800537109375 3.1679999828338623,-146.3419952392578 C3.1679999828338623,-146.3419952392578 3.1679999828338623,-146.7760009765625 3.1679999828338623,-146.7760009765625 C3.1679999828338623,-135.99899291992188 -2.8320000171661377,-135.99899291992188 -2.8320000171661377,-125.22200012207031 C-2.8320000171661377,-114.44400024414062 3.1679999828338623,-114.44400024414062 3.1679999828338623,-103.66600036621094 C3.1679999828338623,-92.88800048828125 -2.8320000171661377,-92.88700103759766 -2.8320000171661377,-82.10900115966797"></path></g></g><g transform="matrix(1,0,0,1,299.7250061035156,258)" opacity="1" style="display: block;"><g opacity="1" transform="matrix(1,0,0,1,0,0)"><path stroke-linecap="round" stroke-linejoin="round" fill-opacity="0" stroke="inherit" stroke-opacity="1" stroke-width="11.97" d=" M3.1410000324249268,-147.5709991455078 C3.1589999198913574,-147.177001953125 3.1679999828338623,-146.76800537109375 3.1679999828338623,-146.3419952392578 C3.1679999828338623,-146.3419952392578 3.1679999828338623,-146.7760009765625 3.1679999828338623,-146.7760009765625 C3.1679999828338623,-135.99899291992188 -2.8320000171661377,-135.99899291992188 -2.8320000171661377,-125.22200012207031 C-2.8320000171661377,-114.44400024414062 3.1679999828338623,-114.44400024414062 3.1679999828338623,-103.66600036621094 C3.1679999828338623,-92.88800048828125 -2.8320000171661377,-92.88700103759766 -2.8320000171661377,-82.10900115966797"></path></g></g><g transform="matrix(1,0,0,1,198.72500610351562,258)" opacity="1" style="display: block;"><g opacity="1" transform="matrix(1,0,0,1,0,0)"><path stroke-linecap="round" stroke-linejoin="round" fill-opacity="0" stroke="inherit" stroke-opacity="1" stroke-width="11.97" d=" M3.1410000324249268,-147.5709991455078 C3.1589999198913574,-147.177001953125 3.1679999828338623,-146.76800537109375 3.1679999828338623,-146.3419952392578 C3.1679999828338623,-146.3419952392578 3.1679999828338623,-146.7760009765625 3.1679999828338623,-146.7760009765625 C3.1679999828338623,-135.99899291992188 -2.8320000171661377,-135.99899291992188 -2.8320000171661377,-125.22200012207031 C-2.8320000171661377,-114.44400024414062 3.1679999828338623,-114.44400024414062 3.1679999828338623,-103.66600036621094 C3.1679999828338623,-92.88800048828125 -2.8320000171661377,-92.88700103759766 -2.8320000171661377,-82.10900115966797"></path></g></g><g class="com" style="display: none;"><g><path></path></g><g><path></path></g><g><path></path></g><g><path></path></g><g><path></path></g><g><path></path></g><g><path></path></g><g><path></path></g><g><path></path></g><g><path></path></g><g><path></path></g><g><path></path></g></g></g></svg>