<svg xmlns="http://www.w3.org/2000/svg" xmlns:xlink="http://www.w3.org/1999/xlink" viewBox="0 0 500 500" width="500" height="500" preserveAspectRatio="xMidYMid meet" style="width: 100%; height: 100%; transform: translate3d(0px, 0px, 0px); content-visibility: visible;"><defs><clipPath id="__lottie_element_2146"><rect width="500" height="500" x="0" y="0"></rect></clipPath></defs><g clip-path="url(#__lottie_element_2146)"><g transform="matrix(1,0,0,1,250,103.30499267578125)" opacity="1" style="display: block;"><g opacity="1" transform="matrix(1,0,0,1,0,0)"><path stroke-linecap="round" stroke-linejoin="round" fill-opacity="0" stroke="inherit" stroke-opacity="1" stroke-width="12" d=" M-80.05999755859375,39.94499969482422 C-80.05999755859375,17.844999313354492 -62.13999938964844,-0.08500000089406967 -40.029998779296875,-0.08500000089406967 C-40.029998779296875,-0.08500000089406967 -21.16699981689453,-0.08500000089406967 -21.16699981689453,-0.08500000089406967 C0.6399999856948853,-0.08500000089406967 18.527000427246094,-17.606000900268555 18.687999725341797,-39.4119987487793 C18.68899917602539,-39.5890007019043 18.690000534057617,-39.766998291015625 18.690000534057617,-39.94499969482422 C18.690000534057617,-39.94499969482422 35.03300094604492,-28.718000411987305 39.5,-10.413999557495117 C40.99399948120117,-4.293000221252441 46.630001068115234,-0.08500000089406967 52.930999755859375,-0.08500000089406967 C52.930999755859375,-0.08500000089406967 52.930999755859375,-0.08500000089406967 52.930999755859375,-0.08500000089406967 C67.91400146484375,-0.08500000089406967 80.05999755859375,12.060999870300293 80.05999755859375,27.04400062561035 C80.05999755859375,27.04400062561035 80.05999755859375,39.94499969482422 80.05999755859375,39.94499969482422"></path></g></g><g transform="matrix(1,0,0,1,0,0)" opacity="1" style="display: block;"><g opacity="1" transform="matrix(1,0,0,1,0,0)"><g opacity="1" transform="matrix(1,0,0,1,232.66000366210938,369.67999267578125)"><path stroke-linecap="round" stroke-linejoin="round" fill-opacity="0" stroke="inherit" stroke-opacity="1" stroke-width="12" d=" M-4.130000114440918,27.100000381469727 C2.4600000381469727,9.380000114440918 3.7699999809265137,-9.34000015258789 4.130000114440918,-27.100000381469727"></path></g><g opacity="1" transform="matrix(1,0,0,1,267.3399963378906,369.67999267578125)"><path stroke-linecap="round" stroke-linejoin="round" fill-opacity="0" stroke="inherit" stroke-opacity="1" stroke-width="12" d=" M-4.130000114440918,-27.100000381469727 C-3.7699999809265137,-9.34000015258789 -2.4600000381469727,9.380000114440918 4.130000114440918,27.100000381469727"></path></g></g><g opacity="1" transform="matrix(1,0,0,1,342.7449951171875,263.3399963378906)"><path stroke-linecap="round" stroke-linejoin="round" fill-opacity="0" stroke="inherit" stroke-opacity="1" stroke-width="12" d=" M-22.575000762939453,-40.029998779296875 C-22.575000762939453,-40.029998779296875 -1.6549999713897705,-40.029998779296875 -1.6549999713897705,-40.029998779296875 C14.361000061035156,-40.029998779296875 27.344999313354492,-27.04599952697754 27.344999313354492,-11.029999732971191 C27.344999313354492,-11.029999732971191 27.344999313354492,11.029999732971191 27.344999313354492,11.029999732971191 C27.344999313354492,27.04599952697754 14.361000061035156,40.029998779296875 -1.6549999713897705,40.029998779296875 C-1.6549999713897705,40.029998779296875 -27.344999313354492,40.029998779296875 -27.344999313354492,40.029998779296875"></path></g><g opacity="1" transform="matrix(1,0,0,1,250,416.7909851074219)"><path stroke-linecap="round" stroke-linejoin="round" fill-opacity="0" stroke="inherit" stroke-opacity="1" stroke-width="12" d=" M80.05999755859375,20.014999389648438 C80.05999755859375,20.014999389648438 -80.05999755859375,20.014999389648438 -80.05999755859375,20.014999389648438 C-80.05999755859375,20.014999389648438 -80.05999755859375,20.014999389648438 -80.05999755859375,20.014999389648438 C-80.05999755859375,-2.0929999351501465 -62.13800048828125,-20.014999389648438 -40.029998779296875,-20.014999389648438 C-40.029998779296875,-20.014999389648438 40.029998779296875,-20.014999389648438 40.029998779296875,-20.014999389648438 C62.13800048828125,-20.014999389648438 80.05999755859375,-2.0929999351501465 80.05999755859375,20.014999389648438 C80.05999755859375,20.014999389648438 80.05999755859375,20.014999389648438 80.05999755859375,20.014999389648438z"></path></g><g opacity="1" transform="matrix(1,0,0,1,250,243.5050048828125)"><path stroke-linecap="round" stroke-linejoin="round" fill-opacity="0" stroke="inherit" stroke-opacity="1" stroke-width="12" d=" M0,100.2509994506836 C0,100.2509994506836 0,100.2509994506836 0,100.2509994506836 C-42.994998931884766,100.2509994506836 -76.71199798583984,63.3380012512207 -72.8290023803711,20.518999099731445 C-72.8290023803711,20.518999099731445 -71.40899658203125,4.864999771118164 -71.40899658203125,4.864999771118164 C-68.3030014038086,-29.38599967956543 -70.97599792480469,-63.91699981689453 -79.31700134277344,-97.28199768066406 C-79.31700134277344,-97.28199768066406 -80.05999755859375,-100.2509994506836 -80.05999755859375,-100.2509994506836 C-80.05999755859375,-100.2509994506836 80.05999755859375,-100.2509994506836 80.05999755859375,-100.2509994506836 C80.05999755859375,-100.2509994506836 79.31700134277344,-97.28199768066406 79.31700134277344,-97.28199768066406 C70.97599792480469,-63.91699981689453 68.3030014038086,-29.38599967956543 71.40899658203125,4.864999771118164 C71.40899658203125,4.864999771118164 72.8290023803711,20.518999099731445 72.8290023803711,20.518999099731445 C76.71199798583984,63.3380012512207 42.994998931884766,100.2509994506836 0,100.2509994506836z"></path></g></g><g transform="matrix(1,0,0,1,0,0)" opacity="1" style="display: block;"><g opacity="1" transform="matrix(1,0,0,1,250,196.6300048828125)"><path stroke-linecap="round" stroke-linejoin="round" fill-opacity="0" stroke="inherit" stroke-opacity="1" stroke-width="12" d=" M71.0999984741211,0 C71.0999984741211,0 -71.0999984741211,0 -71.0999984741211,0"></path></g></g><g style="display: none;"><path></path></g></g></svg>