<svg xmlns="http://www.w3.org/2000/svg" xmlns:xlink="http://www.w3.org/1999/xlink" viewBox="0 0 500 500" width="500" height="500" preserveAspectRatio="xMidYMid meet" style="width: 100%; height: 100%; transform: translate3d(0px, 0px, 0px); content-visibility: visible;"><defs><clipPath id="__lottie_element_2163"><rect width="500" height="500" x="0" y="0"></rect></clipPath><clipPath id="__lottie_element_2170"><path d="M0,0 L500,0 L500,500 L0,500z"></path></clipPath><symbol id="__lottie_element_2191"><g><g style="display: none;"><g><path></path></g></g></g></symbol><filter id="__lottie_element_2197" filterUnits="objectBoundingBox" x="0%" y="0%" width="100%" height="100%"><feComponentTransfer in="SourceGraphic"><feFuncA type="table" tableValues="1.0 0.0"></feFuncA></feComponentTransfer></filter><mask id="__lottie_element_2191_2" mask-type="alpha"><g filter="url(#__lottie_element_2197)"><rect width="500" height="500" x="0" y="0" fill="#ffffff" opacity="0"></rect><use xlink:href="#__lottie_element_2191"></use></g></mask><symbol id="__lottie_element_2198"><g><g transform="matrix(1,0,0,1,0,0)" opacity="1" style="display: block;"><g opacity="1" transform="matrix(1,0,0,1,290.0299987792969,209.14599609375)"><path fill="inherit" fill-opacity="1" d=" M120.08999633789062,-1.1749999523162842 C120.08999633789062,65.1449966430664 66.31999969482422,118.91500091552734 0,118.91500091552734 C-66.31999969482422,118.91500091552734 -120.08999633789062,65.1449966430664 -120.08999633789062,-1.1749999523162842 C-120.08999633789062,-59.375 -78.68000030517578,-107.91500091552734 -23.709999084472656,-118.91500091552734 C-25.940000534057617,-113.46499633789062 -27.170000076293945,-107.50499725341797 -27.170000076293945,-101.25499725341797 C-27.170000076293945,-75.45500183105469 -6.260000228881836,-54.54499816894531 19.530000686645508,-54.54499816894531 C30.579999923706055,-54.54499816894531 40.7400016784668,-58.3849983215332 48.72999954223633,-64.80500030517578 C51.45000076293945,-51.345001220703125 63.349998474121094,-41.20500183105469 77.62000274658203,-41.20500183105469 C89.97000122070312,-41.20500183105469 100.55999755859375,-48.80500030517578 104.94000244140625,-59.584999084472656 C114.58999633789062,-42.29499816894531 120.08999633789062,-22.375 120.08999633789062,-1.1749999523162842z"></path></g></g></g></symbol><filter id="__lottie_element_2204" filterUnits="objectBoundingBox" x="0%" y="0%" width="100%" height="100%"><feComponentTransfer in="SourceGraphic"><feFuncA type="table" tableValues="1.0 0.0"></feFuncA></feComponentTransfer></filter><mask id="__lottie_element_2198_2" mask-type="alpha"><g filter="url(#__lottie_element_2204)"><rect width="500" height="500" x="0" y="0" fill="#ffffff" opacity="0"></rect><use xlink:href="#__lottie_element_2198"></use></g></mask></defs><g clip-path="url(#__lottie_element_2163)"><g mask="url(#__lottie_element_2198_2)" style="display: block;"><g transform="matrix(1,0,0,1,0,0)" opacity="1"><g opacity="1" transform="matrix(1,0,0,1,176.81399536132812,270.1340026855469)"><path stroke-linecap="round" stroke-linejoin="round" fill-opacity="0" stroke="inherit" stroke-opacity="1" stroke-width="12" d=" M20.134000778198242,0 C20.134000778198242,11.119999885559082 11.119999885559082,20.134000778198242 0,20.134000778198242 C-11.119999885559082,20.134000778198242 -20.134000778198242,11.119999885559082 -20.134000778198242,0 C-20.134000778198242,-11.119999885559082 -11.119999885559082,-20.134000778198242 0,-20.134000778198242 C11.119999885559082,-20.134000778198242 20.134000778198242,-11.119999885559082 20.134000778198242,0z"></path></g><g opacity="1" transform="matrix(1,0,0,1,209.66700744628906,290.3330078125)"><path stroke-linecap="round" stroke-linejoin="round" fill-opacity="0" stroke="inherit" stroke-opacity="1" stroke-width="12" d=" M119.78600311279297,0 C119.78600311279297,66.15599822998047 66.15599822998047,119.78600311279297 0,119.78600311279297 C-66.15599822998047,119.78600311279297 -119.78600311279297,66.15599822998047 -119.78600311279297,0 C-119.78600311279297,-57.63600158691406 -79.08100128173828,-105.76399993896484 -24.850000381469727,-117.20500183105469 C-16.83300018310547,-118.89600372314453 -8.520000457763672,-119.78600311279297 0,-119.78600311279297 C24.23900032043457,-119.78600311279297 46.79600143432617,-112.58599853515625 65.6500015258789,-100.20899963378906 C81.54900360107422,-89.77200317382812 94.81600189208984,-75.65299987792969 104.23600006103516,-59.06399917602539 C114.13400268554688,-41.63399887084961 119.78600311279297,-21.476999282836914 119.78600311279297,0z"></path></g><g opacity="1" transform="matrix(1,0,0,1,183.28399658203125,356.7460021972656)"><path stroke-linecap="round" stroke-linejoin="round" fill-opacity="0" stroke="inherit" stroke-opacity="1" stroke-width="12" d=" M13.331000328063965,0 C13.331000328063965,7.361999988555908 7.361999988555908,13.331000328063965 0,13.331000328063965 C-7.361999988555908,13.331000328063965 -13.331000328063965,7.361999988555908 -13.331000328063965,0 C-13.331000328063965,-7.361999988555908 -7.361999988555908,-13.331000328063965 0,-13.331000328063965 C7.361999988555908,-13.331000328063965 13.331000328063965,-7.361999988555908 13.331000328063965,0z"></path></g><g opacity="1" transform="matrix(1,0,0,1,276.68701171875,290.3330078125)"><path stroke-linecap="round" stroke-linejoin="round" fill-opacity="0" stroke="inherit" stroke-opacity="1" stroke-width="12" d=" M13.331000328063965,0 C13.331000328063965,7.361999988555908 7.361999988555908,13.331000328063965 0,13.331000328063965 C-7.361999988555908,13.331000328063965 -13.331000328063965,7.361999988555908 -13.331000328063965,0 C-13.331000328063965,-7.361999988555908 -7.361999988555908,-13.331000328063965 0,-13.331000328063965 C7.361999988555908,-13.331000328063965 13.331000328063965,-7.361999988555908 13.331000328063965,0z"></path></g><g opacity="1" transform="matrix(1,0,0,1,143.25399780273438,316.71600341796875)"><path stroke-linecap="round" stroke-linejoin="round" fill-opacity="0" stroke="inherit" stroke-opacity="1" stroke-width="18" d=" M0,0 C0,0 0,0 0,0"></path></g><g opacity="1" transform="matrix(1,0,0,1,250,356.7460021972656)"><path stroke-linecap="round" stroke-linejoin="round" fill-opacity="0" stroke="inherit" stroke-opacity="1" stroke-width="18" d=" M0,0 C0,0 0,0 0,0"></path></g><g opacity="1" transform="matrix(1,0,0,1,243.03700256347656,223.31300354003906)"><path stroke-linecap="round" stroke-linejoin="round" fill-opacity="0" stroke="inherit" stroke-opacity="1" stroke-width="18" d=" M0,0 C0,0 0,0 0,0"></path></g></g></g><g mask="url(#__lottie_element_2191_2)" style="display: block;"><g transform="matrix(1,0,0,1,0,0)" opacity="1"><g opacity="1" transform="matrix(1,0,0,1,290.0299987792969,209.14599609375)"><path stroke-linecap="round" stroke-linejoin="round" fill-opacity="0" stroke="inherit" stroke-opacity="0" stroke-width="12" d=" M120.08999633789062,-1.1749999523162842 C120.08999633789062,65.1449966430664 66.31999969482422,118.91500091552734 0,118.91500091552734 C-66.31999969482422,118.91500091552734 -120.08999633789062,65.1449966430664 -120.08999633789062,-1.1749999523162842 C-120.08999633789062,-59.375 -78.68000030517578,-107.91500091552734 -23.709999084472656,-118.91500091552734 C-25.940000534057617,-113.46499633789062 -27.170000076293945,-107.50499725341797 -27.170000076293945,-101.25499725341797 C-27.170000076293945,-75.45500183105469 -6.260000228881836,-54.54499816894531 19.530000686645508,-54.54499816894531 C30.579999923706055,-54.54499816894531 40.7400016784668,-58.3849983215332 48.72999954223633,-64.80500030517578 C51.45000076293945,-51.345001220703125 63.349998474121094,-41.20500183105469 77.62000274658203,-41.20500183105469 C89.97000122070312,-41.20500183105469 100.55999755859375,-48.80500030517578 104.94000244140625,-59.584999084472656 C114.58999633789062,-42.29499816894531 120.08999633789062,-22.375 120.08999633789062,-1.1749999523162842z"></path><path stroke-linecap="round" stroke-linejoin="round" fill-opacity="0" stroke="inherit" stroke-opacity="1" stroke-width="12" d=" M120.08999633789062,-1.1749999523162842 C120.08999633789062,65.1449966430664 66.31999969482422,118.91500091552734 0,118.91500091552734 C-66.31999969482422,118.91500091552734 -120.08999633789062,65.1449966430664 -120.08999633789062,-1.1749999523162842 C-120.08999633789062,-59.375 -78.68000030517578,-107.91500091552734 -23.709999084472656,-118.91500091552734 C-25.940000534057617,-113.46499633789062 -27.170000076293945,-107.50499725341797 -27.170000076293945,-101.25499725341797 C-27.170000076293945,-75.45500183105469 -6.260000228881836,-54.54499816894531 19.530000686645508,-54.54499816894531 C30.579999923706055,-54.54499816894531 40.7400016784668,-58.3849983215332 48.72999954223633,-64.80500030517578 C51.45000076293945,-51.345001220703125 63.349998474121094,-41.20500183105469 77.62000274658203,-41.20500183105469 C89.97000122070312,-41.20500183105469 100.55999755859375,-48.80500030517578 104.94000244140625,-59.584999084472656 C114.58999633789062,-42.29499816894531 120.08999633789062,-22.375 120.08999633789062,-1.1749999523162842z"></path></g><g opacity="1" transform="matrix(1,0,0,1,239.10000610351562,180.83999633789062)"><path stroke-linecap="round" stroke-linejoin="round" fill-opacity="0" stroke="inherit" stroke-opacity="1" stroke-width="12" d=" M15.786999702453613,0 C15.786999702453613,8.718999862670898 8.718999862670898,15.786999702453613 0,15.786999702453613 C-8.718999862670898,15.786999702453613 -15.786999702453613,8.718999862670898 -15.786999702453613,0 C-15.786999702453613,-8.718999862670898 -8.718999862670898,-15.786999702453613 0,-15.786999702453613 C8.718999862670898,-15.786999702453613 15.786999702453613,-8.718999862670898 15.786999702453613,0z"></path></g><g opacity="1" transform="matrix(1,0,0,1,356.76800537109375,209.97000122070312)"><path stroke-linecap="round" stroke-linejoin="round" fill-opacity="0" stroke="inherit" stroke-opacity="1" stroke-width="12" d=" M13.331000328063965,0 C13.331000328063965,7.361999988555908 7.361999988555908,13.331000328063965 0,13.331000328063965 C-7.361999988555908,13.331000328063965 -13.331000328063965,7.361999988555908 -13.331000328063965,0 C-13.331000328063965,-7.361999988555908 -7.361999988555908,-13.331000328063965 0,-13.331000328063965 C7.361999988555908,-13.331000328063965 13.331000328063965,-7.361999988555908 13.331000328063965,0z"></path></g><g opacity="1" transform="matrix(1,0,0,1,276.68701171875,276.68701171875)"><path stroke-linecap="round" stroke-linejoin="round" fill-opacity="0" stroke="inherit" stroke-opacity="1" stroke-width="12" d=" M13.331000328063965,0 C13.331000328063965,7.361999988555908 7.361999988555908,13.331000328063965 0,13.331000328063965 C-7.361999988555908,13.331000328063965 -13.331000328063965,7.361999988555908 -13.331000328063965,0 C-13.331000328063965,-7.361999988555908 -7.361999988555908,-13.331000328063965 0,-13.331000328063965 C7.361999988555908,-13.331000328063965 13.331000328063965,-7.361999988555908 13.331000328063965,0z"></path></g><g opacity="1" transform="matrix(1,0,0,1,236.65699768066406,236.65699768066406)"><path stroke-linecap="round" stroke-linejoin="round" fill-opacity="0" stroke="inherit" stroke-opacity="1" stroke-width="18" d=" M0,0 C0,0 0,0 0,0"></path></g><g opacity="1" transform="matrix(1,0,0,1,303.37298583984375,209.97000122070312)"><path stroke-linecap="round" stroke-linejoin="round" fill-opacity="0" stroke="inherit" stroke-opacity="1" stroke-width="18" d=" M0,0 C0,0 0,0 0,0"></path></g><g opacity="1" transform="matrix(1,0,0,1,344.32501220703125,263.62200927734375)"><path stroke-linecap="round" stroke-linejoin="round" fill-opacity="0" stroke="inherit" stroke-opacity="1" stroke-width="18" d=" M0,0 C0,0 0,0 0,0"></path></g></g></g><g style="display: none;"><g><path stroke-linecap="round" stroke-linejoin="round" fill-opacity="0"></path></g><g><path stroke-linecap="round" stroke-linejoin="round" fill-opacity="0"></path><path stroke-linecap="round" stroke-linejoin="round" fill-opacity="0"></path></g><g><path stroke-linecap="round" stroke-linejoin="round" fill-opacity="0"></path></g><g><path stroke-linecap="round" stroke-linejoin="round" fill-opacity="0"></path></g><g><path stroke-linecap="round" stroke-linejoin="round" fill-opacity="0"></path></g><g><path stroke-linecap="round" stroke-linejoin="round" fill-opacity="0"></path></g><g><path stroke-linecap="round" stroke-linejoin="round" fill-opacity="0"></path></g></g><g clip-path="url(#__lottie_element_2170)" style="display: none;"><g style="display: none;"><g><path stroke-linecap="round" stroke-linejoin="round" fill-opacity="0"></path></g></g><g style="display: none;"><g><path stroke-linecap="round" stroke-linejoin="round" fill-opacity="0"></path></g></g><g style="display: none;"><g><path stroke-linecap="round" stroke-linejoin="round" fill-opacity="0"></path></g></g><g style="display: none;"><g><path stroke-linecap="round" stroke-linejoin="round" fill-opacity="0"></path></g></g><g style="display: none;"><g><path stroke-linecap="round" stroke-linejoin="round" fill-opacity="0"></path></g></g></g><g style="display: none;"><path></path></g></g></svg>