<svg xmlns="http://www.w3.org/2000/svg" xmlns:xlink="http://www.w3.org/1999/xlink" viewBox="0 0 500 500" width="500" height="500" preserveAspectRatio="xMidYMid meet" style="width: 100%; height: 100%; transform: translate3d(0px, 0px, 0px); content-visibility: visible;"><defs><clipPath id="__lottie_element_2206"><rect width="500" height="500" x="0" y="0"></rect></clipPath><clipPath id="__lottie_element_2213"><path d="M0,0 L500,0 L500,500 L0,500z"></path></clipPath><clipPath id="__lottie_element_2217"><path d="M0,0 L500,0 L500,500 L0,500z"></path></clipPath><clipPath id="__lottie_element_2236"><path d="M0,0 L500,0 L500,500 L0,500z"></path></clipPath><clipPath id="__lottie_element_2255"><path d="M0,0 L500,0 L500,500 L0,500z"></path></clipPath><clipPath id="__lottie_element_2274"><path d="M0,0 L500,0 L500,500 L0,500z"></path></clipPath><clipPath id="__lottie_element_2297"><path fill="#ffffff" clip-rule="nonzero" d=" M462.6719970703125,123 C462.6719970703125,123 159,123 159,123 C159,123 159,413.64801025390625 159,413.64801025390625 C159,413.64801025390625 462.6719970703125,413.64801025390625 462.6719970703125,413.64801025390625 C462.6719970703125,413.64801025390625 462.6719970703125,250.14500427246094 462.6719970703125,250.14500427246094 C462.6719970703125,250.14500427246094 462.6719970703125,123 462.6719970703125,123" fill-opacity="1"></path></clipPath><symbol id="__lottie_element_2301"><g><g clip-path="url(#__lottie_element_2302)" transform="matrix(1,0,0,1,0,0)" opacity="1" style="display: block;"><g clip-path="url(#__lottie_element_2309)" transform="matrix(1,0,0,1,0,0)" opacity="1" style="display: block;"><path fill="inherit" fill-opacity="1" d=" M405.91,306.52 C389.44,363.16 330.16,395.73 273.53,379.26 C216.89,362.79 184.32,303.51 200.79,246.87 C215.24,197.17 262.66,166 312.34,170.26 C309.08,174.36 306.55,179.14 305,184.48 C298.59,206.51 311.26,229.56 333.28,235.97 C342.72,238.71 352.35,237.96 360.77,234.46 C359.75,246.63 367.39,258.24 379.58,261.79 C390.13,264.85 401.06,260.99 407.48,252.87 C411.42,270.04 411.17,288.42 405.91,306.52z"></path><g opacity="1" transform="matrix(1,0,0,1,303.3479919433594,276.70098876953125)"></g></g><g style="display: none;"><path></path><g></g></g></g></g></symbol><clipPath id="__lottie_element_2302"><path d="M0,0 L500,0 L500,500 L0,500z"></path></clipPath><clipPath id="__lottie_element_2309"><path fill="#ffffff" clip-rule="nonzero" d=" M462.6719970703125,123 C462.6719970703125,123 159,123 159,123 C159,123 159,413.64801025390625 159,413.64801025390625 C159,413.64801025390625 462.6719970703125,413.64801025390625 462.6719970703125,413.64801025390625 C462.6719970703125,413.64801025390625 462.6719970703125,250.14500427246094 462.6719970703125,250.14500427246094 C462.6719970703125,250.14500427246094 462.6719970703125,123 462.6719970703125,123" fill-opacity="1"></path></clipPath><clipPath id="__lottie_element_2312"><path d="M0,0 L500,0 L500,500 L0,500z"></path></clipPath><symbol id="__lottie_element_2319"><g><g transform="matrix(1,0,0,1,0,0)" opacity="1" style="display: block;"><g opacity="1" transform="matrix(1,0,0,1,0,0)"><g opacity="1" transform="matrix(1,0,0,1,192.98800659179688,223.31300354003906)"><path fill="inherit" fill-opacity="1" d=" M87.26399993896484,0 C17.011999130249023,0.18700000643730164 -33.755001068115234,0 -94.26399993896484,0 C-154.7729949951172,0 -152.98800659179688,204.68699645996094 -152.98800659179688,204.68699645996094 C-152.98800659179688,204.68699645996094 102.01200103759766,206.68699645996094 102.01200103759766,206.68699645996094 C102.01200103759766,206.68699645996094 87.26399993896484,0 87.26399993896484,0z"></path></g></g></g></g></symbol><filter id="__lottie_element_2325" filterUnits="objectBoundingBox" x="0%" y="0%" width="100%" height="100%"><feComponentTransfer in="SourceGraphic"><feFuncA type="table" tableValues="1.0 0.0"></feFuncA></feComponentTransfer></filter><mask id="__lottie_element_2319_2" mask-type="alpha"><g filter="url(#__lottie_element_2325)"><rect width="500" height="500" x="0" y="0" fill="#ffffff" opacity="0"></rect><use xlink:href="#__lottie_element_2319"></use></g></mask><filter id="__lottie_element_2326" filterUnits="objectBoundingBox" x="0%" y="0%" width="100%" height="100%"><feComponentTransfer in="SourceGraphic"><feFuncA type="table" tableValues="1.0 0.0"></feFuncA></feComponentTransfer></filter><mask id="__lottie_element_2301_2" mask-type="alpha"><g filter="url(#__lottie_element_2326)"><rect width="500" height="500" x="0" y="0" fill="#ffffff" opacity="0"></rect><use xlink:href="#__lottie_element_2301"></use></g></mask><clipPath id="__lottie_element_2328"><path d="M0,0 L500,0 L500,500 L0,500z"></path></clipPath><clipPath id="__lottie_element_2332"><path d="M0,0 L500,0 L500,500 L0,500z"></path></clipPath><clipPath id="__lottie_element_2351"><path d="M0,0 L500,0 L500,500 L0,500z"></path></clipPath><clipPath id="__lottie_element_2370"><path d="M0,0 L500,0 L500,500 L0,500z"></path></clipPath><clipPath id="__lottie_element_2389"><path d="M0,0 L500,0 L500,500 L0,500z"></path></clipPath><clipPath id="__lottie_element_2412"><path fill="#ffffff" clip-rule="nonzero" d=" M462.6719970703125,123 C462.6719970703125,123 159,123 159,123 C159,123 159,413.64801025390625 159,413.64801025390625 C159,413.64801025390625 462.6719970703125,413.64801025390625 462.6719970703125,413.64801025390625 C462.6719970703125,413.64801025390625 462.6719970703125,250.14500427246094 462.6719970703125,250.14500427246094 C462.6719970703125,250.14500427246094 462.6719970703125,123 462.6719970703125,123" fill-opacity="1"></path></clipPath><symbol id="__lottie_element_2417"><g><g clip-path="url(#__lottie_element_2418)" transform="matrix(1,0,0,1,0,0)" opacity="1" style="display: block;"><g clip-path="url(#__lottie_element_2425)" transform="matrix(1,0,0,1,0,0)" opacity="1" style="display: block;"><path fill="inherit" fill-opacity="1" d=" M405.91,306.52 C389.44,363.16 330.16,395.73 273.53,379.26 C216.89,362.79 184.32,303.51 200.79,246.87 C215.24,197.17 262.66,166 312.34,170.26 C309.08,174.36 306.55,179.14 305,184.48 C298.59,206.51 311.26,229.56 333.28,235.97 C342.72,238.71 352.35,237.96 360.77,234.46 C359.75,246.63 367.39,258.24 379.58,261.79 C390.13,264.85 401.06,260.99 407.48,252.87 C411.42,270.04 411.17,288.42 405.91,306.52z"></path><g opacity="1" transform="matrix(1,0,0,1,303.3479919433594,276.70098876953125)"></g></g><g style="display: none;"><path></path><g></g></g></g></g></symbol><clipPath id="__lottie_element_2418"><path d="M0,0 L500,0 L500,500 L0,500z"></path></clipPath><clipPath id="__lottie_element_2425"><path fill="#ffffff" clip-rule="nonzero" d=" M462.6719970703125,123 C462.6719970703125,123 159,123 159,123 C159,123 159,413.64801025390625 159,413.64801025390625 C159,413.64801025390625 462.6719970703125,413.64801025390625 462.6719970703125,413.64801025390625 C462.6719970703125,413.64801025390625 462.6719970703125,250.14500427246094 462.6719970703125,250.14500427246094 C462.6719970703125,250.14500427246094 462.6719970703125,123 462.6719970703125,123" fill-opacity="1"></path></clipPath><filter id="__lottie_element_2430" filterUnits="objectBoundingBox" x="0%" y="0%" width="100%" height="100%"><feComponentTransfer in="SourceGraphic"><feFuncA type="table" tableValues="1.0 0.0"></feFuncA></feComponentTransfer></filter><mask id="__lottie_element_2417_2" mask-type="alpha"><g filter="url(#__lottie_element_2430)"><rect width="500" height="500" x="0" y="0" fill="#ffffff" opacity="0"></rect><use xlink:href="#__lottie_element_2417"></use></g></mask></defs><g clip-path="url(#__lottie_element_2206)"><g clip-path="url(#__lottie_element_2328)" transform="matrix(1,0,0,1,0,0)" opacity="0" style="display: block;"><g mask="url(#__lottie_element_2417_2)" style="display: block;"><g transform="matrix(1,0,0,1,0,0)" opacity="1"><g opacity="1" transform="matrix(1,0,0,1,0,0)"><g opacity="1" transform="matrix(1,0,0,1,192.98800659179688,223.31300354003906)"><path stroke-linecap="round" stroke-linejoin="round" fill-opacity="0" stroke="inherit" stroke-opacity="1" stroke-width="12" d=" M-94.26399993896484,0 C-33.755001068115234,0 17.011999130249023,0.18700000643730164 87.26399993896484,0"></path></g></g><g opacity="1" transform="matrix(1,0,0,1,189.9550018310547,263.3429870605469)"><path stroke-linecap="round" stroke-linejoin="round" fill-opacity="0" stroke="inherit" stroke-opacity="1" stroke-width="12" d=" M100.07499694824219,-146.7760009765625 C100.07499694824219,-146.7760009765625 -100.07499694824219,-146.7760009765625 -100.07499694824219,-146.7760009765625 C-100.07499694824219,-146.7760009765625 -80.9489974975586,133.72799682617188 -80.9489974975586,133.72799682617188 C-80.447998046875,141.072998046875 -74.34400177001953,146.7760009765625 -66.98200225830078,146.7760009765625 C-66.98200225830078,146.7760009765625 66.98200225830078,146.7760009765625 66.98200225830078,146.7760009765625 C74.34400177001953,146.7760009765625 80.447998046875,141.072998046875 80.9489974975586,133.72799682617188 C80.9489974975586,133.72799682617188 100.07499694824219,-146.7760009765625 100.07499694824219,-146.7760009765625z"></path></g></g></g><g clip-path="url(#__lottie_element_2412)" transform="matrix(1,0,0,1,0,0)" opacity="1" style="display: block;"><g opacity="1" transform="matrix(1,0,0,1,303.3479919433594,276.70098876953125)"><path stroke-linecap="round" stroke-linejoin="round" fill-opacity="0" stroke="inherit" stroke-opacity="1" stroke-width="12" d=" M102.56199645996094,29.81999969482422 C86.09200286865234,86.45899963378906 26.816999435424805,119.0270004272461 -29.82200050354004,102.55699920654297 C-86.46099853515625,86.08699798583984 -119.02799987792969,26.812000274658203 -102.55799865722656,-29.82699966430664 C-88.10399627685547,-79.53099822998047 -40.685001373291016,-110.7020034790039 8.993000030517578,-106.44499969482422 C5.735000133514404,-102.34400177001953 3.2039999961853027,-97.55999755859375 1.6519999504089355,-92.22200012207031 C-4.755000114440918,-70.18800354003906 7.909999847412109,-47.13800048828125 29.934999465942383,-40.733001708984375 C39.37200164794922,-37.98899841308594 49.00299835205078,-38.74399948120117 57.42100143432617,-42.24300003051758 C56.4010009765625,-30.07200050354004 64.0459976196289,-18.457000732421875 76.23300170898438,-14.913000106811523 C86.77999877929688,-11.845999717712402 97.71099853515625,-15.706999778747559 104.12899780273438,-23.826000213623047 C108.0770034790039,-6.663000106811523 107.8270034790039,11.71500015258789 102.56199645996094,29.81999969482422z"></path></g><g opacity="1" transform="matrix(1,0,0,1,266.5920104980469,240.87899780273438)"><path stroke-linecap="round" stroke-linejoin="round" fill-opacity="0" stroke="inherit" stroke-opacity="1" stroke-width="12" d=" M13.482000350952148,3.9210000038146973 C11.317000389099121,11.366999626159668 3.5250000953674316,15.647000312805176 -3.9210000038146973,13.482000350952148 C-11.366999626159668,11.317000389099121 -15.647000312805176,3.5250000953674316 -13.482000350952148,-3.9210000038146973 C-11.317000389099121,-11.366999626159668 -3.5250000953674316,-15.647000312805176 3.9210000038146973,-13.482000350952148 C11.366999626159668,-11.317000389099121 15.647000312805176,-3.5250000953674316 13.482000350952148,3.9210000038146973z"></path></g><g opacity="1" transform="matrix(1,0,0,1,359.8489990234375,294.97900390625)"><path stroke-linecap="round" stroke-linejoin="round" fill-opacity="0" stroke="inherit" stroke-opacity="1" stroke-width="12" d=" M11.385000228881836,3.311000108718872 C9.557000160217285,9.598999977111816 2.9769999980926514,13.213000297546387 -3.311000108718872,11.385000228881836 C-9.598999977111816,9.557000160217285 -13.213000297546387,2.9769999980926514 -11.385000228881836,-3.311000108718872 C-9.557000160217285,-9.598999977111816 -2.9769999980926514,-13.213000297546387 3.311000108718872,-11.385000228881836 C9.598999977111816,-9.557000160217285 13.213000297546387,-2.9769999980926514 11.385000228881836,3.311000108718872z"></path></g><g opacity="1" transform="matrix(1,0,0,1,274.8890075683594,332.0690002441406)"><path stroke-linecap="round" stroke-linejoin="round" fill-opacity="0" stroke="inherit" stroke-opacity="1" stroke-width="12" d=" M11.385000228881836,3.311000108718872 C9.557000160217285,9.598999977111816 2.9769999980926514,13.213000297546387 -3.311000108718872,11.385000228881836 C-9.598999977111816,9.557000160217285 -13.213000297546387,2.9769999980926514 -11.385000228881836,-3.311000108718872 C-9.557000160217285,-9.598999977111816 -2.9769999980926514,-13.213000297546387 3.311000108718872,-11.385000228881836 C9.598999977111816,-9.557000160217285 13.213000297546387,-2.9769999980926514 11.385000228881836,3.311000108718872z"></path></g><g opacity="1" transform="matrix(1,0,0,1,250.64300537109375,287.9410095214844)"><path stroke-linecap="round" stroke-linejoin="round" fill-opacity="0" stroke="inherit" stroke-opacity="1" stroke-width="18" d=" M0,0 C0,0 0,0 0,0"></path></g><g opacity="1" transform="matrix(1,0,0,1,314.24798583984375,281.718994140625)"><path stroke-linecap="round" stroke-linejoin="round" fill-opacity="0" stroke="inherit" stroke-opacity="1" stroke-width="18" d=" M0,0 C0,0 0,0 0,0"></path></g><g opacity="1" transform="matrix(1,0,0,1,335.89801025390625,337.7090148925781)"><path stroke-linecap="round" stroke-linejoin="round" fill-opacity="0" stroke="inherit" stroke-opacity="1" stroke-width="18" d=" M0,0 C0,0 0,0 0,0"></path></g></g><g style="display: none;"><g><path stroke-linecap="round" stroke-linejoin="round" fill-opacity="0"></path></g></g><g style="display: none;"><g><path stroke-linecap="round" stroke-linejoin="round" fill-opacity="0"></path></g><g><path stroke-linecap="round" stroke-linejoin="round" fill-opacity="0"></path></g><g><path stroke-linecap="round" stroke-linejoin="round" fill-opacity="0"></path></g><g><path stroke-linecap="round" stroke-linejoin="round" fill-opacity="0"></path></g><g><path stroke-linecap="round" stroke-linejoin="round" fill-opacity="0"></path></g><g><path stroke-linecap="round" stroke-linejoin="round" fill-opacity="0"></path></g><g><path stroke-linecap="round" stroke-linejoin="round" fill-opacity="0"></path></g><g><path stroke-linecap="round" stroke-linejoin="round" fill-opacity="0"></path></g></g><g clip-path="url(#__lottie_element_2389)" style="display: none;"><g style="display: none;"><g><path stroke-linecap="round" stroke-linejoin="round" fill-opacity="0"></path></g></g><g style="display: none;"><g><path stroke-linecap="round" stroke-linejoin="round" fill-opacity="0"></path></g></g><g style="display: none;"><g><path stroke-linecap="round" stroke-linejoin="round" fill-opacity="0"></path></g></g><g style="display: none;"><g><path stroke-linecap="round" stroke-linejoin="round" fill-opacity="0"></path></g></g><g style="display: none;"><g><path stroke-linecap="round" stroke-linejoin="round" fill-opacity="0"></path></g></g></g><g clip-path="url(#__lottie_element_2370)" style="display: none;"><g style="display: none;"><g><path stroke-linecap="round" stroke-linejoin="round" fill-opacity="0"></path></g></g><g style="display: none;"><g><path stroke-linecap="round" stroke-linejoin="round" fill-opacity="0"></path></g></g><g style="display: none;"><g><path stroke-linecap="round" stroke-linejoin="round" fill-opacity="0"></path></g></g><g style="display: none;"><g><path stroke-linecap="round" stroke-linejoin="round" fill-opacity="0"></path></g></g><g style="display: none;"><g><path stroke-linecap="round" stroke-linejoin="round" fill-opacity="0"></path></g></g></g><g clip-path="url(#__lottie_element_2351)" style="display: none;"><g style="display: none;"><g><path stroke-linecap="round" stroke-linejoin="round" fill-opacity="0"></path></g></g><g style="display: none;"><g><path stroke-linecap="round" stroke-linejoin="round" fill-opacity="0"></path></g></g><g style="display: none;"><g><path stroke-linecap="round" stroke-linejoin="round" fill-opacity="0"></path></g></g><g style="display: none;"><g><path stroke-linecap="round" stroke-linejoin="round" fill-opacity="0"></path></g></g><g style="display: none;"><g><path stroke-linecap="round" stroke-linejoin="round" fill-opacity="0"></path></g></g></g><g clip-path="url(#__lottie_element_2332)" style="display: none;"><g style="display: none;"><g><path stroke-linecap="round" stroke-linejoin="round" fill-opacity="0"></path></g></g><g style="display: none;"><g><path stroke-linecap="round" stroke-linejoin="round" fill-opacity="0"></path></g></g><g style="display: none;"><g><path stroke-linecap="round" stroke-linejoin="round" fill-opacity="0"></path></g></g><g style="display: none;"><g><path stroke-linecap="round" stroke-linejoin="round" fill-opacity="0"></path></g></g><g style="display: none;"><g><path stroke-linecap="round" stroke-linejoin="round" fill-opacity="0"></path></g></g></g></g><g clip-path="url(#__lottie_element_2213)" transform="matrix(1,0,0,1,0,0)" opacity="1" style="display: block;"><g mask="url(#__lottie_element_2301_2)" style="display: block;"><g clip-path="url(#__lottie_element_2312)" transform="matrix(1,0,0,1,0,0)" opacity="1"><g mask="url(#__lottie_element_2319_2)" style="display: block;"><g transform="matrix(-0.9961947202682495,0.08715574443340302,-0.08715574443340302,-0.9961947202682495,449.0301513671875,195.26361083984375)" opacity="1"><g opacity="1" transform="matrix(1,0,0,1,176.81399536132812,270.1340026855469)"><path stroke-linecap="round" stroke-linejoin="round" fill-opacity="0" stroke="inherit" stroke-opacity="1" stroke-width="12" d=" M26.68600082397461,64.76000213623047 C24.860000610351562,70.73799896240234 18.533000946044922,74.10399627685547 12.555000305175781,72.27799987792969 C6.577000141143799,70.4520034790039 3.2100000381469727,64.1259994506836 5.035999774932861,58.14799880981445 C6.861999988555908,52.16999816894531 13.189000129699707,48.803001403808594 19.16699981689453,50.62900161743164 C25.145000457763672,52.45500183105469 28.511999130249023,58.78200149536133 26.68600082397461,64.76000213623047z"></path></g><g opacity="1" transform="matrix(1,0,0,1,209.66700744628906,290.3330078125)"><path stroke-linecap="round" stroke-linejoin="round" fill-opacity="0" stroke="inherit" stroke-opacity="1" stroke-width="12" d=" M94.4729995727539,94.88700103759766 C80.69499969482422,139.99600219726562 32.957000732421875,165.39599609375 -12.152000427246094,151.6179962158203 C-57.26100158691406,137.83999633789062 -82.66100311279297,90.10199737548828 -68.88300323486328,44.99300003051758 C-56.880001068115234,5.692999839782715 -19.100000381469727,-18.645999908447266 20.26099967956543,-15.152999877929688 C26.079999923706055,-14.63700008392334 31.93199920654297,-13.51200008392334 37.742000579833984,-11.73799991607666 C54.27000045776367,-6.690000057220459 68.1520004272461,2.9170000553131104 78.43000030517578,15.282999992370605 C87.09700012207031,25.711000442504883 93.2030029296875,38.10200119018555 96.1709976196289,51.375 C99.29000091552734,65.3219985961914 98.94599914550781,80.24299621582031 94.4729995727539,94.88700103759766z"></path></g><g opacity="1" transform="matrix(1,0,0,1,183.28399658203125,356.7460021972656)"><path stroke-linecap="round" stroke-linejoin="round" fill-opacity="0" stroke="inherit" stroke-opacity="1" stroke-width="12" d=" M25.10300064086914,50.47999954223633 C23.56999969482422,55.5 18.256999969482422,58.32600021362305 13.237000465393066,56.792999267578125 C8.217000007629395,55.2599983215332 5.389999866485596,49.946998596191406 6.922999858856201,44.926998138427734 C8.456000328063965,39.90700149536133 13.769000053405762,37.08100128173828 18.788999557495117,38.61399841308594 C23.80900001525879,40.14699935913086 26.63599967956543,45.459999084472656 25.10300064086914,50.47999954223633z"></path></g><g opacity="1" transform="matrix(1,0,0,1,276.68701171875,290.3330078125)"><path stroke-linecap="round" stroke-linejoin="round" fill-opacity="0" stroke="inherit" stroke-opacity="1" stroke-width="12" d=" M-0.6340000033378601,87.27200317382812 C-2.1670000553131104,92.29199981689453 -7.479000091552734,95.11900329589844 -12.49899959564209,93.58599853515625 C-17.518999099731445,92.0530014038086 -20.34600067138672,86.73999786376953 -18.812999725341797,81.72000122070312 C-17.280000686645508,76.69999694824219 -11.967000007629395,73.8740005493164 -6.947000026702881,75.40699768066406 C-1.9270000457763672,76.94000244140625 0.8989999890327454,82.25199890136719 -0.6340000033378601,87.27200317382812z"></path></g><g opacity="1" transform="matrix(1,0,0,1,143.25399780273438,316.71600341796875)"><path stroke-linecap="round" stroke-linejoin="round" fill-opacity="0" stroke="inherit" stroke-opacity="1" stroke-width="18" d=" M36.68600082397461,52.500999450683594 C36.68600082397461,52.500999450683594 36.68600082397461,52.500999450683594 36.68600082397461,52.500999450683594"></path></g><g opacity="1" transform="matrix(1,0,0,1,250,356.7460021972656)"><path stroke-linecap="round" stroke-linejoin="round" fill-opacity="0" stroke="inherit" stroke-opacity="1" stroke-width="18" d=" M-2.068000078201294,52.18199920654297 C-2.068000078201294,52.18199920654297 -2.068000078201294,52.18199920654297 -2.068000078201294,52.18199920654297"></path></g><g opacity="1" transform="matrix(1,0,0,1,243.03700256347656,223.31300354003906)"><path stroke-linecap="round" stroke-linejoin="round" fill-opacity="0" stroke="inherit" stroke-opacity="1" stroke-width="18" d=" M-12.319000244140625,140.91600036621094 C-12.319000244140625,140.91600036621094 -12.319000244140625,140.91600036621094 -12.319000244140625,140.91600036621094"></path></g><g opacity="1" transform="matrix(1,0,0,1,183.28399658203125,356.7460021972656)"><path stroke-linecap="round" stroke-linejoin="round" fill-opacity="0" stroke="inherit" stroke-opacity="1" stroke-width="12" d=" M76.16600036621094,-35.68899917602539 C74.63300323486328,-30.66900062561035 69.31999969482422,-27.841999053955078 64.30000305175781,-29.375 C59.279998779296875,-30.908000946044922 56.452999114990234,-36.22100067138672 57.986000061035156,-41.24100112915039 C59.51900100708008,-46.26100158691406 64.83200073242188,-49.0880012512207 69.85199737548828,-47.55500030517578 C74.87200164794922,-46.02199935913086 77.6989974975586,-40.70899963378906 76.16600036621094,-35.68899917602539z"></path></g></g></g><g transform="matrix(1,0,0,1,0,0)" opacity="1" style="display: block;"><g opacity="1" transform="matrix(1,0,0,1,0,0)"><g opacity="1" transform="matrix(1,0,0,1,192.98800659179688,223.31300354003906)"><path stroke-linecap="round" stroke-linejoin="round" fill-opacity="0" stroke="inherit" stroke-opacity="1" stroke-width="12" d=" M-94.26399993896484,0 C-33.755001068115234,0 17.011999130249023,0.18700000643730164 87.26399993896484,0"></path></g></g><g opacity="1" transform="matrix(1,0,0,1,189.9550018310547,263.3429870605469)"><path stroke-linecap="round" stroke-linejoin="round" fill-opacity="0" stroke="inherit" stroke-opacity="1" stroke-width="12" d=" M100.07499694824219,-146.7760009765625 C100.07499694824219,-146.7760009765625 -100.07499694824219,-146.7760009765625 -100.07499694824219,-146.7760009765625 C-100.07499694824219,-146.7760009765625 -80.9489974975586,133.72799682617188 -80.9489974975586,133.72799682617188 C-80.447998046875,141.072998046875 -74.34400177001953,146.7760009765625 -66.98200225830078,146.7760009765625 C-66.98200225830078,146.7760009765625 66.98200225830078,146.7760009765625 66.98200225830078,146.7760009765625 C74.34400177001953,146.7760009765625 80.447998046875,141.072998046875 80.9489974975586,133.72799682617188 C80.9489974975586,133.72799682617188 100.07499694824219,-146.7760009765625 100.07499694824219,-146.7760009765625z"></path></g></g></g></g><g clip-path="url(#__lottie_element_2297)" transform="matrix(1,0,0,1,0,0)" opacity="1" style="display: block;"><g opacity="1" transform="matrix(1,0,0,1,303.3479919433594,276.70098876953125)"><path stroke-linecap="round" stroke-linejoin="round" fill-opacity="0" stroke="inherit" stroke-opacity="1" stroke-width="12" d=" M102.56199645996094,29.81999969482422 C86.09200286865234,86.45899963378906 26.816999435424805,119.0270004272461 -29.82200050354004,102.55699920654297 C-86.46099853515625,86.08699798583984 -119.02799987792969,26.812000274658203 -102.55799865722656,-29.82699966430664 C-88.10399627685547,-79.53099822998047 -40.685001373291016,-110.7020034790039 8.993000030517578,-106.44499969482422 C5.735000133514404,-102.34400177001953 3.2039999961853027,-97.55999755859375 1.6519999504089355,-92.22200012207031 C-4.755000114440918,-70.18800354003906 7.909999847412109,-47.13800048828125 29.934999465942383,-40.733001708984375 C39.37200164794922,-37.98899841308594 49.00299835205078,-38.74399948120117 57.42100143432617,-42.24300003051758 C56.4010009765625,-30.07200050354004 64.0459976196289,-18.457000732421875 76.23300170898438,-14.913000106811523 C86.77999877929688,-11.845999717712402 97.71099853515625,-15.706999778747559 104.12899780273438,-23.826000213623047 C108.0770034790039,-6.663000106811523 107.8270034790039,11.71500015258789 102.56199645996094,29.81999969482422z"></path></g><g opacity="1" transform="matrix(1,0,0,1,266.5920104980469,240.87899780273438)"><path stroke-linecap="round" stroke-linejoin="round" fill-opacity="0" stroke="inherit" stroke-opacity="1" stroke-width="12" d=" M13.482000350952148,3.9210000038146973 C11.317000389099121,11.366999626159668 3.5250000953674316,15.647000312805176 -3.9210000038146973,13.482000350952148 C-11.366999626159668,11.317000389099121 -15.647000312805176,3.5250000953674316 -13.482000350952148,-3.9210000038146973 C-11.317000389099121,-11.366999626159668 -3.5250000953674316,-15.647000312805176 3.9210000038146973,-13.482000350952148 C11.366999626159668,-11.317000389099121 15.647000312805176,-3.5250000953674316 13.482000350952148,3.9210000038146973z"></path></g><g opacity="1" transform="matrix(1,0,0,1,359.8489990234375,294.97900390625)"><path stroke-linecap="round" stroke-linejoin="round" fill-opacity="0" stroke="inherit" stroke-opacity="1" stroke-width="12" d=" M11.385000228881836,3.311000108718872 C9.557000160217285,9.598999977111816 2.9769999980926514,13.213000297546387 -3.311000108718872,11.385000228881836 C-9.598999977111816,9.557000160217285 -13.213000297546387,2.9769999980926514 -11.385000228881836,-3.311000108718872 C-9.557000160217285,-9.598999977111816 -2.9769999980926514,-13.213000297546387 3.311000108718872,-11.385000228881836 C9.598999977111816,-9.557000160217285 13.213000297546387,-2.9769999980926514 11.385000228881836,3.311000108718872z"></path></g><g opacity="1" transform="matrix(1,0,0,1,274.8890075683594,332.0690002441406)"><path stroke-linecap="round" stroke-linejoin="round" fill-opacity="0" stroke="inherit" stroke-opacity="1" stroke-width="12" d=" M11.385000228881836,3.311000108718872 C9.557000160217285,9.598999977111816 2.9769999980926514,13.213000297546387 -3.311000108718872,11.385000228881836 C-9.598999977111816,9.557000160217285 -13.213000297546387,2.9769999980926514 -11.385000228881836,-3.311000108718872 C-9.557000160217285,-9.598999977111816 -2.9769999980926514,-13.213000297546387 3.311000108718872,-11.385000228881836 C9.598999977111816,-9.557000160217285 13.213000297546387,-2.9769999980926514 11.385000228881836,3.311000108718872z"></path></g><g opacity="1" transform="matrix(1,0,0,1,250.64300537109375,287.9410095214844)"><path stroke-linecap="round" stroke-linejoin="round" fill-opacity="0" stroke="inherit" stroke-opacity="1" stroke-width="18" d=" M0,0 C0,0 0,0 0,0"></path></g><g opacity="1" transform="matrix(1,0,0,1,314.24798583984375,281.718994140625)"><path stroke-linecap="round" stroke-linejoin="round" fill-opacity="0" stroke="inherit" stroke-opacity="1" stroke-width="18" d=" M0,0 C0,0 0,0 0,0"></path></g><g opacity="1" transform="matrix(1,0,0,1,335.89801025390625,337.7090148925781)"><path stroke-linecap="round" stroke-linejoin="round" fill-opacity="0" stroke="inherit" stroke-opacity="1" stroke-width="18" d=" M0,0 C0,0 0,0 0,0"></path></g></g><g style="display: none;"><g><path stroke-linecap="round" stroke-linejoin="round" fill-opacity="0"></path></g></g><g style="display: none;"><g><path stroke-linecap="round" stroke-linejoin="round" fill-opacity="0"></path></g><g><path stroke-linecap="round" stroke-linejoin="round" fill-opacity="0"></path></g><g><path stroke-linecap="round" stroke-linejoin="round" fill-opacity="0"></path></g><g><path stroke-linecap="round" stroke-linejoin="round" fill-opacity="0"></path></g><g><path stroke-linecap="round" stroke-linejoin="round" fill-opacity="0"></path></g><g><path stroke-linecap="round" stroke-linejoin="round" fill-opacity="0"></path></g><g><path stroke-linecap="round" stroke-linejoin="round" fill-opacity="0"></path></g><g><path stroke-linecap="round" stroke-linejoin="round" fill-opacity="0"></path></g></g><g clip-path="url(#__lottie_element_2274)" style="display: none;"><g style="display: none;"><g><path stroke-linecap="round" stroke-linejoin="round" fill-opacity="0"></path></g></g><g style="display: none;"><g><path stroke-linecap="round" stroke-linejoin="round" fill-opacity="0"></path></g></g><g style="display: none;"><g><path stroke-linecap="round" stroke-linejoin="round" fill-opacity="0"></path></g></g><g style="display: none;"><g><path stroke-linecap="round" stroke-linejoin="round" fill-opacity="0"></path></g></g><g style="display: none;"><g><path stroke-linecap="round" stroke-linejoin="round" fill-opacity="0"></path></g></g></g><g clip-path="url(#__lottie_element_2255)" style="display: none;"><g style="display: none;"><g><path stroke-linecap="round" stroke-linejoin="round" fill-opacity="0"></path></g></g><g style="display: none;"><g><path stroke-linecap="round" stroke-linejoin="round" fill-opacity="0"></path></g></g><g style="display: none;"><g><path stroke-linecap="round" stroke-linejoin="round" fill-opacity="0"></path></g></g><g style="display: none;"><g><path stroke-linecap="round" stroke-linejoin="round" fill-opacity="0"></path></g></g><g style="display: none;"><g><path stroke-linecap="round" stroke-linejoin="round" fill-opacity="0"></path></g></g></g><g clip-path="url(#__lottie_element_2236)" style="display: none;"><g style="display: none;"><g><path stroke-linecap="round" stroke-linejoin="round" fill-opacity="0"></path></g></g><g style="display: none;"><g><path stroke-linecap="round" stroke-linejoin="round" fill-opacity="0"></path></g></g><g style="display: none;"><g><path stroke-linecap="round" stroke-linejoin="round" fill-opacity="0"></path></g></g><g style="display: none;"><g><path stroke-linecap="round" stroke-linejoin="round" fill-opacity="0"></path></g></g><g style="display: none;"><g><path stroke-linecap="round" stroke-linejoin="round" fill-opacity="0"></path></g></g></g><g clip-path="url(#__lottie_element_2217)" style="display: none;"><g style="display: none;"><g><path stroke-linecap="round" stroke-linejoin="round" fill-opacity="0"></path></g></g><g style="display: none;"><g><path stroke-linecap="round" stroke-linejoin="round" fill-opacity="0"></path></g></g><g style="display: none;"><g><path stroke-linecap="round" stroke-linejoin="round" fill-opacity="0"></path></g></g><g style="display: none;"><g><path stroke-linecap="round" stroke-linejoin="round" fill-opacity="0"></path></g></g><g style="display: none;"><g><path stroke-linecap="round" stroke-linejoin="round" fill-opacity="0"></path></g></g></g></g><g style="display: none;"><path></path></g></g></svg>