<svg xmlns="http://www.w3.org/2000/svg" xmlns:xlink="http://www.w3.org/1999/xlink" viewBox="0 0 500 500" width="500" height="500" preserveAspectRatio="xMidYMid meet" style="width: 100%; height: 100%; transform: translate3d(0px, 0px, 0px); content-visibility: visible;"><defs><clipPath id="__lottie_element_2432"><rect width="500" height="500" x="0" y="0"></rect></clipPath><symbol id="__lottie_element_2444"><g><g transform="matrix(1,0,0,1,250,250)" opacity="1" style="display: block;"><g opacity="1" transform="matrix(1,0,0,1,0,0)"><path stroke-linecap="butt" stroke-linejoin="miter" fill-opacity="0" stroke-miterlimit="4" stroke="inherit" stroke-opacity="1" stroke-width="0" d=" M140.5,7 C140.5,7 -122,7 -122,7 C-122,7 -122,188 -122,188 C-122,188 133,188 133,188 C133,188 140.5,7 140.5,7z"></path><path fill="inherit" fill-opacity="1" d=" M140.5,7 C140.5,7 -122,7 -122,7 C-122,7 -122,188 -122,188 C-122,188 133,188 133,188 C133,188 140.5,7 140.5,7z"></path></g></g></g></symbol><filter id="__lottie_element_2450" filterUnits="objectBoundingBox" x="0%" y="0%" width="100%" height="100%"><feComponentTransfer in="SourceGraphic"><feFuncA type="table" tableValues="1.0 0.0"></feFuncA></feComponentTransfer></filter><mask id="__lottie_element_2444_2" mask-type="alpha"><g filter="url(#__lottie_element_2450)"><rect width="500" height="500" x="0" y="0" fill="#ffffff" opacity="0"></rect><use xlink:href="#__lottie_element_2444"></use></g></mask><symbol id="__lottie_element_2457"><g><g transform="matrix(1,0,0,1,281.60400390625,226.03199768066406)" opacity="1" style="display: block;"><path fill="inherit" fill-opacity="1" d=" M77.13099670410156,-66.53099822998047 C77.13099670410156,-66.53099822998047 24.395999908447266,10.218000411987305 7.841000080108643,37.70899963378906 C-6.494999885559082,61.51599884033203 -5.379000186920166,87.6500015258789 -29.913999557495117,112.18499755859375 C-48.47600173950195,130.7469940185547 -76.28199768066406,139.08900451660156 -95.18000030517578,125.05599975585938 C-74.40899658203125,113.6780014038086 -58.48400115966797,95.96099853515625 -47.20500183105469,79.7969970703125 C-33.130001068115234,59.62699890136719 -26.288000106811523,41.875999450683594 -26.288000106811523,41.875999450683594 C-26.288000106811523,41.875999450683594 52.249000549316406,-117.31900024414062 52.249000549316406,-117.31900024414062 C59.645999908447266,-136.281005859375 75.40499877929688,-139.28799438476562 90.00499725341797,-132.4499969482422 C91.1780014038086,-131.9010009765625 92.30599975585938,-131.1320037841797 93.38300323486328,-130.20599365234375 C103.03399658203125,-121.91000366210938 104.14600372314453,-108.03199768066406 97.59300231933594,-97.36299896240234 C89.86799621582031,-84.78600311279297 78.83699798583984,-69.61599731445312 77.13099670410156,-66.53099822998047"></path><g opacity="1" transform="matrix(1,0,0,1,0,0)"><path stroke-linecap="round" stroke-linejoin="round" fill-opacity="0" stroke="inherit" stroke-opacity="1" stroke-width="0" d=" M77.13099670410156,-66.53099822998047 C77.13099670410156,-66.53099822998047 24.395999908447266,10.218000411987305 7.841000080108643,37.70899963378906 C-6.494999885559082,61.51599884033203 -5.379000186920166,87.6500015258789 -29.913999557495117,112.18499755859375 C-48.47600173950195,130.7469940185547 -76.28199768066406,139.08900451660156 -95.18000030517578,125.05599975585938 C-74.40899658203125,113.6780014038086 -58.48400115966797,95.96099853515625 -47.20500183105469,79.7969970703125 C-33.130001068115234,59.62699890136719 -26.288000106811523,41.875999450683594 -26.288000106811523,41.875999450683594 C-26.288000106811523,41.875999450683594 52.249000549316406,-117.31900024414062 52.249000549316406,-117.31900024414062 C59.645999908447266,-136.281005859375 75.40499877929688,-139.28799438476562 90.00499725341797,-132.4499969482422 C91.1780014038086,-131.9010009765625 92.30599975585938,-131.1320037841797 93.38300323486328,-130.20599365234375 C103.03399658203125,-121.91000366210938 104.14600372314453,-108.03199768066406 97.59300231933594,-97.36299896240234 C89.86799621582031,-84.78600311279297 78.83699798583984,-69.61599731445312 77.13099670410156,-66.53099822998047"></path></g></g></g></symbol><filter id="__lottie_element_2463" filterUnits="objectBoundingBox" x="0%" y="0%" width="100%" height="100%"><feComponentTransfer in="SourceGraphic"><feFuncA type="table" tableValues="1.0 0.0"></feFuncA></feComponentTransfer></filter><mask id="__lottie_element_2457_2" mask-type="alpha"><g filter="url(#__lottie_element_2463)"><rect width="500" height="500" x="0" y="0" fill="#ffffff" opacity="0"></rect><use xlink:href="#__lottie_element_2457"></use></g></mask></defs><g clip-path="url(#__lottie_element_2432)"><g mask="url(#__lottie_element_2457_2)" style="display: block;"><g transform="matrix(1,0,0,1,0,0.0000152587890625)" opacity="1"><g opacity="1" transform="matrix(1,0,0,1,249.9980010986328,250)"><path stroke-linecap="round" stroke-linejoin="round" fill-opacity="0" stroke="inherit" stroke-opacity="1" stroke-width="12" d=" M-144.94500732421875,13.34000015258789 C-119.20500183105469,-2.430000066757202 -63.974998474121094,-13.34000015258789 0.004999999888241291,-13.34000015258789 C63.974998474121094,-13.34000015258789 119.20500183105469,-2.430000066757202 144.94500732421875,13.34000015258789"></path></g><g opacity="1" transform="matrix(1,0,0,1,250,243.3280029296875)"><path stroke-linecap="round" stroke-linejoin="round" fill-opacity="0" stroke="inherit" stroke-opacity="1" stroke-width="12" d=" M-160.38499450683594,0 C-160.38499450683594,-25.79199981689453 -88.5780029296875,-46.70100021362305 0,-46.70100021362305 C88.5780029296875,-46.70100021362305 160.38499450683594,-25.79199981689453 160.38499450683594,0"></path></g></g></g><g transform="matrix(1,0,0,1,0,0.0000152587890625)" opacity="1" style="display: block;"><g opacity="1" transform="matrix(1,0,0,1,249.9980010986328,325.67498779296875)"><path stroke-linecap="round" stroke-linejoin="round" fill-opacity="0" stroke="inherit" stroke-opacity="1" stroke-width="12" d=" M-160.21499633789062,-84.44499969482422 C-160.21499633789062,-84.44499969482422 -160.30499267578125,-84.44499969482422 -160.30499267578125,-84.44499969482422 C-160.30499267578125,-84.24500274658203 -160.30499267578125,-84.04499816894531 -160.30499267578125,-83.84500122070312 C-160.30499267578125,-82.82499694824219 -160.28500366210938,-81.7249984741211 -160.26499938964844,-80.56500244140625 C-160.26499938964844,-80.55500030517578 -160.26499938964844,-80.54499816894531 -160.26499938964844,-80.54499816894531 C-159.9949951171875,-67.1449966430664 -158.3249969482422,-45.46500015258789 -153.375,-29.325000762939453 C-148.44500732421875,-13.265000343322754 -141.39500427246094,0.4650000035762787 -133.73500061035156,11.96500015258789 C-120.34500122070312,32.07500076293945 -105.09500122070312,45.3849983215332 -96.06500244140625,52.46500015258789 C-96.06500244140625,52.46500015258789 -96.06500244140625,75.1449966430664 -96.06500244140625,75.1449966430664 C-69.29499816894531,80.98500061035156 -36.03499984741211,84.44499969482422 0.004999999888241291,84.44499969482422 C36.1150016784668,84.44499969482422 69.44499969482422,80.96499633789062 96.25499725341797,75.09500122070312 C96.25499725341797,75.09500122070312 96.26499938964844,52.46500015258789 96.26499938964844,52.46500015258789 C105.28500366210938,45.35499954223633 120.45500183105469,32.03499984741211 133.77499389648438,11.975000381469727 C141.43499755859375,0.4449999928474426 148.47500610351562,-13.305000305175781 153.39500427246094,-29.395000457763672 C158.3249969482422,-45.505001068115234 159.9949951171875,-67.15499877929688 160.26499938964844,-80.54499816894531 C160.26499938964844,-80.55500030517578 160.26499938964844,-80.56500244140625 160.26499938964844,-80.57499694824219 C160.28500366210938,-81.73500061035156 160.30499267578125,-82.82499694824219 160.30499267578125,-83.84500122070312 C160.30499267578125,-84.04499816894531 160.30499267578125,-84.24500274658203 160.30499267578125,-84.44499969482422 C160.30499267578125,-84.44499969482422 160.22500610351562,-84.44499969482422 160.22500610351562,-84.44499969482422"></path></g><g opacity="1" transform="matrix(1,0,0,1,250,243.3280029296875)"><path stroke-linecap="round" stroke-linejoin="round" fill-opacity="0" stroke="inherit" stroke-opacity="1" stroke-width="12" d=" M160.38499450683594,0 C160.38499450683594,25.79199981689453 88.5780029296875,46.70100021362305 0,46.70100021362305 C-88.5780029296875,46.70100021362305 -160.38499450683594,25.79199981689453 -160.38499450683594,0"></path></g></g><g transform="matrix(1,0,0,1,322.4079895019531,173.1959991455078)" opacity="1" style="display: block;"><g opacity="1" transform="matrix(1,0,0,1,0,0)"><path fill="inherit" fill-opacity="1" d=" M-27.045000076293945,83.48400115966797 C-27.045000076293945,83.48400115966797 -62.1349983215332,83.48400115966797 -62.1349983215332,83.48400115966797"></path><path stroke-linecap="round" stroke-linejoin="round" fill-opacity="0" stroke="inherit" stroke-opacity="1" stroke-width="12" d=" M-27.045000076293945,83.48400115966797 C-27.045000076293945,83.48400115966797 -62.1349983215332,83.48400115966797 -62.1349983215332,83.48400115966797"></path></g></g><g mask="url(#__lottie_element_2444_2)" style="display: block;"><g transform="matrix(1,0,0,1,281.60400390625,226.03199768066406)" opacity="1"><g opacity="1" transform="matrix(1,0,0,1,0,0)"><path stroke-linecap="round" stroke-linejoin="round" fill-opacity="0" stroke="inherit" stroke-opacity="1" stroke-width="12" d=" M77.13099670410156,-66.53099822998047 C77.13099670410156,-66.53099822998047 24.395999908447266,10.218000411987305 7.841000080108643,37.70899963378906 C-6.494999885559082,61.51599884033203 -5.379000186920166,87.6500015258789 -29.913999557495117,112.18499755859375 C-48.47600173950195,130.7469940185547 -76.28199768066406,139.08900451660156 -95.18000030517578,125.05599975585938 C-74.40899658203125,113.6780014038086 -58.48400115966797,95.96099853515625 -47.20500183105469,79.7969970703125 C-33.130001068115234,59.62699890136719 -26.288000106811523,41.875999450683594 -26.288000106811523,41.875999450683594 C-26.288000106811523,41.875999450683594 52.249000549316406,-117.31900024414062 52.249000549316406,-117.31900024414062 C59.645999908447266,-136.281005859375 75.40499877929688,-139.28799438476562 90.00499725341797,-132.4499969482422 C91.1780014038086,-131.9010009765625 92.30599975585938,-131.1320037841797 93.38300323486328,-130.20599365234375 C103.03399658203125,-121.91000366210938 104.14600372314453,-108.03199768066406 97.59300231933594,-97.36299896240234 C89.86799621582031,-84.78600311279297 78.83699798583984,-69.61599731445312 77.13099670410156,-66.53099822998047"></path></g></g></g><g transform="matrix(1,0,0,1,147.1719970703125,72.69599914550781)" opacity="1" style="display: block;"><g opacity="1" transform="matrix(1,0,0,1,0,0)"><path stroke-linecap="round" stroke-linejoin="round" fill-opacity="0" stroke="inherit" stroke-opacity="1" stroke-width="12" d=" M3.634000062942505,33.500999450683594 C2.816999912261963,44.553001403808594 -3.7179999351501465,45.33599853515625 -3.7179999351501465,57.85599899291992 C-3.7179999351501465,71.21299743652344 3.7179999351501465,71.21199798583984 3.7179999351501465,84.56900024414062 C3.7179999351501465,97.9260025024414 -3.7179999351501465,97.9260025024414 -3.7179999351501465,111.28299713134766"></path></g></g><g transform="matrix(1,0,0,1,200.1719970703125,55.69599914550781)" opacity="1" style="display: block;"><g opacity="1" transform="matrix(1,0,0,1,0,0)"><path stroke-linecap="round" stroke-linejoin="round" fill-opacity="0" stroke="inherit" stroke-opacity="1" stroke-width="12" d=" M3.634000062942505,33.500999450683594 C2.816999912261963,44.553001403808594 -3.7179999351501465,45.33599853515625 -3.7179999351501465,57.85599899291992 C-3.7179999351501465,71.21299743652344 3.7179999351501465,71.21199798583984 3.7179999351501465,84.56900024414062 C3.7179999351501465,97.9260025024414 -3.7179999351501465,97.9260025024414 -3.7179999351501465,111.28299713134766"></path></g></g><g style="display: none;"><path></path></g></g></svg>