<svg xmlns="http://www.w3.org/2000/svg" xmlns:xlink="http://www.w3.org/1999/xlink" viewBox="0 0 500 500" width="500" height="500" preserveAspectRatio="xMidYMid meet" style="width: 100%; height: 100%; transform: translate3d(0px, 0px, 0px); content-visibility: visible;"><defs><clipPath id="__lottie_element_2465"><rect width="500" height="500" x="0" y="0"></rect></clipPath><clipPath id="__lottie_element_2472"><path d="M0,0 L500,0 L500,500 L0,500z"></path></clipPath><clipPath id="__lottie_element_2491"><path d="M0,0 L500,0 L500,500 L0,500z"></path></clipPath><clipPath id="__lottie_element_2510"><path d="M0,0 L500,0 L500,500 L0,500z"></path></clipPath><clipPath id="__lottie_element_2529"><path d="M0,0 L500,0 L500,500 L0,500z"></path></clipPath><clipPath id="__lottie_element_2548"><path d="M0,0 L500,0 L500,500 L0,500z"></path></clipPath><clipPath id="__lottie_element_2567"><path d="M0,0 L500,0 L500,500 L0,500z"></path></clipPath><symbol id="__lottie_element_2589"><g><g style="display: none;"><g><path></path></g></g></g></symbol><symbol id="__lottie_element_2597"><g><g clip-path="url(#__lottie_element_2598)" transform="matrix(1,0,0,1,0,0)" opacity="1" style="display: block;"><g mask="url(#__lottie_element_2601_2)" style="display: block;"><g transform="matrix(1,0,0,1,0,0)" opacity="1"><path fill="inherit" fill-opacity="1" d=" M419.83,293.5 C421.4,293.5 422.91,293.28 424.35,292.87 C427.14,292.1 429.63,290.61 431.62,288.62 C434.63,285.61 436.5,281.44 436.5,276.84 C436.5,269.21 431.35,262.77 424.34,260.8 C422.9,260.39 421.4,260.18 419.83,260.18 C419.83,260.18 386.51,260.18 386.51,260.18 C386.51,260.18 386.51,226.87 386.51,226.87 C386.51,226.87 408.73,226.87 408.73,226.87 C410.68,226.87 412.56,226.53 414.3,225.91 C416.66,225.08 418.78,223.72 420.51,221.98 C423.53,218.97 425.39,214.81 425.39,210.2 C425.39,201 417.93,193.55 408.73,193.55 C408.73,193.55 386.51,193.55 386.51,193.55 C386.51,193.55 386.51,171.33 386.51,171.33 C386.51,166.73 384.65,162.57 381.64,159.54 C378.62,156.53 374.45,154.67 369.86,154.67 C362.61,154.67 356.44,159.29 354.15,165.76 C353.53,167.5 353.19,169.37 353.19,171.33 C353.19,171.33 353.19,193.55 353.19,193.55 C353.19,193.55 319.87,193.55 319.87,193.55 C319.87,193.55 319.87,160.23 319.87,160.23 C319.87,158.65 319.66,157.14 319.25,155.71 C318.47,152.92 316.99,150.43 315,148.44 C311.98,145.43 307.81,143.56 303.22,143.56 C295.59,143.56 289.15,148.7 287.19,155.71 C286.78,157.15 286.56,158.66 286.56,160.23 C286.56,160.23 286.56,193.55 286.56,193.55 C286.56,193.55 253.24,193.55 253.24,193.55 C253.24,193.55 253.24,171.33 253.24,171.33 C253.24,169.37 252.91,167.5 252.29,165.76 C251.45,163.4 250.1,161.28 248.36,159.54 C245.34,156.53 241.17,154.67 236.58,154.67 C227.38,154.67 219.92,162.12 219.92,171.33 C219.92,171.33 219.92,193.55 219.92,193.55 C219.92,193.55 197.71,193.55 197.71,193.55 C188.51,193.55 181.04,201 181.04,210.2 C181.04,217.44 185.67,223.62 192.14,225.9 C193.88,226.53 195.76,226.87 197.71,226.87 C197.71,226.87 219.92,226.87 219.92,226.87 C219.92,226.87 219.92,260.18 219.92,260.18 C219.92,260.18 186.6,260.18 186.6,260.18 C185.04,260.18 183.53,260.39 182.09,260.8 C175.08,262.77 169.94,269.21 169.94,276.84 C169.94,284.47 175.08,290.91 182.08,292.87 C183.52,293.28 185.04,293.5 186.6,293.5 C186.6,293.5 219.92,293.5 219.92,293.5 C219.92,293.5 219.92,326.82 219.92,326.82 C219.92,326.82 197.71,326.82 197.71,326.82 C195.76,326.82 193.88,327.15 192.14,327.78 C185.67,330.06 181.04,336.24 181.04,343.48 C181.04,352.68 188.51,360.14 197.71,360.14 C197.71,360.14 219.92,360.14 219.92,360.14 C219.92,360.14 219.92,382.35 219.92,382.35 C219.92,391.55 227.38,399.02 236.58,399.02 C243.82,399.02 250,394.39 252.29,387.92 C252.91,386.18 253.24,384.31 253.24,382.35 C253.24,382.35 253.24,360.14 253.24,360.14 C253.24,360.14 286.56,360.14 286.56,360.14 C286.56,360.14 286.56,393.46 286.56,393.46 C286.56,395.02 286.78,396.54 287.19,397.98 C289.15,404.98 295.59,410.12 303.22,410.12 C310.85,410.12 317.29,404.98 319.25,397.98 C319.66,396.54 319.87,395.02 319.87,393.46 C319.87,393.46 319.87,360.14 319.87,360.14 C319.87,360.14 353.19,360.14 353.19,360.14 C353.19,360.14 353.19,382.35 353.19,382.35 C353.19,384.31 353.53,386.18 354.15,387.92 C356.44,394.39 362.62,399.02 369.86,399.02 C379.05,399.02 386.51,391.55 386.51,382.35 C386.51,382.35 386.51,360.14 386.51,360.14 C386.51,360.14 408.73,360.14 408.73,360.14 C413.32,360.14 417.49,358.27 420.51,355.26 C423.53,352.25 425.39,348.08 425.39,343.48 C425.39,336.24 420.77,330.06 414.3,327.78 C412.56,327.15 410.68,326.82 408.73,326.82 C408.73,326.82 386.51,326.82 386.51,326.82 C386.51,326.82 386.51,293.5 386.51,293.5 C386.51,293.5 419.83,293.5 419.83,293.5z M302,156.4 C368.56,156.4 422.6,210.44 422.6,277 C422.6,343.56 368.56,397.6 302,397.6 C235.44,397.6 181.4,343.56 181.4,277 C181.4,210.44 235.44,156.4 302,156.4z"></path><g opacity="1" transform="matrix(1,0,0,1,303.218994140625,276.84100341796875)"></g><g opacity="1" transform="matrix(1,0,0,1,302,277)"><path fill="inherit" fill-opacity="1" d=" M0,-120.60150146484375 C66.55996704101562,-120.60150146484375 120.60150146484375,-66.55996704101562 120.60150146484375,0 C120.60150146484375,66.55996704101562 66.55996704101562,120.60150146484375 0,120.60150146484375 C-66.55996704101562,120.60150146484375 -120.60150146484375,66.55996704101562 -120.60150146484375,0 C-120.60150146484375,-66.55996704101562 -66.55996704101562,-120.60150146484375 0,-120.60150146484375z"></path></g></g></g></g></g></symbol><clipPath id="__lottie_element_2598"><path d="M0,0 L500,0 L500,500 L0,500z"></path></clipPath><symbol id="__lottie_element_2601"><g><g style="display: none;"><g><path></path></g></g></g></symbol><filter id="__lottie_element_2607" filterUnits="objectBoundingBox" x="0%" y="0%" width="100%" height="100%"><feComponentTransfer in="SourceGraphic"><feFuncA type="table" tableValues="1.0 0.0"></feFuncA></feComponentTransfer></filter><mask id="__lottie_element_2601_2" mask-type="alpha"><g filter="url(#__lottie_element_2607)"><rect width="500" height="500" x="0" y="0" fill="#ffffff" opacity="0"></rect><use xlink:href="#__lottie_element_2601"></use></g></mask><filter id="__lottie_element_2611" filterUnits="objectBoundingBox" x="0%" y="0%" width="100%" height="100%"><feComponentTransfer in="SourceGraphic"><feFuncA type="table" tableValues="1.0 0.0"></feFuncA></feComponentTransfer></filter><mask id="__lottie_element_2597_2" mask-type="alpha"><g filter="url(#__lottie_element_2611)"><rect width="500" height="500" x="0" y="0" fill="#ffffff" opacity="0"></rect><use xlink:href="#__lottie_element_2597"></use></g></mask><symbol id="__lottie_element_2612"><g><g style="display: none;"><path></path><g></g><g><path></path></g></g></g></symbol><filter id="__lottie_element_2618" filterUnits="objectBoundingBox" x="0%" y="0%" width="100%" height="100%"><feComponentTransfer in="SourceGraphic"><feFuncA type="table" tableValues="1.0 0.0"></feFuncA></feComponentTransfer></filter><mask id="__lottie_element_2612_2" mask-type="alpha"><g filter="url(#__lottie_element_2618)"><rect width="500" height="500" x="0" y="0" fill="#ffffff" opacity="0"></rect><use xlink:href="#__lottie_element_2612"></use></g></mask><filter id="__lottie_element_2619" filterUnits="objectBoundingBox" x="0%" y="0%" width="100%" height="100%"><feComponentTransfer in="SourceGraphic"><feFuncA type="table" tableValues="1.0 0.0"></feFuncA></feComponentTransfer></filter><mask id="__lottie_element_2589_2" mask-type="alpha"><g filter="url(#__lottie_element_2619)"><rect width="500" height="500" x="0" y="0" fill="#ffffff" opacity="0"></rect><use xlink:href="#__lottie_element_2589"></use></g></mask></defs><g clip-path="url(#__lottie_element_2465)"><g mask="url(#__lottie_element_2612_2)" style="display: block;"><g transform="matrix(-0.8987940549850464,-0.4383711516857147,0.4383711516857147,-0.8987940549850464,-136.4722900390625,488.9285888671875)" opacity="1"><g opacity="1" transform="matrix(1,0,0,1,230.11000061035156,107.05000305175781)"><path stroke-linecap="round" stroke-linejoin="round" fill-opacity="0" stroke="inherit" stroke-opacity="1" stroke-width="12" d=" M-17.450000762939453,-5.03000020980835 C-5.150000095367432,-3.4100000858306885 6.579999923706055,0.03999999910593033 17.450000762939453,5.03000020980835"></path></g><g opacity="1" transform="matrix(1,0,0,1,163.14500427246094,107.05000305175781)"><path stroke-linecap="round" stroke-linejoin="round" fill-opacity="0" stroke="inherit" stroke-opacity="1" stroke-width="12" d=" M-17.454999923706055,5.03000020980835 C-6.764999866485596,0.11999999731779099 4.744999885559082,-3.2899999618530273 16.825000762939453,-4.929999828338623 C17.03499984741211,-4.96999979019165 17.2450008392334,-5 17.454999923706055,-5.03000020980835"></path></g><g opacity="1" transform="matrix(1,0,0,1,230.11000061035156,339.2650146484375)"><path stroke-linecap="round" stroke-linejoin="round" fill-opacity="0" stroke="inherit" stroke-opacity="1" stroke-width="12" d=" M-17.450000762939453,5.025000095367432 C-5.150000095367432,3.4149999618530273 6.579999923706055,-0.03500000014901161 17.450000762939453,-5.025000095367432"></path></g><g opacity="1" transform="matrix(1,0,0,1,163.14500427246094,339.2650146484375)"><path stroke-linecap="round" stroke-linejoin="round" fill-opacity="0" stroke="inherit" stroke-opacity="1" stroke-width="12" d=" M-17.454999923706055,-5.025000095367432 C-6.574999809265137,-0.03500000014901161 5.144999980926514,3.4149999618530273 17.454999923706055,5.025000095367432"></path></g><g opacity="1" transform="matrix(1,0,0,1,80.5250015258789,189.6699981689453)"><path stroke-linecap="round" stroke-linejoin="round" fill-opacity="0" stroke="inherit" stroke-opacity="1" stroke-width="12" d=" M-5.025000095367432,17.450000762939453 C-3.4149999618530273,5.150000095367432 0.02500000037252903,-6.579999923706055 5.025000095367432,-17.450000762939453"></path></g><g opacity="1" transform="matrix(1,0,0,1,80.5199966430664,256.6449890136719)"><path stroke-linecap="round" stroke-linejoin="round" fill-opacity="0" stroke="inherit" stroke-opacity="1" stroke-width="12" d=" M-5.03000020980835,-17.454999923706055 C-3.4100000858306885,-5.144999980926514 0.029999999329447746,6.585000038146973 5.03000020980835,17.454999923706055"></path></g><g opacity="1" transform="matrix(1,0,0,1,312.7349853515625,256.6449890136719)"><path stroke-linecap="round" stroke-linejoin="round" fill-opacity="0" stroke="inherit" stroke-opacity="1" stroke-width="12" d=" M-5.025000095367432,17.454999923706055 C-0.03500000014901161,6.585000038146973 3.4149999618530273,-5.144999980926514 5.025000095367432,-17.454999923706055"></path></g><g opacity="1" transform="matrix(1,0,0,1,312.7300109863281,189.6750030517578)"><path stroke-linecap="round" stroke-linejoin="round" fill-opacity="0" stroke="inherit" stroke-opacity="1" stroke-width="12" d=" M-5.019999980926514,-17.44499969482422 C-0.029999999329447746,-6.574999809265137 3.4200000762939453,5.144999980926514 5.019999980926514,17.44499969482422"></path></g><g opacity="1" transform="matrix(1,0,0,1,196.6269989013672,223.15899658203125)"><path stroke-linecap="round" stroke-linejoin="round" fill-opacity="0" stroke="inherit" stroke-opacity="1" stroke-width="12" d=" M116.61499786376953,16.6560001373291 C118.18000030517578,16.6560001373291 119.69400024414062,16.43899917602539 121.13400268554688,16.0310001373291 C123.9219970703125,15.256999969482422 126.41200256347656,13.767000198364258 128.4010009765625,11.777999877929688 C131.41400146484375,8.765000343322754 133.2790069580078,4.603000164031982 133.2790069580078,0 C133.2790069580078,-7.632999897003174 128.13400268554688,-14.076000213623047 121.1259994506836,-16.040000915527344 C119.68599700927734,-16.447999954223633 118.18000030517578,-16.663999557495117 116.61499786376953,-16.663999557495117 C116.61499786376953,-16.663999557495117 83.29499816894531,-16.663999557495117 83.29499816894531,-16.663999557495117 C83.29499816894531,-16.663999557495117 83.29499816894531,-49.974998474121094 83.29499816894531,-49.974998474121094 C83.29499816894531,-49.974998474121094 105.51100158691406,-49.974998474121094 105.51100158691406,-49.974998474121094 C107.45899963378906,-49.974998474121094 109.33899688720703,-50.308998107910156 111.0790023803711,-50.93299865722656 C113.44300079345703,-51.76499938964844 115.55799865722656,-53.12099838256836 117.28900146484375,-54.861000061035156 C120.31099700927734,-57.874000549316406 122.17500305175781,-62.0359992980957 122.17500305175781,-66.63899993896484 C122.17500305175781,-75.83699798583984 114.70899963378906,-83.29499816894531 105.51100158691406,-83.29499816894531 C105.51100158691406,-83.29499816894531 83.29499816894531,-83.29499816894531 83.29499816894531,-83.29499816894531 C83.29499816894531,-83.29499816894531 83.29499816894531,-105.51100158691406 83.29499816894531,-105.51100158691406 C83.29499816894531,-110.11399841308594 81.43000030517578,-114.2750015258789 78.41699981689453,-117.2969970703125 C75.40399932861328,-120.30999755859375 71.23400115966797,-122.17500305175781 66.63899993896484,-122.17500305175781 C59.388999938964844,-122.17500305175781 53.22100067138672,-117.5469970703125 50.93199920654297,-111.0790023803711 C50.30799865722656,-109.33899688720703 49.974998474121094,-107.46700286865234 49.974998474121094,-105.51100158691406 C49.974998474121094,-105.51100158691406 49.974998474121094,-83.29499816894531 49.974998474121094,-83.29499816894531 C49.974998474121094,-83.29499816894531 16.6560001373291,-83.29499816894531 16.6560001373291,-83.29499816894531 C16.6560001373291,-83.29499816894531 16.6560001373291,-116.61499786376953 16.6560001373291,-116.61499786376953 C16.6560001373291,-118.18800354003906 16.43899917602539,-119.7020034790039 16.0310001373291,-121.13400268554688 C15.24899959564209,-123.9229965209961 13.767000198364258,-126.41200256347656 11.777999877929688,-128.4010009765625 C8.765000343322754,-131.41400146484375 4.59499979019165,-133.2790069580078 0,-133.2790069580078 C-7.632999897003174,-133.2790069580078 -14.067000389099121,-128.14199829101562 -16.0310001373291,-121.13400268554688 C-16.43899917602539,-119.69400024414062 -16.6560001373291,-118.18000030517578 -16.6560001373291,-116.61499786376953 C-16.6560001373291,-116.61499786376953 -16.6560001373291,-83.29499816894531 -16.6560001373291,-83.29499816894531 C-16.6560001373291,-83.29499816894531 -49.974998474121094,-83.29499816894531 -49.974998474121094,-83.29499816894531 C-49.974998474121094,-83.29499816894531 -49.974998474121094,-105.51100158691406 -49.974998474121094,-105.51100158691406 C-49.974998474121094,-107.46700286865234 -50.30799865722656,-109.33899688720703 -50.93199920654297,-111.0790023803711 C-51.763999938964844,-113.44300079345703 -53.12099838256836,-115.55699920654297 -54.861000061035156,-117.2969970703125 C-57.874000549316406,-120.30999755859375 -62.04399871826172,-122.17500305175781 -66.63899993896484,-122.17500305175781 C-75.83599853515625,-122.17500305175781 -83.29499816894531,-114.71700286865234 -83.29499816894531,-105.51100158691406 C-83.29499816894531,-105.51100158691406 -83.29499816894531,-83.29499816894531 -83.29499816894531,-83.29499816894531 C-83.29499816894531,-83.29499816894531 -105.51100158691406,-83.29499816894531 -105.51100158691406,-83.29499816894531 C-114.70899963378906,-83.29499816894531 -122.17500305175781,-75.83699798583984 -122.17500305175781,-66.63899993896484 C-122.17500305175781,-59.39699935913086 -117.5469970703125,-53.22200012207031 -111.0790023803711,-50.941001892089844 C-109.33899688720703,-50.308998107910156 -107.45899963378906,-49.974998474121094 -105.51100158691406,-49.974998474121094 C-105.51100158691406,-49.974998474121094 -83.29499816894531,-49.974998474121094 -83.29499816894531,-49.974998474121094 C-83.29499816894531,-49.974998474121094 -83.29499816894531,-16.663999557495117 -83.29499816894531,-16.663999557495117 C-83.29499816894531,-16.663999557495117 -116.61499786376953,-16.663999557495117 -116.61499786376953,-16.663999557495117 C-118.18000030517578,-16.663999557495117 -119.68599700927734,-16.447999954223633 -121.1259994506836,-16.040000915527344 C-128.13400268554688,-14.076000213623047 -133.2790069580078,-7.632999897003174 -133.2790069580078,0 C-133.2790069580078,7.632999897003174 -128.14199829101562,14.067000389099121 -121.13400268554688,16.0310001373291 C-119.69400024414062,16.43899917602539 -118.18000030517578,16.6560001373291 -116.61499786376953,16.6560001373291 C-116.61499786376953,16.6560001373291 -83.29499816894531,16.6560001373291 -83.29499816894531,16.6560001373291 C-83.29499816894531,16.6560001373291 -83.29499816894531,49.974998474121094 -83.29499816894531,49.974998474121094 C-83.29499816894531,49.974998474121094 -105.51100158691406,49.974998474121094 -105.51100158691406,49.974998474121094 C-107.45899963378906,49.974998474121094 -109.33899688720703,50.30799865722656 -111.0790023803711,50.941001892089844 C-117.5469970703125,53.22200012207031 -122.17500305175781,59.39799880981445 -122.17500305175781,66.63899993896484 C-122.17500305175781,75.83699798583984 -114.70899963378906,83.29499816894531 -105.51100158691406,83.29499816894531 C-105.51100158691406,83.29499816894531 -83.29499816894531,83.29499816894531 -83.29499816894531,83.29499816894531 C-83.29499816894531,83.29499816894531 -83.29499816894531,105.51100158691406 -83.29499816894531,105.51100158691406 C-83.29499816894531,114.70800018310547 -75.83599853515625,122.17500305175781 -66.63899993896484,122.17500305175781 C-59.39699935913086,122.17500305175781 -53.22100067138672,117.5469970703125 -50.93199920654297,111.0790023803711 C-50.30799865722656,109.33899688720703 -49.974998474121094,107.46700286865234 -49.974998474121094,105.51100158691406 C-49.974998474121094,105.51100158691406 -49.974998474121094,83.29499816894531 -49.974998474121094,83.29499816894531 C-49.974998474121094,83.29499816894531 -16.6560001373291,83.29499816894531 -16.6560001373291,83.29499816894531 C-16.6560001373291,83.29499816894531 -16.6560001373291,116.61499786376953 -16.6560001373291,116.61499786376953 C-16.6560001373291,118.18000030517578 -16.43899917602539,119.69400024414062 -16.0310001373291,121.13400268554688 C-14.067000389099121,128.14199829101562 -7.632999897003174,133.2790069580078 0,133.2790069580078 C7.632999897003174,133.2790069580078 14.067000389099121,128.14199829101562 16.0310001373291,121.13400268554688 C16.43899917602539,119.69400024414062 16.6560001373291,118.18000030517578 16.6560001373291,116.61499786376953 C16.6560001373291,116.61499786376953 16.6560001373291,83.29499816894531 16.6560001373291,83.29499816894531 C16.6560001373291,83.29499816894531 49.974998474121094,83.29499816894531 49.974998474121094,83.29499816894531 C49.974998474121094,83.29499816894531 49.974998474121094,105.51100158691406 49.974998474121094,105.51100158691406 C49.974998474121094,107.46700286865234 50.30799865722656,109.33899688720703 50.93199920654297,111.0790023803711 C53.22100067138672,117.5469970703125 59.39699935913086,122.17500305175781 66.63899993896484,122.17500305175781 C75.83599853515625,122.17500305175781 83.29499816894531,114.70800018310547 83.29499816894531,105.51100158691406 C83.29499816894531,105.51100158691406 83.29499816894531,83.29499816894531 83.29499816894531,83.29499816894531 C83.29499816894531,83.29499816894531 105.51100158691406,83.29499816894531 105.51100158691406,83.29499816894531 C110.10600280761719,83.29499816894531 114.2760009765625,81.43000030517578 117.28900146484375,78.41699981689453 C120.31099700927734,75.40399932861328 122.17500305175781,71.24199676513672 122.17500305175781,66.63899993896484 C122.17500305175781,59.39799880981445 117.5469970703125,53.22200012207031 111.0790023803711,50.941001892089844 C109.33899688720703,50.30799865722656 107.45899963378906,49.974998474121094 105.51100158691406,49.974998474121094 C105.51100158691406,49.974998474121094 83.29499816894531,49.974998474121094 83.29499816894531,49.974998474121094 C83.29499816894531,49.974998474121094 83.29499816894531,16.6560001373291 83.29499816894531,16.6560001373291 C83.29499816894531,16.6560001373291 116.61499786376953,16.6560001373291 116.61499786376953,16.6560001373291z"></path></g><g opacity="1" transform="matrix(1,0,0,1,163.31100463867188,256.4750061035156)"><path stroke-linecap="round" stroke-linejoin="round" fill-opacity="0" stroke="inherit" stroke-opacity="1" stroke-width="12" d=" M16.65999984741211,16.65999984741211 C16.65999984741211,16.65999984741211 -16.65999984741211,16.65999984741211 -16.65999984741211,16.65999984741211 C-16.65999984741211,16.65999984741211 -16.65999984741211,-16.65999984741211 -16.65999984741211,-16.65999984741211 C-16.65999984741211,-16.65999984741211 16.65999984741211,-16.65999984741211 16.65999984741211,-16.65999984741211 C16.65999984741211,-16.65999984741211 16.65999984741211,16.65999984741211 16.65999984741211,16.65999984741211z"></path></g><g opacity="1" transform="matrix(1,0,0,1,163.31100463867188,189.83999633789062)"><path stroke-linecap="round" stroke-linejoin="round" fill-opacity="0" stroke="inherit" stroke-opacity="1" stroke-width="12" d=" M16.65999984741211,16.6560001373291 C16.65999984741211,16.6560001373291 -16.65999984741211,16.6560001373291 -16.65999984741211,16.6560001373291 C-16.65999984741211,16.6560001373291 -16.65999984741211,-16.6560001373291 -16.65999984741211,-16.6560001373291 C-16.65999984741211,-16.6560001373291 16.65999984741211,-16.6560001373291 16.65999984741211,-16.6560001373291 C16.65999984741211,-16.6560001373291 16.65999984741211,16.6560001373291 16.65999984741211,16.6560001373291z"></path></g><g opacity="1" transform="matrix(1,0,0,1,229.94200134277344,256.4750061035156)"><path stroke-linecap="round" stroke-linejoin="round" fill-opacity="0" stroke="inherit" stroke-opacity="1" stroke-width="12" d=" M16.65999984741211,16.65999984741211 C16.65999984741211,16.65999984741211 -16.65999984741211,16.65999984741211 -16.65999984741211,16.65999984741211 C-16.65999984741211,16.65999984741211 -16.65999984741211,-16.65999984741211 -16.65999984741211,-16.65999984741211 C-16.65999984741211,-16.65999984741211 16.65999984741211,-16.65999984741211 16.65999984741211,-16.65999984741211 C16.65999984741211,-16.65999984741211 16.65999984741211,16.65999984741211 16.65999984741211,16.65999984741211z"></path></g><g opacity="1" transform="matrix(1,0,0,1,229.94200134277344,189.83999633789062)"><path stroke-linecap="round" stroke-linejoin="round" fill-opacity="0" stroke="inherit" stroke-opacity="1" stroke-width="12" d=" M16.65999984741211,16.6560001373291 C16.65999984741211,16.6560001373291 -16.65999984741211,16.6560001373291 -16.65999984741211,16.6560001373291 C-16.65999984741211,16.6560001373291 -16.65999984741211,-16.6560001373291 -16.65999984741211,-16.6560001373291 C-16.65999984741211,-16.6560001373291 16.65999984741211,-16.6560001373291 16.65999984741211,-16.6560001373291 C16.65999984741211,-16.6560001373291 16.65999984741211,16.6560001373291 16.65999984741211,16.6560001373291z"></path></g></g></g><g mask="url(#__lottie_element_2597_2)" style="display: block;"><g transform="matrix(1,0,0,1,0,0)" opacity="1"><g opacity="1" transform="matrix(1,0,0,1,230.11000061035156,107.05000305175781)"><path stroke-linecap="round" stroke-linejoin="round" fill-opacity="0" stroke="inherit" stroke-opacity="1" stroke-width="12" d=" M-17.450000762939453,-5.03000020980835 C-5.150000095367432,-3.4100000858306885 6.579999923706055,0.03999999910593033 17.450000762939453,5.03000020980835"></path></g><g opacity="1" transform="matrix(1,0,0,1,163.14500427246094,107.05000305175781)"><path stroke-linecap="round" stroke-linejoin="round" fill-opacity="0" stroke="inherit" stroke-opacity="1" stroke-width="12" d=" M-17.454999923706055,5.03000020980835 C-6.764999866485596,0.11999999731779099 4.744999885559082,-3.2899999618530273 16.825000762939453,-4.929999828338623 C17.03499984741211,-4.96999979019165 17.2450008392334,-5 17.454999923706055,-5.03000020980835"></path></g><g opacity="1" transform="matrix(1,0,0,1,230.11000061035156,339.2650146484375)"><path stroke-linecap="round" stroke-linejoin="round" fill-opacity="0" stroke="inherit" stroke-opacity="1" stroke-width="12" d=" M-17.450000762939453,5.025000095367432 C-5.150000095367432,3.4149999618530273 6.579999923706055,-0.03500000014901161 17.450000762939453,-5.025000095367432"></path></g><g opacity="1" transform="matrix(1,0,0,1,163.14500427246094,339.2650146484375)"><path stroke-linecap="round" stroke-linejoin="round" fill-opacity="0" stroke="inherit" stroke-opacity="1" stroke-width="12" d=" M-17.454999923706055,-5.025000095367432 C-6.574999809265137,-0.03500000014901161 5.144999980926514,3.4149999618530273 17.454999923706055,5.025000095367432"></path></g><g opacity="1" transform="matrix(1,0,0,1,80.5250015258789,189.6699981689453)"><path stroke-linecap="round" stroke-linejoin="round" fill-opacity="0" stroke="inherit" stroke-opacity="1" stroke-width="12" d=" M-5.025000095367432,17.450000762939453 C-3.4149999618530273,5.150000095367432 0.02500000037252903,-6.579999923706055 5.025000095367432,-17.450000762939453"></path></g><g opacity="1" transform="matrix(1,0,0,1,80.5199966430664,256.6449890136719)"><path stroke-linecap="round" stroke-linejoin="round" fill-opacity="0" stroke="inherit" stroke-opacity="1" stroke-width="12" d=" M-5.03000020980835,-17.454999923706055 C-3.4100000858306885,-5.144999980926514 0.029999999329447746,6.585000038146973 5.03000020980835,17.454999923706055"></path></g><g opacity="1" transform="matrix(1,0,0,1,312.7349853515625,256.6449890136719)"><path stroke-linecap="round" stroke-linejoin="round" fill-opacity="0" stroke="inherit" stroke-opacity="1" stroke-width="12" d=" M-5.025000095367432,17.454999923706055 C-0.03500000014901161,6.585000038146973 3.4149999618530273,-5.144999980926514 5.025000095367432,-17.454999923706055"></path></g><g opacity="1" transform="matrix(1,0,0,1,312.7300109863281,189.6750030517578)"><path stroke-linecap="round" stroke-linejoin="round" fill-opacity="0" stroke="inherit" stroke-opacity="1" stroke-width="12" d=" M-5.019999980926514,-17.44499969482422 C-0.029999999329447746,-6.574999809265137 3.4200000762939453,5.144999980926514 5.019999980926514,17.44499969482422"></path></g><g opacity="1" transform="matrix(1,0,0,1,196.6269989013672,223.15899658203125)"><path stroke-linecap="round" stroke-linejoin="round" fill-opacity="0" stroke="inherit" stroke-opacity="1" stroke-width="12" d=" M116.61499786376953,16.6560001373291 C118.18000030517578,16.6560001373291 119.69400024414062,16.43899917602539 121.13400268554688,16.0310001373291 C123.9219970703125,15.256999969482422 126.41200256347656,13.767000198364258 128.4010009765625,11.777999877929688 C131.41400146484375,8.765000343322754 133.2790069580078,4.603000164031982 133.2790069580078,0 C133.2790069580078,-7.632999897003174 128.13400268554688,-14.076000213623047 121.1259994506836,-16.040000915527344 C119.68599700927734,-16.447999954223633 118.18000030517578,-16.663999557495117 116.61499786376953,-16.663999557495117 C116.61499786376953,-16.663999557495117 83.29499816894531,-16.663999557495117 83.29499816894531,-16.663999557495117 C83.29499816894531,-16.663999557495117 83.29499816894531,-49.974998474121094 83.29499816894531,-49.974998474121094 C83.29499816894531,-49.974998474121094 105.51100158691406,-49.974998474121094 105.51100158691406,-49.974998474121094 C107.45899963378906,-49.974998474121094 109.33899688720703,-50.308998107910156 111.0790023803711,-50.93299865722656 C113.44300079345703,-51.76499938964844 115.55799865722656,-53.12099838256836 117.28900146484375,-54.861000061035156 C120.31099700927734,-57.874000549316406 122.17500305175781,-62.0359992980957 122.17500305175781,-66.63899993896484 C122.17500305175781,-75.83699798583984 114.70899963378906,-83.29499816894531 105.51100158691406,-83.29499816894531 C105.51100158691406,-83.29499816894531 83.29499816894531,-83.29499816894531 83.29499816894531,-83.29499816894531 C83.29499816894531,-83.29499816894531 83.29499816894531,-105.51100158691406 83.29499816894531,-105.51100158691406 C83.29499816894531,-110.11399841308594 81.43000030517578,-114.2750015258789 78.41699981689453,-117.2969970703125 C75.40399932861328,-120.30999755859375 71.23400115966797,-122.17500305175781 66.63899993896484,-122.17500305175781 C59.388999938964844,-122.17500305175781 53.22100067138672,-117.5469970703125 50.93199920654297,-111.0790023803711 C50.30799865722656,-109.33899688720703 49.974998474121094,-107.46700286865234 49.974998474121094,-105.51100158691406 C49.974998474121094,-105.51100158691406 49.974998474121094,-83.29499816894531 49.974998474121094,-83.29499816894531 C49.974998474121094,-83.29499816894531 16.6560001373291,-83.29499816894531 16.6560001373291,-83.29499816894531 C16.6560001373291,-83.29499816894531 16.6560001373291,-116.61499786376953 16.6560001373291,-116.61499786376953 C16.6560001373291,-118.18800354003906 16.43899917602539,-119.7020034790039 16.0310001373291,-121.13400268554688 C15.24899959564209,-123.9229965209961 13.767000198364258,-126.41200256347656 11.777999877929688,-128.4010009765625 C8.765000343322754,-131.41400146484375 4.59499979019165,-133.2790069580078 0,-133.2790069580078 C-7.632999897003174,-133.2790069580078 -14.067000389099121,-128.14199829101562 -16.0310001373291,-121.13400268554688 C-16.43899917602539,-119.69400024414062 -16.6560001373291,-118.18000030517578 -16.6560001373291,-116.61499786376953 C-16.6560001373291,-116.61499786376953 -16.6560001373291,-83.29499816894531 -16.6560001373291,-83.29499816894531 C-16.6560001373291,-83.29499816894531 -49.974998474121094,-83.29499816894531 -49.974998474121094,-83.29499816894531 C-49.974998474121094,-83.29499816894531 -49.974998474121094,-105.51100158691406 -49.974998474121094,-105.51100158691406 C-49.974998474121094,-107.46700286865234 -50.30799865722656,-109.33899688720703 -50.93199920654297,-111.0790023803711 C-51.763999938964844,-113.44300079345703 -53.12099838256836,-115.55699920654297 -54.861000061035156,-117.2969970703125 C-57.874000549316406,-120.30999755859375 -62.04399871826172,-122.17500305175781 -66.63899993896484,-122.17500305175781 C-75.83599853515625,-122.17500305175781 -83.29499816894531,-114.71700286865234 -83.29499816894531,-105.51100158691406 C-83.29499816894531,-105.51100158691406 -83.29499816894531,-83.29499816894531 -83.29499816894531,-83.29499816894531 C-83.29499816894531,-83.29499816894531 -105.51100158691406,-83.29499816894531 -105.51100158691406,-83.29499816894531 C-114.70899963378906,-83.29499816894531 -122.17500305175781,-75.83699798583984 -122.17500305175781,-66.63899993896484 C-122.17500305175781,-59.39699935913086 -117.5469970703125,-53.22200012207031 -111.0790023803711,-50.941001892089844 C-109.33899688720703,-50.308998107910156 -107.45899963378906,-49.974998474121094 -105.51100158691406,-49.974998474121094 C-105.51100158691406,-49.974998474121094 -83.29499816894531,-49.974998474121094 -83.29499816894531,-49.974998474121094 C-83.29499816894531,-49.974998474121094 -83.29499816894531,-16.663999557495117 -83.29499816894531,-16.663999557495117 C-83.29499816894531,-16.663999557495117 -116.61499786376953,-16.663999557495117 -116.61499786376953,-16.663999557495117 C-118.18000030517578,-16.663999557495117 -119.68599700927734,-16.447999954223633 -121.1259994506836,-16.040000915527344 C-128.13400268554688,-14.076000213623047 -133.2790069580078,-7.632999897003174 -133.2790069580078,0 C-133.2790069580078,7.632999897003174 -128.14199829101562,14.067000389099121 -121.13400268554688,16.0310001373291 C-119.69400024414062,16.43899917602539 -118.18000030517578,16.6560001373291 -116.61499786376953,16.6560001373291 C-116.61499786376953,16.6560001373291 -83.29499816894531,16.6560001373291 -83.29499816894531,16.6560001373291 C-83.29499816894531,16.6560001373291 -83.29499816894531,49.974998474121094 -83.29499816894531,49.974998474121094 C-83.29499816894531,49.974998474121094 -105.51100158691406,49.974998474121094 -105.51100158691406,49.974998474121094 C-107.45899963378906,49.974998474121094 -109.33899688720703,50.30799865722656 -111.0790023803711,50.941001892089844 C-117.5469970703125,53.22200012207031 -122.17500305175781,59.39799880981445 -122.17500305175781,66.63899993896484 C-122.17500305175781,75.83699798583984 -114.70899963378906,83.29499816894531 -105.51100158691406,83.29499816894531 C-105.51100158691406,83.29499816894531 -83.29499816894531,83.29499816894531 -83.29499816894531,83.29499816894531 C-83.29499816894531,83.29499816894531 -83.29499816894531,105.51100158691406 -83.29499816894531,105.51100158691406 C-83.29499816894531,114.70800018310547 -75.83599853515625,122.17500305175781 -66.63899993896484,122.17500305175781 C-59.39699935913086,122.17500305175781 -53.22100067138672,117.5469970703125 -50.93199920654297,111.0790023803711 C-50.30799865722656,109.33899688720703 -49.974998474121094,107.46700286865234 -49.974998474121094,105.51100158691406 C-49.974998474121094,105.51100158691406 -49.974998474121094,83.29499816894531 -49.974998474121094,83.29499816894531 C-49.974998474121094,83.29499816894531 -16.6560001373291,83.29499816894531 -16.6560001373291,83.29499816894531 C-16.6560001373291,83.29499816894531 -16.6560001373291,116.61499786376953 -16.6560001373291,116.61499786376953 C-16.6560001373291,118.18000030517578 -16.43899917602539,119.69400024414062 -16.0310001373291,121.13400268554688 C-14.067000389099121,128.14199829101562 -7.632999897003174,133.2790069580078 0,133.2790069580078 C7.632999897003174,133.2790069580078 14.067000389099121,128.14199829101562 16.0310001373291,121.13400268554688 C16.43899917602539,119.69400024414062 16.6560001373291,118.18000030517578 16.6560001373291,116.61499786376953 C16.6560001373291,116.61499786376953 16.6560001373291,83.29499816894531 16.6560001373291,83.29499816894531 C16.6560001373291,83.29499816894531 49.974998474121094,83.29499816894531 49.974998474121094,83.29499816894531 C49.974998474121094,83.29499816894531 49.974998474121094,105.51100158691406 49.974998474121094,105.51100158691406 C49.974998474121094,107.46700286865234 50.30799865722656,109.33899688720703 50.93199920654297,111.0790023803711 C53.22100067138672,117.5469970703125 59.39699935913086,122.17500305175781 66.63899993896484,122.17500305175781 C75.83599853515625,122.17500305175781 83.29499816894531,114.70800018310547 83.29499816894531,105.51100158691406 C83.29499816894531,105.51100158691406 83.29499816894531,83.29499816894531 83.29499816894531,83.29499816894531 C83.29499816894531,83.29499816894531 105.51100158691406,83.29499816894531 105.51100158691406,83.29499816894531 C110.10600280761719,83.29499816894531 114.2760009765625,81.43000030517578 117.28900146484375,78.41699981689453 C120.31099700927734,75.40399932861328 122.17500305175781,71.24199676513672 122.17500305175781,66.63899993896484 C122.17500305175781,59.39799880981445 117.5469970703125,53.22200012207031 111.0790023803711,50.941001892089844 C109.33899688720703,50.30799865722656 107.45899963378906,49.974998474121094 105.51100158691406,49.974998474121094 C105.51100158691406,49.974998474121094 83.29499816894531,49.974998474121094 83.29499816894531,49.974998474121094 C83.29499816894531,49.974998474121094 83.29499816894531,16.6560001373291 83.29499816894531,16.6560001373291 C83.29499816894531,16.6560001373291 116.61499786376953,16.6560001373291 116.61499786376953,16.6560001373291z"></path></g><g opacity="1" transform="matrix(1,0,0,1,163.31100463867188,256.4750061035156)"><path stroke-linecap="round" stroke-linejoin="round" fill-opacity="0" stroke="inherit" stroke-opacity="1" stroke-width="12" d=" M16.65999984741211,16.65999984741211 C16.65999984741211,16.65999984741211 -16.65999984741211,16.65999984741211 -16.65999984741211,16.65999984741211 C-16.65999984741211,16.65999984741211 -16.65999984741211,-16.65999984741211 -16.65999984741211,-16.65999984741211 C-16.65999984741211,-16.65999984741211 16.65999984741211,-16.65999984741211 16.65999984741211,-16.65999984741211 C16.65999984741211,-16.65999984741211 16.65999984741211,16.65999984741211 16.65999984741211,16.65999984741211z"></path></g><g opacity="1" transform="matrix(1,0,0,1,163.31100463867188,189.83999633789062)"><path stroke-linecap="round" stroke-linejoin="round" fill-opacity="0" stroke="inherit" stroke-opacity="1" stroke-width="12" d=" M16.65999984741211,16.6560001373291 C16.65999984741211,16.6560001373291 -16.65999984741211,16.6560001373291 -16.65999984741211,16.6560001373291 C-16.65999984741211,16.6560001373291 -16.65999984741211,-16.6560001373291 -16.65999984741211,-16.6560001373291 C-16.65999984741211,-16.6560001373291 16.65999984741211,-16.6560001373291 16.65999984741211,-16.6560001373291 C16.65999984741211,-16.6560001373291 16.65999984741211,16.6560001373291 16.65999984741211,16.6560001373291z"></path></g><g opacity="1" transform="matrix(1,0,0,1,229.94200134277344,256.4750061035156)"><path stroke-linecap="round" stroke-linejoin="round" fill-opacity="0" stroke="inherit" stroke-opacity="1" stroke-width="12" d=" M16.65999984741211,16.65999984741211 C16.65999984741211,16.65999984741211 -16.65999984741211,16.65999984741211 -16.65999984741211,16.65999984741211 C-16.65999984741211,16.65999984741211 -16.65999984741211,-16.65999984741211 -16.65999984741211,-16.65999984741211 C-16.65999984741211,-16.65999984741211 16.65999984741211,-16.65999984741211 16.65999984741211,-16.65999984741211 C16.65999984741211,-16.65999984741211 16.65999984741211,16.65999984741211 16.65999984741211,16.65999984741211z"></path></g><g opacity="1" transform="matrix(1,0,0,1,229.94200134277344,189.83999633789062)"><path stroke-linecap="round" stroke-linejoin="round" fill-opacity="0" stroke="inherit" stroke-opacity="1" stroke-width="12" d=" M16.65999984741211,16.6560001373291 C16.65999984741211,16.6560001373291 -16.65999984741211,16.6560001373291 -16.65999984741211,16.6560001373291 C-16.65999984741211,16.6560001373291 -16.65999984741211,-16.6560001373291 -16.65999984741211,-16.6560001373291 C-16.65999984741211,-16.6560001373291 16.65999984741211,-16.6560001373291 16.65999984741211,-16.6560001373291 C16.65999984741211,-16.6560001373291 16.65999984741211,16.6560001373291 16.65999984741211,16.6560001373291z"></path></g></g></g><g style="display: none;"><g><path stroke-linecap="round" stroke-linejoin="round" fill-opacity="0"></path></g><g><path stroke-linecap="round" stroke-linejoin="round" fill-opacity="0"></path></g><g><path stroke-linecap="round" stroke-linejoin="round" fill-opacity="0"></path></g><g><path stroke-linecap="round" stroke-linejoin="round" fill-opacity="0"></path></g><g><path stroke-linecap="round" stroke-linejoin="round" fill-opacity="0"></path></g><g><path stroke-linecap="round" stroke-linejoin="round" fill-opacity="0"></path></g><g><path stroke-linecap="round" stroke-linejoin="round" fill-opacity="0"></path></g><g><path stroke-linecap="round" stroke-linejoin="round" fill-opacity="0"></path></g><g><path stroke-linecap="round" stroke-linejoin="round" fill-opacity="0"></path></g><g><path stroke-linecap="round" stroke-linejoin="round" fill-opacity="0"></path></g><g><path stroke-linecap="round" stroke-linejoin="round" fill-opacity="0"></path></g><g><path stroke-linecap="round" stroke-linejoin="round" fill-opacity="0"></path></g><g><path stroke-linecap="round" stroke-linejoin="round" fill-opacity="0"></path></g></g><g mask="url(#__lottie_element_2589_2)" style="display: block;"><g transform="matrix(1,0,0,1,0,0)" opacity="1"><g opacity="1" transform="matrix(1,0,0,1,336.70001220703125,160.73500061035156)"><path stroke-linecap="round" stroke-linejoin="round" fill-opacity="0" stroke="inherit" stroke-opacity="1" stroke-width="12" d=" M-17.450000762939453,-5.025000095367432 C-5.150000095367432,-3.4149999618530273 6.579999923706055,0.03500000014901161 17.450000762939453,5.025000095367432"></path></g><g opacity="1" transform="matrix(1,0,0,1,269.739990234375,160.73500061035156)"><path stroke-linecap="round" stroke-linejoin="round" fill-opacity="0" stroke="inherit" stroke-opacity="1" stroke-width="12" d=" M-17.450000762939453,5.025000095367432 C-6.769999980926514,0.11500000208616257 4.75,-3.2950000762939453 16.81999969482422,-4.934999942779541 C17.030000686645508,-4.974999904632568 17.239999771118164,-5.005000114440918 17.450000762939453,-5.025000095367432"></path></g><g opacity="1" transform="matrix(1,0,0,1,269.739990234375,392.94500732421875)"><path stroke-linecap="round" stroke-linejoin="round" fill-opacity="0" stroke="inherit" stroke-opacity="1" stroke-width="12" d=" M-17.450000762939453,-5.025000095367432 C-6.579999923706055,-0.03500000014901161 5.150000095367432,3.4149999618530273 17.450000762939453,5.025000095367432"></path></g><g opacity="1" transform="matrix(1,0,0,1,336.70001220703125,392.94500732421875)"><path stroke-linecap="round" stroke-linejoin="round" fill-opacity="0" stroke="inherit" stroke-opacity="1" stroke-width="12" d=" M-17.450000762939453,5.025000095367432 C-5.150000095367432,3.4149999618530273 6.579999923706055,-0.03500000014901161 17.450000762939453,-5.025000095367432"></path></g><g opacity="1" transform="matrix(1,0,0,1,187.11000061035156,310.32501220703125)"><path stroke-linecap="round" stroke-linejoin="round" fill-opacity="0" stroke="inherit" stroke-opacity="1" stroke-width="12" d=" M-5.03000020980835,-17.454999923706055 C-3.4100000858306885,-5.144999980926514 0.03999999910593033,6.585000038146973 5.03000020980835,17.454999923706055"></path></g><g opacity="1" transform="matrix(1,0,0,1,187.11500549316406,243.35000610351562)"><path stroke-linecap="round" stroke-linejoin="round" fill-opacity="0" stroke="inherit" stroke-opacity="1" stroke-width="12" d=" M-5.025000095367432,17.450000762939453 C-3.4149999618530273,5.150000095367432 0.03500000014901161,-6.579999923706055 5.025000095367432,-17.450000762939453"></path></g><g opacity="1" transform="matrix(1,0,0,1,419.32501220703125,310.32501220703125)"><path stroke-linecap="round" stroke-linejoin="round" fill-opacity="0" stroke="inherit" stroke-opacity="1" stroke-width="12" d=" M-5.025000095367432,17.454999923706055 C-0.03500000014901161,6.585000038146973 3.4149999618530273,-5.144999980926514 5.025000095367432,-17.454999923706055"></path></g><g opacity="1" transform="matrix(1,0,0,1,419.32501220703125,243.35499572753906)"><path stroke-linecap="round" stroke-linejoin="round" fill-opacity="0" stroke="inherit" stroke-opacity="1" stroke-width="12" d=" M-5.025000095367432,-17.44499969482422 C-0.03500000014901161,-6.574999809265137 3.4149999618530273,5.144999980926514 5.025000095367432,17.44499969482422"></path></g><g opacity="1" transform="matrix(1,0,0,1,303.218994140625,276.84100341796875)"><path stroke-linecap="round" stroke-linejoin="round" fill-opacity="0" stroke="inherit" stroke-opacity="1" stroke-width="12" d=" M116.61499786376953,16.6560001373291 C118.18000030517578,16.6560001373291 119.69400024414062,16.43899917602539 121.13400268554688,16.0310001373291 C123.9219970703125,15.256999969482422 126.41200256347656,13.767000198364258 128.4010009765625,11.777999877929688 C131.41400146484375,8.765000343322754 133.2790069580078,4.603000164031982 133.2790069580078,0 C133.2790069580078,-7.632999897003174 128.13400268554688,-14.076000213623047 121.1259994506836,-16.040000915527344 C119.68599700927734,-16.447999954223633 118.18000030517578,-16.663999557495117 116.61499786376953,-16.663999557495117 C116.61499786376953,-16.663999557495117 83.29499816894531,-16.663999557495117 83.29499816894531,-16.663999557495117 C83.29499816894531,-16.663999557495117 83.29499816894531,-49.974998474121094 83.29499816894531,-49.974998474121094 C83.29499816894531,-49.974998474121094 105.51100158691406,-49.974998474121094 105.51100158691406,-49.974998474121094 C107.45899963378906,-49.974998474121094 109.33899688720703,-50.308998107910156 111.0790023803711,-50.93299865722656 C113.44300079345703,-51.76499938964844 115.55799865722656,-53.12099838256836 117.28900146484375,-54.861000061035156 C120.31099700927734,-57.874000549316406 122.17500305175781,-62.0359992980957 122.17500305175781,-66.63899993896484 C122.17500305175781,-75.83699798583984 114.70899963378906,-83.29499816894531 105.51100158691406,-83.29499816894531 C105.51100158691406,-83.29499816894531 83.29499816894531,-83.29499816894531 83.29499816894531,-83.29499816894531 C83.29499816894531,-83.29499816894531 83.29499816894531,-105.51100158691406 83.29499816894531,-105.51100158691406 C83.29499816894531,-110.11399841308594 81.43000030517578,-114.2750015258789 78.41699981689453,-117.2969970703125 C75.40399932861328,-120.30999755859375 71.23400115966797,-122.17500305175781 66.63899993896484,-122.17500305175781 C59.388999938964844,-122.17500305175781 53.22100067138672,-117.5469970703125 50.93199920654297,-111.0790023803711 C50.30799865722656,-109.33899688720703 49.974998474121094,-107.46700286865234 49.974998474121094,-105.51100158691406 C49.974998474121094,-105.51100158691406 49.974998474121094,-83.29499816894531 49.974998474121094,-83.29499816894531 C49.974998474121094,-83.29499816894531 16.6560001373291,-83.29499816894531 16.6560001373291,-83.29499816894531 C16.6560001373291,-83.29499816894531 16.6560001373291,-116.61499786376953 16.6560001373291,-116.61499786376953 C16.6560001373291,-118.18800354003906 16.43899917602539,-119.7020034790039 16.0310001373291,-121.13400268554688 C15.24899959564209,-123.9229965209961 13.767000198364258,-126.41200256347656 11.777999877929688,-128.4010009765625 C8.765000343322754,-131.41400146484375 4.59499979019165,-133.2790069580078 0,-133.2790069580078 C-7.632999897003174,-133.2790069580078 -14.067000389099121,-128.14199829101562 -16.0310001373291,-121.13400268554688 C-16.43899917602539,-119.69400024414062 -16.6560001373291,-118.18000030517578 -16.6560001373291,-116.61499786376953 C-16.6560001373291,-116.61499786376953 -16.6560001373291,-83.29499816894531 -16.6560001373291,-83.29499816894531 C-16.6560001373291,-83.29499816894531 -49.974998474121094,-83.29499816894531 -49.974998474121094,-83.29499816894531 C-49.974998474121094,-83.29499816894531 -49.974998474121094,-105.51100158691406 -49.974998474121094,-105.51100158691406 C-49.974998474121094,-107.46700286865234 -50.30799865722656,-109.33899688720703 -50.93199920654297,-111.0790023803711 C-51.763999938964844,-113.44300079345703 -53.12099838256836,-115.55699920654297 -54.861000061035156,-117.2969970703125 C-57.874000549316406,-120.30999755859375 -62.04399871826172,-122.17500305175781 -66.63899993896484,-122.17500305175781 C-75.83599853515625,-122.17500305175781 -83.29499816894531,-114.71700286865234 -83.29499816894531,-105.51100158691406 C-83.29499816894531,-105.51100158691406 -83.29499816894531,-83.29499816894531 -83.29499816894531,-83.29499816894531 C-83.29499816894531,-83.29499816894531 -105.51100158691406,-83.29499816894531 -105.51100158691406,-83.29499816894531 C-114.70899963378906,-83.29499816894531 -122.17500305175781,-75.83699798583984 -122.17500305175781,-66.63899993896484 C-122.17500305175781,-59.39699935913086 -117.5469970703125,-53.22200012207031 -111.0790023803711,-50.941001892089844 C-109.33899688720703,-50.308998107910156 -107.45899963378906,-49.974998474121094 -105.51100158691406,-49.974998474121094 C-105.51100158691406,-49.974998474121094 -83.29499816894531,-49.974998474121094 -83.29499816894531,-49.974998474121094 C-83.29499816894531,-49.974998474121094 -83.29499816894531,-16.663999557495117 -83.29499816894531,-16.663999557495117 C-83.29499816894531,-16.663999557495117 -116.61499786376953,-16.663999557495117 -116.61499786376953,-16.663999557495117 C-118.18000030517578,-16.663999557495117 -119.68599700927734,-16.447999954223633 -121.1259994506836,-16.040000915527344 C-128.13400268554688,-14.076000213623047 -133.2790069580078,-7.632999897003174 -133.2790069580078,0 C-133.2790069580078,7.632999897003174 -128.14199829101562,14.067000389099121 -121.13400268554688,16.0310001373291 C-119.69400024414062,16.43899917602539 -118.18000030517578,16.6560001373291 -116.61499786376953,16.6560001373291 C-116.61499786376953,16.6560001373291 -83.29499816894531,16.6560001373291 -83.29499816894531,16.6560001373291 C-83.29499816894531,16.6560001373291 -83.29499816894531,49.974998474121094 -83.29499816894531,49.974998474121094 C-83.29499816894531,49.974998474121094 -105.51100158691406,49.974998474121094 -105.51100158691406,49.974998474121094 C-107.45899963378906,49.974998474121094 -109.33899688720703,50.30799865722656 -111.0790023803711,50.941001892089844 C-117.5469970703125,53.22200012207031 -122.17500305175781,59.39799880981445 -122.17500305175781,66.63899993896484 C-122.17500305175781,75.83699798583984 -114.70899963378906,83.29499816894531 -105.51100158691406,83.29499816894531 C-105.51100158691406,83.29499816894531 -83.29499816894531,83.29499816894531 -83.29499816894531,83.29499816894531 C-83.29499816894531,83.29499816894531 -83.29499816894531,105.51100158691406 -83.29499816894531,105.51100158691406 C-83.29499816894531,114.70800018310547 -75.83599853515625,122.17500305175781 -66.63899993896484,122.17500305175781 C-59.39699935913086,122.17500305175781 -53.22100067138672,117.5469970703125 -50.93199920654297,111.0790023803711 C-50.30799865722656,109.33899688720703 -49.974998474121094,107.46700286865234 -49.974998474121094,105.51100158691406 C-49.974998474121094,105.51100158691406 -49.974998474121094,83.29499816894531 -49.974998474121094,83.29499816894531 C-49.974998474121094,83.29499816894531 -16.6560001373291,83.29499816894531 -16.6560001373291,83.29499816894531 C-16.6560001373291,83.29499816894531 -16.6560001373291,116.61499786376953 -16.6560001373291,116.61499786376953 C-16.6560001373291,118.18000030517578 -16.43899917602539,119.69400024414062 -16.0310001373291,121.13400268554688 C-14.067000389099121,128.14199829101562 -7.632999897003174,133.2790069580078 0,133.2790069580078 C7.632999897003174,133.2790069580078 14.067000389099121,128.14199829101562 16.0310001373291,121.13400268554688 C16.43899917602539,119.69400024414062 16.6560001373291,118.18000030517578 16.6560001373291,116.61499786376953 C16.6560001373291,116.61499786376953 16.6560001373291,83.29499816894531 16.6560001373291,83.29499816894531 C16.6560001373291,83.29499816894531 49.974998474121094,83.29499816894531 49.974998474121094,83.29499816894531 C49.974998474121094,83.29499816894531 49.974998474121094,105.51100158691406 49.974998474121094,105.51100158691406 C49.974998474121094,107.46700286865234 50.30799865722656,109.33899688720703 50.93199920654297,111.0790023803711 C53.22100067138672,117.5469970703125 59.39699935913086,122.17500305175781 66.63899993896484,122.17500305175781 C75.83599853515625,122.17500305175781 83.29499816894531,114.70800018310547 83.29499816894531,105.51100158691406 C83.29499816894531,105.51100158691406 83.29499816894531,83.29499816894531 83.29499816894531,83.29499816894531 C83.29499816894531,83.29499816894531 105.51100158691406,83.29499816894531 105.51100158691406,83.29499816894531 C110.10600280761719,83.29499816894531 114.2760009765625,81.43000030517578 117.28900146484375,78.41699981689453 C120.31099700927734,75.40399932861328 122.17500305175781,71.24199676513672 122.17500305175781,66.63899993896484 C122.17500305175781,59.39799880981445 117.5469970703125,53.22200012207031 111.0790023803711,50.941001892089844 C109.33899688720703,50.30799865722656 107.45899963378906,49.974998474121094 105.51100158691406,49.974998474121094 C105.51100158691406,49.974998474121094 83.29499816894531,49.974998474121094 83.29499816894531,49.974998474121094 C83.29499816894531,49.974998474121094 83.29499816894531,16.6560001373291 83.29499816894531,16.6560001373291 C83.29499816894531,16.6560001373291 116.61499786376953,16.6560001373291 116.61499786376953,16.6560001373291z"></path></g><g opacity="1" transform="matrix(1,0,0,1,269.90399169921875,310.156005859375)"><path stroke-linecap="round" stroke-linejoin="round" fill-opacity="0" stroke="inherit" stroke-opacity="1" stroke-width="12" d=" M16.65999984741211,16.65999984741211 C16.65999984741211,16.65999984741211 -16.65999984741211,16.65999984741211 -16.65999984741211,16.65999984741211 C-16.65999984741211,16.65999984741211 -16.65999984741211,-16.65999984741211 -16.65999984741211,-16.65999984741211 C-16.65999984741211,-16.65999984741211 16.65999984741211,-16.65999984741211 16.65999984741211,-16.65999984741211 C16.65999984741211,-16.65999984741211 16.65999984741211,16.65999984741211 16.65999984741211,16.65999984741211z"></path></g><g opacity="1" transform="matrix(1,0,0,1,269.90399169921875,243.52099609375)"><path stroke-linecap="round" stroke-linejoin="round" fill-opacity="0" stroke="inherit" stroke-opacity="1" stroke-width="12" d=" M16.65999984741211,16.6560001373291 C16.65999984741211,16.6560001373291 -16.65999984741211,16.6560001373291 -16.65999984741211,16.6560001373291 C-16.65999984741211,16.6560001373291 -16.65999984741211,-16.6560001373291 -16.65999984741211,-16.6560001373291 C-16.65999984741211,-16.6560001373291 16.65999984741211,-16.6560001373291 16.65999984741211,-16.6560001373291 C16.65999984741211,-16.6560001373291 16.65999984741211,16.6560001373291 16.65999984741211,16.6560001373291z"></path></g><g opacity="1" transform="matrix(1,0,0,1,336.5350036621094,310.156005859375)"><path stroke-linecap="round" stroke-linejoin="round" fill-opacity="0" stroke="inherit" stroke-opacity="1" stroke-width="12" d=" M16.65999984741211,16.65999984741211 C16.65999984741211,16.65999984741211 -16.65999984741211,16.65999984741211 -16.65999984741211,16.65999984741211 C-16.65999984741211,16.65999984741211 -16.65999984741211,-16.65999984741211 -16.65999984741211,-16.65999984741211 C-16.65999984741211,-16.65999984741211 16.65999984741211,-16.65999984741211 16.65999984741211,-16.65999984741211 C16.65999984741211,-16.65999984741211 16.65999984741211,16.65999984741211 16.65999984741211,16.65999984741211z"></path></g><g opacity="1" transform="matrix(1,0,0,1,336.5350036621094,243.52099609375)"><path stroke-linecap="round" stroke-linejoin="round" fill-opacity="0" stroke="inherit" stroke-opacity="1" stroke-width="12" d=" M16.65999984741211,16.6560001373291 C16.65999984741211,16.6560001373291 -16.65999984741211,16.6560001373291 -16.65999984741211,16.6560001373291 C-16.65999984741211,16.6560001373291 -16.65999984741211,-16.6560001373291 -16.65999984741211,-16.6560001373291 C-16.65999984741211,-16.6560001373291 16.65999984741211,-16.6560001373291 16.65999984741211,-16.6560001373291 C16.65999984741211,-16.6560001373291 16.65999984741211,16.6560001373291 16.65999984741211,16.6560001373291z"></path></g></g></g><g style="display: none;"><g><path stroke-linecap="round" stroke-linejoin="round" fill-opacity="0"></path></g></g><g clip-path="url(#__lottie_element_2567)" style="display: none;"><g style="display: none;"><g><path stroke-linecap="round" stroke-linejoin="round" fill-opacity="0"></path></g></g><g style="display: none;"><g><path stroke-linecap="round" stroke-linejoin="round" fill-opacity="0"></path></g></g><g style="display: none;"><g><path stroke-linecap="round" stroke-linejoin="round" fill-opacity="0"></path></g></g><g style="display: none;"><g><path stroke-linecap="round" stroke-linejoin="round" fill-opacity="0"></path></g></g><g style="display: none;"><g><path stroke-linecap="round" stroke-linejoin="round" fill-opacity="0"></path></g></g></g><g clip-path="url(#__lottie_element_2548)" style="display: none;"><g style="display: none;"><g><path stroke-linecap="round" stroke-linejoin="round" fill-opacity="0"></path></g></g><g style="display: none;"><g><path stroke-linecap="round" stroke-linejoin="round" fill-opacity="0"></path></g></g><g style="display: none;"><g><path stroke-linecap="round" stroke-linejoin="round" fill-opacity="0"></path></g></g><g style="display: none;"><g><path stroke-linecap="round" stroke-linejoin="round" fill-opacity="0"></path></g></g><g style="display: none;"><g><path stroke-linecap="round" stroke-linejoin="round" fill-opacity="0"></path></g></g></g><g clip-path="url(#__lottie_element_2529)" style="display: none;"><g style="display: none;"><g><path stroke-linecap="round" stroke-linejoin="round" fill-opacity="0"></path></g></g><g style="display: none;"><g><path stroke-linecap="round" stroke-linejoin="round" fill-opacity="0"></path></g></g><g style="display: none;"><g><path stroke-linecap="round" stroke-linejoin="round" fill-opacity="0"></path></g></g><g style="display: none;"><g><path stroke-linecap="round" stroke-linejoin="round" fill-opacity="0"></path></g></g><g style="display: none;"><g><path stroke-linecap="round" stroke-linejoin="round" fill-opacity="0"></path></g></g></g><g clip-path="url(#__lottie_element_2510)" style="display: none;"><g style="display: none;"><g><path stroke-linecap="round" stroke-linejoin="round" fill-opacity="0"></path></g></g><g style="display: none;"><g><path stroke-linecap="round" stroke-linejoin="round" fill-opacity="0"></path></g></g><g style="display: none;"><g><path stroke-linecap="round" stroke-linejoin="round" fill-opacity="0"></path></g></g><g style="display: none;"><g><path stroke-linecap="round" stroke-linejoin="round" fill-opacity="0"></path></g></g><g style="display: none;"><g><path stroke-linecap="round" stroke-linejoin="round" fill-opacity="0"></path></g></g></g><g clip-path="url(#__lottie_element_2491)" style="display: none;"><g style="display: none;"><g><path stroke-linecap="round" stroke-linejoin="round" fill-opacity="0"></path></g></g><g style="display: none;"><g><path stroke-linecap="round" stroke-linejoin="round" fill-opacity="0"></path></g></g><g style="display: none;"><g><path stroke-linecap="round" stroke-linejoin="round" fill-opacity="0"></path></g></g><g style="display: none;"><g><path stroke-linecap="round" stroke-linejoin="round" fill-opacity="0"></path></g></g><g style="display: none;"><g><path stroke-linecap="round" stroke-linejoin="round" fill-opacity="0"></path></g></g></g><g clip-path="url(#__lottie_element_2472)" style="display: none;"><g style="display: none;"><g><path stroke-linecap="round" stroke-linejoin="round" fill-opacity="0"></path></g></g><g style="display: none;"><g><path stroke-linecap="round" stroke-linejoin="round" fill-opacity="0"></path></g></g><g style="display: none;"><g><path stroke-linecap="round" stroke-linejoin="round" fill-opacity="0"></path></g></g><g style="display: none;"><g><path stroke-linecap="round" stroke-linejoin="round" fill-opacity="0"></path></g></g><g style="display: none;"><g><path stroke-linecap="round" stroke-linejoin="round" fill-opacity="0"></path></g></g></g><g style="display: none;"><path></path></g></g></svg>