<svg xmlns="http://www.w3.org/2000/svg" xmlns:xlink="http://www.w3.org/1999/xlink" viewBox="0 0 500 500" width="500" height="500" preserveAspectRatio="xMidYMid meet" style="width: 100%; height: 100%; transform: translate3d(0px, 0px, 0px); content-visibility: visible;"><defs><clipPath id="__lottie_element_2621"><rect width="500" height="500" x="0" y="0"></rect></clipPath></defs><g clip-path="url(#__lottie_element_2621)"><g transform="matrix(4.5,0,0,4.5,225.24998474121094,205)" opacity="1" style="display: block;"><g opacity="1" transform="matrix(1,0,0,1,0,0)"><path stroke-linecap="round" stroke-linejoin="round" fill-opacity="0" stroke-dasharray=" 47 61" stroke-dashoffset="302" stroke="inherit" stroke-opacity="1" stroke-width="2.8000000000000003" d=" M-12.609999656677246,-39.874000549316406 C-12.109999656677246,-37.58300018310547 -10.197999954223633,-35.875 -7.918000221252441,-35.875 C-7.918000221252441,-35.875 -7.918000221252441,-35.875 -7.918000221252441,-35.875 C-5.25839376449585,-35.875 -3.0989999771118164,-33.52449035644531 -3.0989999771118164,-30.629501342773438 C-3.0989999771118164,-30.629501342773438 -3.0989999771118164,-30.629501342773438 -3.0989999771118164,-30.629501342773438 C-3.0989999771118164,-27.734508514404297 -5.132925987243652,-25.384000778198242 -7.638000011444092,-25.384000778198242 C-7.638000011444092,-25.384000778198242 -7.638000011444092,-25.384000778198242 -7.638000011444092,-25.384000778198242 C-10.143074035644531,-25.384000778198242 -12.179912567138672,-23.225278854370117 -12.183500289916992,-20.566499710083008 C-12.183500289916992,-20.566499710083008 -12.183500289916992,-20.566499710083008 -12.183500289916992,-20.566499710083008 C-12.187087059020996,-17.90772247314453 -10.156073570251465,-15.74899959564209 -7.651000022888184,-15.74899959564209 C-7.651000022888184,-15.74899959564209 -7.651000022888184,-15.74899959564209 -7.651000022888184,-15.74899959564209 C-5.145925998687744,-15.74899959564209 -3.111999988555908,-13.5454683303833 -3.111999988555908,-10.831500053405762 C-3.111999988555908,-10.831500053405762 -3.111999988555908,-10.831500053405762 -3.111999988555908,-10.831500053405762 C-3.111999988555908,-8.117531776428223 -5.145925998687744,-5.914000034332275 -7.651000022888184,-5.914000034332275 C-7.651000022888184,-5.914000034332275 -7.651000022888184,-5.914000034332275 -7.651000022888184,-5.914000034332275 C-8.053000450134277,-5.914000034332275 -8.442999839782715,-5.85699987411499 -8.814000129699707,-5.750999927520752"></path></g></g><g style="display: none;"><g><path stroke-linecap="round" stroke-linejoin="round" fill-opacity="0"></path></g></g><g transform="matrix(4.5,0,0,4.5,292.75,205)" opacity="1" style="display: block;"><g opacity="1" transform="matrix(1,0,0,1,0,0)"><path stroke-linecap="round" stroke-linejoin="round" fill-opacity="0" stroke-dasharray=" 47 61" stroke-dashoffset="302" stroke="inherit" stroke-opacity="1" stroke-width="2.8000000000000003" d=" M-12.609999656677246,-39.874000549316406 C-12.109999656677246,-37.58300018310547 -10.197999954223633,-35.875 -7.918000221252441,-35.875 C-7.918000221252441,-35.875 -7.918000221252441,-35.875 -7.918000221252441,-35.875 C-5.25839376449585,-35.875 -3.0989999771118164,-33.52449035644531 -3.0989999771118164,-30.629501342773438 C-3.0989999771118164,-30.629501342773438 -3.0989999771118164,-30.629501342773438 -3.0989999771118164,-30.629501342773438 C-3.0989999771118164,-27.734508514404297 -5.132925987243652,-25.384000778198242 -7.638000011444092,-25.384000778198242 C-7.638000011444092,-25.384000778198242 -7.638000011444092,-25.384000778198242 -7.638000011444092,-25.384000778198242 C-10.143074035644531,-25.384000778198242 -12.179912567138672,-23.225278854370117 -12.183500289916992,-20.566499710083008 C-12.183500289916992,-20.566499710083008 -12.183500289916992,-20.566499710083008 -12.183500289916992,-20.566499710083008 C-12.187087059020996,-17.90772247314453 -10.156073570251465,-15.74899959564209 -7.651000022888184,-15.74899959564209 C-7.651000022888184,-15.74899959564209 -7.651000022888184,-15.74899959564209 -7.651000022888184,-15.74899959564209 C-5.145925998687744,-15.74899959564209 -3.111999988555908,-13.5454683303833 -3.111999988555908,-10.831500053405762 C-3.111999988555908,-10.831500053405762 -3.111999988555908,-10.831500053405762 -3.111999988555908,-10.831500053405762 C-3.111999988555908,-8.117531776428223 -5.145925998687744,-5.914000034332275 -7.651000022888184,-5.914000034332275 C-7.651000022888184,-5.914000034332275 -7.651000022888184,-5.914000034332275 -7.651000022888184,-5.914000034332275 C-8.053000450134277,-5.914000034332275 -8.442999839782715,-5.85699987411499 -8.814000129699707,-5.750999927520752"></path></g></g><g style="display: none;"><g><path stroke-linecap="round" stroke-linejoin="round" fill-opacity="0"></path></g></g><g transform="matrix(4.5,0,0,4.5,360.25,205)" opacity="1" style="display: block;"><g opacity="1" transform="matrix(1,0,0,1,0,0)"><path stroke-linecap="round" stroke-linejoin="round" fill-opacity="0" stroke-dasharray=" 47 61" stroke-dashoffset="302" stroke="inherit" stroke-opacity="1" stroke-width="2.8000000000000003" d=" M-12.609999656677246,-39.874000549316406 C-12.109999656677246,-37.58300018310547 -10.197999954223633,-35.875 -7.918000221252441,-35.875 C-7.918000221252441,-35.875 -7.918000221252441,-35.875 -7.918000221252441,-35.875 C-5.25839376449585,-35.875 -3.0989999771118164,-33.52449035644531 -3.0989999771118164,-30.629501342773438 C-3.0989999771118164,-30.629501342773438 -3.0989999771118164,-30.629501342773438 -3.0989999771118164,-30.629501342773438 C-3.0989999771118164,-27.734508514404297 -5.132925987243652,-25.384000778198242 -7.638000011444092,-25.384000778198242 C-7.638000011444092,-25.384000778198242 -7.638000011444092,-25.384000778198242 -7.638000011444092,-25.384000778198242 C-10.143074035644531,-25.384000778198242 -12.179912567138672,-23.225278854370117 -12.183500289916992,-20.566499710083008 C-12.183500289916992,-20.566499710083008 -12.183500289916992,-20.566499710083008 -12.183500289916992,-20.566499710083008 C-12.187087059020996,-17.90772247314453 -10.156073570251465,-15.74899959564209 -7.651000022888184,-15.74899959564209 C-7.651000022888184,-15.74899959564209 -7.651000022888184,-15.74899959564209 -7.651000022888184,-15.74899959564209 C-5.145925998687744,-15.74899959564209 -3.111999988555908,-13.5454683303833 -3.111999988555908,-10.831500053405762 C-3.111999988555908,-10.831500053405762 -3.111999988555908,-10.831500053405762 -3.111999988555908,-10.831500053405762 C-3.111999988555908,-8.117531776428223 -5.145925998687744,-5.914000034332275 -7.651000022888184,-5.914000034332275 C-7.651000022888184,-5.914000034332275 -7.651000022888184,-5.914000034332275 -7.651000022888184,-5.914000034332275 C-8.053000450134277,-5.914000034332275 -8.442999839782715,-5.85699987411499 -8.814000129699707,-5.750999927520752"></path></g></g><g style="display: none;"><g><path stroke-linecap="round" stroke-linejoin="round" fill-opacity="0"></path></g></g><g transform="matrix(4.5,0,0,4.5,238.74998474121094,292.75)" opacity="1" style="display: block;"><g opacity="1" transform="matrix(1,0,0,1,0,0)"><path stroke-linecap="butt" stroke-linejoin="miter" fill-opacity="0" stroke-miterlimit="4" stroke="inherit" stroke-opacity="1" stroke-width="2.8000000000000003" d=" M24.465999603271484,-16.451499938964844 C24.465999603271484,-16.48213005065918 24.443145751953125,-16.506999969482422 24.415000915527344,-16.506999969482422 C24.415000915527344,-16.506999969482422 24.415000915527344,-16.506999969482422 24.415000915527344,-16.506999969482422 C24.38685417175293,-16.506999969482422 19.88300132751465,-16.506074905395508 14.36400032043457,-16.504934310913086 C14.36400032043457,-16.504934310913086 -9.201000213623047,-16.500064849853516 -9.201000213623047,-16.500064849853516 C-14.720000267028809,-16.498924255371094 -19.222061157226562,-16.49799919128418 -19.248001098632812,-16.49799919128418 C-19.248001098632812,-16.49799919128418 -19.248001098632812,-16.49799919128418 -19.248001098632812,-16.49799919128418 C-19.27393913269043,-16.49799919128418 -19.295000076293945,-16.47514533996582 -19.295000076293945,-16.446998596191406 C-19.295000076293945,-16.446998596191406 -19.295000076293945,-16.446998596191406 -19.295000076293945,-16.446998596191406 C-19.295000076293945,-16.418853759765625 -19.295000076293945,-11.914999961853027 -19.295000076293945,-6.395999908447266 C-19.295000076293945,-6.395999908447266 -19.295000076293945,17.26300048828125 -19.295000076293945,17.26300048828125 C-19.295000076293945,22.781999588012695 -14.814000129699707,27.26300048828125 -9.295000076293945,27.26300048828125 C-9.295000076293945,27.26300048828125 14.482999801635742,27.26300048828125 14.482999801635742,27.26300048828125 C20.001998901367188,27.26300048828125 24.48125457763672,22.782001495361328 24.47910499572754,17.26300048828125 C24.47910499572754,17.26300048828125 24.469894409179688,-6.396000862121582 24.469894409179688,-6.396000862121582 C24.467744827270508,-11.914999961853027 24.465999603271484,-16.420869827270508 24.465999603271484,-16.451499938964844 C24.465999603271484,-16.451499938964844 24.465999603271484,-16.451499938964844 24.465999603271484,-16.451499938964844z M24.465999603271484,-16.514999389648438 C24.465999603271484,-16.514999389648438 32.95050048828125,-16.502498626708984 32.95050048828125,-16.502498626708984 C37.633094787597656,-16.495601654052734 41.4333610534668,-12.008999824523926 41.43134307861328,-6.490000247955322 C41.43134307861328,-6.490000247955322 41.43065643310547,-4.604999542236328 41.43065643310547,-4.604999542236328 C41.42863845825195,0.9140002727508545 37.64996337890625,5.391191005706787 32.99800109863281,5.386499881744385 C32.99800109863281,5.386499881744385 24.569000244140625,5.377999782562256 24.569000244140625,5.377999782562256"></path></g></g><g transform="matrix(4.5,0,0,4.5,236.5,224.125)" opacity="1" style="display: block;"><g opacity="1" transform="matrix(1,0,0,1,0,0)"><path stroke-linecap="round" stroke-linejoin="round" fill-opacity="0" stroke="inherit" stroke-opacity="1" stroke-width="2.8000000000000003" d=" M-29,42.547000885009766 C-29,42.547000885009766 35.625,42.59400177001953 35.625,42.59400177001953"></path></g></g><g class="com" style="display: none;"><g><path></path><path stroke-linecap="butt" stroke-linejoin="miter" fill-opacity="0" stroke-miterlimit="4"></path></g><g><path></path><path stroke-linecap="butt" stroke-linejoin="miter" fill-opacity="0" stroke-miterlimit="4"></path></g><g><path></path><path stroke-linecap="butt" stroke-linejoin="miter" fill-opacity="0" stroke-miterlimit="4"></path></g><g><path></path><path stroke-linecap="butt" stroke-linejoin="miter" fill-opacity="0" stroke-miterlimit="4"></path></g><g><path></path><path stroke-linecap="butt" stroke-linejoin="miter" fill-opacity="0" stroke-miterlimit="4"></path></g><g><path></path><path stroke-linecap="butt" stroke-linejoin="miter" fill-opacity="0" stroke-miterlimit="4"></path></g><g><path></path><path stroke-linecap="butt" stroke-linejoin="miter" fill-opacity="0" stroke-miterlimit="4"></path></g><g><path></path><path stroke-linecap="butt" stroke-linejoin="miter" fill-opacity="0" stroke-miterlimit="4"></path></g><g><path></path><path stroke-linecap="butt" stroke-linejoin="miter" fill-opacity="0" stroke-miterlimit="4"></path></g><g><path></path><path stroke-linecap="butt" stroke-linejoin="miter" fill-opacity="0" stroke-miterlimit="4"></path></g><g><path></path><path stroke-linecap="butt" stroke-linejoin="miter" fill-opacity="0" stroke-miterlimit="4"></path></g><g><path></path></g></g></g></svg>