<svg xmlns="http://www.w3.org/2000/svg" xmlns:xlink="http://www.w3.org/1999/xlink" viewBox="0 0 500 500" width="500" height="500" preserveAspectRatio="xMidYMid meet" style="width: 100%; height: 100%; transform: translate3d(0px, 0px, 0px); content-visibility: visible;"><defs><clipPath id="__lottie_element_2654"><rect width="500" height="500" x="0" y="0"></rect></clipPath><symbol id="__lottie_element_2674"><g><g style="display: none;"><path></path><g><path stroke-linecap="round" stroke-linejoin="round" fill-opacity="0"></path></g></g></g></symbol><symbol id="__lottie_element_2682"><g><g clip-path="url(#__lottie_element_2683)" transform="matrix(1,0,0,1,0,0)" opacity="1" style="display: block;"><g style="display: none;"><path></path><g><path stroke-linecap="round" stroke-linejoin="round" fill-opacity="0"></path></g><g><path stroke-linecap="round" stroke-linejoin="round" fill-opacity="0"></path></g><g><path stroke-linecap="round" stroke-linejoin="round" fill-opacity="0"></path></g><g><path stroke-linecap="round" stroke-linejoin="round" fill-opacity="0"></path></g></g><g mask="url(#__lottie_element_2686_2)" style="display: block;"><g transform="matrix(1,0,0,1,250,250.00001525878906)" opacity="1"><path fill="inherit" fill-opacity="1" d=" M31.075000762939453,-7.74399995803833 C31.075000762939453,-7.74399995803833 21.746999740600586,-3.055999994277954 21.746999740600586,-3.055999994277954 C15.840999603271484,-0.08699999749660492 8.880999565124512,-0.07999999821186066 2.9690001010894775,-3.0360000133514404 C2.9690001010894775,-3.0360000133514404 2.9690001010894775,-3.0360000133514404 2.9690001010894775,-3.0360000133514404 C-2.928999900817871,-5.985000133514404 -9.871999740600586,-5.985000133514404 -15.770000457763672,-3.0360000133514404 C-15.770000457763672,-3.0360000133514404 -15.795000076293945,-3.0239999294281006 -15.795000076293945,-3.0239999294281006 C-21.69300079345703,-0.07500000298023224 -28.63599967956543,-0.07500000298023224 -34.534000396728516,-3.0239999294281006 C-34.534000396728516,-3.0239999294281006 -34.558998107910156,-3.0360000133514404 -34.558998107910156,-3.0360000133514404 C-40.457000732421875,-5.985000133514404 -47.400001525878906,-5.985000133514404 -53.29800033569336,-3.0360000133514404 C-53.29800033569336,-3.0360000133514404 -53.323001861572266,-3.0239999294281006 -53.323001861572266,-3.0239999294281006 C-59.22100067138672,-0.07500000298023224 -66.16400146484375,-0.07500000298023224 -72.06199645996094,-3.0239999294281006 C-72.06199645996094,-3.0239999294281006 -72.08699798583984,-3.0360000133514404 -72.08699798583984,-3.0360000133514404 C-77.98500061035156,-5.985000133514404 -84.9280014038086,-5.985000133514404 -90.82599639892578,-3.0360000133514404 C-90.82599639892578,-3.0360000133514404 -90.8499984741211,-3.0239999294281006 -90.8499984741211,-3.0239999294281006 C-96.74800109863281,-0.07500000298023224 -103.69200134277344,-0.07500000298023224 -109.58999633789062,-3.0239999294281006 C-109.58999633789062,-3.0239999294281006 -109.61399841308594,-3.0360000133514404 -109.61399841308594,-3.0360000133514404 C-115.51200103759766,-5.985000133514404 -122.45600128173828,-5.985000133514404 -128.35400390625,-3.0360000133514404 C-128.35400390625,-3.0360000133514404 -128.36300659179688,-3.0309998989105225 -128.36300659179688,-3.0309998989105225 C-134.27000427246094,-0.07800000160932541 -141.22300720214844,-0.0820000022649765 -147.12600708007812,-3.0429999828338623 C-147.12600708007812,-3.0429999828338623 -156.4980010986328,-7.74399995803833 -156.4980010986328,-7.74399995803833 C-156.4980010986328,-7.74399995803833 -156.64599609375,-8.15999984741211 -156.64599609375,-8.15999984741211 C-166.82000732421875,-36.70500183105469 -148.47000122070312,-67.46399688720703 -118.51200103759766,-72.03199768066406 C-103.06999969482422,-74.38700103759766 -84.37799835205078,-76.0530014038086 -62.40399932861328,-76.0530014038086 C-40.70600128173828,-76.0530014038086 -22.20800018310547,-74.4280014038086 -6.879000186920166,-72.12000274658203 C23.304000854492188,-67.57599639892578 41.64099884033203,-36.380001068115234 31.075000762939453,-7.74399995803833 C31.075000762939453,-7.74399995803833 31.075000762939453,-7.74399995803833 31.075000762939453,-7.74399995803833z M-156.46200561523438,46.275001525878906 C-156.46200561523438,46.275001525878906 -147.13400268554688,41.58599853515625 -147.13400268554688,41.58599853515625 C-141.22799682617188,38.617000579833984 -134.26699829101562,38.61000061035156 -128.35499572753906,41.566001892089844 C-128.35499572753906,41.566001892089844 -128.35499572753906,41.566001892089844 -128.35499572753906,41.566001892089844 C-122.45700073242188,44.51499938964844 -115.51399993896484,44.51499938964844 -109.61599731445312,41.566001892089844 C-109.61599731445312,41.566001892089844 -109.59100341796875,41.55400085449219 -109.59100341796875,41.55400085449219 C-103.69300079345703,38.60499954223633 -96.75,38.60499954223633 -90.85199737548828,41.55400085449219 C-90.85199737548828,41.55400085449219 -90.8280029296875,41.566001892089844 -90.8280029296875,41.566001892089844 C-84.93000030517578,44.51499938964844 -77.98600006103516,44.51499938964844 -72.08799743652344,41.566001892089844 C-72.08799743652344,41.566001892089844 -72.06400299072266,41.55400085449219 -72.06400299072266,41.55400085449219 C-66.16600036621094,38.60499954223633 -59.222999572753906,38.60499954223633 -53.32500076293945,41.55400085449219 C-53.32500076293945,41.55400085449219 -53.29999923706055,41.566001892089844 -53.29999923706055,41.566001892089844 C-47.402000427246094,44.51499938964844 -40.45899963378906,44.51499938964844 -34.56100082397461,41.566001892089844 C-34.56100082397461,41.566001892089844 -34.5359992980957,41.55400085449219 -34.5359992980957,41.55400085449219 C-28.63800048828125,38.60499954223633 -21.69499969482422,38.60499954223633 -15.79699993133545,41.55400085449219 C-15.79699993133545,41.55400085449219 -15.772000312805176,41.566001892089844 -15.772000312805176,41.566001892089844 C-9.87399959564209,44.51499938964844 -2.930999994277954,44.51499938964844 2.9670000076293945,41.566001892089844 C2.9670000076293945,41.566001892089844 2.9769999980926514,41.56100082397461 2.9769999980926514,41.56100082397461 C8.883999824523926,38.608001708984375 15.836999893188477,38.612998962402344 21.739999771118164,41.57400131225586 C21.739999771118164,41.57400131225586 31.11199951171875,46.275001525878906 31.11199951171875,46.275001525878906 C31.11199951171875,46.275001525878906 31.260000228881836,46.689998626708984 31.260000228881836,46.689998626708984 C41.433998107910156,75.23500061035156 23.083999633789062,105.99400329589844 -6.874000072479248,110.56199645996094 C-22.31599998474121,112.91699981689453 -41.00899887084961,114.58399963378906 -62.983001708984375,114.58399963378906 C-84.68099975585938,114.58399963378906 -103.17900085449219,112.95899963378906 -118.50800323486328,110.6510009765625 C-148.6909942626953,106.10700225830078 -167.0279998779297,74.91100311279297 -156.46200561523438,46.275001525878906 C-156.46200561523438,46.275001525878906 -156.46200561523438,46.275001525878906 -156.46200561523438,46.275001525878906z M-136.25,-1 C-136.25,-1 -121.25,-11 -121.25,-11 C-121.25,-11 -38.79899978637695,-12.184000015258789 -3.503000020980835,-9.70199966430664 C4.355999946594238,-9.14900016784668 7.73799991607666,-0.8119999766349792 9.763999938964844,-0.8119999766349792 C20.886999130249023,-0.8119999766349792 29.905000686645508,8.206000328063965 29.905000686645508,19.32900047302246 C29.905000686645508,19.32900047302246 29.905000686645508,19.32900047302246 29.905000686645508,19.32900047302246 C29.905000686645508,30.45199966430664 20.886999130249023,39.470001220703125 9.763999938964844,39.470001220703125 C9.763999938964844,39.470001220703125 -16.25,48.25 -16.25,48.25 C-16.25,48.25 -134.25,45 -134.25,45 M-135.86900329589844,39.470001220703125 C-146.99200439453125,39.470001220703125 -156.00999450683594,30.45199966430664 -156.00999450683594,19.32900047302246 C-156.00999450683594,19.32900047302246 -156.00999450683594,19.32900047302246 -156.00999450683594,19.32900047302246 C-156.00999450683594,8.206000328063965 -146.99200439453125,-0.8119999766349792 -135.86900329589844,-0.8119999766349792"></path><g opacity="1" transform="matrix(1,0,0,1,0,0)"><path stroke-linecap="round" stroke-linejoin="round" fill-opacity="0" stroke-dasharray=" 1 72" stroke-dashoffset="0" stroke="inherit" stroke-opacity="1" stroke-width="0" d="M0 0"></path></g><g opacity="1" transform="matrix(1,0,0,1,0,0)"><path stroke-linecap="round" stroke-linejoin="round" fill-opacity="0" stroke="inherit" stroke-opacity="1" stroke-width="0" d=" M31.075000762939453,-7.74399995803833 C31.075000762939453,-7.74399995803833 21.746999740600586,-3.055999994277954 21.746999740600586,-3.055999994277954 C15.840999603271484,-0.08699999749660492 8.880999565124512,-0.07999999821186066 2.9690001010894775,-3.0360000133514404 C2.9690001010894775,-3.0360000133514404 2.9690001010894775,-3.0360000133514404 2.9690001010894775,-3.0360000133514404 C-2.928999900817871,-5.985000133514404 -9.871999740600586,-5.985000133514404 -15.770000457763672,-3.0360000133514404 C-15.770000457763672,-3.0360000133514404 -15.795000076293945,-3.0239999294281006 -15.795000076293945,-3.0239999294281006 C-21.69300079345703,-0.07500000298023224 -28.63599967956543,-0.07500000298023224 -34.534000396728516,-3.0239999294281006 C-34.534000396728516,-3.0239999294281006 -34.558998107910156,-3.0360000133514404 -34.558998107910156,-3.0360000133514404 C-40.457000732421875,-5.985000133514404 -47.400001525878906,-5.985000133514404 -53.29800033569336,-3.0360000133514404 C-53.29800033569336,-3.0360000133514404 -53.323001861572266,-3.0239999294281006 -53.323001861572266,-3.0239999294281006 C-59.22100067138672,-0.07500000298023224 -66.16400146484375,-0.07500000298023224 -72.06199645996094,-3.0239999294281006 C-72.06199645996094,-3.0239999294281006 -72.08699798583984,-3.0360000133514404 -72.08699798583984,-3.0360000133514404 C-77.98500061035156,-5.985000133514404 -84.9280014038086,-5.985000133514404 -90.82599639892578,-3.0360000133514404 C-90.82599639892578,-3.0360000133514404 -90.8499984741211,-3.0239999294281006 -90.8499984741211,-3.0239999294281006 C-96.74800109863281,-0.07500000298023224 -103.69200134277344,-0.07500000298023224 -109.58999633789062,-3.0239999294281006 C-109.58999633789062,-3.0239999294281006 -109.61399841308594,-3.0360000133514404 -109.61399841308594,-3.0360000133514404 C-115.51200103759766,-5.985000133514404 -122.45600128173828,-5.985000133514404 -128.35400390625,-3.0360000133514404 C-128.35400390625,-3.0360000133514404 -128.36300659179688,-3.0309998989105225 -128.36300659179688,-3.0309998989105225 C-134.27000427246094,-0.07800000160932541 -141.22300720214844,-0.0820000022649765 -147.12600708007812,-3.0429999828338623 C-147.12600708007812,-3.0429999828338623 -156.4980010986328,-7.74399995803833 -156.4980010986328,-7.74399995803833 C-156.4980010986328,-7.74399995803833 -156.64599609375,-8.15999984741211 -156.64599609375,-8.15999984741211 C-166.82000732421875,-36.70500183105469 -148.47000122070312,-67.46399688720703 -118.51200103759766,-72.03199768066406 C-103.06999969482422,-74.38700103759766 -84.37799835205078,-76.0530014038086 -62.40399932861328,-76.0530014038086 C-40.70600128173828,-76.0530014038086 -22.20800018310547,-74.4280014038086 -6.879000186920166,-72.12000274658203 C23.304000854492188,-67.57599639892578 41.64099884033203,-36.380001068115234 31.075000762939453,-7.74399995803833 C31.075000762939453,-7.74399995803833 31.075000762939453,-7.74399995803833 31.075000762939453,-7.74399995803833z"></path></g><g opacity="1" transform="matrix(1,0,0,1,0,0)"><path stroke-linecap="round" stroke-linejoin="round" fill-opacity="0" stroke="inherit" stroke-opacity="1" stroke-width="0" d=" M-156.46200561523438,46.275001525878906 C-156.46200561523438,46.275001525878906 -147.13400268554688,41.58599853515625 -147.13400268554688,41.58599853515625 C-141.22799682617188,38.617000579833984 -134.26699829101562,38.61000061035156 -128.35499572753906,41.566001892089844 C-128.35499572753906,41.566001892089844 -128.35499572753906,41.566001892089844 -128.35499572753906,41.566001892089844 C-122.45700073242188,44.51499938964844 -115.51399993896484,44.51499938964844 -109.61599731445312,41.566001892089844 C-109.61599731445312,41.566001892089844 -109.59100341796875,41.55400085449219 -109.59100341796875,41.55400085449219 C-103.69300079345703,38.60499954223633 -96.75,38.60499954223633 -90.85199737548828,41.55400085449219 C-90.85199737548828,41.55400085449219 -90.8280029296875,41.566001892089844 -90.8280029296875,41.566001892089844 C-84.93000030517578,44.51499938964844 -77.98600006103516,44.51499938964844 -72.08799743652344,41.566001892089844 C-72.08799743652344,41.566001892089844 -72.06400299072266,41.55400085449219 -72.06400299072266,41.55400085449219 C-66.16600036621094,38.60499954223633 -59.222999572753906,38.60499954223633 -53.32500076293945,41.55400085449219 C-53.32500076293945,41.55400085449219 -53.29999923706055,41.566001892089844 -53.29999923706055,41.566001892089844 C-47.402000427246094,44.51499938964844 -40.45899963378906,44.51499938964844 -34.56100082397461,41.566001892089844 C-34.56100082397461,41.566001892089844 -34.5359992980957,41.55400085449219 -34.5359992980957,41.55400085449219 C-28.63800048828125,38.60499954223633 -21.69499969482422,38.60499954223633 -15.79699993133545,41.55400085449219 C-15.79699993133545,41.55400085449219 -15.772000312805176,41.566001892089844 -15.772000312805176,41.566001892089844 C-9.87399959564209,44.51499938964844 -2.930999994277954,44.51499938964844 2.9670000076293945,41.566001892089844 C2.9670000076293945,41.566001892089844 2.9769999980926514,41.56100082397461 2.9769999980926514,41.56100082397461 C8.883999824523926,38.608001708984375 15.836999893188477,38.612998962402344 21.739999771118164,41.57400131225586 C21.739999771118164,41.57400131225586 31.11199951171875,46.275001525878906 31.11199951171875,46.275001525878906 C31.11199951171875,46.275001525878906 31.260000228881836,46.689998626708984 31.260000228881836,46.689998626708984 C41.433998107910156,75.23500061035156 23.083999633789062,105.99400329589844 -6.874000072479248,110.56199645996094 C-22.31599998474121,112.91699981689453 -41.00899887084961,114.58399963378906 -62.983001708984375,114.58399963378906 C-84.68099975585938,114.58399963378906 -103.17900085449219,112.95899963378906 -118.50800323486328,110.6510009765625 C-148.6909942626953,106.10700225830078 -167.0279998779297,74.91100311279297 -156.46200561523438,46.275001525878906 C-156.46200561523438,46.275001525878906 -156.46200561523438,46.275001525878906 -156.46200561523438,46.275001525878906z"></path></g><g opacity="1" transform="matrix(1,0,0,1,0,0)"><path stroke-linecap="round" stroke-linejoin="round" fill-opacity="0" stroke="inherit" stroke-opacity="1" stroke-width="0" d=" M-136.25,-1 C-136.25,-1 -121.25,-11 -121.25,-11 C-121.25,-11 -38.79899978637695,-12.184000015258789 -3.503000020980835,-9.70199966430664 C4.355999946594238,-9.14900016784668 7.73799991607666,-0.8119999766349792 9.763999938964844,-0.8119999766349792 C20.886999130249023,-0.8119999766349792 29.905000686645508,8.206000328063965 29.905000686645508,19.32900047302246 C29.905000686645508,19.32900047302246 29.905000686645508,19.32900047302246 29.905000686645508,19.32900047302246 C29.905000686645508,30.45199966430664 20.886999130249023,39.470001220703125 9.763999938964844,39.470001220703125 C9.763999938964844,39.470001220703125 -16.25,48.25 -16.25,48.25 C-16.25,48.25 -134.25,45 -134.25,45 M-135.86900329589844,39.470001220703125 C-146.99200439453125,39.470001220703125 -156.00999450683594,30.45199966430664 -156.00999450683594,19.32900047302246 C-156.00999450683594,19.32900047302246 -156.00999450683594,19.32900047302246 -156.00999450683594,19.32900047302246 C-156.00999450683594,8.206000328063965 -146.99200439453125,-0.8119999766349792 -135.86900329589844,-0.8119999766349792"></path></g></g></g></g></g></symbol><clipPath id="__lottie_element_2683"><path d="M0,0 L500,0 L500,500 L0,500z"></path></clipPath><symbol id="__lottie_element_2686"><g><g style="display: none;"><path></path><g><path stroke-linecap="round" stroke-linejoin="round" fill-opacity="0"></path></g></g></g></symbol><filter id="__lottie_element_2695" filterUnits="objectBoundingBox" x="0%" y="0%" width="100%" height="100%"><feComponentTransfer in="SourceGraphic"><feFuncA type="table" tableValues="1.0 0.0"></feFuncA></feComponentTransfer></filter><mask id="__lottie_element_2686_2" mask-type="alpha"><g filter="url(#__lottie_element_2695)"><rect width="500" height="500" x="0" y="0" fill="#ffffff" opacity="0"></rect><use xlink:href="#__lottie_element_2686"></use></g></mask><clipPath id="__lottie_element_2697"><path d="M0,0 L500,0 L500,500 L0,500z"></path></clipPath><symbol id="__lottie_element_2713"><g><g style="display: none;"><path></path><g><path stroke-linecap="round" stroke-linejoin="round" fill-opacity="0"></path></g></g></g></symbol><filter id="__lottie_element_2722" filterUnits="objectBoundingBox" x="0%" y="0%" width="100%" height="100%"><feComponentTransfer in="SourceGraphic"><feFuncA type="table" tableValues="1.0 0.0"></feFuncA></feComponentTransfer></filter><mask id="__lottie_element_2713_2" mask-type="alpha"><g filter="url(#__lottie_element_2722)"><rect width="500" height="500" x="0" y="0" fill="#ffffff" opacity="0"></rect><use xlink:href="#__lottie_element_2713"></use></g></mask><filter id="__lottie_element_2723" filterUnits="objectBoundingBox" x="0%" y="0%" width="100%" height="100%"><feComponentTransfer in="SourceGraphic"><feFuncA type="table" tableValues="1.0 0.0"></feFuncA></feComponentTransfer></filter><mask id="__lottie_element_2682_2" mask-type="alpha"><g filter="url(#__lottie_element_2723)"><rect width="500" height="500" x="0" y="0" fill="#ffffff" opacity="0"></rect><use xlink:href="#__lottie_element_2682"></use></g></mask><filter id="__lottie_element_2724" filterUnits="objectBoundingBox" x="0%" y="0%" width="100%" height="100%"><feComponentTransfer in="SourceGraphic"><feFuncA type="table" tableValues="1.0 0.0"></feFuncA></feComponentTransfer></filter><mask id="__lottie_element_2674_2" mask-type="alpha"><g filter="url(#__lottie_element_2724)"><rect width="500" height="500" x="0" y="0" fill="#ffffff" opacity="0"></rect><use xlink:href="#__lottie_element_2674"></use></g></mask></defs><g clip-path="url(#__lottie_element_2654)"><g mask="url(#__lottie_element_2682_2)" style="display: block;"><g clip-path="url(#__lottie_element_2697)" transform="matrix(1,0,0,1,0,0)" opacity="1"><g style="display: none;"><g><path stroke-linecap="round" stroke-linejoin="round" fill-opacity="0"></path></g><g><path stroke-linecap="round" stroke-linejoin="round" fill-opacity="0"></path></g><g><path stroke-linecap="round" stroke-linejoin="round" fill-opacity="0"></path></g><g><path stroke-linecap="round" stroke-linejoin="round" fill-opacity="0"></path></g></g><g mask="url(#__lottie_element_2713_2)" style="display: block;"><g transform="matrix(0.7071067690849304,0.7071067690849304,-0.7071067690849304,0.7071067690849304,354.1607666015625,279.89154052734375)" opacity="1"><g opacity="1" transform="matrix(1,0,0,1,0,0)"><path stroke-linecap="round" stroke-linejoin="round" fill-opacity="0" stroke-dasharray=" 1 72" stroke-dashoffset="0" stroke="inherit" stroke-opacity="1" stroke-width="12.6" d=" M-125.87300109863281,-36.380001068115234 C-125.87300109863281,-44.196998596191406 -50.39500045776367,-19.375999450683594 -43.790000915527344,-45.358001708984375 C-35.26599884033203,-78.88700103759766 0.7160000205039978,-44.64400100708008 2.6689999103546143,-37.21099853515625 M2.6689999103546143,69.9489974975586 C2.6689999103546143,77.76599884033203 -72.80899810791016,52.94499969482422 -79.41400146484375,78.927001953125 C-87.93800354003906,112.45600128173828 -123.91999816894531,78.21299743652344 -125.87300109863281,70.77999877929688"></path></g><g opacity="1" transform="matrix(1,0,0,1,0,0)"><path stroke-linecap="round" stroke-linejoin="round" fill-opacity="0" stroke="inherit" stroke-opacity="1" stroke-width="12.6" d=" M31.075000762939453,-7.74399995803833 C31.075000762939453,-7.74399995803833 21.746999740600586,-3.055999994277954 21.746999740600586,-3.055999994277954 C15.840999603271484,-0.08699999749660492 8.880999565124512,-0.07999999821186066 2.9690001010894775,-3.0360000133514404 C2.9690001010894775,-3.0360000133514404 2.9690001010894775,-3.0360000133514404 2.9690001010894775,-3.0360000133514404 C-2.928999900817871,-5.985000133514404 -9.871999740600586,-5.985000133514404 -15.770000457763672,-3.0360000133514404 C-15.770000457763672,-3.0360000133514404 -15.795000076293945,-3.0239999294281006 -15.795000076293945,-3.0239999294281006 C-21.69300079345703,-0.07500000298023224 -28.63599967956543,-0.07500000298023224 -34.534000396728516,-3.0239999294281006 C-34.534000396728516,-3.0239999294281006 -34.558998107910156,-3.0360000133514404 -34.558998107910156,-3.0360000133514404 C-40.457000732421875,-5.985000133514404 -47.400001525878906,-5.985000133514404 -53.29800033569336,-3.0360000133514404 C-53.29800033569336,-3.0360000133514404 -53.323001861572266,-3.0239999294281006 -53.323001861572266,-3.0239999294281006 C-59.22100067138672,-0.07500000298023224 -66.16400146484375,-0.07500000298023224 -72.06199645996094,-3.0239999294281006 C-72.06199645996094,-3.0239999294281006 -72.08699798583984,-3.0360000133514404 -72.08699798583984,-3.0360000133514404 C-77.98500061035156,-5.985000133514404 -84.9280014038086,-5.985000133514404 -90.82599639892578,-3.0360000133514404 C-90.82599639892578,-3.0360000133514404 -90.8499984741211,-3.0239999294281006 -90.8499984741211,-3.0239999294281006 C-96.74800109863281,-0.07500000298023224 -103.69200134277344,-0.07500000298023224 -109.58999633789062,-3.0239999294281006 C-109.58999633789062,-3.0239999294281006 -109.61399841308594,-3.0360000133514404 -109.61399841308594,-3.0360000133514404 C-115.51200103759766,-5.985000133514404 -122.45600128173828,-5.985000133514404 -128.35400390625,-3.0360000133514404 C-128.35400390625,-3.0360000133514404 -128.36300659179688,-3.0309998989105225 -128.36300659179688,-3.0309998989105225 C-134.27000427246094,-0.07800000160932541 -141.22300720214844,-0.0820000022649765 -147.12600708007812,-3.0429999828338623 C-147.12600708007812,-3.0429999828338623 -156.4980010986328,-7.74399995803833 -156.4980010986328,-7.74399995803833 C-156.4980010986328,-7.74399995803833 -156.64599609375,-8.15999984741211 -156.64599609375,-8.15999984741211 C-166.82000732421875,-36.70500183105469 -148.47000122070312,-67.46399688720703 -118.51200103759766,-72.03199768066406 C-103.06999969482422,-74.38700103759766 -84.37799835205078,-76.0530014038086 -62.40399932861328,-76.0530014038086 C-40.70600128173828,-76.0530014038086 -22.20800018310547,-74.4280014038086 -6.879000186920166,-72.12000274658203 C23.304000854492188,-67.57599639892578 41.64099884033203,-36.380001068115234 31.075000762939453,-7.74399995803833 C31.075000762939453,-7.74399995803833 31.075000762939453,-7.74399995803833 31.075000762939453,-7.74399995803833z"></path></g><g opacity="1" transform="matrix(1,0,0,1,0,0)"><path stroke-linecap="round" stroke-linejoin="round" fill-opacity="0" stroke="inherit" stroke-opacity="1" stroke-width="12.6" d=" M-156.46200561523438,46.275001525878906 C-156.46200561523438,46.275001525878906 -147.13400268554688,41.58599853515625 -147.13400268554688,41.58599853515625 C-141.22799682617188,38.617000579833984 -134.26699829101562,38.61000061035156 -128.35499572753906,41.566001892089844 C-128.35499572753906,41.566001892089844 -128.35499572753906,41.566001892089844 -128.35499572753906,41.566001892089844 C-122.45700073242188,44.51499938964844 -115.51399993896484,44.51499938964844 -109.61599731445312,41.566001892089844 C-109.61599731445312,41.566001892089844 -109.59100341796875,41.55400085449219 -109.59100341796875,41.55400085449219 C-103.69300079345703,38.60499954223633 -96.75,38.60499954223633 -90.85199737548828,41.55400085449219 C-90.85199737548828,41.55400085449219 -90.8280029296875,41.566001892089844 -90.8280029296875,41.566001892089844 C-84.93000030517578,44.51499938964844 -77.98600006103516,44.51499938964844 -72.08799743652344,41.566001892089844 C-72.08799743652344,41.566001892089844 -72.06400299072266,41.55400085449219 -72.06400299072266,41.55400085449219 C-66.16600036621094,38.60499954223633 -59.222999572753906,38.60499954223633 -53.32500076293945,41.55400085449219 C-53.32500076293945,41.55400085449219 -53.29999923706055,41.566001892089844 -53.29999923706055,41.566001892089844 C-47.402000427246094,44.51499938964844 -40.45899963378906,44.51499938964844 -34.56100082397461,41.566001892089844 C-34.56100082397461,41.566001892089844 -34.5359992980957,41.55400085449219 -34.5359992980957,41.55400085449219 C-28.63800048828125,38.60499954223633 -21.69499969482422,38.60499954223633 -15.79699993133545,41.55400085449219 C-15.79699993133545,41.55400085449219 -15.772000312805176,41.566001892089844 -15.772000312805176,41.566001892089844 C-9.87399959564209,44.51499938964844 -2.930999994277954,44.51499938964844 2.9670000076293945,41.566001892089844 C2.9670000076293945,41.566001892089844 2.9769999980926514,41.56100082397461 2.9769999980926514,41.56100082397461 C8.883999824523926,38.608001708984375 15.836999893188477,38.612998962402344 21.739999771118164,41.57400131225586 C21.739999771118164,41.57400131225586 31.11199951171875,46.275001525878906 31.11199951171875,46.275001525878906 C31.11199951171875,46.275001525878906 31.260000228881836,46.689998626708984 31.260000228881836,46.689998626708984 C41.433998107910156,75.23500061035156 23.083999633789062,105.99400329589844 -6.874000072479248,110.56199645996094 C-22.31599998474121,112.91699981689453 -41.00899887084961,114.58399963378906 -62.983001708984375,114.58399963378906 C-84.68099975585938,114.58399963378906 -103.17900085449219,112.95899963378906 -118.50800323486328,110.6510009765625 C-148.6909942626953,106.10700225830078 -167.0279998779297,74.91100311279297 -156.46200561523438,46.275001525878906 C-156.46200561523438,46.275001525878906 -156.46200561523438,46.275001525878906 -156.46200561523438,46.275001525878906z"></path></g><g opacity="1" transform="matrix(1,0,0,1,0,0)"><path stroke-linecap="round" stroke-linejoin="round" fill-opacity="0" stroke="inherit" stroke-opacity="1" stroke-width="12.6" d=" M9.763999938964844,-0.8119999766349792 C20.886999130249023,-0.8119999766349792 29.905000686645508,8.206000328063965 29.905000686645508,19.32900047302246 C29.905000686645508,19.32900047302246 29.905000686645508,19.32900047302246 29.905000686645508,19.32900047302246 C29.905000686645508,30.45199966430664 20.886999130249023,39.470001220703125 9.763999938964844,39.470001220703125 M-135.86900329589844,39.470001220703125 C-146.99200439453125,39.470001220703125 -156.00999450683594,30.45199966430664 -156.00999450683594,19.32900047302246 C-156.00999450683594,19.32900047302246 -156.00999450683594,19.32900047302246 -156.00999450683594,19.32900047302246 C-156.00999450683594,8.206000328063965 -146.99200439453125,-0.8119999766349792 -135.86900329589844,-0.8119999766349792"></path></g></g></g><g style="display: none;"><g><path stroke-linecap="round" stroke-linejoin="round" fill-opacity="0"></path></g></g><g style="display: none;"><g><path stroke-linecap="round" stroke-linejoin="round" fill-opacity="0"></path></g></g><g style="display: none;"><g><path stroke-linecap="round" stroke-linejoin="round" fill-opacity="0"></path></g></g><g style="display: none;"><g><path stroke-linecap="round" stroke-linejoin="round" fill-opacity="0"></path></g></g></g></g><g style="display: none;"><g><path stroke-linecap="round" stroke-linejoin="round" fill-opacity="0"></path></g><g><path stroke-linecap="round" stroke-linejoin="round" fill-opacity="0"></path></g><g><path stroke-linecap="round" stroke-linejoin="round" fill-opacity="0"></path></g><g><path stroke-linecap="round" stroke-linejoin="round" fill-opacity="0"></path></g></g><g mask="url(#__lottie_element_2674_2)" style="display: block;"><g transform="matrix(1,0,0,1,250,250)" opacity="1"><g opacity="1" transform="matrix(1,0,0,1,0,0)"><path stroke-linecap="round" stroke-linejoin="round" fill-opacity="0" stroke-dasharray=" 1 72" stroke-dashoffset="0" stroke="inherit" stroke-opacity="1" stroke-width="12.6" d=" M-125.87300109863281,-36.380001068115234 C-125.87300109863281,-44.196998596191406 -50.39500045776367,-19.375999450683594 -43.790000915527344,-45.358001708984375 C-35.26599884033203,-78.88700103759766 0.7160000205039978,-44.64400100708008 2.6689999103546143,-37.21099853515625 M2.6689999103546143,69.9489974975586 C2.6689999103546143,77.76599884033203 -72.80899810791016,52.94499969482422 -79.41400146484375,78.927001953125 C-87.93800354003906,112.45600128173828 -123.91999816894531,78.21299743652344 -125.87300109863281,70.77999877929688"></path></g><g opacity="1" transform="matrix(1,0,0,1,0,0)"><path stroke-linecap="round" stroke-linejoin="round" fill-opacity="0" stroke="inherit" stroke-opacity="1" stroke-width="12.6" d=" M31.075000762939453,-7.74399995803833 C31.075000762939453,-7.74399995803833 21.746999740600586,-3.055999994277954 21.746999740600586,-3.055999994277954 C15.840999603271484,-0.08699999749660492 8.880999565124512,-0.07999999821186066 2.9690001010894775,-3.0360000133514404 C2.9690001010894775,-3.0360000133514404 2.9690001010894775,-3.0360000133514404 2.9690001010894775,-3.0360000133514404 C-2.928999900817871,-5.985000133514404 -9.871999740600586,-5.985000133514404 -15.770000457763672,-3.0360000133514404 C-15.770000457763672,-3.0360000133514404 -15.795000076293945,-3.0239999294281006 -15.795000076293945,-3.0239999294281006 C-21.69300079345703,-0.07500000298023224 -28.63599967956543,-0.07500000298023224 -34.534000396728516,-3.0239999294281006 C-34.534000396728516,-3.0239999294281006 -34.558998107910156,-3.0360000133514404 -34.558998107910156,-3.0360000133514404 C-40.457000732421875,-5.985000133514404 -47.400001525878906,-5.985000133514404 -53.29800033569336,-3.0360000133514404 C-53.29800033569336,-3.0360000133514404 -53.323001861572266,-3.0239999294281006 -53.323001861572266,-3.0239999294281006 C-59.22100067138672,-0.07500000298023224 -66.16400146484375,-0.07500000298023224 -72.06199645996094,-3.0239999294281006 C-72.06199645996094,-3.0239999294281006 -72.08699798583984,-3.0360000133514404 -72.08699798583984,-3.0360000133514404 C-77.98500061035156,-5.985000133514404 -84.9280014038086,-5.985000133514404 -90.82599639892578,-3.0360000133514404 C-90.82599639892578,-3.0360000133514404 -90.8499984741211,-3.0239999294281006 -90.8499984741211,-3.0239999294281006 C-96.74800109863281,-0.07500000298023224 -103.69200134277344,-0.07500000298023224 -109.58999633789062,-3.0239999294281006 C-109.58999633789062,-3.0239999294281006 -109.61399841308594,-3.0360000133514404 -109.61399841308594,-3.0360000133514404 C-115.51200103759766,-5.985000133514404 -122.45600128173828,-5.985000133514404 -128.35400390625,-3.0360000133514404 C-128.35400390625,-3.0360000133514404 -128.36300659179688,-3.0309998989105225 -128.36300659179688,-3.0309998989105225 C-134.27000427246094,-0.07800000160932541 -141.22300720214844,-0.0820000022649765 -147.12600708007812,-3.0429999828338623 C-147.12600708007812,-3.0429999828338623 -156.4980010986328,-7.74399995803833 -156.4980010986328,-7.74399995803833 C-156.4980010986328,-7.74399995803833 -156.64599609375,-8.15999984741211 -156.64599609375,-8.15999984741211 C-166.82000732421875,-36.70500183105469 -148.47000122070312,-67.46399688720703 -118.51200103759766,-72.03199768066406 C-103.06999969482422,-74.38700103759766 -84.37799835205078,-76.0530014038086 -62.40399932861328,-76.0530014038086 C-40.70600128173828,-76.0530014038086 -22.20800018310547,-74.4280014038086 -6.879000186920166,-72.12000274658203 C23.304000854492188,-67.57599639892578 41.64099884033203,-36.380001068115234 31.075000762939453,-7.74399995803833 C31.075000762939453,-7.74399995803833 31.075000762939453,-7.74399995803833 31.075000762939453,-7.74399995803833z"></path></g><g opacity="1" transform="matrix(1,0,0,1,0,0)"><path stroke-linecap="round" stroke-linejoin="round" fill-opacity="0" stroke="inherit" stroke-opacity="1" stroke-width="12.6" d=" M-156.46200561523438,46.275001525878906 C-156.46200561523438,46.275001525878906 -147.13400268554688,41.58599853515625 -147.13400268554688,41.58599853515625 C-141.22799682617188,38.617000579833984 -134.26699829101562,38.61000061035156 -128.35499572753906,41.566001892089844 C-128.35499572753906,41.566001892089844 -128.35499572753906,41.566001892089844 -128.35499572753906,41.566001892089844 C-122.45700073242188,44.51499938964844 -115.51399993896484,44.51499938964844 -109.61599731445312,41.566001892089844 C-109.61599731445312,41.566001892089844 -109.59100341796875,41.55400085449219 -109.59100341796875,41.55400085449219 C-103.69300079345703,38.60499954223633 -96.75,38.60499954223633 -90.85199737548828,41.55400085449219 C-90.85199737548828,41.55400085449219 -90.8280029296875,41.566001892089844 -90.8280029296875,41.566001892089844 C-84.93000030517578,44.51499938964844 -77.98600006103516,44.51499938964844 -72.08799743652344,41.566001892089844 C-72.08799743652344,41.566001892089844 -72.06400299072266,41.55400085449219 -72.06400299072266,41.55400085449219 C-66.16600036621094,38.60499954223633 -59.222999572753906,38.60499954223633 -53.32500076293945,41.55400085449219 C-53.32500076293945,41.55400085449219 -53.29999923706055,41.566001892089844 -53.29999923706055,41.566001892089844 C-47.402000427246094,44.51499938964844 -40.45899963378906,44.51499938964844 -34.56100082397461,41.566001892089844 C-34.56100082397461,41.566001892089844 -34.5359992980957,41.55400085449219 -34.5359992980957,41.55400085449219 C-28.63800048828125,38.60499954223633 -21.69499969482422,38.60499954223633 -15.79699993133545,41.55400085449219 C-15.79699993133545,41.55400085449219 -15.772000312805176,41.566001892089844 -15.772000312805176,41.566001892089844 C-9.87399959564209,44.51499938964844 -2.930999994277954,44.51499938964844 2.9670000076293945,41.566001892089844 C2.9670000076293945,41.566001892089844 2.9769999980926514,41.56100082397461 2.9769999980926514,41.56100082397461 C8.883999824523926,38.608001708984375 15.836999893188477,38.612998962402344 21.739999771118164,41.57400131225586 C21.739999771118164,41.57400131225586 31.11199951171875,46.275001525878906 31.11199951171875,46.275001525878906 C31.11199951171875,46.275001525878906 31.260000228881836,46.689998626708984 31.260000228881836,46.689998626708984 C41.433998107910156,75.23500061035156 23.083999633789062,105.99400329589844 -6.874000072479248,110.56199645996094 C-22.31599998474121,112.91699981689453 -41.00899887084961,114.58399963378906 -62.983001708984375,114.58399963378906 C-84.68099975585938,114.58399963378906 -103.17900085449219,112.95899963378906 -118.50800323486328,110.6510009765625 C-148.6909942626953,106.10700225830078 -167.0279998779297,74.91100311279297 -156.46200561523438,46.275001525878906 C-156.46200561523438,46.275001525878906 -156.46200561523438,46.275001525878906 -156.46200561523438,46.275001525878906z"></path></g><g opacity="1" transform="matrix(1,0,0,1,0,0)"><path stroke-linecap="round" stroke-linejoin="round" fill-opacity="0" stroke="inherit" stroke-opacity="1" stroke-width="12.6" d=" M9.763999938964844,-0.8119999766349792 C20.886999130249023,-0.8119999766349792 29.905000686645508,8.206000328063965 29.905000686645508,19.32900047302246 C29.905000686645508,19.32900047302246 29.905000686645508,19.32900047302246 29.905000686645508,19.32900047302246 C29.905000686645508,30.45199966430664 20.886999130249023,39.470001220703125 9.763999938964844,39.470001220703125 M-135.86900329589844,39.470001220703125 C-146.99200439453125,39.470001220703125 -156.00999450683594,30.45199966430664 -156.00999450683594,19.32900047302246 C-156.00999450683594,19.32900047302246 -156.00999450683594,19.32900047302246 -156.00999450683594,19.32900047302246 C-156.00999450683594,8.206000328063965 -146.99200439453125,-0.8119999766349792 -135.86900329589844,-0.8119999766349792"></path></g></g></g><g style="display: none;"><g><path stroke-linecap="round" stroke-linejoin="round" fill-opacity="0"></path></g></g><g style="display: none;"><g><path stroke-linecap="round" stroke-linejoin="round" fill-opacity="0"></path></g></g><g style="display: none;"><g><path stroke-linecap="round" stroke-linejoin="round" fill-opacity="0"></path></g></g><g style="display: none;"><g><path stroke-linecap="round" stroke-linejoin="round" fill-opacity="0"></path></g></g><g class="com" style="display: none;"><g><path></path></g><g><path></path></g><g><path></path></g><g><path></path></g><g><path></path></g><g><path></path></g><g><path></path></g><g><path></path></g><g><path></path></g><g><path></path></g><g><path></path></g><g><path></path></g></g></g></svg>