<svg xmlns="http://www.w3.org/2000/svg" xmlns:xlink="http://www.w3.org/1999/xlink" viewBox="0 0 500 500" width="500" height="500" preserveAspectRatio="xMidYMid meet" style="width: 100%; height: 100%; transform: translate3d(0px, 0px, 0px); content-visibility: visible;"><defs><clipPath id="__lottie_element_2726"><rect width="500" height="500" x="0" y="0"></rect></clipPath></defs><g clip-path="url(#__lottie_element_2726)"><g transform="matrix(1,0,0,1,250,250)" opacity="1" style="display: block;"><g opacity="1" transform="matrix(1,0,0,1,0,0)"><path stroke-linecap="round" stroke-linejoin="round" fill-opacity="0" stroke="inherit" stroke-opacity="1" stroke-width="12.6" d=" M-74.9729995727539,-69.08100128173828 C-84.0530014038086,-61.56100082397461 -95.7030029296875,-57.03099822998047 -108.4229965209961,-57.03099822998047 C-137.41299438476562,-57.03099822998047 -160.9029998779297,-80.53099822998047 -160.9029998779297,-109.52100372314453 C-160.9029998779297,-138.50100708007812 -137.41299438476562,-162.00100708007812 -108.4229965209961,-162.00100708007812 C-79.93299865722656,-162.00100708007812 -56.733001708984375,-139.281005859375 -55.9630012512207,-110.97100067138672"></path></g><g opacity="1" transform="matrix(1,0,0,1,0,0)"><path stroke-linecap="round" stroke-linejoin="round" fill-opacity="0" stroke-dasharray=" 1 30" stroke-dashoffset="0" stroke="inherit" stroke-opacity="1" stroke-width="12.6" d=" M-92.68299865722656,-90.48100280761719 C-96.9530029296875,-86.94100189208984 -102.44300079345703,-84.81099700927734 -108.43299865722656,-84.81099700927734 C-122.072998046875,-84.81099700927734 -133.13299560546875,-95.87100219726562 -133.13299560546875,-109.52100372314453 C-133.13299560546875,-123.16100311279297 -122.072998046875,-134.2209930419922 -108.43299865722656,-134.2209930419922 C-95.28299713134766,-134.2209930419922 -84.52300262451172,-123.94100189208984 -83.77300262451172,-110.97100067138672"></path></g></g><g transform="matrix(1,0,0,1,250,250)" opacity="1" style="display: block;"><g opacity="1" transform="matrix(1,0,0,1,0,0)"><path stroke-linecap="round" stroke-linejoin="round" fill-opacity="0" stroke="inherit" stroke-opacity="1" stroke-width="12.6" d=" M89.53600311279297,-146.5279998779297 C89.53600311279297,-142.77099609375 86.48999786376953,-139.7259979248047 82.73300170898438,-139.7259979248047 C78.97599792480469,-139.7259979248047 75.93099975585938,-142.77099609375 75.93099975585938,-146.5279998779297 C75.93099975585938,-150.28500366210938 78.97599792480469,-153.3300018310547 82.73300170898438,-153.3300018310547 C86.48999786376953,-153.3300018310547 89.53600311279297,-150.28500366210938 89.53600311279297,-146.5279998779297z M0.33000001311302185,-49.94300079345703 C0.33000001311302185,-49.94300079345703 78.22799682617188,-141.43299865722656 78.22799682617188,-141.43299865722656"></path></g></g><g transform="matrix(1,0,0,1,250,250)" opacity="1" style="display: block;"><g opacity="1" transform="matrix(1,0,0,1,0,0)"><path stroke-linecap="round" stroke-linejoin="round" fill-opacity="0" stroke="inherit" stroke-opacity="1" stroke-width="12.6" d=" M40.071998596191406,159.33299255371094 C40.071998596191406,159.33299255371094 -41.645999908447266,159.33299255371094 -41.645999908447266,159.33299255371094 M0.9950000047683716,159.33299255371094 C0.9950000047683716,159.33299255371094 0.9940000176429749,24.80900001525879 0.9940000176429749,24.80900001525879 C0.9940000176429749,24.80900001525879 -108.87699890136719,-110.97000122070312 -108.87699890136719,-110.97000122070312 C-108.87699890136719,-110.97000122070312 111.86599731445312,-110.97000122070312 111.86599731445312,-110.97000122070312 C111.86599731445312,-110.97000122070312 0.9940000176429749,24.80900001525879 0.9940000176429749,24.80900001525879"></path></g></g><g class="com" style="display: none;"><g><path></path></g><g><path></path></g><g><path></path></g><g><path></path></g><g><path></path></g><g><path></path></g><g><path></path></g><g><path></path></g><g><path></path></g><g><path></path></g><g><path></path></g><g><path></path></g></g></g></svg>