<svg xmlns="http://www.w3.org/2000/svg" xmlns:xlink="http://www.w3.org/1999/xlink" viewBox="0 0 500 500" width="500" height="500" preserveAspectRatio="xMidYMid meet" style="width: 100%; height: 100%; transform: translate3d(0px, 0px, 0px); content-visibility: visible;"><defs><clipPath id="__lottie_element_2743"><rect width="500" height="500" x="0" y="0"></rect></clipPath><clipPath id="__lottie_element_2751"><path d="M0,0 L500,0 L500,500 L0,500z"></path></clipPath><clipPath id="__lottie_element_2782"><path d="M0,0 L500,0 L500,500 L0,500z"></path></clipPath></defs><g clip-path="url(#__lottie_element_2743)"><g clip-path="url(#__lottie_element_2782)" transform="matrix(1,0,0,1,0,0)" opacity="0" style="display: block;"><g transform="matrix(1,0,0,1,521.2406616210938,134.65394592285156)" opacity="1" style="display: block;"><g opacity="1" transform="matrix(1,0,0,1,0,0)"><path stroke-linecap="round" stroke-linejoin="round" fill-opacity="0" stroke="inherit" stroke-opacity="1" stroke-width="12.6" d=" M-122.44430541992188,-75.4530029296875 C-122.44430541992188,-51.170257568359375 -142.12925720214844,-31.485301971435547 -166.41200256347656,-31.485301971435547 C-190.6947479248047,-31.485301971435547 -210.37969970703125,-51.170257568359375 -210.37969970703125,-75.4530029296875 C-210.37969970703125,-99.7357406616211 -190.6947479248047,-119.42070007324219 -166.41200256347656,-119.42070007324219 C-142.12925720214844,-119.42070007324219 -122.44430541992188,-99.7357406616211 -122.44430541992188,-75.4530029296875z"></path></g></g><g transform="matrix(1,0,0,1,328.9052734375,181.60342407226562)" opacity="1" style="display: block;"><g opacity="1" transform="matrix(1,0,0,1,0,0)"><path stroke-linecap="round" stroke-linejoin="round" fill-opacity="0" stroke="inherit" stroke-opacity="1" stroke-width="12.6" d=" M-142.9406280517578,-75.4530029296875 C-142.9406280517578,-62.49007034301758 -153.44906616210938,-51.98162841796875 -166.41200256347656,-51.98162841796875 C-179.3749237060547,-51.98162841796875 -189.8833770751953,-62.49007034301758 -189.8833770751953,-75.4530029296875 C-189.8833770751953,-88.41593170166016 -179.3749237060547,-98.92436981201172 -166.41200256347656,-98.92436981201172 C-153.44906616210938,-98.92436981201172 -142.9406280517578,-88.41593170166016 -142.9406280517578,-75.4530029296875z"></path></g></g><g style="display: none;"><g><path stroke-linecap="round" stroke-linejoin="round" fill-opacity="0"></path></g></g><g style="display: none;"><g><path stroke-linecap="round" stroke-linejoin="round" fill-opacity="0"></path></g></g><g style="display: none;"><g><path stroke-linecap="round" stroke-linejoin="round" fill-opacity="0"></path></g></g><g style="display: none;"><g><path stroke-linecap="round" stroke-linejoin="round" fill-opacity="0"></path></g></g><g style="display: none;"><g><path stroke-linecap="round" stroke-linejoin="round" fill-opacity="0"></path></g></g><g style="display: none;"><g><path stroke-linecap="round" stroke-linejoin="round" fill-opacity="0"></path></g></g><g style="display: none;"><g><path stroke-linecap="round" stroke-linejoin="round" fill-opacity="0"></path></g></g><g style="display: none;"><g><path stroke-linecap="round" stroke-linejoin="round" fill-opacity="0"></path></g></g><g transform="matrix(0.9998546242713928,-0.017052222043275833,0.017052222043275833,0.9998546242713928,249.97335815429688,267.87445068359375)" opacity="1" style="display: block;"><g opacity="1" transform="matrix(1,0,0,1,0,0)"><path stroke-linecap="round" stroke-linejoin="round" fill-opacity="0" stroke="inherit" stroke-opacity="1" stroke-width="12.6" d=" M-46.51100158691406,-77.43399810791016 C-43.7859992980957,-85.83200073242188 -38.0880012512207,-94.2750015258789 -32.452999114990234,-101.19499969482422 C-24.23200035095215,-111.29199981689453 -9.789999961853027,-113.68399810791016 1.2100000381469727,-106.71700286865234 C18.19700050354004,-95.95700073242188 47.71099853515625,-73.5469970703125 71.00499725341797,-39.77299880981445 C60.9739990234375,-31.71500015258789 60.15700149536133,-25.45599937438965 60.15700149536133,-25.45599937438965 M-51.821998596191406,73.35900115966797 C-51.821998596191406,73.35900115966797 -16.969999313354492,93.6520004272461 13.095000267028809,98.05000305175781 C27.410999298095703,85.74700164794922 15.053000450134277,71.45500183105469 15.053000450134277,71.45500183105469 M71.24500274658203,-11.079999923706055 C98.80500030517578,3.4000000953674316 137.74099731445312,4.658999919891357 185.1199951171875,3.6670000553131104 C168.69900512695312,15.668999671936035 127.91300201416016,40.88999938964844 119.25499725341797,46.472999572753906 C122.76799774169922,63.90399932861328 121.53500366210938,108.63099670410156 115.447998046875,131.2570037841797 C84.7040023803711,89.4990005493164 83.86399841308594,75.29199981689453 42.0099983215332,68.5739974975586"></path></g><g opacity="1" transform="matrix(0.9925461411476135,-0.12186934053897858,0.12186934053897858,0.9925461411476135,-1.9569931030273438,-5.9965667724609375)"><path stroke-linecap="round" stroke-linejoin="round" fill-opacity="0" stroke="inherit" stroke-opacity="1" stroke-width="12.6" d=" M-50.79399871826172,4.75 C-50.79399871826172,4.75 -16.277000427246094,-7.548999786376953 2.9170000553131104,1.815000057220459 C18.02899932861328,9.187999725341797 15.88599967956543,63.78900146484375 -52.52199935913086,29.375"></path></g><g opacity="1" transform="matrix(1,0,0,1,0,0)"><path stroke-linecap="round" stroke-linejoin="round" fill-opacity="0" stroke="inherit" stroke-opacity="1" stroke-width="12.6" d=" M-119.46900177001953,-53.61199951171875 C-95.81900024414062,-42.10200119018555 -80.28900146484375,-22.621999740600586 -80.28900146484375,-0.5419999957084656 C-80.28900146484375,20.607999801635742 -94.54900360107422,39.358001708984375 -116.51899719238281,51.018001556396484 M-167.39300537109375,-1.0460000038146973 C-159.54400634765625,2.2179999351501465 -150.4149932861328,5.408999919891357 -144.23399353027344,5.683000087738037 M81.3550033569336,31.79599952697754 C76.25800323486328,50.4010009765625 61.40700149536133,69.10600280761719 40.59199905395508,68.35299682617188 C12.163999557495117,67.3239974975586 -11.697999954223633,79.22899627685547 -45.106998443603516,74.34200286865234 C-76.80400085449219,69.70500183105469 -97.48300170898438,62.45500183105469 -122.14099884033203,47.88199996948242 C-141.4320068359375,36.47800064086914 -157.593994140625,20.424999237060547 -169.3090057373047,-0.574999988079071 C-154.63600158691406,-13.689000129699707 -140.73199462890625,-33.25899887084961 -123.60099792480469,-49.76100158691406 C-105.88899993896484,-66.81300354003906 -71.88999938964844,-81.22100067138672 -43.16999816894531,-77.0199966430664 C-5.538000106811523,-71.51499938964844 37.58300018310547,-49.0880012512207 65.03600311279297,-19.368000030517578 C78.79399871826172,-4.473999977111816 85.49299621582031,16.690000534057617 81.3550033569336,31.79599952697754z"></path></g><g opacity="1" transform="matrix(1,0,0,1,0,0)"><path stroke-linecap="round" stroke-linejoin="round" fill-opacity="0" stroke="inherit" stroke-opacity="1" stroke-width="18.2" d=" M-120.3280029296875,-13.949999809265137 C-120.3280029296875,-13.949999809265137 -120.5780029296875,-13.95300006866455 -120.5780029296875,-13.95300006866455"></path></g></g></g><g clip-path="url(#__lottie_element_2751)" transform="matrix(1,0,0,1,0,0)" opacity="1" style="display: block;"><g style="display: none;"><g><path stroke-linecap="round" stroke-linejoin="round" fill-opacity="0"></path></g></g><g style="display: none;"><g><path stroke-linecap="round" stroke-linejoin="round" fill-opacity="0"></path></g></g><g transform="matrix(1,0,0,1,250,270)" opacity="1" style="display: block;"><g opacity="1" transform="matrix(1,0,0,1,0,0)"><path stroke-linecap="round" stroke-linejoin="round" fill-opacity="0" stroke="inherit" stroke-opacity="1" stroke-width="12.6" d=" M-96.2760009765625,-137.50900268554688 C-96.2760009765625,-124.69999694824219 -106.66000366210938,-114.31600189208984 -119.46900177001953,-114.31600189208984 C-132.2779998779297,-114.31600189208984 -142.66200256347656,-124.69999694824219 -142.66200256347656,-137.50900268554688 C-142.66200256347656,-150.3179931640625 -132.2779998779297,-160.70199584960938 -119.46900177001953,-160.70199584960938 C-106.66000366210938,-160.70199584960938 -96.2760009765625,-150.3179931640625 -96.2760009765625,-137.50900268554688z"></path></g></g><g transform="matrix(1,0,0,1,250,270)" opacity="1" style="display: block;"><g opacity="1" transform="matrix(1,0,0,1,0,0)"><path stroke-linecap="round" stroke-linejoin="round" fill-opacity="0" stroke="inherit" stroke-opacity="1" stroke-width="12.6" d=" M-153.03599548339844,-75.4530029296875 C-153.03599548339844,-68.06600189208984 -159.02499389648438,-62.07699966430664 -166.41200256347656,-62.07699966430664 C-173.7989959716797,-62.07699966430664 -179.78799438476562,-68.06600189208984 -179.78799438476562,-75.4530029296875 C-179.78799438476562,-82.83999633789062 -173.7989959716797,-88.8290023803711 -166.41200256347656,-88.8290023803711 C-159.02499389648438,-88.8290023803711 -153.03599548339844,-82.83999633789062 -153.03599548339844,-75.4530029296875z"></path></g></g><g style="display: none;"><g><path stroke-linecap="round" stroke-linejoin="round" fill-opacity="0"></path></g></g><g style="display: none;"><g><path stroke-linecap="round" stroke-linejoin="round" fill-opacity="0"></path></g></g><g style="display: none;"><g><path stroke-linecap="round" stroke-linejoin="round" fill-opacity="0"></path></g></g><g style="display: none;"><g><path stroke-linecap="round" stroke-linejoin="round" fill-opacity="0"></path></g></g><g transform="matrix(1,0,0,1,250,270)" opacity="1" style="display: block;"><g opacity="1" transform="matrix(1,0,0,1,0,0)"><path stroke-linecap="round" stroke-linejoin="round" fill-opacity="0" stroke="inherit" stroke-opacity="1" stroke-width="12.6" d=" M-59.058998107910156,-80.53199768066406 C-57.577999114990234,-89.23600006103516 -53.16299819946289,-98.41500091552734 -48.5890007019043,-106.0780029296875 C-41.915000915527344,-117.25800323486328 -27.97100067138672,-121.71600341796875 -16.07900047302246,-116.41400146484375 C2.2869999408721924,-108.22599792480469 31.09000015258789,-92.31300354003906 60.62900161743164,-63.8390007019043 C52.39899826049805,-53.94900131225586 52.840999603271484,-47.652000427246094 52.840999603271484,-47.652000427246094 M-42.48899841308594,69.44200134277344 C-42.48899841308594,69.44200134277344 -5.067999839782715,84.47699737548828 25.316999435424805,84.47699737548828 C37.70100021362305,70.23100280761719 22.61400032043457,54.986000061035156 22.61400032043457,54.986000061035156 M63.25,-39.25600051879883 C93.65699768066406,-32.573001861572266 124.80400085449219,-46.652000427246094 167.9290008544922,-66.29900360107422 C157.59300231933594,-48.78200149536133 130.10400390625,-9.48799991607666 124.36000061035156,-0.9369999766349792 C134.47900390625,13.684000015258789 151.03399658203125,55.25299835205078 154.38999938964844,78.44200134277344 C109.63899993896484,52.244998931884766 98.24299621582031,40.7130012512207 56.10100173950195,45.29199981689453"></path></g><g opacity="1" transform="matrix(1,0,0,1,0,0)"><path stroke-linecap="round" stroke-linejoin="round" fill-opacity="0" stroke="inherit" stroke-opacity="1" stroke-width="12.6" d=" M-50.44599914550781,0.7599999904632568 C-50.44599914550781,0.7599999904632568 -16.875,-13.927000045776367 2.927000045776367,-5.928999900817871 C18.51799964904785,0.36800000071525574 20.202999114990234,54.98500061035156 -50.44599914550781,25.44499969482422"></path></g><g opacity="1" transform="matrix(1,0,0,1,0,0)"><path stroke-linecap="round" stroke-linejoin="round" fill-opacity="0" stroke="inherit" stroke-opacity="1" stroke-width="12.6" d=" M-119.46900177001953,-53.61199951171875 C-95.81900024414062,-42.10200119018555 -80.28900146484375,-22.621999740600586 -80.28900146484375,-0.5419999957084656 C-80.28900146484375,20.607999801635742 -94.54900360107422,39.358001708984375 -116.51899719238281,51.018001556396484 M-167.39300537109375,-1.0460000038146973 C-159.54400634765625,2.2179999351501465 -150.4149932861328,5.408999919891357 -144.23399353027344,5.683000087738037 M84.33000183105469,-0.574999988079071 C84.33000183105469,18.715999603271484 75.42500305175781,43.66600036621094 54.67399978637695,45.452999114990234 C26.170000076293945,47.90700149536133 -1.9390000104904175,69.44200134277344 -35.702999114990234,69.44200134277344 C-67.73699951171875,69.44200134277344 -97.48300170898438,62.45500183105469 -122.14099884033203,47.88199996948242 C-141.4320068359375,36.47800064086914 -157.593994140625,20.424999237060547 -169.3090057373047,-0.574999988079071 C-154.63600158691406,-13.689000129699707 -140.73199462890625,-33.25899887084961 -123.60099792480469,-49.76100158691406 C-105.88899993896484,-66.81300354003906 -84.71900177001953,-80.60600280761719 -55.69300079345703,-80.60600280761719 C-17.660999298095703,-80.60600280761719 26.01799964904785,-66.3239974975586 58.832000732421875,-42.654998779296875 C75.27400207519531,-30.791000366210938 84.33000183105469,-16.238000869750977 84.33000183105469,-0.574999988079071z"></path></g><g opacity="1" transform="matrix(1,0,0,1,0,0)"><path stroke-linecap="round" stroke-linejoin="round" fill-opacity="0" stroke="inherit" stroke-opacity="1" stroke-width="18.2" d=" M-120.3280029296875,-13.949999809265137 C-120.3280029296875,-13.949999809265137 -120.5780029296875,-13.95300006866455 -120.5780029296875,-13.95300006866455"></path></g></g></g><g class="com" style="display: none;"><g><path></path></g><g><path></path></g><g><path></path></g><g><path></path></g><g><path></path></g><g><path></path></g><g><path></path></g><g><path></path></g><g><path></path></g><g><path></path></g><g><path></path></g><g><path></path></g></g></g></svg>