<svg xmlns="http://www.w3.org/2000/svg" xmlns:xlink="http://www.w3.org/1999/xlink" viewBox="0 0 500 500" width="500" height="500" preserveAspectRatio="xMidYMid meet" style="width: 100%; height: 100%; transform: translate3d(0px, 0px, 0px); content-visibility: visible;"><defs><clipPath id="__lottie_element_2819"><rect width="500" height="500" x="0" y="0"></rect></clipPath><symbol id="__lottie_element_2830"><g><g clip-path="url(#__lottie_element_2831)" transform="matrix(1,0,0,1,0,0)" opacity="1" style="display: block;"><g transform="matrix(1,0,0,1,250,250)" opacity="1" style="display: block;"><g opacity="1" transform="matrix(1,0,0,1,0,0)"><path stroke-linecap="round" stroke-linejoin="round" fill-opacity="0" stroke="inherit" stroke-opacity="1" stroke-width="0" d=" M116.38700103759766,-23.79599952697754 C128.89500427246094,-16.672000885009766 134.65699768066406,-1.2960000038146973 129.33900451660156,12.54800033569336 C126.16799926757812,20.764999389648438 119.74099731445312,26.76300048828125 112.11100006103516,29.624000549316406 C112.11100006103516,29.624000549316406 112.11199951171875,29.625999450683594 112.11199951171875,29.625999450683594 C112.84100341796875,34.314998626708984 112.38099670410156,39.25 110.5510025024414,44.00400161743164 C105.75399780273438,56.46699905395508 93.09600067138672,63.57099914550781 80.42400360107422,61.840999603271484 C80.42400360107422,61.840999603271484 80.42900085449219,61.84199905395508 80.42900085449219,61.84199905395508 C83.30699920654297,68.42400360107422 83.69400024414062,76.09500122070312 80.91000366210938,83.3270034790039 C75.31300354003906,97.87999725341797 58.9739990234375,105.12799835205078 44.42100143432617,99.53099822998047 C35.571998596191406,96.11799621582031 29.42300033569336,88.73699951171875 27.22100067138672,80.1969985961914 C20.851999282836914,90.13099670410156 8.569999694824219,95.46099853515625 -3.7279999256134033,92.24500274658203 C-17.30900001525879,88.69300079345703 -26.33300018310547,75.3489990234375 -24.555999755859375,61.42399978637695 C-23.67099952697754,54.4900016784668 -20.388999938964844,48.5369987487793 -15.685999870300293,44.20500183105469 C-27.17300033569336,38.83399963378906 -33.979000091552734,26.152000427246094 -31.39699935913086,13.145000457763672 C-30.687999725341797,9.572999954223633 -29.332000732421875,6.290999889373779 -27.472999572753906,3.3989999294281006 C-25.04599952697754,-0.3779999911785126 -25.586000442504883,-5.2829999923706055 -28.52899932861328,-8.67300033569336 C-37.50299835205078,-19.009000778198242 -41.77299880981445,-33.22999954223633 -38.902000427246094,-47.689998626708984 C-34.972999572753906,-67.47799682617188 -18.857999801635742,-81.74700164794922 0.0949999988079071,-84.23699951171875 C2.614000082015991,-84.56800079345703 4.673999786376953,-86.30599975585938 5.568999767303467,-88.68399810791016 C10.343000411987305,-101.37000274658203 23.73900032043457,-109.11599731445312 37.47999954223633,-106.38800048828125 C40.4630012512207,-105.7959976196289 43.23099899291992,-104.75800323486328 45.74399948120117,-103.34600067138672 C51.05099868774414,-114.99400329589844 63.81700134277344,-121.9000015258789 76.91600036621094,-119.30000305175781 C92.21099853515625,-116.26300048828125 102.15499877929688,-101.40699768066406 99.11799621582031,-86.11199951171875 C99.11799621582031,-86.11199951171875 99.0999984741211,-86.02200317382812 99.0999984741211,-86.02200317382812 C98.51300048828125,-83.13099670410156 101.22599792480469,-80.72799682617188 104.05699920654297,-81.55699920654297 C109.04199981689453,-83.01699829101562 114.49500274658203,-83.18499755859375 119.95500183105469,-81.74600219726562 C133.84800720214844,-78.08599853515625 143.23699951171875,-64.63899993896484 141.83299255371094,-50.340999603271484 C140.43299865722656,-36.09299850463867 129.4770050048828,-25.586999893188477 116.38700103759766,-23.79599952697754z"></path><path fill="inherit" fill-opacity="1" d=" M116.38700103759766,-23.79599952697754 C128.89500427246094,-16.672000885009766 134.65699768066406,-1.2960000038146973 129.33900451660156,12.54800033569336 C126.16799926757812,20.764999389648438 119.74099731445312,26.76300048828125 112.11100006103516,29.624000549316406 C112.11100006103516,29.624000549316406 112.11199951171875,29.625999450683594 112.11199951171875,29.625999450683594 C112.84100341796875,34.314998626708984 112.38099670410156,39.25 110.5510025024414,44.00400161743164 C105.75399780273438,56.46699905395508 93.09600067138672,63.57099914550781 80.42400360107422,61.840999603271484 C80.42400360107422,61.840999603271484 80.42900085449219,61.84199905395508 80.42900085449219,61.84199905395508 C83.30699920654297,68.42400360107422 83.69400024414062,76.09500122070312 80.91000366210938,83.3270034790039 C75.31300354003906,97.87999725341797 58.9739990234375,105.12799835205078 44.42100143432617,99.53099822998047 C35.571998596191406,96.11799621582031 29.42300033569336,88.73699951171875 27.22100067138672,80.1969985961914 C20.851999282836914,90.13099670410156 8.569999694824219,95.46099853515625 -3.7279999256134033,92.24500274658203 C-17.30900001525879,88.69300079345703 -26.33300018310547,75.3489990234375 -24.555999755859375,61.42399978637695 C-23.67099952697754,54.4900016784668 -20.388999938964844,48.5369987487793 -15.685999870300293,44.20500183105469 C-27.17300033569336,38.83399963378906 -33.979000091552734,26.152000427246094 -31.39699935913086,13.145000457763672 C-30.687999725341797,9.572999954223633 -29.332000732421875,6.290999889373779 -27.472999572753906,3.3989999294281006 C-25.04599952697754,-0.3779999911785126 -25.586000442504883,-5.2829999923706055 -28.52899932861328,-8.67300033569336 C-37.50299835205078,-19.009000778198242 -41.77299880981445,-33.22999954223633 -38.902000427246094,-47.689998626708984 C-34.972999572753906,-67.47799682617188 -18.857999801635742,-81.74700164794922 0.0949999988079071,-84.23699951171875 C2.614000082015991,-84.56800079345703 4.673999786376953,-86.30599975585938 5.568999767303467,-88.68399810791016 C10.343000411987305,-101.37000274658203 23.73900032043457,-109.11599731445312 37.47999954223633,-106.38800048828125 C40.4630012512207,-105.7959976196289 43.23099899291992,-104.75800323486328 45.74399948120117,-103.34600067138672 C51.05099868774414,-114.99400329589844 63.81700134277344,-121.9000015258789 76.91600036621094,-119.30000305175781 C92.21099853515625,-116.26300048828125 102.15499877929688,-101.40699768066406 99.11799621582031,-86.11199951171875 C99.11799621582031,-86.11199951171875 99.0999984741211,-86.02200317382812 99.0999984741211,-86.02200317382812 C98.51300048828125,-83.13099670410156 101.22599792480469,-80.72799682617188 104.05699920654297,-81.55699920654297 C109.04199981689453,-83.01699829101562 114.49500274658203,-83.18499755859375 119.95500183105469,-81.74600219726562 C133.84800720214844,-78.08599853515625 143.23699951171875,-64.63899993896484 141.83299255371094,-50.340999603271484 C140.43299865722656,-36.09299850463867 129.4770050048828,-25.586999893188477 116.38700103759766,-23.79599952697754z"></path></g><g opacity="1" transform="matrix(1,0,0,1,0,0)"><path stroke-linecap="round" stroke-linejoin="round" fill-opacity="0" stroke="inherit" stroke-opacity="1" stroke-width="0" d=" M64.88500213623047,-63.698001861572266 C64.88500213623047,-63.698001861572266 27.22800064086914,-15.361000061035156 26.597000122070312,82.69300079345703"></path><path fill="inherit" fill-opacity="1" d=" M64.88500213623047,-63.698001861572266 C64.88500213623047,-63.698001861572266 27.22800064086914,-15.361000061035156 26.597000122070312,82.69300079345703"></path></g><g opacity="1" transform="matrix(1,0,0,1,0,0)"><path stroke-linecap="round" stroke-linejoin="round" fill-opacity="0" stroke="inherit" stroke-opacity="1" stroke-width="0" d=" M74.2959976196289,-34.00299835205078 C52.270999908447266,-31.511999130249023 43.22999954223633,-19.54599952697754 43.22999954223633,-19.54599952697754"></path><path fill="inherit" fill-opacity="1" d=" M74.2959976196289,-34.00299835205078 C52.270999908447266,-31.511999130249023 43.22999954223633,-19.54599952697754 43.22999954223633,-19.54599952697754"></path></g><g opacity="1" transform="matrix(1,0,0,1,0,0)"><path stroke-linecap="round" stroke-linejoin="round" fill-opacity="0" stroke="inherit" stroke-opacity="1" stroke-width="0" d=" M82.77300262451172,0.18299999833106995 C46.25600051879883,7.38100004196167 30.270999908447266,33.172000885009766 30.270999908447266,33.172000885009766"></path><path fill="inherit" fill-opacity="1" d=" M82.77300262451172,0.18299999833106995 C46.25600051879883,7.38100004196167 30.270999908447266,33.172000885009766 30.270999908447266,33.172000885009766"></path></g><g opacity="1" transform="matrix(1,0,0,1,0,0)"><path stroke-linecap="round" stroke-linejoin="round" fill-opacity="0" stroke="inherit" stroke-opacity="1" stroke-width="0" d=" M24.792999267578125,-52.715999603271484 C41.29899978637695,-39.61800003051758 43.22999954223633,-19.54599952697754 43.22999954223633,-19.54599952697754"></path><path fill="inherit" fill-opacity="1" d=" M24.792999267578125,-52.715999603271484 C41.29899978637695,-39.61800003051758 43.22999954223633,-19.54599952697754 43.22999954223633,-19.54599952697754"></path></g><g opacity="1" transform="matrix(1,0,0,1,0,0)"><path stroke-linecap="round" stroke-linejoin="round" fill-opacity="0" stroke="inherit" stroke-opacity="1" stroke-width="0" d=" M3.443000078201294,-22.490999221801758 C22.680999755859375,-7.492000102996826 30.270999908447266,33.172000885009766 30.270999908447266,33.172000885009766"></path><path fill="inherit" fill-opacity="1" d=" M3.443000078201294,-22.490999221801758 C22.680999755859375,-7.492000102996826 30.270999908447266,33.172000885009766 30.270999908447266,33.172000885009766"></path></g></g><g transform="matrix(1,0,0,1,250,250)" opacity="1" style="display: block;"><g opacity="1" transform="matrix(1,0,0,1,0,0)"><path stroke-linecap="round" stroke-linejoin="round" fill-opacity="0" stroke="inherit" stroke-opacity="1" stroke-width="0" d=" M-60.85900115966797,-56.00899887084961 C-60.85900115966797,-56.00899887084961 -47.882999420166016,-115.93699645996094 -47.882999420166016,-115.93699645996094 C-47.22200012207031,-118.98999786376953 -50.862998962402344,-121.0989990234375 -53.18199920654297,-119.00599670410156 C-53.18199920654297,-119.00599670410156 -72.06500244140625,-101.96499633789062 -72.06500244140625,-101.96499633789062 C-72.06500244140625,-101.96499633789062 -97.0770034790039,-118.38400268554688 -97.0770034790039,-118.38400268554688 C-97.0770034790039,-118.38400268554688 -113.71199798583984,-93.74500274658203 -113.71199798583984,-93.74500274658203 C-113.71199798583984,-93.74500274658203 -137.6540069580078,-102.33499908447266 -137.6540069580078,-102.33499908447266 C-140.59500122070312,-103.38999938964844 -143.16200256347656,-100.05599975585938 -141.38999938964844,-97.48300170898438 C-141.38999938964844,-97.48300170898438 -106.61900329589844,-46.97800064086914 -106.61900329589844,-46.97800064086914 M-44.8849983215332,146.1820068359375 C-35.24800109863281,144.27999877929688 -28.792999267578125,135.15899658203125 -30.202999114990234,125.43800354003906 C-30.202999114990234,125.43800354003906 -54.1349983215332,-39.50400161743164 -54.1349983215332,-39.50400161743164 C-56.34600067138672,-54.74399948120117 -70.87200164794922,-65.0250015258789 -85.9800033569336,-62.042999267578125 C-85.9800033569336,-62.042999267578125 -85.9800033569336,-62.042999267578125 -85.9800033569336,-62.042999267578125 C-101.08799743652344,-59.06100082397461 -110.61900329589844,-44.034000396728516 -106.8740005493164,-29.09600067138672 C-106.8740005493164,-29.09600067138672 -66.34700012207031,132.5709991455078 -66.34700012207031,132.5709991455078 C-63.95899963378906,142.0989990234375 -54.52199935913086,148.08399963378906 -44.8849983215332,146.1820068359375 C-44.8849983215332,146.1820068359375 -44.8849983215332,146.1820068359375 -44.8849983215332,146.1820068359375z M-104.7979965209961,-20.836000442504883 C-104.7979965209961,-20.836000442504883 -87.5530014038086,-24.239999771118164 -87.5530014038086,-24.239999771118164 M-60.3120002746582,22.277000427246094 C-60.3120002746582,22.277000427246094 -45.73099899291992,19.39900016784668 -45.73099899291992,19.39900016784668 M-81.5530014038086,70.11299896240234 C-81.5530014038086,70.11299896240234 -68.10600280761719,67.45899963378906 -68.10600280761719,67.45899963378906"></path><path fill="inherit" fill-opacity="1" d=" M-60.85900115966797,-56.00899887084961 C-60.85900115966797,-56.00899887084961 -47.882999420166016,-115.93699645996094 -47.882999420166016,-115.93699645996094 C-47.22200012207031,-118.98999786376953 -50.862998962402344,-121.0989990234375 -53.18199920654297,-119.00599670410156 C-53.18199920654297,-119.00599670410156 -72.06500244140625,-101.96499633789062 -72.06500244140625,-101.96499633789062 C-72.06500244140625,-101.96499633789062 -97.0770034790039,-118.38400268554688 -97.0770034790039,-118.38400268554688 C-97.0770034790039,-118.38400268554688 -113.71199798583984,-93.74500274658203 -113.71199798583984,-93.74500274658203 C-113.71199798583984,-93.74500274658203 -137.6540069580078,-102.33499908447266 -137.6540069580078,-102.33499908447266 C-140.59500122070312,-103.38999938964844 -143.16200256347656,-100.05599975585938 -141.38999938964844,-97.48300170898438 C-141.38999938964844,-97.48300170898438 -106.61900329589844,-46.97800064086914 -106.61900329589844,-46.97800064086914 M-44.8849983215332,146.1820068359375 C-35.24800109863281,144.27999877929688 -28.792999267578125,135.15899658203125 -30.202999114990234,125.43800354003906 C-30.202999114990234,125.43800354003906 -54.1349983215332,-39.50400161743164 -54.1349983215332,-39.50400161743164 C-56.34600067138672,-54.74399948120117 -70.87200164794922,-65.0250015258789 -85.9800033569336,-62.042999267578125 C-85.9800033569336,-62.042999267578125 -85.9800033569336,-62.042999267578125 -85.9800033569336,-62.042999267578125 C-101.08799743652344,-59.06100082397461 -110.61900329589844,-44.034000396728516 -106.8740005493164,-29.09600067138672 C-106.8740005493164,-29.09600067138672 -66.34700012207031,132.5709991455078 -66.34700012207031,132.5709991455078 C-63.95899963378906,142.0989990234375 -54.52199935913086,148.08399963378906 -44.8849983215332,146.1820068359375 C-44.8849983215332,146.1820068359375 -44.8849983215332,146.1820068359375 -44.8849983215332,146.1820068359375z M-104.7979965209961,-20.836000442504883 C-104.7979965209961,-20.836000442504883 -87.5530014038086,-24.239999771118164 -87.5530014038086,-24.239999771118164 M-60.3120002746582,22.277000427246094 C-60.3120002746582,22.277000427246094 -45.73099899291992,19.39900016784668 -45.73099899291992,19.39900016784668 M-81.5530014038086,70.11299896240234 C-81.5530014038086,70.11299896240234 -68.10600280761719,67.45899963378906 -68.10600280761719,67.45899963378906"></path></g></g></g></g></symbol><clipPath id="__lottie_element_2831"><path d="M0,0 L500,0 L500,500 L0,500z"></path></clipPath><symbol id="__lottie_element_2844"><g><g transform="matrix(1,0,0,1,250,250)" opacity="1" style="display: block;"><g opacity="1" transform="matrix(1,0,0,1,0,0)"><path fill="inherit" fill-opacity="1" d=" M125.03199768066406,40.029998779296875 C125.03199768066406,40.029998779296875 122.75,40.06100082397461 122.75,40.06100082397461 C122.75,40.06100082397461 126.875,82 110.64099884033203,121.17500305175781 C99.46199798583984,148.15199279785156 80.06300354003906,160.1230010986328 80.06300354003906,160.1230010986328 C80.06300354003906,160.1230010986328 -80.06300354003906,160.1230010986328 -80.06300354003906,160.1230010986328 C-80.06300354003906,160.1230010986328 -99.375,147.625 -110.822998046875,120.65899658203125 C-127.95899963378906,80.29399871826172 -122.56199645996094,40.060001373291016 -122.56199645996094,40.060001373291016 C-122.56199645996094,40.060001373291016 -125.03199768066406,40.029998779296875 -125.03199768066406,40.029998779296875 C-129.91400146484375,40.029998779296875 -133.8719940185547,36.071998596191406 -133.8719940185547,31.190000534057617 C-133.8719940185547,31.190000534057617 -133.8719940185547,22.183000564575195 -133.8719940185547,22.183000564575195 C-133.8719940185547,17.301000595092773 -129.91400146484375,13.343000411987305 -125.03199768066406,13.343000411987305 C-125.03199768066406,13.343000411987305 125.03199768066406,13.343000411987305 125.03199768066406,13.343000411987305 C129.91400146484375,13.343000411987305 133.8719940185547,17.301000595092773 133.8719940185547,22.183000564575195 C133.8719940185547,22.183000564575195 133.8719940185547,31.190000534057617 133.8719940185547,31.190000534057617 C133.8719940185547,36.071998596191406 129.91400146484375,40.029998779296875 125.03199768066406,40.029998779296875z"></path></g></g></g></symbol><clipPath id="__lottie_element_2848"><path d="M0,0 L500,0 L500,500 L0,500z"></path></clipPath><symbol id="__lottie_element_2856"><g><g transform="matrix(1,0,0,1,250,250)" opacity="1" style="display: block;"><g opacity="1" transform="matrix(1,0,0,1,0,0)"><path stroke-linecap="round" stroke-linejoin="round" fill-opacity="0" stroke="inherit" stroke-opacity="1" stroke-width="0" d=" M-60.85900115966797,-56.00899887084961 C-60.85900115966797,-56.00899887084961 -47.882999420166016,-115.93699645996094 -47.882999420166016,-115.93699645996094 C-47.22200012207031,-118.98999786376953 -50.862998962402344,-121.0989990234375 -53.18199920654297,-119.00599670410156 C-53.18199920654297,-119.00599670410156 -72.06500244140625,-101.96499633789062 -72.06500244140625,-101.96499633789062 C-72.06500244140625,-101.96499633789062 -97.0770034790039,-118.38400268554688 -97.0770034790039,-118.38400268554688 C-97.0770034790039,-118.38400268554688 -113.71199798583984,-93.74500274658203 -113.71199798583984,-93.74500274658203 C-113.71199798583984,-93.74500274658203 -137.6540069580078,-102.33499908447266 -137.6540069580078,-102.33499908447266 C-140.59500122070312,-103.38999938964844 -143.16200256347656,-100.05599975585938 -141.38999938964844,-97.48300170898438 C-141.38999938964844,-97.48300170898438 -106.61900329589844,-46.97800064086914 -106.61900329589844,-46.97800064086914 M-44.8849983215332,146.1820068359375 C-44.8849983215332,146.1820068359375 -44.8849983215332,146.1820068359375 -44.8849983215332,146.1820068359375 C-54.52199935913086,148.08399963378906 -63.95899963378906,142.0989990234375 -66.34700012207031,132.5709991455078 C-66.34700012207031,132.5709991455078 -106.8740005493164,-29.09600067138672 -106.8740005493164,-29.09600067138672 C-110.61900329589844,-44.034000396728516 -101.08799743652344,-59.06100082397461 -85.9800033569336,-62.042999267578125 C-85.9800033569336,-62.042999267578125 -85.9800033569336,-62.042999267578125 -85.9800033569336,-62.042999267578125 C-70.87200164794922,-65.0250015258789 -56.34600067138672,-54.74399948120117 -54.1349983215332,-39.50400161743164 C-54.1349983215332,-39.50400161743164 -30.202999114990234,125.43800354003906 -30.202999114990234,125.43800354003906 C-28.792999267578125,135.15899658203125 -35.24800109863281,144.27999877929688 -44.8849983215332,146.1820068359375z M-104.7979965209961,-20.836000442504883 C-104.7979965209961,-20.836000442504883 -87.5530014038086,-24.239999771118164 -87.5530014038086,-24.239999771118164 M-60.3120002746582,22.277000427246094 C-60.3120002746582,22.277000427246094 -45.73099899291992,19.39900016784668 -45.73099899291992,19.39900016784668 M-81.5530014038086,70.11299896240234 C-81.5530014038086,70.11299896240234 -68.10600280761719,67.45899963378906 -68.10600280761719,67.45899963378906"></path><path fill="inherit" fill-opacity="1" d=" M-60.85900115966797,-56.00899887084961 C-60.85900115966797,-56.00899887084961 -47.882999420166016,-115.93699645996094 -47.882999420166016,-115.93699645996094 C-47.22200012207031,-118.98999786376953 -50.862998962402344,-121.0989990234375 -53.18199920654297,-119.00599670410156 C-53.18199920654297,-119.00599670410156 -72.06500244140625,-101.96499633789062 -72.06500244140625,-101.96499633789062 C-72.06500244140625,-101.96499633789062 -97.0770034790039,-118.38400268554688 -97.0770034790039,-118.38400268554688 C-97.0770034790039,-118.38400268554688 -113.71199798583984,-93.74500274658203 -113.71199798583984,-93.74500274658203 C-113.71199798583984,-93.74500274658203 -137.6540069580078,-102.33499908447266 -137.6540069580078,-102.33499908447266 C-140.59500122070312,-103.38999938964844 -143.16200256347656,-100.05599975585938 -141.38999938964844,-97.48300170898438 C-141.38999938964844,-97.48300170898438 -106.61900329589844,-46.97800064086914 -106.61900329589844,-46.97800064086914 M-44.8849983215332,146.1820068359375 C-44.8849983215332,146.1820068359375 -44.8849983215332,146.1820068359375 -44.8849983215332,146.1820068359375 C-54.52199935913086,148.08399963378906 -63.95899963378906,142.0989990234375 -66.34700012207031,132.5709991455078 C-66.34700012207031,132.5709991455078 -106.8740005493164,-29.09600067138672 -106.8740005493164,-29.09600067138672 C-110.61900329589844,-44.034000396728516 -101.08799743652344,-59.06100082397461 -85.9800033569336,-62.042999267578125 C-85.9800033569336,-62.042999267578125 -85.9800033569336,-62.042999267578125 -85.9800033569336,-62.042999267578125 C-70.87200164794922,-65.0250015258789 -56.34600067138672,-54.74399948120117 -54.1349983215332,-39.50400161743164 C-54.1349983215332,-39.50400161743164 -30.202999114990234,125.43800354003906 -30.202999114990234,125.43800354003906 C-28.792999267578125,135.15899658203125 -35.24800109863281,144.27999877929688 -44.8849983215332,146.1820068359375z M-104.7979965209961,-20.836000442504883 C-104.7979965209961,-20.836000442504883 -87.5530014038086,-24.239999771118164 -87.5530014038086,-24.239999771118164 M-60.3120002746582,22.277000427246094 C-60.3120002746582,22.277000427246094 -45.73099899291992,19.39900016784668 -45.73099899291992,19.39900016784668 M-81.5530014038086,70.11299896240234 C-81.5530014038086,70.11299896240234 -68.10600280761719,67.45899963378906 -68.10600280761719,67.45899963378906"></path></g></g></g></symbol><filter id="__lottie_element_2862" filterUnits="objectBoundingBox" x="0%" y="0%" width="100%" height="100%"><feComponentTransfer in="SourceGraphic"><feFuncA type="table" tableValues="1.0 0.0"></feFuncA></feComponentTransfer></filter><mask id="__lottie_element_2856_2" mask-type="alpha"><g filter="url(#__lottie_element_2862)"><rect width="500" height="500" x="0" y="0" fill="#ffffff" opacity="0"></rect><use xlink:href="#__lottie_element_2856"></use></g></mask><filter id="__lottie_element_2863" filterUnits="objectBoundingBox" x="0%" y="0%" width="100%" height="100%"><feComponentTransfer in="SourceGraphic"><feFuncA type="table" tableValues="1.0 0.0"></feFuncA></feComponentTransfer></filter><mask id="__lottie_element_2844_2" mask-type="alpha"><g filter="url(#__lottie_element_2863)"><rect width="500" height="500" x="0" y="0" fill="#ffffff" opacity="0"></rect><use xlink:href="#__lottie_element_2844"></use></g></mask><filter id="__lottie_element_2864" filterUnits="objectBoundingBox" x="0%" y="0%" width="100%" height="100%"><feComponentTransfer in="SourceGraphic"><feFuncA type="table" tableValues="1.0 0.0"></feFuncA></feComponentTransfer></filter><mask id="__lottie_element_2830_2" mask-type="alpha"><g filter="url(#__lottie_element_2864)"><rect width="500" height="500" x="0" y="0" fill="#ffffff" opacity="0"></rect><use xlink:href="#__lottie_element_2830"></use></g></mask></defs><g clip-path="url(#__lottie_element_2819)"><g mask="url(#__lottie_element_2830_2)" style="display: block;"><g transform="matrix(1,0,0,1,250,250)" opacity="1"><g opacity="1" transform="matrix(1,0,0,1,0,0)"><path stroke-linecap="round" stroke-linejoin="round" fill-opacity="0" stroke="inherit" stroke-opacity="1" stroke-width="12.6" d=" M-122.79900360107422,13.34000015258789 C-118.28900146484375,-83.5999984741211 -65.02899932861328,-160.1199951171875 0.0010000000474974513,-160.1199951171875 C65.03099822998047,-160.1199951171875 118.29100036621094,-83.5999984741211 122.8010025024414,13.34000015258789"></path></g></g></g><g mask="url(#__lottie_element_2844_2)" style="display: block;"><g clip-path="url(#__lottie_element_2848)" transform="matrix(1,0,0,1,0,0)" opacity="1"><g mask="url(#__lottie_element_2856_2)" style="display: block;"><g transform="matrix(1,0,0,1,250,250)" opacity="1"><g opacity="1" transform="matrix(1,0,0,1,0,0)"><path stroke-linecap="round" stroke-linejoin="round" fill-opacity="0" stroke="inherit" stroke-opacity="1" stroke-width="12.6" d=" M116.38700103759766,-23.79599952697754 C128.89500427246094,-16.672000885009766 134.65699768066406,-1.2960000038146973 129.33900451660156,12.54800033569336 C126.16799926757812,20.764999389648438 119.74099731445312,26.76300048828125 112.11100006103516,29.624000549316406 C112.11100006103516,29.624000549316406 112.11199951171875,29.625999450683594 112.11199951171875,29.625999450683594 C112.84100341796875,34.314998626708984 112.38099670410156,39.25 110.5510025024414,44.00400161743164 C105.75399780273438,56.46699905395508 93.09600067138672,63.57099914550781 80.42400360107422,61.840999603271484 C80.42400360107422,61.840999603271484 80.42900085449219,61.84199905395508 80.42900085449219,61.84199905395508 C83.30699920654297,68.42400360107422 83.69400024414062,76.09500122070312 80.91000366210938,83.3270034790039 C75.31300354003906,97.87999725341797 58.9739990234375,105.12799835205078 44.42100143432617,99.53099822998047 C35.571998596191406,96.11799621582031 29.42300033569336,88.73699951171875 27.22100067138672,80.1969985961914 C20.851999282836914,90.13099670410156 8.569999694824219,95.46099853515625 -3.7279999256134033,92.24500274658203 C-17.30900001525879,88.69300079345703 -26.33300018310547,75.3489990234375 -24.555999755859375,61.42399978637695 C-23.67099952697754,54.4900016784668 -20.388999938964844,48.5369987487793 -15.685999870300293,44.20500183105469 C-27.17300033569336,38.83399963378906 -33.979000091552734,26.152000427246094 -31.39699935913086,13.145000457763672 C-30.687999725341797,9.572999954223633 -29.332000732421875,6.290999889373779 -27.472999572753906,3.3989999294281006 C-25.04599952697754,-0.3779999911785126 -25.586000442504883,-5.2829999923706055 -28.52899932861328,-8.67300033569336 C-37.50299835205078,-19.009000778198242 -41.77299880981445,-33.22999954223633 -38.902000427246094,-47.689998626708984 C-34.972999572753906,-67.47799682617188 -18.857999801635742,-81.74700164794922 0.0949999988079071,-84.23699951171875 C2.614000082015991,-84.56800079345703 4.673999786376953,-86.30599975585938 5.568999767303467,-88.68399810791016 C10.343000411987305,-101.37000274658203 23.73900032043457,-109.11599731445312 37.47999954223633,-106.38800048828125 C40.4630012512207,-105.7959976196289 43.23099899291992,-104.75800323486328 45.74399948120117,-103.34600067138672 C51.05099868774414,-114.99400329589844 63.81700134277344,-121.9000015258789 76.91600036621094,-119.30000305175781 C92.21099853515625,-116.26300048828125 102.15499877929688,-101.40699768066406 99.11799621582031,-86.11199951171875 C99.11799621582031,-86.11199951171875 99.0999984741211,-86.02200317382812 99.0999984741211,-86.02200317382812 C98.51300048828125,-83.13099670410156 101.22599792480469,-80.72799682617188 104.05699920654297,-81.55699920654297 C109.04199981689453,-83.01699829101562 114.49500274658203,-83.18499755859375 119.95500183105469,-81.74600219726562 C133.84800720214844,-78.08599853515625 143.23699951171875,-64.63899993896484 141.83299255371094,-50.340999603271484 C140.43299865722656,-36.09299850463867 129.4770050048828,-25.586999893188477 116.38700103759766,-23.79599952697754z M64.88500213623047,-63.698001861572266 C64.88500213623047,-63.698001861572266 27.22800064086914,-15.361000061035156 26.597000122070312,82.69300079345703 M74.2959976196289,-34.00299835205078 C52.270999908447266,-31.511999130249023 43.22999954223633,-19.54599952697754 43.22999954223633,-19.54599952697754 M82.77300262451172,0.18299999833106995 C46.25600051879883,7.38100004196167 30.270999908447266,33.172000885009766 30.270999908447266,33.172000885009766 M24.792999267578125,-52.715999603271484 C41.29899978637695,-39.61800003051758 43.22999954223633,-19.54599952697754 43.22999954223633,-19.54599952697754 M3.443000078201294,-22.490999221801758 C22.680999755859375,-7.492000102996826 30.270999908447266,33.172000885009766 30.270999908447266,33.172000885009766"></path></g></g></g><g transform="matrix(1,0,0,1,250,250)" opacity="1" style="display: block;"><g opacity="1" transform="matrix(1,0,0,1,0,0)"><path stroke-linecap="round" stroke-linejoin="round" fill-opacity="0" stroke="inherit" stroke-opacity="1" stroke-width="12.6" d=" M-60.85900115966797,-56.00899887084961 C-60.85900115966797,-56.00899887084961 -47.882999420166016,-115.93699645996094 -47.882999420166016,-115.93699645996094 C-47.22200012207031,-118.98999786376953 -50.862998962402344,-121.0989990234375 -53.18199920654297,-119.00599670410156 C-53.18199920654297,-119.00599670410156 -72.06500244140625,-101.96499633789062 -72.06500244140625,-101.96499633789062 C-72.06500244140625,-101.96499633789062 -97.0770034790039,-118.38400268554688 -97.0770034790039,-118.38400268554688 C-97.0770034790039,-118.38400268554688 -113.71199798583984,-93.74500274658203 -113.71199798583984,-93.74500274658203 C-113.71199798583984,-93.74500274658203 -137.6540069580078,-102.33499908447266 -137.6540069580078,-102.33499908447266 C-140.59500122070312,-103.38999938964844 -143.16200256347656,-100.05599975585938 -141.38999938964844,-97.48300170898438 C-141.38999938964844,-97.48300170898438 -106.61900329589844,-46.97800064086914 -106.61900329589844,-46.97800064086914 M-44.8849983215332,146.1820068359375 C-44.8849983215332,146.1820068359375 -44.8849983215332,146.1820068359375 -44.8849983215332,146.1820068359375 C-54.52199935913086,148.08399963378906 -63.95899963378906,142.0989990234375 -66.34700012207031,132.5709991455078 C-66.34700012207031,132.5709991455078 -106.8740005493164,-29.09600067138672 -106.8740005493164,-29.09600067138672 C-110.61900329589844,-44.034000396728516 -101.08799743652344,-59.06100082397461 -85.9800033569336,-62.042999267578125 C-85.9800033569336,-62.042999267578125 -85.9800033569336,-62.042999267578125 -85.9800033569336,-62.042999267578125 C-70.87200164794922,-65.0250015258789 -56.34600067138672,-54.74399948120117 -54.1349983215332,-39.50400161743164 C-54.1349983215332,-39.50400161743164 -30.202999114990234,125.43800354003906 -30.202999114990234,125.43800354003906 C-28.792999267578125,135.15899658203125 -35.24800109863281,144.27999877929688 -44.8849983215332,146.1820068359375z M-104.7979965209961,-20.836000442504883 C-104.7979965209961,-20.836000442504883 -87.5530014038086,-24.239999771118164 -87.5530014038086,-24.239999771118164 M-60.3120002746582,22.277000427246094 C-60.3120002746582,22.277000427246094 -45.73099899291992,19.39900016784668 -45.73099899291992,19.39900016784668 M-81.5530014038086,70.11299896240234 C-81.5530014038086,70.11299896240234 -68.10600280761719,67.45899963378906 -68.10600280761719,67.45899963378906"></path></g></g></g></g><g transform="matrix(1,0,0,1,250,250)" opacity="1" style="display: block;"><g opacity="1" transform="matrix(1,0,0,1,0,0)"><path stroke-linecap="round" stroke-linejoin="round" fill-opacity="0" stroke="inherit" stroke-opacity="1" stroke-width="12.6" d=" M122.61499786376953,40.029998779296875 C122.61499786376953,40.029998779296875 130.86199951171875,125.32599639892578 80.05999755859375,160.11900329589844 C80.05999755859375,160.11900329589844 -80.05999755859375,160.11900329589844 -80.05999755859375,160.11900329589844 C-130.86199951171875,125.32599639892578 -122.61499786376953,40.029998779296875 -122.61499786376953,40.029998779296875 M-75.24600219726562,40.029998779296875 C-75.24600219726562,40.029998779296875 -80.30699920654297,125.32599639892578 -49.13100051879883,160.11900329589844 M75.24600219726562,40.029998779296875 C75.24600219726562,40.029998779296875 80.30699920654297,125.32599639892578 49.13100051879883,160.11900329589844 M-26.57900047302246,40.029998779296875 C-26.57900047302246,40.029998779296875 -28.365999221801758,125.32599639892578 -17.354000091552734,160.11900329589844 M26.57900047302246,40.029998779296875 C26.57900047302246,40.029998779296875 28.365999221801758,125.32599639892578 17.354000091552734,160.11900329589844 M125.03199768066406,40.029998779296875 C125.03199768066406,40.029998779296875 -125.03199768066406,40.029998779296875 -125.03199768066406,40.029998779296875 C-129.91400146484375,40.029998779296875 -133.8719940185547,36.071998596191406 -133.8719940185547,31.190000534057617 C-133.8719940185547,31.190000534057617 -133.8719940185547,22.183000564575195 -133.8719940185547,22.183000564575195 C-133.8719940185547,17.301000595092773 -129.91400146484375,13.343000411987305 -125.03199768066406,13.343000411987305 C-125.03199768066406,13.343000411987305 125.03199768066406,13.343000411987305 125.03199768066406,13.343000411987305 C129.91400146484375,13.343000411987305 133.8719940185547,17.301000595092773 133.8719940185547,22.183000564575195 C133.8719940185547,22.183000564575195 133.8719940185547,31.190000534057617 133.8719940185547,31.190000534057617 C133.8719940185547,36.071998596191406 129.91400146484375,40.029998779296875 125.03199768066406,40.029998779296875z"></path></g></g><g class="com" style="display: none;"><g><path></path></g><g><path></path></g><g><path></path></g><g><path></path></g><g><path></path></g><g><path></path></g><g><path></path></g><g><path></path></g><g><path></path></g><g><path></path></g><g><path></path></g><g><path></path></g></g></g></svg>