<svg xmlns="http://www.w3.org/2000/svg" xmlns:xlink="http://www.w3.org/1999/xlink" viewBox="0 0 500 500" width="500" height="500" preserveAspectRatio="xMidYMid meet" style="width: 100%; height: 100%; transform: translate3d(0px, 0px, 0px); content-visibility: visible;"><defs><clipPath id="__lottie_element_2866"><rect width="500" height="500" x="0" y="0"></rect></clipPath></defs><g clip-path="url(#__lottie_element_2866)"><g transform="matrix(1,0,0,1,250,250)" opacity="1" style="display: block;"><g opacity="1" transform="matrix(1,0,0,1,0,0)"><path stroke-linecap="round" stroke-linejoin="round" fill-opacity="0" stroke="inherit" stroke-opacity="1" stroke-width="12" d=" M-96.8499984741211,160.11900329589844 C-96.8499984741211,160.11900329589844 96.7020034790039,160.11900329589844 96.7020034790039,160.11900329589844 C124.31600189208984,160.11900329589844 146.70199584960938,137.73300170898438 146.70199584960938,110.11900329589844 C146.70199584960938,110.11900329589844 146.70199584960938,106.74600219726562 146.70199584960938,106.74600219726562 C146.70199584960938,106.74600219726562 -146.85000610351562,106.74600219726562 -146.85000610351562,106.74600219726562 C-146.85000610351562,106.74600219726562 -146.85000610351562,110.11900329589844 -146.85000610351562,110.11900329589844 C-146.85000610351562,137.73300170898438 -124.46399688720703,160.11900329589844 -96.8499984741211,160.11900329589844z"></path></g></g><g transform="matrix(1,0,0,1,250,250)" opacity="1" style="display: block;"><g opacity="1" transform="matrix(1,0,0,1,0,0)"><path stroke-linecap="round" stroke-linejoin="round" fill-opacity="0" stroke="inherit" stroke-opacity="1" stroke-width="12" d=" M-122.0719985961914,80.05400085449219 C-122.0719985961914,80.05400085449219 119.90499877929688,80.05400085449219 119.90499877929688,80.05400085449219 C130.95700073242188,80.05400085449219 139.91700744628906,71.09400177001953 139.91700744628906,60.04199981689453 C139.91700744628906,60.04199981689453 139.91700744628906,60.04199981689453 139.91700744628906,60.04199981689453 C139.91700744628906,48.9900016784668 130.95700073242188,40.029998779296875 119.90499877929688,40.029998779296875 C119.90499877929688,40.029998779296875 -122.0719985961914,40.029998779296875 -122.0719985961914,40.029998779296875 C-133.12399291992188,40.029998779296875 -142.08299255371094,48.9900016784668 -142.08299255371094,60.04199981689453 C-142.08299255371094,60.04199981689453 -142.08299255371094,60.04199981689453 -142.08299255371094,60.04199981689453 C-142.08299255371094,71.09400177001953 -133.12399291992188,80.05400085449219 -122.0719985961914,80.05400085449219z"></path></g></g><g transform="matrix(1,0,0,1,250,250)" opacity="1" style="display: block;"><g opacity="1" transform="matrix(1,0,0,1,0,0)"><path stroke-linecap="round" stroke-linejoin="round" fill-opacity="0" stroke="inherit" stroke-opacity="1" stroke-width="12" d=" M-146.7760009765625,0.23999999463558197 C-126.91100311279297,11.425999641418457 -110.7979965209961,14.517000198364258 -97.85099792480469,13.746999740600586 C-75.69599914550781,12.428999900817871 -69.74500274658203,0.21699999272823334 -48.92499923706055,0.23999999463558197 C-27.613000869750977,0.2639999985694885 -21.95800018310547,13.61299991607666 -0.5210000276565552,13.680999755859375 C21.104999542236328,13.75 27.23900032043457,0.20100000500679016 48.92499923706055,0.23999999463558197 C69.83899688720703,0.2770000100135803 75.69400024414062,12.423999786376953 97.85099792480469,13.746999740600586 C114.8479995727539,14.76200008392334 131.63099670410156,8.82699966430664 146.7760009765625,0.328000009059906 C142.34100341796875,-8.682000160217285 137.90499877929688,-17.69099998474121 133.47000122070312,-26.701000213623047 C44.4900016784668,-26.701000213623047 -44.4900016784668,-26.701000213623047 -133.47000122070312,-26.701000213623047 C-137.906005859375,-17.72100067138672 -142.33999633789062,-8.739999771118164 -146.7760009765625,0.23999999463558197z"></path></g></g><g transform="matrix(1,0,0,1,250,250)" opacity="1" style="display: block;"><g opacity="1" transform="matrix(1,0,0,1,0,0)"><path stroke-linecap="round" stroke-linejoin="round" fill-opacity="0" stroke="inherit" stroke-opacity="1" stroke-width="12" d=" M-145.35000610351562,-53.38800048828125 C-145.35000610351562,-53.38800048828125 145.20199584960938,-53.38800048828125 145.20199584960938,-53.38800048828125 C146.02999877929688,-53.38800048828125 146.70199584960938,-54.060001373291016 146.70199584960938,-54.88800048828125 C146.70199584960938,-54.88800048828125 146.70199584960938,-54.888999938964844 146.70199584960938,-54.888999938964844 C146.70199584960938,-113.00599670410156 99.58799743652344,-160.11900329589844 41.47100067138672,-160.11900329589844 C41.47100067138672,-160.11900329589844 -41.61899948120117,-160.11900329589844 -41.61899948120117,-160.11900329589844 C-99.73600006103516,-160.11900329589844 -146.85000610351562,-113.00599670410156 -146.85000610351562,-54.888999938964844 C-146.85000610351562,-54.888999938964844 -146.85000610351562,-54.88800048828125 -146.85000610351562,-54.88800048828125 C-146.85000610351562,-54.060001373291016 -146.17799377441406,-53.38800048828125 -145.35000610351562,-53.38800048828125z"></path></g></g><g transform="matrix(1,0,0,1,250,250)" opacity="1" style="display: block;"><g opacity="1" transform="matrix(1,0,0,1,0,0)"><path stroke-linecap="round" stroke-linejoin="round" fill-opacity="0" stroke="inherit" stroke-opacity="1" stroke-width="12" d=" M66.67400360107422,-93.40299987792969 C66.7020034790039,-93.40299987792969 66.73100280761719,-93.40299987792969 66.75900268554688,-93.40299987792969"></path></g></g><g transform="matrix(1,0,0,1,250,250)" opacity="1" style="display: block;"><g opacity="1" transform="matrix(1,0,0,1,0,0)"><path stroke-linecap="round" stroke-linejoin="round" fill-opacity="0" stroke="inherit" stroke-opacity="1" stroke-width="12" d=" M33.22100067138672,-120.08999633789062 C33.249000549316406,-120.08999633789062 33.277000427246094,-120.08899688720703 33.30500030517578,-120.08899688720703"></path></g></g><g transform="matrix(1,0,0,1,250,250)" opacity="1" style="display: block;"><g opacity="1" transform="matrix(1,0,0,1,0,0)"><path stroke-linecap="round" stroke-linejoin="round" fill-opacity="0" stroke="inherit" stroke-opacity="1" stroke-width="12" d=" M-0.041999999433755875,-93.40299987792969 C-0.014000000432133675,-93.40299987792969 0.014000000432133675,-93.40299987792969 0.041999999433755875,-93.40299987792969"></path></g></g><g transform="matrix(1,0,0,1,250,250)" opacity="1" style="display: block;"><g opacity="1" transform="matrix(1,0,0,1,0,0)"><path stroke-linecap="round" stroke-linejoin="round" fill-opacity="0" stroke="inherit" stroke-opacity="1" stroke-width="12" d=" M-66.33000183105469,-93.40299987792969 C-66.302001953125,-93.40299987792969 -66.27400207519531,-93.40299987792969 -66.24600219726562,-93.40299987792969"></path></g></g><g transform="matrix(1,0,0,1,250,250)" opacity="1" style="display: block;"><g opacity="1" transform="matrix(1,0,0,1,0,0)"><path stroke-linecap="round" stroke-linejoin="round" fill-opacity="0" stroke="inherit" stroke-opacity="1" stroke-width="12" d=" M-33.29999923706055,-120.08999633789062 C-33.27199935913086,-120.08999633789062 -33.24399948120117,-120.08899688720703 -33.215999603271484,-120.08899688720703"></path></g></g><g style="display: none;"><path></path></g></g></svg>