<svg xmlns="http://www.w3.org/2000/svg" xmlns:xlink="http://www.w3.org/1999/xlink" viewBox="0 0 500 500" width="500" height="500" preserveAspectRatio="xMidYMid meet" style="width: 100%; height: 100%; transform: translate3d(0px, 0px, 0px); content-visibility: visible;"><defs><clipPath id="__lottie_element_2901"><rect width="500" height="500" x="0" y="0"></rect></clipPath></defs><g clip-path="url(#__lottie_element_2901)"><g transform="matrix(1,0,0,1,249.9810028076172,249.91799926757812)" opacity="1" style="display: block;"><g opacity="1" transform="matrix(1,0,0,1,0,0)"><path stroke-linecap="round" stroke-linejoin="round" fill-opacity="0" stroke="inherit" stroke-opacity="1" stroke-width="12.6" d=" M92.01899719238281,23.934999465942383 C92.01899719238281,23.934999465942383 83.56999969482422,80.69499969482422 83.56999969482422,80.69499969482422 C83.56999969482422,80.69499969482422 71.7979965209961,159.77699279785156 71.7979965209961,159.77699279785156 C71.7979965209961,159.77699279785156 -71.7979965209961,159.77699279785156 -71.7979965209961,159.77699279785156 C-71.7979965209961,159.77699279785156 -83.45500183105469,81.45600128173828 -83.45500183105469,81.45600128173828 C-83.45500183105469,81.45600128173828 -91.9800033569336,24.18199920654297 -91.9800033569336,24.18199920654297 C-91.9800033569336,24.18199920654297 -61.630001068115234,6.888999938964844 -61.630001068115234,6.888999938964844 C-61.630001068115234,6.888999938964844 -30.68600082397461,24.517000198364258 -30.68600082397461,24.517000198364258 C-30.68600082397461,24.517000198364258 0.23999999463558197,6.888999938964844 0.23999999463558197,6.888999938964844 C0.23999999463558197,6.888999938964844 31.174999237060547,24.517000198364258 31.174999237060547,24.517000198364258 C31.174999237060547,24.517000198364258 62.11000061035156,6.888999938964844 62.11000061035156,6.888999938964844 C62.11000061035156,6.888999938964844 92.01899719238281,23.934999465942383 92.01899719238281,23.934999465942383z"></path></g><g opacity="1" transform="matrix(1,0,0,1,0,0)"><path stroke-linecap="round" stroke-linejoin="round" fill-opacity="0" stroke="inherit" stroke-opacity="1" stroke-width="12.6" d=" M-30.68600082397461,24.517000198364258 C-29.413999557495117,43.845001220703125 -28.141000747680664,63.17300033569336 -26.868999481201172,82.50199890136719 C-25.173999786376953,108.26000213623047 -23.47800064086914,134.0189971923828 -21.783000946044922,159.77699279785156"></path></g><g opacity="1" transform="matrix(1,0,0,1,0,0)"><path stroke-linecap="round" stroke-linejoin="round" fill-opacity="0" stroke="inherit" stroke-opacity="1" stroke-width="12.6" d=" M31.174999237060547,24.517000198364258 C29.891000747680664,44.89500045776367 28.607999801635742,65.27100372314453 27.323999404907227,85.64900207519531 C25.767000198364258,110.35800170898438 24.211000442504883,135.06700134277344 22.65399932861328,159.7760009765625"></path></g></g><g transform="matrix(1,0,0,1,249.9810028076172,249.91799926757812)" opacity="1" style="display: block;"><g opacity="1" transform="matrix(1,0,0,1,0,0)"><path stroke-linecap="round" stroke-linejoin="round" fill-opacity="0" stroke="inherit" stroke-opacity="1" stroke-width="12.6" d=" M27.878000259399414,-60.108001708984375 C38.141998291015625,-66.2509994506836 50.571998596191406,-69.83499908447266 63.95000076293945,-69.83499908447266 C68.25299835205078,-69.83499908447266 72.45999908447266,-69.46099853515625 76.52300262451172,-68.75199890136719 C105.80999755859375,-63.66299819946289 127.87000274658203,-41.11399841308594 127.87000274658203,-14.0600004196167 C127.87000274658203,8.479999542236328 112.53700256347656,27.905000686645508 90.47599792480469,36.70199966430664"></path></g><g opacity="1" transform="matrix(1,0,0,1,0,0)"><path stroke-linecap="round" stroke-linejoin="round" fill-opacity="0" stroke="inherit" stroke-opacity="1" stroke-width="12.6" d=" M-28.826000213623047,-60.68299865722656 C-38.90800094604492,-66.47100067138672 -50.9739990234375,-69.83499908447266 -63.939998626708984,-69.83499908447266 C-68.25199890136719,-69.83499908447266 -72.45999908447266,-69.46099853515625 -76.52300262451172,-68.75199890136719 C-105.80000305175781,-63.65399932861328 -127.86000061035156,-41.11399841308594 -127.86000061035156,-14.0600004196167 C-127.86000061035156,8.479999542236328 -112.53700256347656,27.905000686645508 -90.47599792480469,36.69300079345703"></path></g><g opacity="1" transform="matrix(1,0,0,1,0,0)"><path stroke-linecap="round" stroke-linejoin="round" fill-opacity="0" stroke="inherit" stroke-opacity="1" stroke-width="12.6" d=" M-76.52300262451172,-68.75199890136719 C-73.63800048828125,-105.10199737548828 -40.47999954223633,-133.77499389648438 0,-133.77499389648438 C40.47999954223633,-133.77499389648438 73.63800048828125,-105.10199737548828 76.52300262451172,-68.75199890136719"></path></g></g><g transform="matrix(1,0,0,1,249.9810028076172,249.91799926757812)" opacity="1" style="display: block;"><g opacity="1" transform="matrix(1,0,0,1,0,0)"><path stroke-linecap="round" stroke-linejoin="round" fill-opacity="0" stroke="inherit" stroke-opacity="1" stroke-width="12.6" d=" M-79.33399963378906,-23.02899932861328 C-79.33399963378906,-23.02899932861328 -67.21399688720703,-34.88399887084961 -67.21399688720703,-34.88399887084961"></path></g><g opacity="1" transform="matrix(1,0,0,1,0,0)"><path stroke-linecap="round" stroke-linejoin="round" fill-opacity="0" stroke="inherit" stroke-opacity="1" stroke-width="12.6" d=" M65.6259994506836,-30.34000015258789 C65.6259994506836,-30.34000015258789 80.30899810791016,-21.863000869750977 80.30899810791016,-21.863000869750977"></path></g><g opacity="1" transform="matrix(1,0,0,1,0,0)"><path stroke-linecap="round" stroke-linejoin="round" fill-opacity="0" stroke="inherit" stroke-opacity="1" stroke-width="12.6" d=" M7.598999977111816,-36.44300079345703 C7.598999977111816,-36.44300079345703 -0.878000020980835,-21.76099967956543 -0.878000020980835,-21.76099967956543"></path></g><g opacity="1" transform="matrix(1,0,0,1,0,0)"><path stroke-linecap="round" stroke-linejoin="round" fill-opacity="0" stroke="inherit" stroke-opacity="1" stroke-width="12.6" d=" M0.01899999938905239,-100.26399993896484 C0.01899999938905239,-100.26399993896484 14.70199966430664,-91.78700256347656 14.70199966430664,-91.78700256347656"></path></g></g><g style="display: none;"><g><path stroke-linecap="round" stroke-linejoin="round" fill-opacity="0"></path></g></g><g class="com" style="display: none;"><g><path></path></g><g><path></path></g><g><path></path></g><g><path></path></g><g><path></path></g><g><path></path></g><g><path></path></g><g><path></path></g><g><path></path></g><g><path></path></g><g><path></path></g><g><path></path></g></g></g></svg>