<svg xmlns="http://www.w3.org/2000/svg" xmlns:xlink="http://www.w3.org/1999/xlink" viewBox="0 0 500 500" width="500" height="500" preserveAspectRatio="xMidYMid meet" style="width: 100%; height: 100%; transform: translate3d(0px, 0px, 0px); content-visibility: visible;"><defs><clipPath id="__lottie_element_2921"><rect width="500" height="500" x="0" y="0"></rect></clipPath><clipPath id="__lottie_element_2929"><path d="M0,0 L500,0 L500,500 L0,500z"></path></clipPath><clipPath id="__lottie_element_2951"><path d="M0,0 L500,0 L500,500 L0,500z"></path></clipPath></defs><g clip-path="url(#__lottie_element_2921)"><g clip-path="url(#__lottie_element_2951)" transform="matrix(1,0,0,1,0,0)" opacity="0" style="display: block;"><g transform="matrix(1,0,0,1,250,249.99998474121094)" opacity="1" style="display: block;"><g opacity="1" transform="matrix(1,0,0,1,0,0)"><path stroke-linecap="round" stroke-linejoin="round" fill-opacity="0" stroke="inherit" stroke-opacity="1" stroke-width="12.6" d=" M-76.33100128173828,-13.131999969482422 C-57.249000549316406,-13.131999969482422 -57.249000549316406,2.868000030517578 -38.16699981689453,2.868000030517578 C-19.086000442504883,2.868000030517578 -19.086000442504883,-13.131999969482422 -0.004999999888241291,-13.131999969482422 C19.07900047302246,-13.131999969482422 19.07900047302246,2.868000030517578 38.16299819946289,2.868000030517578 C57.24700164794922,2.868000030517578 57.24800109863281,-13.131999969482422 76.33200073242188,-13.131999969482422"></path></g></g><g transform="matrix(1,0,0,1,250,249.99998474121094)" opacity="1" style="display: block;"><g opacity="1" transform="matrix(1,0,0,1,0,0)"><path stroke-linecap="round" stroke-linejoin="round" fill-opacity="0" stroke="inherit" stroke-opacity="1" stroke-width="12.6" d=" M-127.21900177001953,80.33399963378906 C-127.21900177001953,80.33399963378906 -127.21900177001953,80.33399963378906 -127.21900177001953,80.33399963378906 C-106.01699829101562,80.33399963378906 -106.01799774169922,96.33399963378906 -84.81600189208984,96.33399963378906 C-63.61399841308594,96.33399963378906 -63.61399841308594,80.33399963378906 -42.4119987487793,80.33399963378906 C-21.208999633789062,80.33399963378906 -21.208999633789062,96.33399963378906 -0.006000000052154064,96.33399963378906 C21.195999145507812,96.33399963378906 21.195999145507812,80.33399963378906 42.39799880981445,80.33399963378906 C63.60300064086914,80.33399963378906 63.604000091552734,96.33399963378906 84.80899810791016,96.33399963378906 C106.01399993896484,96.33399963378906 106.01399993896484,80.33399963378906 127.21900177001953,80.33399963378906"></path></g></g><g transform="matrix(1,0,0,1,250,249.989990234375)" opacity="1" style="display: block;"><g opacity="1" transform="matrix(1,0,0,1,0,0)"><path stroke-linecap="round" stroke-linejoin="round" fill-opacity="0" stroke="inherit" stroke-opacity="1" stroke-width="12.6" d=" M17.32200050354004,-154.07699584960938 C17.32200050354004,-144.51400756835938 9.567999839782715,-136.75999450683594 -0.004000000189989805,-136.75999450683594 C-9.567000389099121,-136.75999450683594 -17.32200050354004,-144.51400756835938 -17.32200050354004,-154.07699584960938 C-17.32200050354004,-162.34800720214844 0.039000000804662704,-199.1490020751953 0.039000000804662704,-199.1490020751953 C0.039000000804662704,-199.1490020751953 17.32200050354004,-162.43099975585938 17.32200050354004,-154.07699584960938z"></path></g></g><g transform="matrix(1,0,0,1,250,249.99998474121094)" opacity="1" style="display: block;"><g opacity="1" transform="matrix(1,0,0,1,0,0)"><path stroke-linecap="round" stroke-linejoin="round" fill-opacity="0" stroke="inherit" stroke-opacity="1" stroke-width="12.6" d=" M127.21900177001953,160.11900329589844 C127.21900177001953,160.11900329589844 -127.21900177001953,160.11900329589844 -127.21900177001953,160.11900329589844 C-127.21900177001953,160.11900329589844 -127.21900177001953,80.57099914550781 -127.21900177001953,80.57099914550781 C-127.21900177001953,61.32099914550781 -111.46900177001953,45.57099914550781 -92.21900177001953,45.57099914550781 C-92.21900177001953,45.57099914550781 92.21900177001953,45.57099914550781 92.21900177001953,45.57099914550781 C111.46900177001953,45.57099914550781 127.21900177001953,61.32099914550781 127.21900177001953,80.57099914550781 C127.21900177001953,80.57099914550781 127.21900177001953,160.11900329589844 127.21900177001953,160.11900329589844z"></path></g></g><g transform="matrix(1,0,0,1,250,249.99998474121094)" opacity="1" style="display: block;"><g opacity="1" transform="matrix(1,0,0,1,0,0)"><path stroke-linecap="round" stroke-linejoin="round" fill-opacity="0" stroke="inherit" stroke-opacity="1" stroke-width="12.6" d=" M76.33100128173828,45.57099914550781 C76.33100128173828,45.57099914550781 -76.33100128173828,45.57099914550781 -76.33100128173828,45.57099914550781 C-76.33100128173828,45.57099914550781 -76.33100128173828,-21.066999435424805 -76.33100128173828,-21.066999435424805 C-76.33100128173828,-34.81700134277344 -65.08100128173828,-46.06700134277344 -51.33100128173828,-46.06700134277344 C-51.33100128173828,-46.06700134277344 51.33100128173828,-46.06700134277344 51.33100128173828,-46.06700134277344 C65.08100128173828,-46.06700134277344 76.33100128173828,-34.81700134277344 76.33100128173828,-21.066999435424805 C76.33100128173828,-21.066999435424805 76.33100128173828,45.57099914550781 76.33100128173828,45.57099914550781z"></path></g></g><g transform="matrix(1,0,0,1,250,249.99998474121094)" opacity="1" style="display: block;"><g opacity="1" transform="matrix(1,0,0,1,0,0)"><path stroke-linecap="round" stroke-linejoin="round" fill-opacity="0" stroke="inherit" stroke-opacity="1" stroke-width="12.6" d=" M17.16200065612793,-46.06700134277344 C17.16200065612793,-46.06700134277344 -17.16200065612793,-46.06700134277344 -17.16200065612793,-46.06700134277344 C-17.16200065612793,-46.06700134277344 -17.16200065612793,-110.5 -17.16200065612793,-110.5 C-17.16200065612793,-110.5 -13.343000411987305,-110.5 -13.343000411987305,-110.5 C-13.343000411987305,-110.5 17.16200065612793,-110.5 17.16200065612793,-110.5 C17.16200065612793,-110.5 17.16200065612793,-46.06700134277344 17.16200065612793,-46.06700134277344z"></path></g></g></g><g clip-path="url(#__lottie_element_2929)" transform="matrix(1,0,0,1,0,0)" opacity="1" style="display: block;"><g transform="matrix(1,0,0,1,250,249.99998474121094)" opacity="1" style="display: block;"><g opacity="1" transform="matrix(1,0,0,1,0,0)"><path stroke-linecap="round" stroke-linejoin="round" fill-opacity="0" stroke="inherit" stroke-opacity="1" stroke-width="12.6" d=" M-76.33100128173828,-13.131999969482422 C-57.249000549316406,-13.131999969482422 -57.249000549316406,2.868000030517578 -38.16699981689453,2.868000030517578 C-19.086000442504883,2.868000030517578 -19.086000442504883,-13.131999969482422 -0.004999999888241291,-13.131999969482422 C19.07900047302246,-13.131999969482422 19.07900047302246,2.868000030517578 38.16299819946289,2.868000030517578 C57.24700164794922,2.868000030517578 57.24800109863281,-13.131999969482422 76.33200073242188,-13.131999969482422"></path></g></g><g transform="matrix(1,0,0,1,250,249.99998474121094)" opacity="1" style="display: block;"><g opacity="1" transform="matrix(1,0,0,1,0,0)"><path stroke-linecap="round" stroke-linejoin="round" fill-opacity="0" stroke="inherit" stroke-opacity="1" stroke-width="12.6" d=" M-127.21900177001953,80.33399963378906 C-127.21900177001953,80.33399963378906 -127.21900177001953,80.33399963378906 -127.21900177001953,80.33399963378906 C-106.01699829101562,80.33399963378906 -106.01799774169922,96.33399963378906 -84.81600189208984,96.33399963378906 C-63.61399841308594,96.33399963378906 -63.61399841308594,80.33399963378906 -42.4119987487793,80.33399963378906 C-21.208999633789062,80.33399963378906 -21.208999633789062,96.33399963378906 -0.006000000052154064,96.33399963378906 C21.195999145507812,96.33399963378906 21.195999145507812,80.33399963378906 42.39799880981445,80.33399963378906 C63.60300064086914,80.33399963378906 63.604000091552734,96.33399963378906 84.80899810791016,96.33399963378906 C106.01399993896484,96.33399963378906 106.01399993896484,80.33399963378906 127.21900177001953,80.33399963378906"></path></g></g><g transform="matrix(1,0,0,1,250,249.989990234375)" opacity="1" style="display: block;"><g opacity="1" transform="matrix(1,0,0,1,0,0)"><path stroke-linecap="round" stroke-linejoin="round" fill-opacity="0" stroke="inherit" stroke-opacity="1" stroke-width="12.6" d=" M17.32200050354004,-154.07699584960938 C17.32200050354004,-144.51400756835938 9.567999839782715,-136.75999450683594 -0.004000000189989805,-136.75999450683594 C-9.567000389099121,-136.75999450683594 -17.32200050354004,-144.51400756835938 -17.32200050354004,-154.07699584960938 C-17.32200050354004,-162.34800720214844 0.039000000804662704,-199.1490020751953 0.039000000804662704,-199.1490020751953 C0.039000000804662704,-199.1490020751953 17.32200050354004,-162.43099975585938 17.32200050354004,-154.07699584960938z"></path></g></g><g transform="matrix(1,0,0,1,250,249.99998474121094)" opacity="1" style="display: block;"><g opacity="1" transform="matrix(1,0,0,1,0,0)"><path stroke-linecap="round" stroke-linejoin="round" fill-opacity="0" stroke="inherit" stroke-opacity="1" stroke-width="12.6" d=" M127.21900177001953,160.11900329589844 C127.21900177001953,160.11900329589844 -127.21900177001953,160.11900329589844 -127.21900177001953,160.11900329589844 C-127.21900177001953,160.11900329589844 -127.21900177001953,80.57099914550781 -127.21900177001953,80.57099914550781 C-127.21900177001953,61.32099914550781 -111.46900177001953,45.57099914550781 -92.21900177001953,45.57099914550781 C-92.21900177001953,45.57099914550781 92.21900177001953,45.57099914550781 92.21900177001953,45.57099914550781 C111.46900177001953,45.57099914550781 127.21900177001953,61.32099914550781 127.21900177001953,80.57099914550781 C127.21900177001953,80.57099914550781 127.21900177001953,160.11900329589844 127.21900177001953,160.11900329589844z"></path></g></g><g transform="matrix(1,0,0,1,250,249.99998474121094)" opacity="1" style="display: block;"><g opacity="1" transform="matrix(1,0,0,1,0,0)"><path stroke-linecap="round" stroke-linejoin="round" fill-opacity="0" stroke="inherit" stroke-opacity="1" stroke-width="12.6" d=" M76.33100128173828,45.57099914550781 C76.33100128173828,45.57099914550781 -76.33100128173828,45.57099914550781 -76.33100128173828,45.57099914550781 C-76.33100128173828,45.57099914550781 -76.33100128173828,-21.066999435424805 -76.33100128173828,-21.066999435424805 C-76.33100128173828,-34.81700134277344 -65.08100128173828,-46.06700134277344 -51.33100128173828,-46.06700134277344 C-51.33100128173828,-46.06700134277344 51.33100128173828,-46.06700134277344 51.33100128173828,-46.06700134277344 C65.08100128173828,-46.06700134277344 76.33100128173828,-34.81700134277344 76.33100128173828,-21.066999435424805 C76.33100128173828,-21.066999435424805 76.33100128173828,45.57099914550781 76.33100128173828,45.57099914550781z"></path></g></g><g transform="matrix(1,0,0,1,250,249.99998474121094)" opacity="1" style="display: block;"><g opacity="1" transform="matrix(1,0,0,1,0,0)"><path stroke-linecap="round" stroke-linejoin="round" fill-opacity="0" stroke="inherit" stroke-opacity="1" stroke-width="12.6" d=" M17.16200065612793,-46.06700134277344 C17.16200065612793,-46.06700134277344 -17.16200065612793,-46.06700134277344 -17.16200065612793,-46.06700134277344 C-17.16200065612793,-46.06700134277344 -17.16200065612793,-110.5 -17.16200065612793,-110.5 C-17.16200065612793,-110.5 -13.343000411987305,-110.5 -13.343000411987305,-110.5 C-13.343000411987305,-110.5 17.16200065612793,-110.5 17.16200065612793,-110.5 C17.16200065612793,-110.5 17.16200065612793,-46.06700134277344 17.16200065612793,-46.06700134277344z"></path></g></g></g><g class="com" style="display: none;"><g><path></path></g><g><path></path></g><g><path></path></g><g><path></path></g><g><path></path></g><g><path></path></g><g><path></path></g><g><path></path></g><g><path></path></g><g><path></path></g><g><path></path></g><g><path></path></g></g></g></svg>