<svg xmlns="http://www.w3.org/2000/svg" xmlns:xlink="http://www.w3.org/1999/xlink" viewBox="0 0 500 500" width="500" height="500" preserveAspectRatio="xMidYMid meet" style="width: 100%; height: 100%; transform: translate3d(0px, 0px, 0px); content-visibility: visible;"><defs><clipPath id="__lottie_element_3018"><rect width="500" height="500" x="0" y="0"></rect></clipPath></defs><g clip-path="url(#__lottie_element_3018)"><g transform="matrix(1,0,0,1,250,250)" opacity="1" style="display: block;"><g opacity="1" transform="matrix(1,0,0,1,0,0)"><path stroke-linecap="round" stroke-linejoin="round" fill-opacity="0" stroke="inherit" stroke-opacity="1" stroke-width="12.6" d=" M152,-28.208999633789062 C152,-28.027999877929688 152,-27.858999252319336 151.98800659179688,-27.67799949645996 C151.92799377441406,-18.01099967956543 150.0570068359375,-8.706999778747559 146.6300048828125,0.006000000052154064 C132.48599243164062,36.077999114990234 91.96099853515625,62.12099838256836 44.17100143432617,62.12099838256836 C25.683000564575195,62.12099838256836 7.1579999923706055,58.18600082397461 -9.520000457763672,50.14899826049805 C-20.81599998474121,44.70600128173828 -31.291000366210938,37.27299880981445 -43.323001861572266,33.435001373291016 C-56.525001525878906,29.235000610351562 -69.33000183105469,31.636999130249023 -82.85800170898438,31.636999130249023 C-109.52899932861328,31.636999130249023 -132.77200317382812,19.520000457763672 -144.94900512695312,1.5989999771118164 C-150.2469940185547,-6.197000026702881 -153.44500732421875,-15.079999923706055 -153.92799377441406,-24.55299949645996 C-153.9759979248047,-25.38599967956543 -154,-26.229999542236328 -154,-27.075000762939453 C-154,-48.194000244140625 -139.5540008544922,-65.39099884033203 -121.8499984741211,-75.28700256347656 C-106.01699829101562,-84.13300323486328 -88.26499938964844,-84.4229965209961 -70.65699768066406,-85.56900024414062 C-52.40999984741211,-86.75199890136719 -36.22700119018555,-91.03600311279297 -20.297000885009766,-100.27999877929688 C-0.25200000405311584,-111.9020004272461 20.711000442504883,-118.53900146484375 44.17100143432617,-118.53900146484375 C103.71499633789062,-118.53900146484375 152,-78.0989990234375 152,-28.208999633789062z"></path></g><g opacity="1" transform="matrix(1,0,0,1,0,0)"><path stroke-linecap="round" stroke-linejoin="round" fill-opacity="0" stroke="inherit" stroke-opacity="1" stroke-width="12.6" d=" M151.98800659179688,-27.67799949645996 C151.98800659179688,-27.67799949645996 152,-27.67799949645996 152,-27.67799949645996 C152,-27.67799949645996 152,28.208999633789062 152,28.208999633789062 C152,78.0989990234375 103.71499633789062,118.53900146484375 44.17100143432617,118.53900146484375 C25.683000564575195,118.53900146484375 7.1579999923706055,114.6050033569336 -9.520000457763672,106.56800079345703 C-20.81599998474121,101.125 -31.291000366210938,93.69100189208984 -43.323001861572266,89.85299682617188 C-56.525001525878906,85.65299987792969 -69.33000183105469,88.05500030517578 -82.85800170898438,88.05500030517578 C-121.1259994506836,88.05500030517578 -152.3350067138672,63.12200164794922 -153.92799377441406,31.865999221801758 C-153.92799377441406,31.865999221801758 -153.92799377441406,-24.55299949645996 -153.92799377441406,-24.55299949645996"></path></g><g opacity="1" transform="matrix(1,0,0,1,0,0)"><path stroke-linecap="round" stroke-linejoin="round" fill-opacity="0" stroke="inherit" stroke-opacity="1" stroke-width="12.6" d=" M-60,-27.000999450683594 C-60,-17.979999542236328 -70.6709976196289,-10.668000221252441 -83.83399963378906,-10.668000221252441 C-96.99700164794922,-10.668000221252441 -107.66699981689453,-17.979999542236328 -107.66699981689453,-27.000999450683594 C-107.66699981689453,-36.02199935913086 -96.99700164794922,-43.33399963378906 -83.83399963378906,-43.33399963378906 C-70.6709976196289,-43.33399963378906 -60,-36.02199935913086 -60,-27.000999450683594z"></path></g><g opacity="1" transform="matrix(1,0,0,1,0,0)"><path stroke-linecap="round" stroke-linejoin="round" fill-opacity="0" stroke="inherit" stroke-opacity="1" stroke-width="12.6" d=" M86.88200378417969,10.510000228881836 C86.88200378417969,10.510000228881836 -11.663000106811523,-14.467000007629395 -11.663000106811523,-14.467000007629395"></path></g><g opacity="1" transform="matrix(1,0,0,1,0,0)"><path stroke-linecap="round" stroke-linejoin="round" fill-opacity="0" stroke="inherit" stroke-opacity="1" stroke-width="12.6" d=" M78.39399719238281,-27.06599998474121 C78.39399719238281,-27.06599998474121 14.118000030517578,-43.356998443603516 14.118000030517578,-43.356998443603516"></path></g><g opacity="1" transform="matrix(1,0,0,1,0,0)"><path stroke-linecap="round" stroke-linejoin="round" fill-opacity="0" stroke="inherit" stroke-opacity="1" stroke-width="12.6" d=" M75.25800323486328,-64.33000183105469 C75.25800323486328,-64.33000183105469 42.79199981689453,-72.55899810791016 42.79199981689453,-72.55899810791016"></path></g></g><g class="com" style="display: none;"><g><path></path></g><g><path></path></g><g><path></path></g><g><path></path></g><g><path></path></g><g><path></path></g><g><path></path></g><g><path></path></g><g><path></path></g><g><path></path></g><g><path></path></g><g><path></path></g></g></g></svg>