<svg xmlns="http://www.w3.org/2000/svg" xmlns:xlink="http://www.w3.org/1999/xlink" viewBox="0 0 500 500" width="500" height="500" preserveAspectRatio="xMidYMid meet" style="width: 100%; height: 100%; transform: translate3d(0px, 0px, 0px); content-visibility: visible;"><defs><clipPath id="__lottie_element_3029"><rect width="500" height="500" x="0" y="0"></rect></clipPath><symbol id="__lottie_element_3039"><g><g transform="matrix(1,0,0,1,250,250)" opacity="1" style="display: block;"><g opacity="1" transform="matrix(1,0,0,1,0,0)"><path stroke-linecap="round" stroke-linejoin="round" fill-opacity="0" stroke="inherit" stroke-opacity="1" stroke-width="12.6" d=" M60.625,-9.25 C60.625,-9.25 31,-59.25 31,-59.25 C31,-59.25 -5.375,-10.625 -5.375,-10.625 C-5.375,-10.625 -5.375,81.625 -5.375,81.625 C-5.375,81.625 82,81.5 82,81.5 C82,81.5 60.625,-9.25 60.625,-9.25z"></path><path fill="inherit" fill-opacity="1" d=" M60.625,-9.25 C60.625,-9.25 31,-59.25 31,-59.25 C31,-59.25 -5.375,-10.625 -5.375,-10.625 C-5.375,-10.625 -5.375,81.625 -5.375,81.625 C-5.375,81.625 82,81.5 82,81.5 C82,81.5 60.625,-9.25 60.625,-9.25z"></path></g></g></g></symbol><filter id="__lottie_element_3045" filterUnits="objectBoundingBox" x="0%" y="0%" width="100%" height="100%"><feComponentTransfer in="SourceGraphic"><feFuncA type="table" tableValues="1.0 0.0"></feFuncA></feComponentTransfer></filter><mask id="__lottie_element_3039_2" mask-type="alpha"><g filter="url(#__lottie_element_3045)"><rect width="500" height="500" x="0" y="0" fill="#ffffff" opacity="0"></rect><use xlink:href="#__lottie_element_3039"></use></g></mask><symbol id="__lottie_element_3046"><g><g transform="matrix(1,0,0,1,250,250)" opacity="1" style="display: block;"><g opacity="1" transform="matrix(1,0,0,1,0,0)"><g opacity="1" transform="matrix(1,0,0,1,0,0)"><path stroke-linecap="round" stroke-linejoin="round" fill-opacity="0" stroke="inherit" stroke-opacity="1" stroke-width="12.6" d=" M-34.9109992980957,-14.16100025177002 C-34.9109992980957,-14.16100025177002 -34.9109992980957,70.23899841308594 -34.9109992980957,70.23899841308594 C-39.87200164794922,75.44999694824219 -98.80599975585938,137.16200256347656 -112.46199798583984,151.45799255371094 C-112.46199798583984,151.45799255371094 -112.56999969482422,151.45799255371094 -112.56999969482422,151.45799255371094 C-149.75,135 -169.25,107.5 -175.54200744628906,87.70500183105469 C-175.54200744628906,87.70500183105469 -175.54200744628906,3.315999984741211 -175.54200744628906,3.315999984741211 C-172,20.125 -139.5,55.25 -112.51599884033203,67.10099792480469 C-86.64800262451172,40.016998291015625 -60.77899932861328,12.934000015258789 -34.9109992980957,-14.16100025177002z"></path><path fill="inherit" fill-opacity="1" d=" M-34.9109992980957,-14.16100025177002 C-34.9109992980957,-14.16100025177002 -34.9109992980957,70.23899841308594 -34.9109992980957,70.23899841308594 C-39.87200164794922,75.44999694824219 -98.80599975585938,137.16200256347656 -112.46199798583984,151.45799255371094 C-112.46199798583984,151.45799255371094 -112.56999969482422,151.45799255371094 -112.56999969482422,151.45799255371094 C-149.75,135 -169.25,107.5 -175.54200744628906,87.70500183105469 C-175.54200744628906,87.70500183105469 -175.54200744628906,3.315999984741211 -175.54200744628906,3.315999984741211 C-172,20.125 -139.5,55.25 -112.51599884033203,67.10099792480469 C-86.64800262451172,40.016998291015625 -60.77899932861328,12.934000015258789 -34.9109992980957,-14.16100025177002z"></path></g><g opacity="1" transform="matrix(1,0,0,1,0,0)"><path stroke-linecap="round" stroke-linejoin="round" fill-opacity="0" stroke="inherit" stroke-opacity="1" stroke-width="12.6" d=" M-34.90700149536133,-14.156999588012695 C-60.7760009765625,12.930999755859375 -86.6449966430664,40.01900100708008 -112.51399993896484,67.10700225830078 C-139.5,55.25 -172,20 -175.54200744628906,3.316999912261963 C-128.6929931640625,-2.499000072479248 -81.85700225830078,-8.315999984741211 -35.020999908447266,-14.145000457763672 C-34.983001708984375,-14.145000457763672 -34.94499969482422,-14.156999588012695 -34.90700149536133,-14.156999588012695z"></path><path fill="inherit" fill-opacity="1" d=" M-34.90700149536133,-14.156999588012695 C-60.7760009765625,12.930999755859375 -86.6449966430664,40.01900100708008 -112.51399993896484,67.10700225830078 C-139.5,55.25 -172,20 -175.54200744628906,3.316999912261963 C-128.6929931640625,-2.499000072479248 -81.85700225830078,-8.315999984741211 -35.020999908447266,-14.145000457763672 C-34.983001708984375,-14.145000457763672 -34.94499969482422,-14.156999588012695 -34.90700149536133,-14.156999588012695z"></path></g><g opacity="1" transform="matrix(1,0,0,1,0,0)"><path stroke-linecap="round" stroke-linejoin="round" fill-opacity="0" stroke="inherit" stroke-opacity="1" stroke-width="12.6" d=" M-112.51399993896484,67.10700225830078 C-112.53299713134766,95.2229995727539 -112.552001953125,123.33799743652344 -112.57099914550781,151.45399475097656"></path><path fill="inherit" fill-opacity="1" d=" M-112.51399993896484,67.10700225830078 C-112.53299713134766,95.2229995727539 -112.552001953125,123.33799743652344 -112.57099914550781,151.45399475097656"></path></g></g><g opacity="1" transform="matrix(1,0,0,1,0,0)"><path stroke-linecap="round" stroke-linejoin="round" fill-opacity="0" stroke="inherit" stroke-opacity="1" stroke-width="12.6" d=" M-71.23300170898438,23.875999450683594 C-68.22599792480469,28.86400032043457 -67.38999938964844,33.321998596191406 -67.11900329589844,35.90299987792969 C-66.78099822998047,39.11800003051758 -66.43800354003906,42.369998931884766 -68.25,45.75 C-68.47899627685547,46.176998138427734 -71.69000244140625,51.97600173950195 -76.75,52 C-81.36499786376953,52.02199935913086 -86.20500183105469,47.23400115966797 -86.85399627685547,40.23500061035156"></path><path fill="inherit" fill-opacity="1" d=" M-71.23300170898438,23.875999450683594 C-68.22599792480469,28.86400032043457 -67.38999938964844,33.321998596191406 -67.11900329589844,35.90299987792969 C-66.78099822998047,39.11800003051758 -66.43800354003906,42.369998931884766 -68.25,45.75 C-68.47899627685547,46.176998138427734 -71.69000244140625,51.97600173950195 -76.75,52 C-81.36499786376953,52.02199935913086 -86.20500183105469,47.23400115966797 -86.85399627685547,40.23500061035156"></path></g><g opacity="1" transform="matrix(1,0,0,1,0,0)"><path stroke-linecap="round" stroke-linejoin="round" fill-opacity="0" stroke="inherit" stroke-opacity="1" stroke-width="12.6" d=" M-151.91000366210938,123.93000030517578 C-149.91000366210938,121.5 -148.52999877929688,116.08999633789062 -148.52999877929688,109.80999755859375 C-148.52999877929688,101.25 -151.10000610351562,94.30999755859375 -154.27999877929688,94.30999755859375 C-157.4499969482422,94.30999755859375 -160.02999877929688,101.25 -160.02999877929688,109.80999755859375 C-160.02999877929688,112.0999984741211 -159.83999633789062,114.2699966430664 -159.50999450683594,116.2300033569336"></path><path fill="inherit" fill-opacity="1" d=" M-151.91000366210938,123.93000030517578 C-149.91000366210938,121.5 -148.52999877929688,116.08999633789062 -148.52999877929688,109.80999755859375 C-148.52999877929688,101.25 -151.10000610351562,94.30999755859375 -154.27999877929688,94.30999755859375 C-157.4499969482422,94.30999755859375 -160.02999877929688,101.25 -160.02999877929688,109.80999755859375 C-160.02999877929688,112.0999984741211 -159.83999633789062,114.2699966430664 -159.50999450683594,116.2300033569336"></path></g></g></g></symbol><filter id="__lottie_element_3052" filterUnits="objectBoundingBox" x="0%" y="0%" width="100%" height="100%"><feComponentTransfer in="SourceGraphic"><feFuncA type="table" tableValues="1.0 0.0"></feFuncA></feComponentTransfer></filter><mask id="__lottie_element_3046_2" mask-type="alpha"><g filter="url(#__lottie_element_3052)"><rect width="500" height="500" x="0" y="0" fill="#ffffff" opacity="0"></rect><use xlink:href="#__lottie_element_3046"></use></g></mask></defs><g clip-path="url(#__lottie_element_3029)"><g mask="url(#__lottie_element_3046_2)" style="display: block;"><g transform="matrix(1,0,0,1,250,250)" opacity="1"><g opacity="1" transform="matrix(1,0,0,1,0,0)"><path stroke-linecap="round" stroke-linejoin="round" fill-opacity="0" stroke="inherit" stroke-opacity="1" stroke-width="12.6" d="M0 0"></path></g><g opacity="1" transform="matrix(1,0,0,1,0,0)"><path stroke-linecap="round" stroke-linejoin="round" fill-opacity="0" stroke="inherit" stroke-opacity="1" stroke-width="12.6" d=" M-5.285999774932861,35.63800048828125 C-5.285999774932861,35.63800048828125 -89.49199676513672,35.63800048828125 -89.49199676513672,35.63800048828125 C-89.5510025024414,3.9719998836517334 -89.61000061035156,-27.69499969482422 -89.66899871826172,-59.361000061035156 C-49.393001556396484,-59.305999755859375 -9.102999687194824,-59.26599884033203 31.17300033569336,-59.21099853515625"></path></g><g opacity="1" transform="matrix(1,0,0,1,0,0)"><path stroke-linecap="round" stroke-linejoin="round" fill-opacity="0" stroke="inherit" stroke-opacity="1" stroke-width="12.6" d=" M-89.66899871826172,-59.361000061035156 C-89.66899871826172,-59.361000061035156 -89.66899871826172,-59.44300079345703 -89.66899871826172,-59.44300079345703 C-89.66899871826172,-87.7760009765625 -35.1510009765625,-110.74600219726562 32.09000015258789,-110.74600219726562 C99.33100128173828,-110.74600219726562 153.84800720214844,-87.7760009765625 153.84800720214844,-59.44300079345703"></path></g></g></g><g mask="url(#__lottie_element_3039_2)" style="display: block;"><g transform="matrix(1,0,0,1,250,250)" opacity="1"><g opacity="1" transform="matrix(1,0,0,1,0,0)"><g opacity="1" transform="matrix(1,0,0,1,0,0)"><path stroke-linecap="round" stroke-linejoin="round" fill-opacity="0" stroke="inherit" stroke-opacity="1" stroke-width="12.6" d=" M-34.9109992980957,-14.16100025177002 C-34.9109992980957,-14.16100025177002 -34.9109992980957,70.23899841308594 -34.9109992980957,70.23899841308594 C-39.87200164794922,75.44999694824219 -98.80599975585938,137.16200256347656 -112.46199798583984,151.45799255371094 C-112.46199798583984,151.45799255371094 -112.56999969482422,151.45799255371094 -112.56999969482422,151.45799255371094 C-149.75,135 -169.25,107.5 -175.54200744628906,87.70500183105469 C-175.54200744628906,87.70500183105469 -175.54200744628906,3.315999984741211 -175.54200744628906,3.315999984741211 C-172,20.125 -139.5,55.25 -112.51599884033203,67.10099792480469 C-86.64800262451172,40.016998291015625 -60.77899932861328,12.934000015258789 -34.9109992980957,-14.16100025177002z"></path></g><g opacity="1" transform="matrix(1,0,0,1,0,0)"><path stroke-linecap="round" stroke-linejoin="round" fill-opacity="0" stroke="inherit" stroke-opacity="1" stroke-width="12.6" d=" M-34.90700149536133,-14.156999588012695 C-60.7760009765625,12.930999755859375 -86.6449966430664,40.01900100708008 -112.51399993896484,67.10700225830078 C-139.5,55.25 -172,20 -175.54200744628906,3.316999912261963 C-128.6929931640625,-2.499000072479248 -81.85700225830078,-8.315999984741211 -35.020999908447266,-14.145000457763672 C-34.983001708984375,-14.145000457763672 -34.94499969482422,-14.156999588012695 -34.90700149536133,-14.156999588012695z"></path></g><g opacity="1" transform="matrix(1,0,0,1,0,0)"><path stroke-linecap="round" stroke-linejoin="round" fill-opacity="0" stroke="inherit" stroke-opacity="1" stroke-width="12.6" d=" M-112.51399993896484,67.10700225830078 C-112.53299713134766,95.2229995727539 -112.552001953125,123.33799743652344 -112.57099914550781,151.45399475097656"></path></g></g><g opacity="1" transform="matrix(1,0,0,1,0,0)"><path stroke-linecap="round" stroke-linejoin="round" fill-opacity="0" stroke="inherit" stroke-opacity="1" stroke-width="12.6" d=" M-71.23300170898438,23.875999450683594 C-68.22599792480469,28.86400032043457 -67.38999938964844,33.321998596191406 -67.11900329589844,35.90299987792969 C-66.78099822998047,39.11800003051758 -66.43800354003906,42.369998931884766 -68.25,45.75 C-68.47899627685547,46.176998138427734 -71.69000244140625,51.97600173950195 -76.75,52 C-81.36499786376953,52.02199935913086 -86.20500183105469,47.23400115966797 -86.85399627685547,40.23500061035156"></path></g><g opacity="1" transform="matrix(1,0,0,1,0,0)"><path stroke-linecap="round" stroke-linejoin="round" fill-opacity="0" stroke="inherit" stroke-opacity="1" stroke-width="12.6" d=" M-151.91000366210938,123.93000030517578 C-149.91000366210938,121.5 -148.52999877929688,116.08999633789062 -148.52999877929688,109.80999755859375 C-148.52999877929688,101.25 -151.10000610351562,94.30999755859375 -154.27999877929688,94.30999755859375 C-157.4499969482422,94.30999755859375 -160.02999877929688,101.25 -160.02999877929688,109.80999755859375 C-160.02999877929688,112.0999984741211 -159.83999633789062,114.2699966430664 -159.50999450683594,116.2300033569336"></path></g></g></g><g transform="matrix(1,0,0,1,250,250)" opacity="1" style="display: block;"><g opacity="1" transform="matrix(1,0,0,1,0,0)"><path stroke-linecap="round" stroke-linejoin="round" fill-opacity="0" stroke="inherit" stroke-opacity="1" stroke-width="12.6" d=" M153.84800720214844,-59.44300079345703 C153.84800720214844,-39.12699890136719 125.83000183105469,-21.575000762939453 85.197998046875,-13.270999908447266 C69.1500015258789,-9.98799991607666 51.132999420166016,-8.140000343322754 32.0890007019043,-8.140000343322754 C19.010000228881836,-8.140000343322754 6.425000190734863,-9.015999794006348 -5.368000030517578,-10.616999626159668 C-5.368000030517578,-10.616999626159668 -5.368000030517578,-10.711999893188477 -5.368000030517578,-10.711999893188477 C6.821000099182129,-26.868999481201172 18.996999740600586,-43.040000915527344 31.17300033569336,-59.21099853515625"></path></g><g opacity="1" transform="matrix(1,0,0,1,0,0)"><path stroke-linecap="round" stroke-linejoin="round" fill-opacity="0" stroke="inherit" stroke-opacity="1" stroke-width="12.6" d=" M153.84800720214844,-59.44300079345703 C153.84800720214844,-59.44300079345703 153.84800720214844,32.902000427246094 153.84800720214844,32.902000427246094 C153.84800720214844,58.388999938964844 109.75499725341797,79.5260009765625 51.95399856567383,83.52100372314453 C45.49700164794922,83.97200012207031 38.861000061035156,84.20500183105469 32.0890007019043,84.20500183105469 C25.316999435424805,84.20500183105469 18.68199920654297,83.97200012207031 12.225000381469727,83.52100372314453 C6.260000228881836,83.11100006103516 0.4320000112056732,82.50800323486328 -5.203999996185303,81.74199676513672 C-5.230999946594238,66.37899780273438 -5.258999824523926,51.01499938964844 -5.285999774932861,35.63800048828125 C-5.313000202178955,20.219999313354492 -5.341000080108643,4.801000118255615 -5.368000030517578,-10.616999626159668"></path></g></g><g class="com" style="display: none;"><g><path></path></g><g><path></path></g><g><path></path></g><g><path></path></g><g><path></path></g><g><path></path></g><g><path></path></g><g><path></path></g><g><path></path></g><g><path></path></g><g><path></path></g><g><path></path></g></g></g></svg>