<svg xmlns="http://www.w3.org/2000/svg" xmlns:xlink="http://www.w3.org/1999/xlink" viewBox="0 0 500 500" width="500" height="500" preserveAspectRatio="xMidYMid meet" style="width: 100%; height: 100%; transform: translate3d(0px, 0px, 0px); content-visibility: visible;"><defs><clipPath id="__lottie_element_3054"><rect width="500" height="500" x="0" y="0"></rect></clipPath><symbol id="__lottie_element_3064"><g><g transform="matrix(1,0,0,1,250,250)" opacity="1" style="display: block;"><path fill="inherit" fill-opacity="1" d=" M-132.99000549316406,93.41200256347656 C-132.9949951171875,93.08899688720703 -132.99899291992188,92.78500366210938 -133,92.50199890136719 C-133.26100158691406,42.183998107910156 -85.05899810791016,-164.4980010986328 0.1459999978542328,-164.4980010986328 C85.35099792480469,-164.4980010986328 133.26100158691406,42.183998107910156 133,92.50199890136719 C132.99899291992188,92.78500366210938 132.9949951171875,93.08899688720703 132.99000549316406,93.41200256347656 C44.33000183105469,93.41200256347656 -44.33000183105469,93.41200256347656 -132.99000549316406,93.41200256347656z M16.45800018310547,-184.91400146484375 C16.45800018310547,-173.63600158691406 9.220999717712402,-164.4929962158203 0.2919999957084656,-164.4929962158203 C-8.63700008392334,-164.4929962158203 -15.875,-173.63600158691406 -15.875,-184.91400146484375 C-15.875,-196.19200134277344 -8.63700008392334,-205.3350067138672 0.2919999957084656,-205.3350067138672 C9.220999717712402,-205.3350067138672 16.45800018310547,-196.19200134277344 16.45800018310547,-184.91400146484375z"></path><g opacity="1" transform="matrix(1,0,0,1,0,0)"><path stroke-linecap="round" stroke-linejoin="round" fill-opacity="0" stroke="inherit" stroke-opacity="1" stroke-width="0" d=" M-132.99000549316406,93.41200256347656 C-132.9949951171875,93.08899688720703 -132.99899291992188,92.78500366210938 -133,92.50199890136719 C-133.26100158691406,42.183998107910156 -85.05899810791016,-164.4980010986328 0.1459999978542328,-164.4980010986328 C85.35099792480469,-164.4980010986328 133.26100158691406,42.183998107910156 133,92.50199890136719 C132.99899291992188,92.78500366210938 132.9949951171875,93.08899688720703 132.99000549316406,93.41200256347656 C44.33000183105469,93.41200256347656 -44.33000183105469,93.41200256347656 -132.99000549316406,93.41200256347656z"></path></g><g opacity="1" transform="matrix(1,0,0,1,0,0)"><path stroke-linecap="round" stroke-linejoin="round" fill-opacity="0" stroke="inherit" stroke-opacity="1" stroke-width="0" d=" M16.45800018310547,-184.91400146484375 C16.45800018310547,-173.63600158691406 9.220999717712402,-164.4929962158203 0.2919999957084656,-164.4929962158203 C-8.63700008392334,-164.4929962158203 -15.875,-173.63600158691406 -15.875,-184.91400146484375 C-15.875,-196.19200134277344 -8.63700008392334,-205.3350067138672 0.2919999957084656,-205.3350067138672 C9.220999717712402,-205.3350067138672 16.45800018310547,-196.19200134277344 16.45800018310547,-184.91400146484375z"></path></g></g></g></symbol><clipPath id="__lottie_element_3068"><path d="M0,0 L500,0 L500,500 L0,500z"></path></clipPath><symbol id="__lottie_element_3086"><g><g transform="matrix(1,0,0,1,250,250)" opacity="1" style="display: block;"><path fill="inherit" fill-opacity="1" d=" M-74.00700378417969,93.43699645996094 C-74.00700378417969,93.43699645996094 -119.5,54.4370002746582 -119.5,54.4370002746582 C-119.5,54.4370002746582 119.5,54.4370002746582 119.5,54.4370002746582 C119.5,54.4370002746582 74.00700378417969,93.43699645996094 74.00700378417969,93.43699645996094"></path><g opacity="1" transform="matrix(1,0,0,1,0,0)"><path stroke-linecap="round" stroke-linejoin="round" fill-opacity="0" stroke="inherit" stroke-opacity="1" stroke-width="12.6" d=" M-74.00700378417969,93.43699645996094 C-74.00700378417969,93.43699645996094 -119.5,54.4370002746582 -119.5,54.4370002746582 C-119.5,54.4370002746582 119.5,54.4370002746582 119.5,54.4370002746582 C119.5,54.4370002746582 74.00700378417969,93.43699645996094 74.00700378417969,93.43699645996094"></path></g></g></g></symbol><filter id="__lottie_element_3092" filterUnits="objectBoundingBox" x="0%" y="0%" width="100%" height="100%"><feComponentTransfer in="SourceGraphic"><feFuncA type="table" tableValues="1.0 0.0"></feFuncA></feComponentTransfer></filter><mask id="__lottie_element_3086_2" mask-type="alpha"><g filter="url(#__lottie_element_3092)"><rect width="500" height="500" x="0" y="0" fill="#ffffff" opacity="0"></rect><use xlink:href="#__lottie_element_3086"></use></g></mask><filter id="__lottie_element_3093" filterUnits="objectBoundingBox" x="0%" y="0%" width="100%" height="100%"><feComponentTransfer in="SourceGraphic"><feFuncA type="table" tableValues="1.0 0.0"></feFuncA></feComponentTransfer></filter><mask id="__lottie_element_3064_2" mask-type="alpha"><g filter="url(#__lottie_element_3093)"><rect width="500" height="500" x="0" y="0" fill="#ffffff" opacity="0"></rect><use xlink:href="#__lottie_element_3064"></use></g></mask></defs><g clip-path="url(#__lottie_element_3054)"><g mask="url(#__lottie_element_3064_2)" style="display: block;"><g clip-path="url(#__lottie_element_3068)" transform="matrix(1,0,0,1,0,0)" opacity="1"><g mask="url(#__lottie_element_3086_2)" style="display: block;"><g transform="matrix(1,0,0,1,250,250)" opacity="1"><g opacity="1" transform="matrix(1,0,0,1,0,0)"><path stroke-linecap="round" stroke-linejoin="round" fill-opacity="0" stroke="inherit" stroke-opacity="1" stroke-width="12.6" d=" M60.75,74.9990005493164 C60.75,74.9990005493164 -60.75,74.9990005493164 -60.75,74.9990005493164 C-60.75,74.9990005493164 -35.14500045776367,-18.000999450683594 -35.14500045776367,-18.000999450683594 C-35.14500045776367,-18.000999450683594 35.14500045776367,-18.000999450683594 35.14500045776367,-18.000999450683594 C35.14500045776367,-18.000999450683594 60.75,74.9990005493164 60.75,74.9990005493164z"></path></g></g></g><g transform="matrix(1,0,0,1,250,312.5)" opacity="1" style="display: block;"><g opacity="1" transform="matrix(1,0,0,1,0,0)"><path stroke-linecap="round" stroke-linejoin="round" fill-opacity="0" stroke="inherit" stroke-opacity="1" stroke-width="12.6" d=" M3.1410000324249268,-147.5709991455078 C3.1589999198913574,-147.177001953125 3.1679999828338623,-146.76800537109375 3.1679999828338623,-146.3419952392578 C3.1679999828338623,-146.3419952392578 3.1679999828338623,-146.7760009765625 3.1679999828338623,-146.7760009765625 C3.1679999828338623,-135.99899291992188 -2.8320000171661377,-135.99899291992188 -2.8320000171661377,-125.22200012207031 C-2.8320000171661377,-114.44400024414062 3.1679999828338623,-114.44400024414062 3.1679999828338623,-103.66600036621094 C3.1679999828338623,-92.88800048828125 -2.8320000171661377,-92.88700103759766 -2.8320000171661377,-82.10900115966797"></path></g></g><g transform="matrix(-1,0,0,1,205,312.5)" opacity="1" style="display: block;"><g opacity="1" transform="matrix(1,0,0,1,0,0)"><path stroke-linecap="round" stroke-linejoin="round" fill-opacity="0" stroke="inherit" stroke-opacity="1" stroke-width="12.6" d=" M3.1410000324249268,-147.5709991455078 C3.1589999198913574,-147.177001953125 3.1679999828338623,-146.76800537109375 3.1679999828338623,-146.3419952392578 C3.1679999828338623,-146.3419952392578 3.1679999828338623,-146.7760009765625 3.1679999828338623,-146.7760009765625 C3.1679999828338623,-135.99899291992188 -2.8320000171661377,-135.99899291992188 -2.8320000171661377,-125.22200012207031 C-2.8320000171661377,-114.44400024414062 3.1679999828338623,-114.44400024414062 3.1679999828338623,-103.66600036621094 C3.1679999828338623,-92.88800048828125 -2.8320000171661377,-92.88700103759766 -2.8320000171661377,-82.10900115966797"></path></g></g><g transform="matrix(-1,0,0,1,295,312.5)" opacity="1" style="display: block;"><g opacity="1" transform="matrix(1,0,0,1,0,0)"><path stroke-linecap="round" stroke-linejoin="round" fill-opacity="0" stroke="inherit" stroke-opacity="1" stroke-width="12.6" d=" M3.1410000324249268,-147.5709991455078 C3.1589999198913574,-147.177001953125 3.1679999828338623,-146.76800537109375 3.1679999828338623,-146.3419952392578 C3.1679999828338623,-146.3419952392578 3.1679999828338623,-146.7760009765625 3.1679999828338623,-146.7760009765625 C3.1679999828338623,-135.99899291992188 -2.8320000171661377,-135.99899291992188 -2.8320000171661377,-125.22200012207031 C-2.8320000171661377,-114.44400024414062 3.1679999828338623,-114.44400024414062 3.1679999828338623,-103.66600036621094 C3.1679999828338623,-92.88800048828125 -2.8320000171661377,-92.88700103759766 -2.8320000171661377,-82.10900115966797"></path></g></g><g transform="matrix(1,0,0,1,250,250)" opacity="1" style="display: block;"><g opacity="1" transform="matrix(1,0,0,1,0,0)"><path stroke-linecap="round" stroke-linejoin="round" fill-opacity="0" stroke="inherit" stroke-opacity="1" stroke-width="12.6" d=" M-74.00700378417969,93.43699645996094 C-74.00700378417969,93.43699645996094 -119.5,54.4370002746582 -119.5,54.4370002746582 C-119.5,54.4370002746582 119.5,54.4370002746582 119.5,54.4370002746582 C119.5,54.4370002746582 74.00700378417969,93.43699645996094 74.00700378417969,93.43699645996094"></path></g></g><g transform="matrix(1,0,0,1,250,250)" opacity="1" style="display: block;"><g opacity="1" transform="matrix(1,0,0,1,0,0)"><path stroke-linecap="round" stroke-linejoin="round" fill-opacity="0" stroke="inherit" stroke-opacity="1" stroke-width="12.6" d=" M147.33299255371094,126.25 C147.33299255371094,126.25 -149.33299255371094,126.25 -149.33299255371094,126.25 C-155.93299865722656,126.25 -161.33299255371094,120.8499984741211 -161.33299255371094,114.25 C-161.33299255371094,114.25 -161.33299255371094,105.375 -161.33299255371094,105.375 C-161.33299255371094,98.7750015258789 -155.93299865722656,93.375 -149.33299255371094,93.375 C-149.33299255371094,93.375 147.33299255371094,93.375 147.33299255371094,93.375 C153.93299865722656,93.375 159.33299255371094,98.7750015258789 159.33299255371094,105.375 C159.33299255371094,105.375 159.33299255371094,114.25 159.33299255371094,114.25 C159.33299255371094,120.8499984741211 153.93299865722656,126.25 147.33299255371094,126.25z"></path></g></g></g></g><g transform="matrix(1,0,0,1,250,250)" opacity="1" style="display: block;"><g opacity="1" transform="matrix(1,0,0,1,0,0)"><path stroke-linecap="round" stroke-linejoin="round" fill-opacity="0" stroke="inherit" stroke-opacity="1" stroke-width="12.6" d=" M-132.99000549316406,93.41200256347656 C-132.9949951171875,93.08899688720703 -132.99899291992188,92.78500366210938 -133,92.50199890136719 C-133.26100158691406,42.183998107910156 -85.20500183105469,-40.49800109863281 0,-40.49800109863281 C85.20500183105469,-40.49800109863281 133.26100158691406,42.183998107910156 133,92.50199890136719 C132.99899291992188,92.78500366210938 132.9949951171875,93.08899688720703 132.99000549316406,93.41200256347656 C44.33000183105469,93.41200256347656 -44.33000183105469,93.41200256347656 -132.99000549316406,93.41200256347656z"></path></g><g opacity="1" transform="matrix(1,0,0,1,0,0)"><path stroke-linecap="round" stroke-linejoin="round" fill-opacity="0" stroke="inherit" stroke-opacity="1" stroke-width="12.6" d=" M16.312000274658203,-60.91400146484375 C16.312000274658203,-49.63600158691406 9.074999809265137,-40.49300003051758 0.1459999978542328,-40.49300003051758 C-8.782999992370605,-40.49300003051758 -16.020999908447266,-49.63600158691406 -16.020999908447266,-60.91400146484375 C-16.020999908447266,-72.19200134277344 -8.782999992370605,-81.33499908447266 0.1459999978542328,-81.33499908447266 C9.074999809265137,-81.33499908447266 16.312000274658203,-72.19200134277344 16.312000274658203,-60.91400146484375z"></path></g></g><g class="com" style="display: none;"><g><path></path></g><g><path></path></g><g><path></path></g><g><path></path></g><g><path></path></g><g><path></path></g><g><path></path></g><g><path></path></g><g><path></path></g><g><path></path></g><g><path></path></g><g><path></path></g></g></g></svg>