<svg xmlns="http://www.w3.org/2000/svg" xmlns:xlink="http://www.w3.org/1999/xlink" viewBox="0 0 500 500" width="500" height="500" preserveAspectRatio="xMidYMid meet" style="width: 100%; height: 100%; transform: translate3d(0px, 0px, 0px); content-visibility: visible;"><defs><clipPath id="__lottie_element_3095"><rect width="500" height="500" x="0" y="0"></rect></clipPath><symbol id="__lottie_element_3108"><g><g transform="matrix(1,0,0,1,250,250)" opacity="1" style="display: block;"><path fill="inherit" fill-opacity="1" d=" M3.51200008392334,160.12100219726562 C3.51200008392334,160.12100219726562 120.36799621582031,160.12100219726562 120.36799621582031,160.12100219726562 C138.8070068359375,160.12100219726562 153.7550048828125,145.17300415039062 153.7550048828125,126.73400115966797 C153.7550048828125,126.73400115966797 153.7550048828125,124 153.7550048828125,124 C153.7550048828125,124 -29.875,124 -29.875,124 C-29.875,124 -29.875,126.73400115966797 -29.875,126.73400115966797 C-29.875,145.17300415039062 -14.927000045776367,160.12100219726562 3.51200008392334,160.12100219726562z M-8.741000175476074,124 C-8.741000175476074,124 132.62100219726562,124 132.62100219726562,124 C142.2969970703125,124 150.14199829101562,116.15499877929688 150.14199829101562,106.47899627685547 C150.14199829101562,106.47899627685547 150.14199829101562,106.47899627685547 150.14199829101562,106.47899627685547 C150.14199829101562,96.802001953125 142.29800415039062,88.95800018310547 132.62100219726562,88.95800018310547 C132.62100219726562,88.95800018310547 -8.741000175476074,88.95800018310547 -8.741000175476074,88.95800018310547 C-18.417999267578125,88.95800018310547 -26.261999130249023,96.802001953125 -26.261999130249023,106.47899627685547 C-26.261999130249023,106.47899627685547 -26.261999130249023,106.47899627685547 -26.261999130249023,106.47899627685547 C-26.261999130249023,116.15599822998047 -18.417999267578125,124 -8.741000175476074,124z M-28.93600082397461,88.95800018310547 C-28.93600082397461,88.95800018310547 152.81700134277344,88.95800018310547 152.81700134277344,88.95800018310547 C153.3350067138672,88.95800018310547 153.7550048828125,88.53700256347656 153.7550048828125,88.01899719238281 C153.7550048828125,88.01899719238281 153.7550048828125,88.01899719238281 153.7550048828125,88.01899719238281 C153.7550048828125,51.66400146484375 124.28399658203125,22.19300079345703 87.92900085449219,22.19300079345703 C87.92900085449219,22.19300079345703 35.95199966430664,22.19300079345703 35.95199966430664,22.19300079345703 C-0.40299999713897705,22.19300079345703 -29.875,51.66400146484375 -29.875,88.01899719238281 C-29.875,88.01899719238281 -29.875,88.01899719238281 -29.875,88.01899719238281 C-29.875,88.53700256347656 -29.45400047302246,88.95800018310547 -28.93600082397461,88.95800018310547z"></path><g opacity="1" transform="matrix(1,0,0,1,0,0)"><path stroke-linecap="round" stroke-linejoin="round" fill-opacity="0" stroke="inherit" stroke-opacity="1" stroke-width="0" d=" M3.51200008392334,160.12100219726562 C3.51200008392334,160.12100219726562 120.36799621582031,160.12100219726562 120.36799621582031,160.12100219726562 C138.8070068359375,160.12100219726562 153.7550048828125,145.17300415039062 153.7550048828125,126.73400115966797 C153.7550048828125,126.73400115966797 153.7550048828125,124 153.7550048828125,124 C153.7550048828125,124 -29.875,124 -29.875,124 C-29.875,124 -29.875,126.73400115966797 -29.875,126.73400115966797 C-29.875,145.17300415039062 -14.927000045776367,160.12100219726562 3.51200008392334,160.12100219726562z"></path></g><g opacity="1" transform="matrix(1,0,0,1,0,0)"><path stroke-linecap="round" stroke-linejoin="round" fill-opacity="0" stroke="inherit" stroke-opacity="1" stroke-width="0" d=" M-8.741000175476074,124 C-8.741000175476074,124 132.62100219726562,124 132.62100219726562,124 C142.2969970703125,124 150.14199829101562,116.15499877929688 150.14199829101562,106.47899627685547 C150.14199829101562,106.47899627685547 150.14199829101562,106.47899627685547 150.14199829101562,106.47899627685547 C150.14199829101562,96.802001953125 142.29800415039062,88.95800018310547 132.62100219726562,88.95800018310547 C132.62100219726562,88.95800018310547 -8.741000175476074,88.95800018310547 -8.741000175476074,88.95800018310547 C-18.417999267578125,88.95800018310547 -26.261999130249023,96.802001953125 -26.261999130249023,106.47899627685547 C-26.261999130249023,106.47899627685547 -26.261999130249023,106.47899627685547 -26.261999130249023,106.47899627685547 C-26.261999130249023,116.15599822998047 -18.417999267578125,124 -8.741000175476074,124z"></path></g><g opacity="1" transform="matrix(1,0,0,1,0,0)"><path stroke-linecap="round" stroke-linejoin="round" fill-opacity="0" stroke="inherit" stroke-opacity="1" stroke-width="0" d=" M-28.93600082397461,88.95800018310547 C-28.93600082397461,88.95800018310547 152.81700134277344,88.95800018310547 152.81700134277344,88.95800018310547 C153.3350067138672,88.95800018310547 153.7550048828125,88.53700256347656 153.7550048828125,88.01899719238281 C153.7550048828125,88.01899719238281 153.7550048828125,88.01899719238281 153.7550048828125,88.01899719238281 C153.7550048828125,51.66400146484375 124.28399658203125,22.19300079345703 87.92900085449219,22.19300079345703 C87.92900085449219,22.19300079345703 35.95199966430664,22.19300079345703 35.95199966430664,22.19300079345703 C-0.40299999713897705,22.19300079345703 -29.875,51.66400146484375 -29.875,88.01899719238281 C-29.875,88.01899719238281 -29.875,88.01899719238281 -29.875,88.01899719238281 C-29.875,88.53700256347656 -29.45400047302246,88.95800018310547 -28.93600082397461,88.95800018310547z"></path></g></g></g></symbol><filter id="__lottie_element_3114" filterUnits="objectBoundingBox" x="0%" y="0%" width="100%" height="100%"><feComponentTransfer in="SourceGraphic"><feFuncA type="table" tableValues="1.0 0.0"></feFuncA></feComponentTransfer></filter><mask id="__lottie_element_3108_2" mask-type="alpha"><g filter="url(#__lottie_element_3114)"><rect width="500" height="500" x="0" y="0" fill="#ffffff" opacity="0"></rect><use xlink:href="#__lottie_element_3108"></use></g></mask></defs><g clip-path="url(#__lottie_element_3095)"><g mask="url(#__lottie_element_3108_2)" style="display: block;"><g transform="matrix(1,0,0,1,250,250)" opacity="1"><g opacity="1" transform="matrix(1,0,0,1,0,0)"><path stroke-linecap="round" stroke-linejoin="round" fill-opacity="0" stroke-dasharray=" 0.1 122" stroke-dashoffset="0" stroke="inherit" stroke-opacity="0" stroke-width="18.9" d=" M-59.31700134277344,-112.09200286865234 C-57.03799819946289,-128.07899475097656 -54.757999420166016,-144.06500244140625 -52.479000091552734,-160.052001953125 C-35.52299880981445,-165.61599731445312 -18.56800079345703,-171.1790008544922 -1.6119999885559082,-176.7429962158203"></path></g><g opacity="1" transform="matrix(1,0,0,1,0,0)"><path stroke-linecap="round" stroke-linejoin="round" fill-opacity="0" stroke="inherit" stroke-opacity="1" stroke-width="12.6" d=" M-60.74100112915039,-102.10700225830078 C-57.98699951171875,-121.4219970703125 -55.233001708984375,-140.73699951171875 -52.479000091552734,-160.052001953125 C-35.52299880981445,-165.61599731445312 -18.56800079345703,-171.1790008544922 -1.6119999885559082,-176.7429962158203"></path></g><g opacity="1" transform="matrix(1,0,0,1,0,0)"><path stroke-linecap="round" stroke-linejoin="round" fill-opacity="0" stroke="inherit" stroke-opacity="1" stroke-width="12.6" d=" M12.847000122070312,-72.24099731445312 C12.847000122070312,-72.24099731445312 10.177000045776367,-39.025001525878906 4.489999771118164,36.88399887084961 C-2,123.5 -4.947999954223633,160.11900329589844 -4.947999954223633,160.11900329589844 C-4.947999954223633,160.11900329589844 -123.1449966430664,160.11900329589844 -123.1449966430664,160.11900329589844 C-123.1449966430664,160.11900329589844 -126.25,117.98100280761719 -132.80499267578125,33.98500061035156 C-138.5,-39 -140.94000244140625,-72.24099731445312 -140.94000244140625,-72.24099731445312"></path></g><g opacity="1" transform="matrix(1,0,0,1,0,0)"><path stroke-linecap="round" stroke-linejoin="round" fill-opacity="0" stroke="inherit" stroke-opacity="1" stroke-width="12.6" d=" M25.66200065612793,-72.322998046875 C25.66200065612793,-72.322998046875 -5.5,-72.322998046875 -62,-72.322998046875 C-122,-72.322998046875 -153.7550048828125,-72.322998046875 -153.7550048828125,-72.322998046875 C-153.7550048828125,-72.322998046875 -153.7550048828125,-102.10700225830078 -153.7550048828125,-102.10700225830078 C-153.7550048828125,-102.10700225830078 -124,-102.21399688720703 -61.5,-102.21399688720703 C-0.5,-102.21399688720703 25.66200065612793,-102.10700225830078 25.66200065612793,-102.10700225830078 C25.66200065612793,-102.10700225830078 25.66200065612793,-72.322998046875 25.66200065612793,-72.322998046875z"></path></g></g></g><g transform="matrix(1,0,0,1,250,250)" opacity="1" style="display: block;"><g opacity="1" transform="matrix(1,0,0,1,0,0)"><path stroke-linecap="round" stroke-linejoin="round" fill-opacity="0" stroke="inherit" stroke-opacity="1" stroke-width="12.6" d=" M3.51200008392334,160.12100219726562 C3.51200008392334,160.12100219726562 120.36799621582031,160.12100219726562 120.36799621582031,160.12100219726562 C138.8070068359375,160.12100219726562 153.7550048828125,145.17300415039062 153.7550048828125,126.73400115966797 C153.7550048828125,126.73400115966797 153.7550048828125,124 153.7550048828125,124 C153.7550048828125,124 -29.875,124 -29.875,124 C-29.875,124 -29.875,126.73400115966797 -29.875,126.73400115966797 C-29.875,145.17300415039062 -14.927000045776367,160.12100219726562 3.51200008392334,160.12100219726562z"></path></g><g opacity="1" transform="matrix(1,0,0,1,0,0)"><path stroke-linecap="round" stroke-linejoin="round" fill-opacity="0" stroke="inherit" stroke-opacity="1" stroke-width="12.6" d=" M-8.741000175476074,124 C-8.741000175476074,124 132.62100219726562,124 132.62100219726562,124 C142.2969970703125,124 150.14199829101562,116.15499877929688 150.14199829101562,106.47899627685547 C150.14199829101562,106.47899627685547 150.14199829101562,106.47899627685547 150.14199829101562,106.47899627685547 C150.14199829101562,96.802001953125 142.29800415039062,88.95800018310547 132.62100219726562,88.95800018310547 C132.62100219726562,88.95800018310547 -8.741000175476074,88.95800018310547 -8.741000175476074,88.95800018310547 C-18.417999267578125,88.95800018310547 -26.261999130249023,96.802001953125 -26.261999130249023,106.47899627685547 C-26.261999130249023,106.47899627685547 -26.261999130249023,106.47899627685547 -26.261999130249023,106.47899627685547 C-26.261999130249023,116.15599822998047 -18.417999267578125,124 -8.741000175476074,124z"></path></g><g opacity="1" transform="matrix(1,0,0,1,0,0)"><path stroke-linecap="round" stroke-linejoin="round" fill-opacity="0" stroke="inherit" stroke-opacity="1" stroke-width="12.6" d=" M-28.93600082397461,88.95800018310547 C-28.93600082397461,88.95800018310547 152.81700134277344,88.95800018310547 152.81700134277344,88.95800018310547 C153.3350067138672,88.95800018310547 153.7550048828125,88.53700256347656 153.7550048828125,88.01899719238281 C153.7550048828125,88.01899719238281 153.7550048828125,88.01899719238281 153.7550048828125,88.01899719238281 C153.7550048828125,51.66400146484375 124.28399658203125,22.19300079345703 87.92900085449219,22.19300079345703 C87.92900085449219,22.19300079345703 35.95199966430664,22.19300079345703 35.95199966430664,22.19300079345703 C-0.40299999713897705,22.19300079345703 -29.875,51.66400146484375 -29.875,88.01899719238281 C-29.875,88.01899719238281 -29.875,88.01899719238281 -29.875,88.01899719238281 C-29.875,88.53700256347656 -29.45400047302246,88.95800018310547 -28.93600082397461,88.95800018310547z"></path></g></g><g style="display: none;"><g><path stroke-linecap="round" stroke-linejoin="round" fill-opacity="0"></path></g></g><g class="com" style="display: none;"><g><path></path></g><g><path></path></g><g><path></path></g><g><path></path></g><g><path></path></g><g><path></path></g><g><path></path></g><g><path></path></g><g><path></path></g><g><path></path></g><g><path></path></g><g><path></path></g></g></g></svg>