<svg xmlns="http://www.w3.org/2000/svg" xmlns:xlink="http://www.w3.org/1999/xlink" viewBox="0 0 500 500" width="500" height="500" preserveAspectRatio="xMidYMid meet" style="width: 100%; height: 100%; transform: translate3d(0px, 0px, 0px); content-visibility: visible;"><defs><clipPath id="__lottie_element_3116"><rect width="500" height="500" x="0" y="0"></rect></clipPath><symbol id="__lottie_element_3127"><g><g transform="matrix(1,0,0,1,250,250)" opacity="1" style="display: block;"><g opacity="1" transform="matrix(1,0,0,1,0,0)"><path stroke-linecap="round" stroke-linejoin="round" fill-opacity="0" stroke="inherit" stroke-opacity="1" stroke-width="0" d=" M156.06700134277344,65.0469970703125 C156.04299926757812,65.60099792480469 156.01800537109375,66.15499877929688 155.9929962158203,66.70899963378906 C61.63999938964844,66.74400329589844 -32.7130012512207,66.77999877929688 -127.06600189208984,66.81500244140625 C-117.697998046875,66.81999969482422 -108.45800018310547,61.98099899291992 -103.12699890136719,54.27799987792969 C-96.05599975585938,44.06100082397461 -96.23200225830078,30.733999252319336 -94.78199768066406,18.393999099731445 C-87.12899780273438,-46.75899887084961 -26.72800064086914,-94.1500015258789 37.86199951171875,-90.24400329589844 C55.02000045776367,-89.20600128173828 71.99700164794922,-84.79000091552734 87.3550033569336,-77.04000091552734 C117.81600189208984,-61.667999267578125 141.5229949951172,-33.28900146484375 150.84100341796875,-0.4659999907016754 C156.85000610351562,20.70199966430664 157.0189971923828,43.047000885009766 156.06700134277344,65.0469970703125z"></path><path fill="inherit" fill-opacity="1" d=" M156.06700134277344,65.0469970703125 C156.04299926757812,65.60099792480469 156.01800537109375,66.15499877929688 155.9929962158203,66.70899963378906 C61.63999938964844,66.74400329589844 -32.7130012512207,66.77999877929688 -127.06600189208984,66.81500244140625 C-117.697998046875,66.81999969482422 -108.45800018310547,61.98099899291992 -103.12699890136719,54.27799987792969 C-96.05599975585938,44.06100082397461 -96.23200225830078,30.733999252319336 -94.78199768066406,18.393999099731445 C-87.12899780273438,-46.75899887084961 -26.72800064086914,-94.1500015258789 37.86199951171875,-90.24400329589844 C55.02000045776367,-89.20600128173828 71.99700164794922,-84.79000091552734 87.3550033569336,-77.04000091552734 C117.81600189208984,-61.667999267578125 141.5229949951172,-33.28900146484375 150.84100341796875,-0.4659999907016754 C156.85000610351562,20.70199966430664 157.0189971923828,43.047000885009766 156.06700134277344,65.0469970703125z"></path></g><g opacity="1" transform="matrix(1,0,0,1,0,0)"><g opacity="1" transform="matrix(1,0,0,1,0,0)"><path stroke-linecap="round" stroke-linejoin="round" fill-opacity="0" stroke="inherit" stroke-opacity="1" stroke-width="0" d=" M-24.57200050354004,13.029000282287598 C-24.516000747680664,13.031000137329102 -24.458999633789062,13.031000137329102 -24.402999877929688,13.032999992370605"></path><path fill="inherit" fill-opacity="1" d=" M-24.57200050354004,13.029000282287598 C-24.516000747680664,13.031000137329102 -24.458999633789062,13.031000137329102 -24.402999877929688,13.032999992370605"></path></g><g opacity="1" transform="matrix(1,0,0,1,0,0)"><path stroke-linecap="round" stroke-linejoin="round" fill-opacity="0" stroke="inherit" stroke-opacity="1" stroke-width="0" d=" M31.94499969482422,13.029000282287598 C32.000999450683594,13.031000137329102 32.05699920654297,13.031000137329102 32.112998962402344,13.032999992370605"></path><path fill="inherit" fill-opacity="1" d=" M31.94499969482422,13.029000282287598 C32.000999450683594,13.031000137329102 32.05699920654297,13.031000137329102 32.112998962402344,13.032999992370605"></path></g><g opacity="1" transform="matrix(1,0,0,1,0,0)"><path stroke-linecap="round" stroke-linejoin="round" fill-opacity="0" stroke="inherit" stroke-opacity="1" stroke-width="0" d=" M88.46099853515625,13.029000282287598 C88.51699829101562,13.031000137329102 88.5739974975586,13.031000137329102 88.62999725341797,13.032999992370605"></path><path fill="inherit" fill-opacity="1" d=" M88.46099853515625,13.029000282287598 C88.51699829101562,13.031000137329102 88.5739974975586,13.031000137329102 88.62999725341797,13.032999992370605"></path></g><g opacity="1" transform="matrix(1,0,0,1,0,0)"><path stroke-linecap="round" stroke-linejoin="round" fill-opacity="0" stroke="inherit" stroke-opacity="1" stroke-width="0" d=" M4.7820000648498535,-19.36400032043457 C4.8379998207092285,-19.36199951171875 4.894999980926514,-19.361000061035156 4.951000213623047,-19.358999252319336"></path><path fill="inherit" fill-opacity="1" d=" M4.7820000648498535,-19.36400032043457 C4.8379998207092285,-19.36199951171875 4.894999980926514,-19.361000061035156 4.951000213623047,-19.358999252319336"></path></g><g opacity="1" transform="matrix(1,0,0,1,0,0)"><path stroke-linecap="round" stroke-linejoin="round" fill-opacity="0" stroke="inherit" stroke-opacity="1" stroke-width="0" d=" M61.29800033569336,-19.36400032043457 C61.354000091552734,-19.36199951171875 61.4109992980957,-19.361000061035156 61.46699905395508,-19.358999252319336"></path><path fill="inherit" fill-opacity="1" d=" M61.29800033569336,-19.36400032043457 C61.354000091552734,-19.36199951171875 61.4109992980957,-19.361000061035156 61.46699905395508,-19.358999252319336"></path></g></g></g></g></symbol><clipPath id="__lottie_element_3131"><path d="M0,0 L500,0 L500,500 L0,500z"></path></clipPath><symbol id="__lottie_element_3138"><g><g transform="matrix(1,0,0,1,250,250)" opacity="1" style="display: block;"><path fill="inherit" fill-opacity="1" d=" M38.0369987487793,-10.49899959564209 C33.542999267578125,3.0139999389648438 41.47800064086914,25.190000534057617 30.992000579833984,37.02299880981445 C20.4950008392334,48.86600112915039 -2.4719998836517334,43.64400100708008 -15.347000122070312,49.72700119018555 C-20.893999099731445,52.3489990234375 -26.04599952697754,57.02399826049805 -31.10700035095215,61.73099899291992 C-31.10700035095215,61.73099899291992 -75.52200317382812,61.73099899291992 -75.52200317382812,61.73099899291992 C-80.28900146484375,55.44499969482422 -84.75399780273438,48.46099853515625 -90.00700378417969,43.80500030517578 C-92.16300201416016,41.891998291015625 -94.69300079345703,40.1609992980957 -97.39600372314453,38.51100158691406 C-97.49700164794922,38.45000076293945 -97.58799743652344,38.400001525878906 -97.67900085449219,38.3390007019043 C-109.30899810791016,31.284000396728516 -124.0270004272461,25.59600067138672 -126.19300079345703,13.5 C-128.71299743652344,-0.5490000247955322 -109.83599853515625,-14.598999977111816 -104.83599853515625,-29.600000381469727 C-100.55400085449219,-42.474998474121094 -107.5479965209961,-63.20399856567383 -99.16699981689453,-75.37100219726562 C-98.74199676513672,-75.97799682617188 -98.28700256347656,-76.56600189208984 -97.79100036621094,-77.13300323486328 C-93.03399658203125,-82.48699951171875 -85.73600006103516,-84.3499984741211 -77.9729995727539,-85.35199737548828 C-65.91600036621094,-86.90799713134766 -53.290000915527344,-87.68199920654297 -43.13800048828125,-95.13700103759766 C-33.58300018310547,-102.15299987792969 -24.59000015258789,-116.96199798583984 -11.218000411987305,-116.2040023803711 C0.10700000077486038,-115.56199645996094 6.460999965667725,-104.53600311279297 12.309000015258789,-96.35099792480469 C18.86199951171875,-87.17900085449219 27.451000213623047,-79.93199920654297 37.310001373291016,-74.54299926757812 C45.972999572753906,-69.80699920654297 57.45000076293945,-64.44599914550781 59.39400100708008,-53.5989990234375 C61.91400146484375,-39.560001373291016 43.0369987487793,-25.5 38.0369987487793,-10.49899959564209z"></path><g opacity="1" transform="matrix(1,0,0,1,0,0)"><path stroke-linecap="round" stroke-linejoin="round" fill-opacity="0" stroke="inherit" stroke-opacity="1" stroke-width="0" d=" M38.0369987487793,-10.49899959564209 C33.542999267578125,3.0139999389648438 41.47800064086914,25.190000534057617 30.992000579833984,37.02299880981445 C20.4950008392334,48.86600112915039 -2.4719998836517334,43.64400100708008 -15.347000122070312,49.72700119018555 C-20.893999099731445,52.3489990234375 -26.04599952697754,57.02399826049805 -31.10700035095215,61.73099899291992 C-31.10700035095215,61.73099899291992 -75.52200317382812,61.73099899291992 -75.52200317382812,61.73099899291992 C-80.28900146484375,55.44499969482422 -84.75399780273438,48.46099853515625 -90.00700378417969,43.80500030517578 C-92.16300201416016,41.891998291015625 -94.69300079345703,40.1609992980957 -97.39600372314453,38.51100158691406 C-97.49700164794922,38.45000076293945 -97.58799743652344,38.400001525878906 -97.67900085449219,38.3390007019043 C-109.30899810791016,31.284000396728516 -124.0270004272461,25.59600067138672 -126.19300079345703,13.5 C-128.71299743652344,-0.5490000247955322 -109.83599853515625,-14.598999977111816 -104.83599853515625,-29.600000381469727 C-100.55400085449219,-42.474998474121094 -107.5479965209961,-63.20399856567383 -99.16699981689453,-75.37100219726562 C-98.74199676513672,-75.97799682617188 -98.28700256347656,-76.56600189208984 -97.79100036621094,-77.13300323486328 C-93.03399658203125,-82.48699951171875 -85.73600006103516,-84.3499984741211 -77.9729995727539,-85.35199737548828 C-65.91600036621094,-86.90799713134766 -53.290000915527344,-87.68199920654297 -43.13800048828125,-95.13700103759766 C-33.58300018310547,-102.15299987792969 -24.59000015258789,-116.96199798583984 -11.218000411987305,-116.2040023803711 C0.10700000077486038,-115.56199645996094 6.460999965667725,-104.53600311279297 12.309000015258789,-96.35099792480469 C18.86199951171875,-87.17900085449219 27.451000213623047,-79.93199920654297 37.310001373291016,-74.54299926757812 C45.972999572753906,-69.80699920654297 57.45000076293945,-64.44599914550781 59.39400100708008,-53.5989990234375 C61.91400146484375,-39.560001373291016 43.0369987487793,-25.5 38.0369987487793,-10.49899959564209z"></path></g></g></g></symbol><filter id="__lottie_element_3144" filterUnits="objectBoundingBox" x="0%" y="0%" width="100%" height="100%"><feComponentTransfer in="SourceGraphic"><feFuncA type="table" tableValues="1.0 0.0"></feFuncA></feComponentTransfer></filter><mask id="__lottie_element_3138_2" mask-type="alpha"><g filter="url(#__lottie_element_3144)"><rect width="500" height="500" x="0" y="0" fill="#ffffff" opacity="0"></rect><use xlink:href="#__lottie_element_3138"></use></g></mask><filter id="__lottie_element_3145" filterUnits="objectBoundingBox" x="0%" y="0%" width="100%" height="100%"><feComponentTransfer in="SourceGraphic"><feFuncA type="table" tableValues="1.0 0.0"></feFuncA></feComponentTransfer></filter><mask id="__lottie_element_3127_2" mask-type="alpha"><g filter="url(#__lottie_element_3145)"><rect width="500" height="500" x="0" y="0" fill="#ffffff" opacity="0"></rect><use xlink:href="#__lottie_element_3127"></use></g></mask></defs><g clip-path="url(#__lottie_element_3116)"><g mask="url(#__lottie_element_3127_2)" style="display: block;"><g clip-path="url(#__lottie_element_3131)" transform="matrix(1,0,0,1,0,0)" opacity="1"><g mask="url(#__lottie_element_3138_2)" style="display: block;"><g transform="matrix(1,0,0,1,250,250)" opacity="1"><g opacity="1" transform="matrix(1,0,0,1,0,0)"><path stroke-linecap="round" stroke-linejoin="round" fill-opacity="0" stroke="inherit" stroke-opacity="1" stroke-width="12.6" d=" M-126.16999816894531,66.89700317382812 C-126.82099914550781,66.89399719238281 -127.47000122070312,66.86799621582031 -128.11700439453125,66.81900024414062 C-139.1909942626953,65.98100280761719 -149.58200073242188,58.512001037597656 -153.77000427246094,48.19499969482422 C-156.42300415039062,41.65999984741211 -156.69500732421875,34.40800094604492 -156.3209991455078,27.364999771118164 C-156.1219940185547,23.615999221801758 -150.0970001220703,-17.04599952697754 -127.7249984741211,-44.887001037597656 C-98.99700164794922,-80.63800048828125 -39.86600112915039,-98.89700317382812 25.33300018310547,-89.5"></path></g></g></g><g transform="matrix(1,0,0,1,250,250)" opacity="1" style="display: block;"><g opacity="1" transform="matrix(1,0,0,1,0,0)"><path stroke-linecap="round" stroke-linejoin="round" fill-opacity="0" stroke="inherit" stroke-opacity="1" stroke-width="12.6" d=" M38.0369987487793,-10.49899959564209 C33.542999267578125,3.0139999389648438 41.47800064086914,25.190000534057617 30.992000579833984,37.02299880981445 C20.4950008392334,48.86600112915039 -2.4719998836517334,43.64400100708008 -15.347000122070312,49.72700119018555 C-20.893999099731445,52.3489990234375 -26.04599952697754,57.02399826049805 -31.10700035095215,61.73099899291992 C-31.10700035095215,61.73099899291992 -75.52200317382812,61.73099899291992 -75.52200317382812,61.73099899291992 C-80.28900146484375,55.44499969482422 -84.75399780273438,48.46099853515625 -90.00700378417969,43.80500030517578 C-92.16300201416016,41.891998291015625 -94.69300079345703,40.1609992980957 -97.39600372314453,38.51100158691406 C-97.49700164794922,38.45000076293945 -97.58799743652344,38.400001525878906 -97.67900085449219,38.3390007019043 C-109.30899810791016,31.284000396728516 -124.0270004272461,25.59600067138672 -126.19300079345703,13.5 C-128.71299743652344,-0.5490000247955322 -109.83599853515625,-14.598999977111816 -104.83599853515625,-29.600000381469727 C-100.55400085449219,-42.474998474121094 -107.5479965209961,-63.20399856567383 -99.16699981689453,-75.37100219726562 C-98.74199676513672,-75.97799682617188 -98.28700256347656,-76.56600189208984 -97.79100036621094,-77.13300323486328 C-93.03399658203125,-82.48699951171875 -85.73600006103516,-84.3499984741211 -77.9729995727539,-85.35199737548828 C-65.91600036621094,-86.90799713134766 -53.290000915527344,-87.68199920654297 -43.13800048828125,-95.13700103759766 C-33.58300018310547,-102.15299987792969 -24.59000015258789,-116.96199798583984 -11.218000411987305,-116.2040023803711 C0.10700000077486038,-115.56199645996094 6.460999965667725,-104.53600311279297 12.309000015258789,-96.35099792480469 C18.86199951171875,-87.17900085449219 27.451000213623047,-79.93199920654297 37.310001373291016,-74.54299926757812 C45.972999572753906,-69.80699920654297 57.45000076293945,-64.44599914550781 59.39400100708008,-53.5989990234375 C61.91400146484375,-39.560001373291016 43.0369987487793,-25.5 38.0369987487793,-10.49899959564209z"></path></g></g></g></g><g transform="matrix(1,0,0,1,250,250)" opacity="1" style="display: block;"><g opacity="1" transform="matrix(1,0,0,1,0,0)"><path stroke-linecap="round" stroke-linejoin="round" fill-opacity="0" stroke="inherit" stroke-opacity="1" stroke-width="12.6" d=" M156.06700134277344,65.0469970703125 C156.04299926757812,65.60099792480469 156.01800537109375,66.15499877929688 155.9929962158203,66.70899963378906 C61.63999938964844,66.74400329589844 -32.7130012512207,66.77999877929688 -127.06600189208984,66.81500244140625 C-117.697998046875,66.81999969482422 -108.45800018310547,61.98099899291992 -103.12699890136719,54.27799987792969 C-96.05599975585938,44.06100082397461 -96.23200225830078,30.733999252319336 -94.78199768066406,18.393999099731445 C-87.12899780273438,-46.75899887084961 -26.72800064086914,-94.1500015258789 37.86199951171875,-90.24400329589844 C55.02000045776367,-89.20600128173828 71.99700164794922,-84.79000091552734 87.3550033569336,-77.04000091552734 C117.81600189208984,-61.667999267578125 141.5229949951172,-33.28900146484375 150.84100341796875,-0.4659999907016754 C156.85000610351562,20.70199966430664 157.0189971923828,43.047000885009766 156.06700134277344,65.0469970703125z"></path></g><g opacity="1" transform="matrix(1,0,0,1,0,0)"><g opacity="1" transform="matrix(1,0,0,1,0,0)"><path stroke-linecap="round" stroke-linejoin="round" fill-opacity="0" stroke="inherit" stroke-opacity="1" stroke-width="12.6" d=" M-24.57200050354004,13.029000282287598 C-24.516000747680664,13.031000137329102 -24.458999633789062,13.031000137329102 -24.402999877929688,13.032999992370605"></path></g><g opacity="1" transform="matrix(1,0,0,1,0,0)"><path stroke-linecap="round" stroke-linejoin="round" fill-opacity="0" stroke="inherit" stroke-opacity="1" stroke-width="12.6" d=" M31.94499969482422,13.029000282287598 C32.000999450683594,13.031000137329102 32.05699920654297,13.031000137329102 32.112998962402344,13.032999992370605"></path></g><g opacity="1" transform="matrix(1,0,0,1,0,0)"><path stroke-linecap="round" stroke-linejoin="round" fill-opacity="0" stroke="inherit" stroke-opacity="1" stroke-width="12.6" d=" M88.46099853515625,13.029000282287598 C88.51699829101562,13.031000137329102 88.5739974975586,13.031000137329102 88.62999725341797,13.032999992370605"></path></g><g opacity="1" transform="matrix(1,0,0,1,0,0)"><path stroke-linecap="round" stroke-linejoin="round" fill-opacity="0" stroke="inherit" stroke-opacity="1" stroke-width="12.6" d=" M4.7820000648498535,-19.36400032043457 C4.8379998207092285,-19.36199951171875 4.894999980926514,-19.361000061035156 4.951000213623047,-19.358999252319336"></path></g><g opacity="1" transform="matrix(1,0,0,1,0,0)"><path stroke-linecap="round" stroke-linejoin="round" fill-opacity="0" stroke="inherit" stroke-opacity="1" stroke-width="12.6" d=" M61.29800033569336,-19.36400032043457 C61.354000091552734,-19.36199951171875 61.4109992980957,-19.361000061035156 61.46699905395508,-19.358999252319336"></path></g></g></g><g class="com" style="display: none;"><g><path></path></g><g><path></path></g><g><path></path></g><g><path></path></g><g><path></path></g><g><path></path></g><g><path></path></g><g><path></path></g><g><path></path></g><g><path></path></g><g><path></path></g><g><path></path></g></g></g></svg>