<svg xmlns="http://www.w3.org/2000/svg" xmlns:xlink="http://www.w3.org/1999/xlink" viewBox="0 0 500 500" width="500" height="500" preserveAspectRatio="xMidYMid meet" style="width: 100%; height: 100%; transform: translate3d(0px, 0px, 0px); content-visibility: visible;"><defs><clipPath id="__lottie_element_3147"><rect width="500" height="500" x="0" y="0"></rect></clipPath></defs><g clip-path="url(#__lottie_element_3147)"><g transform="matrix(1,0,0,1,250,250)" opacity="1" style="display: block;"><g opacity="1" transform="matrix(1,0,0,1,0,0)"><path stroke-linecap="round" stroke-linejoin="round" fill-opacity="0" stroke="inherit" stroke-opacity="1" stroke-width="12.6" d=" M-3.319999933242798,-130.98699951171875 C-3.319999933242798,-130.98699951171875 126.1719970703125,-130.98699951171875 126.1719970703125,-130.98699951171875 C138.28799438476562,-130.98699951171875 148.21299743652344,-121.0739974975586 148.21299743652344,-108.94599914550781 C148.21299743652344,-102.88800048828125 145.72900390625,-97.37999725341797 141.73899841308594,-93.37899780273438 C137.73800659179688,-89.38899993896484 132.22999572753906,-86.90499877929688 126.1719970703125,-86.90499877929688"></path></g></g><g transform="matrix(1,0,0,1,250,250)" opacity="1" style="display: block;"><g opacity="1" transform="matrix(1,0,0,1,0,0)"><path stroke-linecap="round" stroke-linejoin="round" fill-opacity="0" stroke="inherit" stroke-opacity="1" stroke-width="12.6" d=" M126.84600067138672,-86.90499877929688 C136.35499572753906,-86.90499877929688 144.99899291992188,-83.01499938964844 151.25900268554688,-76.75499725341797 C157.5189971923828,-70.48300170898438 161.4080047607422,-61.85200119018555 161.4080047607422,-52.34299850463867 C161.4080047607422,-52.34299850463867 161.4080047607422,-34.37099838256836 161.4080047607422,-34.37099838256836"></path></g></g><g transform="matrix(1,0,0,1,250,250)" opacity="1" style="display: block;"><g opacity="1" transform="matrix(1,0,0,1,0,0)"><path stroke-linecap="round" stroke-linejoin="round" fill-opacity="0" stroke="inherit" stroke-opacity="1" stroke-width="12.6" d=" M126.85199737548828,-86.90899658203125 C126.85199737548828,-86.90899658203125 126.85199737548828,-81.41300201416016 126.85199737548828,-81.41300201416016 C126.85199737548828,-38.83700180053711 92.0199966430664,-3.99399995803833 49.43299865722656,-3.99399995803833 C49.43299865722656,-3.99399995803833 -60.49599838256836,-3.99399995803833 -60.60300064086914,-3.99399995803833 C-120.68099975585938,-3.99399995803833 -121.92500305175781,94.05999755859375 -60.60300064086914,94.05999755859375 C-60.60300064086914,94.05999755859375 -2.010999917984009,94.05999755859375 -2.010999917984009,94.05999755859375 C15.821999549865723,94.05999755859375 30.80900001525879,109.06099700927734 30.80900001525879,126.87999725341797 C30.80900001525879,126.87999725341797 30.80900001525879,130.98199462890625 30.80900001525879,130.98199462890625 C30.80900001525879,130.98199462890625 -56.38800048828125,130.98199462890625 -56.38800048828125,130.98199462890625 C-74.61900329589844,130.98199462890625 -91.7699966430664,126.62100219726562 -106.71900177001953,118.95600128173828 C-167.43899536132812,87.81999969482422 -177.88099670410156,3.125999927520752 -136.6269989013672,-48.242000579833984 C-117.56800079345703,-71.9729995727539 -88.7490005493164,-86.90899658203125 -58.12200164794922,-86.90899658203125 C-17.461999893188477,-86.90899658203125 23.197999954223633,-86.90899658203125 63.858001708984375,-86.90899658203125 C84.85600280761719,-86.90899658203125 105.85399627685547,-86.90899658203125 126.85199737548828,-86.90899658203125z"></path></g><g opacity="1" transform="matrix(1,0,0,1,0,0)"><path stroke-linecap="round" stroke-linejoin="round" fill-opacity="0" stroke="inherit" stroke-opacity="1" stroke-width="12.6" d=" M56.20600128173828,-54.595001220703125 C56.26900100708008,-54.59299850463867 56.33300018310547,-54.590999603271484 56.395999908447266,-54.5890007019043"></path></g><g opacity="1" transform="matrix(1,0,0,1,0,0)"><path stroke-linecap="round" stroke-linejoin="round" fill-opacity="0" stroke="inherit" stroke-opacity="1" stroke-width="12.6" d=" M-3.315999984741211,-86.90899658203125 C-3.315999984741211,-86.90899658203125 -3.315999984741211,-3.99399995803833 -3.315999984741211,-3.99399995803833"></path></g><g opacity="1" transform="matrix(1,0,0,1,0,0)"><path stroke-linecap="round" stroke-linejoin="round" fill-opacity="0" stroke="inherit" stroke-opacity="1" stroke-width="12.6" d=" M-81.75,0.921999990940094 C-92.05699920654297,-22.760000228881836 -102.35199737548828,-46.452999114990234 -112.64800262451172,-70.13500213623047"></path></g><g opacity="1" transform="matrix(1,0,0,1,0,0)"><path stroke-linecap="round" stroke-linejoin="round" fill-opacity="0" stroke="inherit" stroke-opacity="1" stroke-width="12.6" d=" M-105.74700164794922,38.75400161743164 C-105.74700164794922,38.75400161743164 -160.50599670410156,38.75400161743164 -160.50599670410156,38.75400161743164"></path></g><g opacity="1" transform="matrix(1,0,0,1,0,0)"><path stroke-linecap="round" stroke-linejoin="round" fill-opacity="0" stroke="inherit" stroke-opacity="1" stroke-width="12.6" d=" M-87.69599914550781,85.64600372314453 C-95.52999877929688,95.93000030517578 -103.35299682617188,106.22599792480469 -111.197998046875,116.51000213623047"></path></g><g opacity="1" transform="matrix(1,0,0,1,0,0)"><path stroke-linecap="round" stroke-linejoin="round" fill-opacity="0" stroke="inherit" stroke-opacity="1" stroke-width="12.6" d=" M-40.23099899291992,130.98699951171875 C-40.23099899291992,130.98699951171875 -40.23099899291992,94.06500244140625 -40.23099899291992,94.06500244140625"></path></g></g><g transform="matrix(1,0,0,1,250,251)" opacity="1" style="display: block;"><g opacity="1" transform="matrix(1,0,0,1,0,0)"><path stroke-linecap="round" stroke-linejoin="round" fill-opacity="0" stroke="inherit" stroke-opacity="1" stroke-width="12.6" d=" M21.37700080871582,-3.99399995803833 C30.88599967956543,-3.99399995803833 39.52899932861328,-0.10400000214576721 45.78900146484375,6.156000137329102 C52.04899978637695,12.428000450134277 55.93899917602539,21.05900001525879 55.93899917602539,30.56800079345703 C55.93899917602539,30.56800079345703 55.93899917602539,48.540000915527344 55.93899917602539,48.540000915527344"></path></g></g><g transform="matrix(1,0,0,1,249.91500854492188,251)" opacity="1" style="display: block;"><g opacity="1" transform="matrix(1,0,0,1,0,0)"><path stroke-linecap="round" stroke-linejoin="round" fill-opacity="0" stroke="inherit" stroke-opacity="1" stroke-width="12.6" d=" M-19.288000106811523,-3.99399995803833 C-9.779000282287598,-3.99399995803833 -1.1349999904632568,-0.10400000214576721 5.125,6.156000137329102 C11.385000228881836,12.428000450134277 15.27400016784668,21.05900001525879 15.27400016784668,30.56800079345703 C15.27400016784668,30.56800079345703 15.27400016784668,48.540000915527344 15.27400016784668,48.540000915527344"></path></g></g><g transform="matrix(1,0,0,1,250.07899475097656,251)" opacity="1" style="display: block;"><g opacity="1" transform="matrix(1,0,0,1,0,0)"><path stroke-linecap="round" stroke-linejoin="round" fill-opacity="0" stroke="inherit" stroke-opacity="1" stroke-width="12.6" d=" M-59.95199966430664,-3.99399995803833 C-50.44300079345703,-3.99399995803833 -41.79999923706055,-0.10400000214576721 -35.540000915527344,6.156000137329102 C-29.280000686645508,12.428000450134277 -25.389999389648438,21.05900001525879 -25.389999389648438,30.56800079345703 C-25.389999389648438,30.56800079345703 -25.389999389648438,48.540000915527344 -25.389999389648438,48.540000915527344"></path></g></g><g class="com" style="display: none;"><g><path></path></g><g><path></path></g><g><path></path></g><g><path></path></g><g><path></path></g><g><path></path></g><g><path></path></g><g><path></path></g><g><path></path></g><g><path></path></g><g><path></path></g><g><path></path></g></g></g></svg>