<svg xmlns="http://www.w3.org/2000/svg" xmlns:xlink="http://www.w3.org/1999/xlink" viewBox="0 0 500 500" width="500" height="500" preserveAspectRatio="xMidYMid meet" style="width: 100%; height: 100%; transform: translate3d(0px, 0px, 0px); content-visibility: visible;"><defs><clipPath id="__lottie_element_3174"><rect width="500" height="500" x="0" y="0"></rect></clipPath><symbol id="__lottie_element_3190"><g><g transform="matrix(1,0,0,1,250,250)" opacity="1" style="display: block;"><path fill="inherit" fill-opacity="1" d=" M-124.58000183105469,-96.1500015258789 C-124.16999816894531,-60.900001525878906 -86.73999786376953,-31.200000762939453 -35.540000915527344,-21.65999984741211 M-95.83899688720703,-130.01800537109375 C-95.83899688720703,-111.54900360107422 -108.96700286865234,-96.572998046875 -125.16400146484375,-96.572998046875 C-141.36099243164062,-96.572998046875 -154.48899841308594,-111.54900360107422 -154.48899841308594,-130.01800537109375 C-154.48899841308594,-148.48699951171875 -141.36099243164062,-163.46200561523438 -125.16400146484375,-163.46200561523438 C-123.39800262451172,-163.46200561523438 -121.6780014038086,-163.281005859375 -120.00299835205078,-162.9459991455078 C-120.00299835205078,-162.9459991455078 -122.62000274658203,-131.0500030517578 -122.62000274658203,-131.0500030517578 C-122.62000274658203,-131.0500030517578 -99.94000244140625,-147.08399963378906 -99.94000244140625,-147.08399963378906 C-97.34100341796875,-142.08599853515625 -95.83899688720703,-136.25599670410156 -95.83899688720703,-130.01800537109375z"></path><g opacity="1" transform="matrix(1,0,0,1,0,0)"><path stroke-linecap="round" stroke-linejoin="round" fill-opacity="0" stroke="inherit" stroke-opacity="1" stroke-width="12.6" d=" M-124.58000183105469,-96.1500015258789 C-124.16999816894531,-60.900001525878906 -86.73999786376953,-31.200000762939453 -35.540000915527344,-21.65999984741211"></path></g><g opacity="1" transform="matrix(1,0,0,1,0,0)"></g></g></g></symbol><filter id="__lottie_element_3196" filterUnits="objectBoundingBox" x="0%" y="0%" width="100%" height="100%"><feComponentTransfer in="SourceGraphic"><feFuncA type="table" tableValues="1.0 0.0"></feFuncA></feComponentTransfer></filter><mask id="__lottie_element_3190_2" mask-type="alpha"><g filter="url(#__lottie_element_3196)"><rect width="500" height="500" x="0" y="0" fill="#ffffff" opacity="0"></rect><use xlink:href="#__lottie_element_3190"></use></g></mask><symbol id="__lottie_element_3197"><g><g transform="matrix(1,0,0,1,250,250)" opacity="1" style="display: block;"><path fill="inherit" fill-opacity="1" d=" M35.34000015258789,-21.65999984741211 C86.55000305175781,-31.200000762939453 123.97000122070312,-60.900001525878906 124.37999725341797,-96.1500015258789 M93.8010025024414,-130.01800537109375 C93.8010025024414,-111.54900360107422 106.92900085449219,-96.572998046875 123.1259994506836,-96.572998046875 C139.322998046875,-96.572998046875 152.4510040283203,-111.54900360107422 152.4510040283203,-130.01800537109375 C152.4510040283203,-148.48699951171875 139.322998046875,-163.46200561523438 123.1259994506836,-163.46200561523438 C121.36000061035156,-163.46200561523438 119.63999938964844,-163.281005859375 117.96499633789062,-162.9459991455078 C117.96499633789062,-162.9459991455078 120.58200073242188,-131.0500030517578 120.58200073242188,-131.0500030517578 C120.58200073242188,-131.0500030517578 97.9020004272461,-147.08399963378906 97.9020004272461,-147.08399963378906 C95.3030014038086,-142.08599853515625 93.8010025024414,-136.25599670410156 93.8010025024414,-130.01800537109375z"></path><g opacity="1" transform="matrix(1,0,0,1,0,0)"><path stroke-linecap="round" stroke-linejoin="round" fill-opacity="0" stroke="inherit" stroke-opacity="1" stroke-width="12.6" d=" M35.34000015258789,-21.65999984741211 C86.55000305175781,-31.200000762939453 123.97000122070312,-60.900001525878906 124.37999725341797,-96.1500015258789"></path></g><g opacity="1" transform="matrix(1,0,0,1,0,0)"><path stroke-linecap="round" stroke-linejoin="round" fill-opacity="0" stroke="inherit" stroke-opacity="1" stroke-width="0" d=" M93.8010025024414,-130.01800537109375 C93.8010025024414,-111.54900360107422 106.92900085449219,-96.572998046875 123.1259994506836,-96.572998046875 C139.322998046875,-96.572998046875 152.4510040283203,-111.54900360107422 152.4510040283203,-130.01800537109375 C152.4510040283203,-148.48699951171875 139.322998046875,-163.46200561523438 123.1259994506836,-163.46200561523438 C121.36000061035156,-163.46200561523438 119.63999938964844,-163.281005859375 117.96499633789062,-162.9459991455078 C117.96499633789062,-162.9459991455078 120.58200073242188,-131.0500030517578 120.58200073242188,-131.0500030517578 C120.58200073242188,-131.0500030517578 97.9020004272461,-147.08399963378906 97.9020004272461,-147.08399963378906 C95.3030014038086,-142.08599853515625 93.8010025024414,-136.25599670410156 93.8010025024414,-130.01800537109375z"></path></g></g></g></symbol><filter id="__lottie_element_3203" filterUnits="objectBoundingBox" x="0%" y="0%" width="100%" height="100%"><feComponentTransfer in="SourceGraphic"><feFuncA type="table" tableValues="1.0 0.0"></feFuncA></feComponentTransfer></filter><mask id="__lottie_element_3197_2" mask-type="alpha"><g filter="url(#__lottie_element_3203)"><rect width="500" height="500" x="0" y="0" fill="#ffffff" opacity="0"></rect><use xlink:href="#__lottie_element_3197"></use></g></mask></defs><g clip-path="url(#__lottie_element_3174)"><g transform="matrix(1,0,0,1,250,250)" opacity="1" style="display: block;"><g opacity="1" transform="matrix(1,0,0,1,0,0)"><path stroke-linecap="round" stroke-linejoin="round" fill-opacity="0" stroke="inherit" stroke-opacity="1" stroke-width="12.6" d=" M-40.69300079345703,60.91699981689453 C-40.69300079345703,60.91699981689453 -79.58799743652344,84.08599853515625 -79.58799743652344,84.08599853515625"></path></g></g><g transform="matrix(1,0,0,1,250,250)" opacity="1" style="display: block;"><g opacity="1" transform="matrix(1,0,0,1,0,0)"><path stroke-linecap="round" stroke-linejoin="round" fill-opacity="0" stroke="inherit" stroke-opacity="1" stroke-width="12.6" d=" M-43.28200149536133,28.20599937438965 C-43.28200149536133,28.20599937438965 -80.55599975585938,50.42399978637695 -80.55599975585938,50.42399978637695"></path></g></g><g transform="matrix(1,0,0,1,250,250)" opacity="1" style="display: block;"><g opacity="1" transform="matrix(1,0,0,1,0,0)"><path stroke-linecap="round" stroke-linejoin="round" fill-opacity="0" stroke="inherit" stroke-opacity="1" stroke-width="12.6" d=" M-39.19900131225586,-8.470000267028809 C-39.19900131225586,-8.470000267028809 -81.51599884033203,16.753999710083008 -81.51599884033203,16.753999710083008"></path></g></g><g transform="matrix(1,0,0,1,250,250)" opacity="1" style="display: block;"><g opacity="1" transform="matrix(1,0,0,1,0,0)"><path stroke-linecap="round" stroke-linejoin="round" fill-opacity="0" stroke="inherit" stroke-opacity="1" stroke-width="12.6" d=" M79.56099700927734,84.08599853515625 C79.56099700927734,84.08599853515625 40.66600036621094,60.91699981689453 40.66600036621094,60.91699981689453"></path></g></g><g transform="matrix(1,0,0,1,250,250)" opacity="1" style="display: block;"><g opacity="1" transform="matrix(1,0,0,1,0,0)"><path stroke-linecap="round" stroke-linejoin="round" fill-opacity="0" stroke="inherit" stroke-opacity="1" stroke-width="12.6" d=" M80.52999877929688,50.42399978637695 C80.52999877929688,50.42399978637695 43.25600051879883,28.20599937438965 43.25600051879883,28.20599937438965"></path></g></g><g transform="matrix(1,0,0,1,250,250)" opacity="1" style="display: block;"><g opacity="1" transform="matrix(1,0,0,1,0,0)"><path stroke-linecap="round" stroke-linejoin="round" fill-opacity="0" stroke="inherit" stroke-opacity="1" stroke-width="12.6" d=" M81.48899841308594,16.753999710083008 C81.48899841308594,16.753999710083008 39.17300033569336,-8.470000267028809 39.17300033569336,-8.470000267028809"></path></g></g><g mask="url(#__lottie_element_3197_2)" style="display: block;"><g transform="matrix(1,0,0,1,250,250)" opacity="1"><g opacity="1" transform="matrix(1,0,0,1,0,0)"><path stroke-linecap="round" stroke-linejoin="round" fill-opacity="0" stroke="inherit" stroke-opacity="1" stroke-width="12.6" d=" M1.7990000247955322,-60.676998138427734 C1.7990000247955322,-110.43299865722656 31.50200080871582,-150.9010009765625 68.43900299072266,-152"></path></g></g></g><g mask="url(#__lottie_element_3190_2)" style="display: block;"><g transform="matrix(1,0,0,1,250,250)" opacity="1"><g opacity="1" transform="matrix(1,0,0,1,0,0)"><path stroke-linecap="round" stroke-linejoin="round" fill-opacity="0" stroke="inherit" stroke-opacity="1" stroke-width="12.6" d=" M-70.61299896240234,-152 C-33.67599868774414,-150.9010009765625 -3.9719998836517334,-110.43299865722656 -3.9719998836517334,-60.676998138427734"></path></g></g></g><g transform="matrix(1,0,0,1,250,250)" opacity="1" style="display: block;"><g opacity="1" transform="matrix(1,0,0,1,0,0)"><path stroke-linecap="round" stroke-linejoin="round" fill-opacity="0" stroke="inherit" stroke-opacity="1" stroke-width="12.6" d=" M-124.58000183105469,-96.1500015258789 C-124.16999816894531,-60.900001525878906 -86.73999786376953,-31.200000762939453 -35.540000915527344,-21.65999984741211"></path></g><g opacity="1" transform="matrix(1,0,0,1,0,0)"><path stroke-linecap="round" stroke-linejoin="round" fill-opacity="0" stroke="inherit" stroke-opacity="1" stroke-width="12.6" d=" M-95.83899688720703,-130.01800537109375 C-95.83899688720703,-111.54900360107422 -108.96700286865234,-96.572998046875 -125.16400146484375,-96.572998046875 C-141.36099243164062,-96.572998046875 -154.48899841308594,-111.54900360107422 -154.48899841308594,-130.01800537109375 C-154.48899841308594,-148.48699951171875 -141.36099243164062,-163.46200561523438 -125.16400146484375,-163.46200561523438 C-123.39800262451172,-163.46200561523438 -121.6780014038086,-163.281005859375 -120.00299835205078,-162.9459991455078 C-120.00299835205078,-162.9459991455078 -122.62000274658203,-131.0500030517578 -122.62000274658203,-131.0500030517578 C-122.62000274658203,-131.0500030517578 -99.94000244140625,-147.08399963378906 -99.94000244140625,-147.08399963378906 C-97.34100341796875,-142.08599853515625 -95.83899688720703,-136.25599670410156 -95.83899688720703,-130.01800537109375z"></path></g></g><g transform="matrix(1,0,0,1,250,250)" opacity="1" style="display: block;"><g opacity="1" transform="matrix(1,0,0,1,0,0)"><path stroke-linecap="round" stroke-linejoin="round" fill-opacity="0" stroke="inherit" stroke-opacity="1" stroke-width="12.6" d=" M35.34000015258789,-21.65999984741211 C86.55000305175781,-31.200000762939453 123.97000122070312,-60.900001525878906 124.37999725341797,-96.1500015258789"></path></g><g opacity="1" transform="matrix(1,0,0,1,0,0)"><path stroke-linecap="round" stroke-linejoin="round" fill-opacity="0" stroke="inherit" stroke-opacity="1" stroke-width="12.6" d=" M93.8010025024414,-130.01800537109375 C93.8010025024414,-111.54900360107422 106.92900085449219,-96.572998046875 123.1259994506836,-96.572998046875 C139.322998046875,-96.572998046875 152.4510040283203,-111.54900360107422 152.4510040283203,-130.01800537109375 C152.4510040283203,-148.48699951171875 139.322998046875,-163.46200561523438 123.1259994506836,-163.46200561523438 C121.36000061035156,-163.46200561523438 119.63999938964844,-163.281005859375 117.96499633789062,-162.9459991455078 C117.96499633789062,-162.9459991455078 120.58200073242188,-131.0500030517578 120.58200073242188,-131.0500030517578 C120.58200073242188,-131.0500030517578 97.9020004272461,-147.08399963378906 97.9020004272461,-147.08399963378906 C95.3030014038086,-142.08599853515625 93.8010025024414,-136.25599670410156 93.8010025024414,-130.01800537109375z"></path></g></g><g transform="matrix(1,0,0,1,250,250)" opacity="1" style="display: block;"><g opacity="1" transform="matrix(1,0,0,1,0,0)"><path stroke-linecap="round" stroke-linejoin="round" fill-opacity="0" stroke="inherit" stroke-opacity="1" stroke-width="12.6" d=" M30.739999771118164,93.18000030517578 C43.09000015258789,95.83000183105469 55.310001373291016,106.18000030517578 55.310001373291016,121.02999877929688 C55.310001373291016,136.74000549316406 42.58000183105469,149.4600067138672 26.889999389648438,149.4600067138672 C24.8799991607666,149.4600067138672 22.920000076293945,149.25 21.030000686645508,148.83999633789062 C21.030000686645508,148.83999633789062 21.030000686645508,149 21.030000686645508,149 C21.030000686645508,160.66000366210938 11.569999694824219,170.1199951171875 -0.10000000149011612,170.1199951171875 C-11.770000457763672,170.1199951171875 -21.219999313354492,160.66000366210938 -21.219999313354492,149 C-21.219999313354492,149 -21.219999313354492,148.85000610351562 -21.219999313354492,148.85000610351562 C-23.110000610351562,149.25 -25.079999923706055,149.4600067138672 -27.09000015258789,149.4600067138672 C-42.790000915527344,149.4600067138672 -55.5,136.74000549316406 -55.5,121.02999877929688 C-55.5,106.16999816894531 -43.279998779296875,95.81999969482422 -30.920000076293945,93.19000244140625"></path></g><g opacity="1" transform="matrix(1,0,0,1,0,0)"><path stroke-linecap="round" stroke-linejoin="round" fill-opacity="0" stroke="inherit" stroke-opacity="1" stroke-width="12.6" d=" M-43.29199981689453,29.957000732421875 C-43.29199981689453,79.81700134277344 -23.95199966430664,120.23699951171875 -0.09600000083446503,120.23699951171875 C23.760000228881836,120.23699951171875 43.0989990234375,79.81700134277344 43.0989990234375,29.957000732421875 C43.0989990234375,-19.902999877929688 23.760000228881836,-60.321998596191406 -0.09600000083446503,-60.321998596191406 C-23.95199966430664,-60.321998596191406 -43.29199981689453,-19.902999877929688 -43.29199981689453,29.957000732421875z"></path></g><g opacity="1" transform="matrix(1,0,0,1,0,0)"><path stroke-linecap="round" stroke-linejoin="round" fill-opacity="0" stroke="inherit" stroke-opacity="1" stroke-width="12.6" d=" M39.17300033569336,-8.470000267028809 C31.02899932861328,-5.2870001792907715 17.864999771118164,-1.281000018119812 1.2619999647140503,-1.0839999914169312 C-16.660999298095703,-0.871999979019165 -30.808000564575195,-5.190999984741211 -39.19900131225586,-8.470000267028809"></path></g><g opacity="1" transform="matrix(1,0,0,1,0,0)"><path stroke-linecap="round" stroke-linejoin="round" fill-opacity="0" stroke="inherit" stroke-opacity="1" stroke-width="12.6" d=" M42.034000396728516,48.66299819946289 C33.26499938964844,51.84600067138672 19.090999603271484,55.85100173950195 1.215999960899353,56.04800033569336 C-18.08099937438965,56.2599983215332 -33.3120002746582,51.94200134277344 -42.34700012207031,48.66299819946289"></path></g></g><g class="com" style="display: none;"><g><path></path></g><g><path></path></g><g><path></path></g><g><path></path></g><g><path></path></g><g><path></path></g><g><path></path></g><g><path></path></g><g><path></path></g><g><path></path></g><g><path></path></g><g><path></path></g></g></g></svg>