<svg xmlns="http://www.w3.org/2000/svg" xmlns:xlink="http://www.w3.org/1999/xlink" viewBox="0 0 500 500" width="500" height="500" preserveAspectRatio="xMidYMid meet" style="width: 100%; height: 100%; transform: translate3d(0px, 0px, 0px); content-visibility: visible;"><defs><clipPath id="__lottie_element_3223"><rect width="500" height="500" x="0" y="0"></rect></clipPath><clipPath id="__lottie_element_3240"><path d="M0,0 L500,0 L500,500 L0,500z"></path></clipPath><clipPath id="__lottie_element_3262"><path d="M0,0 L500,0 L500,500 L0,500z"></path></clipPath><clipPath id="__lottie_element_3284"><path d="M0,0 L500,0 L500,500 L0,500z"></path></clipPath></defs><g clip-path="url(#__lottie_element_3223)"><g clip-path="url(#__lottie_element_3284)" transform="matrix(1,0,0,1,0,0)" opacity="1" style="display: block;"><g transform="matrix(1,0,0,1,250,250)" opacity="1" style="display: block;"><g opacity="1" transform="matrix(1,0,0,1,0,0)"><path stroke-linecap="round" stroke-linejoin="round" fill-opacity="0" stroke="inherit" stroke-opacity="1" stroke-width="12.6" d=" M154.1230010986328,66.73300170898438 C154.1230010986328,66.73300170898438 154.1230010986328,66.73300170898438 154.13299560546875,66.73300170898438 C154.13299560546875,66.73300170898438 153.80499267578125,67.5999984741211 153.80499267578125,67.5999984741211 C153.80499267578125,67.5999984741211 128.46299743652344,134.99899291992188 128.46299743652344,134.99899291992188 C128.46299743652344,134.99899291992188 -128.4709930419922,134.99899291992188 -128.4709930419922,134.99899291992188 C-128.4709930419922,134.99899291992188 -154.13099670410156,66.76200103759766 -154.13099670410156,66.76200103759766"></path></g></g><g transform="matrix(1,0,0,1,250,250)" opacity="1" style="display: block;"><g opacity="1" transform="matrix(1,0,0,1,0,0)"><path fill="inherit" fill-opacity="1" d=" M1.9589999914169312,26.150999069213867 C1.9589999914169312,29.263999938964844 1.0820000171661377,31.78700065612793 0.0010000000474974513,31.78700065612793 C-1.0800000429153442,31.78700065612793 -1.9570000171661377,29.263999938964844 -1.9570000171661377,26.150999069213867 C-1.9570000171661377,23.038000106811523 -1.0800000429153442,20.514999389648438 0.0010000000474974513,20.514999389648438 C1.0820000171661377,20.514999389648438 1.9589999914169312,23.038000106811523 1.9589999914169312,26.150999069213867z"></path><path stroke-linecap="round" stroke-linejoin="round" fill-opacity="0" stroke="inherit" stroke-opacity="1" stroke-width="12.6" d=" M1.9589999914169312,26.150999069213867 C1.9589999914169312,29.263999938964844 1.0820000171661377,31.78700065612793 0.0010000000474974513,31.78700065612793 C-1.0800000429153442,31.78700065612793 -1.9570000171661377,29.263999938964844 -1.9570000171661377,26.150999069213867 C-1.9570000171661377,23.038000106811523 -1.0800000429153442,20.514999389648438 0.0010000000474974513,20.514999389648438 C1.0820000171661377,20.514999389648438 1.9589999914169312,23.038000106811523 1.9589999914169312,26.150999069213867z"></path></g></g><g transform="matrix(1,0,0,1,250,250)" opacity="1" style="display: block;"><g opacity="1" transform="matrix(1,0,0,1,0,0)"><path fill="inherit" fill-opacity="1" d=" M39.3390007019043,11.711000442504883 C42.27399826049805,12.748000144958496 44.361000061035156,14.416000366210938 44.000999450683594,15.4350004196167 C43.64099884033203,16.45400047302246 40.970001220703125,16.440000534057617 38.03499984741211,15.402999877929688 C35.099998474121094,14.366000175476074 33.012001037597656,12.699000358581543 33.37200164794922,11.680000305175781 C33.731998443603516,10.66100025177002 36.40399932861328,10.673999786376953 39.3390007019043,11.711000442504883z"></path><path stroke-linecap="round" stroke-linejoin="round" fill-opacity="0" stroke="inherit" stroke-opacity="1" stroke-width="12.6" d=" M39.3390007019043,11.711000442504883 C42.27399826049805,12.748000144958496 44.361000061035156,14.416000366210938 44.000999450683594,15.4350004196167 C43.64099884033203,16.45400047302246 40.970001220703125,16.440000534057617 38.03499984741211,15.402999877929688 C35.099998474121094,14.366000175476074 33.012001037597656,12.699000358581543 33.37200164794922,11.680000305175781 C33.731998443603516,10.66100025177002 36.40399932861328,10.673999786376953 39.3390007019043,11.711000442504883z"></path></g></g><g style="display: none;"><g><path></path><path stroke-linecap="round" stroke-linejoin="round" fill-opacity="0"></path></g></g><g transform="matrix(1,0,0,1,250,250)" opacity="1" style="display: block;"><g opacity="1" transform="matrix(1,0,0,1,0,0)"><path fill="inherit" fill-opacity="1" d=" M-39.29999923706055,11.711000442504883 C-42.23500061035156,12.748000144958496 -44.321998596191406,14.416000366210938 -43.96200180053711,15.4350004196167 C-43.60200119018555,16.45400047302246 -40.93000030517578,16.440000534057617 -37.994998931884766,15.402999877929688 C-35.060001373291016,14.366000175476074 -32.972999572753906,12.699000358581543 -33.33300018310547,11.680000305175781 C-33.69300079345703,10.66100025177002 -36.3650016784668,10.673999786376953 -39.29999923706055,11.711000442504883z"></path><path stroke-linecap="round" stroke-linejoin="round" fill-opacity="0" stroke="inherit" stroke-opacity="1" stroke-width="12.6" d=" M-39.29999923706055,11.711000442504883 C-42.23500061035156,12.748000144958496 -44.321998596191406,14.416000366210938 -43.96200180053711,15.4350004196167 C-43.60200119018555,16.45400047302246 -40.93000030517578,16.440000534057617 -37.994998931884766,15.402999877929688 C-35.060001373291016,14.366000175476074 -32.972999572753906,12.699000358581543 -33.33300018310547,11.680000305175781 C-33.69300079345703,10.66100025177002 -36.3650016784668,10.673999786376953 -39.29999923706055,11.711000442504883z"></path></g></g><g transform="matrix(1,0,0,1,250,250)" opacity="1" style="display: block;"><g opacity="1" transform="matrix(1,0,0,1,0,0)"><path stroke-linecap="round" stroke-linejoin="round" fill-opacity="0" stroke="inherit" stroke-opacity="1" stroke-width="12.6" d=" M195.53500366210938,50.15399932861328 C195.53500366210938,62.362998962402344 184.6929931640625,72.27100372314453 171.31900024414062,72.27100372314453 C168.74600219726562,72.27100372314453 166.26800537109375,71.90399932861328 163.94200134277344,71.22599792480469 C160.63600158691406,70.26200103759766 157.63900756835938,68.66899871826172 155.12399291992188,66.5999984741211 C154.78700256347656,66.32099914550781 154.4510040283203,66.03099822998047 154.13299560546875,65.73300170898438 C154.1230010986328,65.73300170898438 154.1230010986328,65.73300170898438 154.1230010986328,65.73300170898438 C154.0749969482422,65.7040023803711 154.01699829101562,65.6760025024414 153.968994140625,65.63700103759766 C148.55799865722656,62.112998962402344 145.8820037841797,57.481998443603516 137.6009979248047,54.40999984741211 C134.77000427246094,53.35100173950195 131.45700073242188,52.70600128173828 127.34600067138672,52.70600128173828 C113.11499786376953,52.70600128173828 108.41699981689453,60.486000061035156 100.48300170898438,65.63700103759766 C100.48300170898438,65.63700103759766 100.4729995727539,65.63700103759766 100.4729995727539,65.63700103759766 C99.96299743652344,65.96399688720703 99.44300079345703,66.29199981689453 98.89399719238281,66.5999984741211 C98.89399719238281,66.5999984741211 98.88500213623047,66.5999984741211 98.88500213623047,66.5999984741211 C95.3030014038086,68.62200164794922 90.95999908447266,70.03700256347656 84.90399932861328,70.03700256347656 C78.83799743652344,70.03700256347656 74.50599670410156,68.62200164794922 70.92400360107422,66.5999984741211 C70.375,66.29199981689453 69.8550033569336,65.9739990234375 69.33499908447266,65.63700103759766 C61.391998291015625,60.494998931884766 56.702999114990234,52.70600128173828 42.47200012207031,52.70600128173828 C28.260000228881836,52.70600128173828 23.552000045776367,60.486000061035156 15.618000030517578,65.63700103759766 C15.618000030517578,65.63700103759766 15.609000205993652,65.63700103759766 15.609000205993652,65.63700103759766 C15.098999977111816,65.96399688720703 14.569000244140625,66.29199981689453 14.029999732971191,66.5999984741211 C14.029999732971191,66.5999984741211 14.020000457763672,66.5999984741211 14.020000457763672,66.5999984741211 C13.529000282287598,66.87000274658203 13.027999877929688,67.13899993896484 12.517999649047852,67.38899993896484 C9.225000381469727,68.97799682617188 5.2769999504089355,70.03700256347656 0.039000000804662704,70.03700256347656 C-6.0269999504089355,70.03700256347656 -10.359999656677246,68.62200164794922 -13.951000213623047,66.5999984741211 C-13.951000213623047,66.5999984741211 -13.960000038146973,66.5999984741211 -13.960000038146973,66.5999984741211 C-14.49899959564209,66.29199981689453 -15.029000282287598,65.9739990234375 -15.538999557495117,65.63700103759766 C-15.538999557495117,65.63700103759766 -15.548999786376953,65.63700103759766 -15.548999786376953,65.63700103759766 C-23.492000579833984,60.494998931884766 -28.18199920654297,52.70600128173828 -42.40299987792969,52.70600128173828 C-56.63399887084961,52.70600128173828 -61.3129997253418,60.494998931884766 -69.25599670410156,65.63700103759766 C-69.7760009765625,65.9739990234375 -70.2959976196289,66.29199981689453 -70.84500122070312,66.5999984741211 C-74.43599700927734,68.62200164794922 -78.76899719238281,70.03700256347656 -84.83499908447266,70.03700256347656 C-90.91000366210938,70.03700256347656 -95.23400115966797,68.62200164794922 -98.82499694824219,66.5999984741211 C-98.82499694824219,66.5999984741211 -98.83499908447266,66.5999984741211 -98.83499908447266,66.5999984741211 C-99.3740005493164,66.29199981689453 -99.90399932861328,65.9739990234375 -100.41400146484375,65.63700103759766 C-100.41400146484375,65.63700103759766 -100.4229965209961,65.63700103759766 -100.4229965209961,65.63700103759766 C-108.36599731445312,60.494998931884766 -113.0459976196289,52.70600128173828 -127.2770004272461,52.70600128173828 C-137.88800048828125,52.70600128173828 -143.1929931640625,57.03799819946289 -148.4980010986328,61.37099838256836 C-150.8280029296875,63.268001556396484 -152.39700317382812,64.58699798583984 -153.93800354003906,65.63700103759766 C-153.99600219726562,65.68499755859375 -154.072998046875,65.7229995727539 -154.13099670410156,65.76200103759766 C-154.44900512695312,66.0510025024414 -154.7760009765625,66.33000183105469 -155.11300659179688,66.5999984741211 C-159.3979949951172,70.11399841308594 -165.0679931640625,72.25199890136719 -171.2689971923828,72.25199890136719 C-184.64300537109375,72.25199890136719 -195.48500061035156,62.354000091552734 -195.48500061035156,50.14500045776367 C-195.48500061035156,37.926998138427734 -184.64300537109375,28.027999877929688 -171.2689971923828,28.027999877929688 C-168.5540008544922,28.027999877929688 -165.94500732421875,28.43199920654297 -163.50900268554688,29.19300079345703 C-134.18099975585938,1.0299999713897705 -71.99099731445312,-18.399999618530273 0.0010000000474974513,-18.399999618530273 C72.00199890136719,-18.399999618530273 134.21099853515625,1.0399999618530273 163.52999877929688,29.222000122070312 C165.9759979248047,28.461000442504883 168.593994140625,28.047000885009766 171.31900024414062,28.047000885009766 C184.6929931640625,28.047000885009766 195.53500366210938,37.94499969482422 195.53500366210938,50.15399932861328z"></path></g></g></g><g clip-path="url(#__lottie_element_3262)" style="display: none;"><g style="display: none;"><g><path stroke-linecap="round" stroke-linejoin="round" fill-opacity="0"></path></g></g><g style="display: none;"><g><path></path><path stroke-linecap="round" stroke-linejoin="round" fill-opacity="0"></path></g></g><g style="display: none;"><g><path></path><path stroke-linecap="round" stroke-linejoin="round" fill-opacity="0"></path></g></g><g style="display: none;"><g><path></path><path stroke-linecap="round" stroke-linejoin="round" fill-opacity="0"></path></g></g><g style="display: none;"><g><path></path><path stroke-linecap="round" stroke-linejoin="round" fill-opacity="0"></path></g></g><g style="display: none;"><g><path stroke-linecap="round" stroke-linejoin="round" fill-opacity="0"></path></g></g></g><g clip-path="url(#__lottie_element_3240)" style="display: none;"><g style="display: none;"><g><path stroke-linecap="round" stroke-linejoin="round" fill-opacity="0"></path></g></g><g style="display: none;"><g><path></path><path stroke-linecap="round" stroke-linejoin="round" fill-opacity="0"></path></g></g><g style="display: none;"><g><path></path><path stroke-linecap="round" stroke-linejoin="round" fill-opacity="0"></path></g></g><g style="display: none;"><g><path></path><path stroke-linecap="round" stroke-linejoin="round" fill-opacity="0"></path></g></g><g style="display: none;"><g><path></path><path stroke-linecap="round" stroke-linejoin="round" fill-opacity="0"></path></g></g><g style="display: none;"><g><path stroke-linecap="round" stroke-linejoin="round" fill-opacity="0"></path></g></g></g><g transform="matrix(1,0,0,1,198.72500610351562,276.5)" opacity="1" style="display: block;"><g opacity="1" transform="matrix(1,0,0,1,0,0)"><path stroke-linecap="round" stroke-linejoin="round" fill-opacity="0" stroke="inherit" stroke-opacity="1" stroke-width="12.6" d=" M3.1410000324249268,-147.5709991455078 C3.1589999198913574,-147.177001953125 3.1679999828338623,-146.76800537109375 3.1679999828338623,-146.3419952392578 C3.1679999828338623,-146.3419952392578 3.1679999828338623,-146.7760009765625 3.1679999828338623,-146.7760009765625 C3.1679999828338623,-135.99899291992188 -2.8320000171661377,-135.99899291992188 -2.8320000171661377,-125.22200012207031 C-2.8320000171661377,-114.44400024414062 3.1679999828338623,-114.44400024414062 3.1679999828338623,-103.66600036621094 C3.1679999828338623,-92.88800048828125 -2.8320000171661377,-92.88700103759766 -2.8320000171661377,-82.10900115966797"></path></g></g><g transform="matrix(1,0,0,1,299.7250061035156,276.5)" opacity="1" style="display: block;"><g opacity="1" transform="matrix(1,0,0,1,0,0)"><path stroke-linecap="round" stroke-linejoin="round" fill-opacity="0" stroke="inherit" stroke-opacity="1" stroke-width="12.6" d=" M3.1410000324249268,-147.5709991455078 C3.1589999198913574,-147.177001953125 3.1679999828338623,-146.76800537109375 3.1679999828338623,-146.3419952392578 C3.1679999828338623,-146.3419952392578 3.1679999828338623,-146.7760009765625 3.1679999828338623,-146.7760009765625 C3.1679999828338623,-135.99899291992188 -2.8320000171661377,-135.99899291992188 -2.8320000171661377,-125.22200012207031 C-2.8320000171661377,-114.44400024414062 3.1679999828338623,-114.44400024414062 3.1679999828338623,-103.66600036621094 C3.1679999828338623,-92.88800048828125 -2.8320000171661377,-92.88700103759766 -2.8320000171661377,-82.10900115966797"></path></g></g><g transform="matrix(1,0,0,1,249.72500610351562,243.5)" opacity="1" style="display: block;"><g opacity="1" transform="matrix(1,0,0,1,0,0)"><path stroke-linecap="round" stroke-linejoin="round" fill-opacity="0" stroke="inherit" stroke-opacity="1" stroke-width="12.6" d=" M3.1410000324249268,-147.5709991455078 C3.1589999198913574,-147.177001953125 3.1679999828338623,-146.76800537109375 3.1679999828338623,-146.3419952392578 C3.1679999828338623,-146.3419952392578 3.1679999828338623,-146.7760009765625 3.1679999828338623,-146.7760009765625 C3.1679999828338623,-135.99899291992188 -2.8320000171661377,-135.99899291992188 -2.8320000171661377,-125.22200012207031 C-2.8320000171661377,-114.44400024414062 3.1679999828338623,-114.44400024414062 3.1679999828338623,-103.66600036621094 C3.1679999828338623,-92.88800048828125 -2.8320000171661377,-92.88700103759766 -2.8320000171661377,-82.10900115966797"></path></g></g><g class="com" style="display: none;"><g><path></path></g><g><path></path></g><g><path></path></g><g><path></path></g><g><path></path></g><g><path></path></g><g><path></path></g><g><path></path></g><g><path></path></g><g><path></path></g><g><path></path></g><g><path></path></g></g></g></svg>