<svg xmlns="http://www.w3.org/2000/svg" xmlns:xlink="http://www.w3.org/1999/xlink" viewBox="0 0 500 500" width="500" height="500" preserveAspectRatio="xMidYMid meet" style="width: 100%; height: 100%; transform: translate3d(0px, 0px, 0px); content-visibility: visible;"><defs><clipPath id="__lottie_element_3306"><rect width="500" height="500" x="0" y="0"></rect></clipPath></defs><g clip-path="url(#__lottie_element_3306)"><g transform="matrix(1,0,0,1,250,250)" opacity="1" style="display: block;"><g opacity="1" transform="matrix(1,0,0,1,0,0)"><path stroke-linecap="round" stroke-linejoin="round" fill-opacity="0" stroke="inherit" stroke-opacity="1" stroke-width="12.6" d=" M115.5459976196289,-11.972000122070312 C122.9489974975586,-7.314000129699707 130.55499267578125,-1.0329999923706055 137.39199829101562,7.448999881744385 C151.6529998779297,25.138999938964844 167.12100219726562,57.96699905395508 156.71600341796875,72.13200378417969 C154.20599365234375,75.55000305175781 150.92599487304688,76.88500213623047 149.76199340820312,77.29100036621094 C135.62899780273438,82.25800323486328 122.5739974975586,61.05400085449219 101.86100006103516,47.75400161743164 C97.52400207519531,44.97700119018555 92.1719970703125,42.10300064086914 85.6240005493164,39.68899917602539"></path></g><g opacity="1" transform="matrix(1,0,0,1,0,0)"><path stroke-linecap="round" stroke-linejoin="round" fill-opacity="0" stroke="inherit" stroke-opacity="1" stroke-width="12.6" d=" M57.76900100708008,-52.81700134277344 C60.57899856567383,-52.11199951171875 62.75299835205078,-51.96799850463867 65.52999877929688,-51.124000549316406 C71.28800201416016,-49.361000061035156 76.97100067138672,-47.29999923706055 82.5469970703125,-44.928001403808594 C91.83000183105469,-41.00699996948242 100.84700012207031,-36.25400161743164 109.45700073242188,-30.76300048828125 C115.42900085449219,-26.959999084472656 121.06900024414062,-21.50200080871582 116.51799774169922,-13.649999618530273 C116.50700378417969,-13.638999938964844 116.16600036621094,-13.039999961853027 115.5459976196289,-11.972000122070312 C111.08100128173828,-4.281000137329102 92.5459976196289,27.735000610351562 85.6240005493164,39.68899917602539 C83.97899627685547,42.50899887084961 82.99600219726562,44.21799850463867 82.99600219726562,44.21799850463867 C78.75499725341797,51.54600143432617 67.75199890136719,46.290000915527344 62.0369987487793,44.4739990234375 C54.816001892089844,42.176998138427734 48.39699935913086,40.10900115966797 41.709999084472656,36.31700134277344"></path></g><g opacity="1" transform="matrix(1,0,0,1,0,0)"><path stroke-linecap="round" stroke-linejoin="round" fill-opacity="0" stroke="inherit" stroke-opacity="1" stroke-width="12.6" d=" M19.429000854492188,-76.3479995727539 C20.70199966430664,-76.23300170898438 21.974000930786133,-76.10800170898438 23.2450008392334,-75.9729995727539 C28.211000442504883,-75.44400024414062 33.16299819946289,-74.76000213623047 38.09400177001953,-73.9219970703125 C48.263999938964844,-72.19400024414062 60.12699890136719,-69.84500122070312 57.41699981689453,-54.941001892089844 C57.41600036621094,-54.935001373291016 40.10100173950195,40.2869987487793 40.058998107910156,40.52000045776367 C39.11800003051758,45.69599914550781 34.59199905395508,48.50299835205078 28.993000030517578,50.053001403808594 C26.549999237060547,50.729000091552734 24.09000015258789,51.290000915527344 21.617000579833984,51.750999450683594"></path></g></g><g style="display: none;"><g><path stroke-linecap="round" stroke-linejoin="round" fill-opacity="0"></path></g></g><g transform="matrix(1,0,0,1,249.99899291992188,250)" opacity="1" style="display: block;"><g opacity="1" transform="matrix(1,0,0,1,0,0)"><path stroke-linecap="round" stroke-linejoin="round" fill-opacity="0" stroke="inherit" stroke-opacity="1" stroke-width="12.6" d=" M-118.76599884033203,-9.857000350952148 C-125.13300323486328,-5.445000171661377 -131.531005859375,0.19599999487400055 -137.38499450683594,7.448999881744385 C-151.65699768066406,25.138999938964844 -167.11500549316406,57.96699905395508 -156.7209930419922,72.13200378417969 C-154.21099853515625,75.55000305175781 -150.9199981689453,76.88500213623047 -149.75599670410156,77.29100036621094 C-135.6230010986328,82.25800323486328 -122.56800079345703,61.05400085449219 -101.8550033569336,47.75400161743164 C-98.33999633789062,45.51100158691406 -94.16300201416016,43.19200134277344 -89.22799682617188,41.10900115966797"></path></g><g opacity="1" transform="matrix(1,0,0,1,0,0)"><path stroke-linecap="round" stroke-linejoin="round" fill-opacity="0" stroke="inherit" stroke-opacity="1" stroke-width="12.6" d=" M-62.15299987792969,-53.327999114990234 C-64.98400115966797,-52.62300109863281 -67.16899871826172,-51.96799850463867 -69.96800231933594,-51.124000549316406 C-75.72599792480469,-49.361000061035156 -81.40899658203125,-47.29999923706055 -86.99600219726562,-44.928001403808594 C-96.27899932861328,-41.00699996948242 -105.29499816894531,-36.25400161743164 -113.89399719238281,-30.76300048828125 C-119.86599731445312,-26.959999084472656 -125.50700378417969,-21.50200080871582 -120.95600128173828,-13.649999618530273 C-120.94499969482422,-13.628999710083008 -120.12300109863281,-12.218000411987305 -118.76599884033203,-9.857000350952148 C-112.53800201416016,0.8790000081062317 -94.9219970703125,31.2810001373291 -89.22799682617188,41.10900115966797 C-88.09600067138672,43.07500076293945 -87.43399810791016,44.21799850463867 -87.43399810791016,44.21799850463867 C-83.19300079345703,51.54600143432617 -72.19000244140625,46.290000915527344 -66.4749984741211,44.4739990234375 C-59.24300003051758,42.16699981689453 -52.428001403808594,39.722999572753906 -45.72999954223633,35.91999816894531"></path></g><g opacity="1" transform="matrix(1,0,0,1,0,0)"><path stroke-linecap="round" stroke-linejoin="round" fill-opacity="0" stroke="inherit" stroke-opacity="1" stroke-width="12.6" d=" M21.617000579833984,51.750999450683594 C8.960000038146973,54.108001708984375 -4.041999816894531,53.81100082397461 -16.805999755859375,52.606998443603516 C-25.229000091552734,51.8129997253418 -42.25699996948242,52.60499954223633 -44.45399856567383,40.52000045776367 C-44.45399856567383,40.518001556396484 -61.766998291015625,-54.698001861572266 -61.81100082397461,-54.941001892089844 C-64.16500091552734,-67.88999938964844 -54.138999938964844,-71.95899963378906 -44.452999114990234,-73.64900207519531 C-30.493999481201172,-76.08399963378906 -16.329999923706055,-77.32499694824219 -2.197999954223633,-77.32499694824219 C5.019000053405762,-77.32499694824219 12.236000061035156,-76.99800109863281 19.429000854492188,-76.3479995727539"></path></g></g><g style="display: none;"><g><path stroke-linecap="round" stroke-linejoin="round" fill-opacity="0"></path></g></g><g style="display: none;"><g></g><g><path stroke-linecap="round" stroke-linejoin="round" fill-opacity="0"></path></g></g><g class="com" style="display: none;"><g><path></path></g><g><path></path></g><g><path></path></g><g><path></path></g><g><path></path></g><g><path></path></g><g><path></path></g><g><path></path></g><g><path></path></g><g><path></path></g><g><path></path></g><g><path></path></g></g></g></svg>