<svg xmlns="http://www.w3.org/2000/svg" xmlns:xlink="http://www.w3.org/1999/xlink" viewBox="0 0 500 500" width="500" height="500" preserveAspectRatio="xMidYMid meet" style="width: 100%; height: 100%; transform: translate3d(0px, 0px, 0px); content-visibility: visible;"><defs><clipPath id="__lottie_element_3330"><rect width="500" height="500" x="0" y="0"></rect></clipPath><symbol id="__lottie_element_3342"><g><g style="display: none;"><g><path stroke-linecap="round" stroke-linejoin="round" fill-opacity="0"></path><path></path></g></g></g></symbol><clipPath id="__lottie_element_3346"><path d="M0,0 L500,0 L500,500 L0,500z"></path></clipPath><symbol id="__lottie_element_3353"><g><g transform="matrix(0.9999997615814209,-0.0007123885443434119,0.0007123885443434119,0.9999997615814209,250.01785278320312,249.96461486816406)" opacity="1" style="display: block;"><path fill="inherit" fill-opacity="1" d=" M72.55799865722656,48.4630012512207 C11.772000312805176,36.047000885009766 -44.3120002746582,6.724999904632568 -89.197998046875,-36.10499954223633 C-105.66899871826172,-51.68299865722656 -131.86399841308594,-55.279998779296875 -149.71800231933594,-41.499000549316406 C-149.71800231933594,-41.499000549316406 -149.71800231933594,-41.499000549316406 -149.71800231933594,-41.499000549316406 C-167.52999877929688,-27.804000854492188 -167.05999755859375,2.7950000762939453 -145.6909942626953,23.152000427246094 C-89.68599700927734,76.59300231933594 -19.70800018310547,113.17900085449219 56.13800048828125,128.67100524902344 C85.04900360107422,134.6020050048828 110.44499969482422,117.52400207519531 111.5260009765625,95.08200073242188 C111.5260009765625,95.08200073242188 111.5260009765625,95.08200073242188 111.5260009765625,95.08200073242188 C112.6520004272461,72.55699920654297 94.75,53.0989990234375 72.55799865722656,48.4630012512207z M72.55799865722656,48.4630012512207 C29.201000213623047,39.40599822998047 -12.097999572753906,22.04199981689453 -48.599998474121094,-3.1019999980926514 C-57.334999084472656,-9.119000434875488 -66.15599822998047,-15.3100004196167 -74.04299926757812,-22.413999557495117 C-82.05899810791016,-29.634000778198242 -89.61499786376953,-37.569000244140625 -99.01300048828125,-43.04100036621094 C-121.93599700927734,-56.387001037597656 -154.93600463867188,-49.79399871826172 -161.54600524902344,-21.03499984741211 C-165.41299438476562,-4.211999893188477 -156.7030029296875,11.73900032043457 -145.427001953125,23.625999450683594 C-130.447998046875,39.41699981689453 -111.71399688720703,52.904998779296875 -93.8010025024414,65.1510009765625 C-75.00299835205078,78.0009994506836 -55.143001556396484,89.2979965209961 -34.486000061035156,98.87699890136719 C-15.595000267028809,107.63700103759766 3.9800000190734863,114.95800018310547 23.983999252319336,120.74299621582031 C51.1609992980957,128.61599731445312 95.86399841308594,139.9499969482422 108.9280014038086,104.01399993896484 C112.677001953125,93.7030029296875 111.40499877929688,82.20899963378906 106.0479965209961,72.70899963378906 C99.0270004272461,60.25899887084961 86.50900268554688,51.37699890136719 72.55799865722656,48.4630012512207z"></path><g opacity="1" transform="matrix(1,0,0,1,0,0)"></g><g opacity="1" transform="matrix(1,0,0,1,0,0)"><path stroke-linecap="round" stroke-linejoin="round" fill-opacity="0" stroke="inherit" stroke-opacity="1" stroke-width="0" d=" M72.55799865722656,48.4630012512207 C29.201000213623047,39.40599822998047 -12.097999572753906,22.04199981689453 -48.599998474121094,-3.1019999980926514 C-57.334999084472656,-9.119000434875488 -66.15599822998047,-15.3100004196167 -74.04299926757812,-22.413999557495117 C-82.05899810791016,-29.634000778198242 -89.61499786376953,-37.569000244140625 -99.01300048828125,-43.04100036621094 C-121.93599700927734,-56.387001037597656 -154.93600463867188,-49.79399871826172 -161.54600524902344,-21.03499984741211 C-165.41299438476562,-4.211999893188477 -156.7030029296875,11.73900032043457 -145.427001953125,23.625999450683594 C-130.447998046875,39.41699981689453 -111.71399688720703,52.904998779296875 -93.8010025024414,65.1510009765625 C-75.00299835205078,78.0009994506836 -55.143001556396484,89.2979965209961 -34.486000061035156,98.87699890136719 C-15.595000267028809,107.63700103759766 3.9800000190734863,114.95800018310547 23.983999252319336,120.74299621582031 C51.1609992980957,128.61599731445312 95.86399841308594,139.9499969482422 108.9280014038086,104.01399993896484 C112.677001953125,93.7030029296875 111.40499877929688,82.20899963378906 106.0479965209961,72.70899963378906 C99.0270004272461,60.25899887084961 86.50900268554688,51.37699890136719 72.55799865722656,48.4630012512207z"></path></g></g></g></symbol><clipPath id="__lottie_element_3357"><path d="M0,0 L500,0 L500,500 L0,500z"></path></clipPath><symbol id="__lottie_element_3364"><g><g transform="matrix(0.9999997615814209,-0.0007123885443434119,0.0007123885443434119,0.9999997615814209,247.50888061523438,248.98265075683594)" opacity="1" style="display: block;"><g opacity="1" transform="matrix(1,0,0,1,0,0)"><path stroke-linecap="round" stroke-linejoin="round" fill-opacity="0" stroke="inherit" stroke-opacity="1" stroke-width="0" d=" M-96.5,-92 C-96.5,-92 -86.25,-49.5 -70,-38.5 C-53.75,-27.5 100,66.5 110.25,67.5 C120.5,68.5 115,40 115,40 C112.21700286865234,27.104999542236328 106.62799835205078,11.821000099182129 94.2020034790039,6.53000020980835 C78.90599822998047,0.017999999225139618 66.02899932861328,14.163999557495117 51.95600128173828,6.6519999504089355 C35.54199981689453,-2.1089999675750732 44.95899963378906,-19.753999710083008 28.54400062561035,-28.514999389648438 C12.128999710083008,-37.277000427246094 2.7109999656677246,-19.631999969482422 -13.704000473022461,-28.393999099731445 C-30.118999481201172,-37.154998779296875 -20.701000213623047,-54.79999923706055 -37.11600112915039,-63.56100082397461 C-51.224998474121094,-71.09200286865234 -64.6510009765625,-56.375 -79.36699676513672,-63.44300079345703 C-90.34200286865234,-68.71399688720703 -94.60399627685547,-82.40499877929688 -96.5,-92z"></path><path fill="inherit" fill-opacity="1" d=" M-96.5,-92 C-96.5,-92 -86.25,-49.5 -70,-38.5 C-53.75,-27.5 100,66.5 110.25,67.5 C120.5,68.5 115,40 115,40 C112.21700286865234,27.104999542236328 106.62799835205078,11.821000099182129 94.2020034790039,6.53000020980835 C78.90599822998047,0.017999999225139618 66.02899932861328,14.163999557495117 51.95600128173828,6.6519999504089355 C35.54199981689453,-2.1089999675750732 44.95899963378906,-19.753999710083008 28.54400062561035,-28.514999389648438 C12.128999710083008,-37.277000427246094 2.7109999656677246,-19.631999969482422 -13.704000473022461,-28.393999099731445 C-30.118999481201172,-37.154998779296875 -20.701000213623047,-54.79999923706055 -37.11600112915039,-63.56100082397461 C-51.224998474121094,-71.09200286865234 -64.6510009765625,-56.375 -79.36699676513672,-63.44300079345703 C-90.34200286865234,-68.71399688720703 -94.60399627685547,-82.40499877929688 -96.5,-92z"></path></g></g></g></symbol><filter id="__lottie_element_3370" filterUnits="objectBoundingBox" x="0%" y="0%" width="100%" height="100%"><feComponentTransfer in="SourceGraphic"><feFuncA type="table" tableValues="1.0 0.0"></feFuncA></feComponentTransfer></filter><mask id="__lottie_element_3364_2" mask-type="alpha"><g filter="url(#__lottie_element_3370)"><rect width="500" height="500" x="0" y="0" fill="#ffffff" opacity="0"></rect><use xlink:href="#__lottie_element_3364"></use></g></mask><symbol id="__lottie_element_3371"><g><g transform="matrix(0.9999997615814209,-0.0007123885443434119,0.0007123885443434119,0.9999997615814209,247.50888061523438,248.98265075683594)" opacity="1" style="display: block;"><g opacity="1" transform="matrix(1,0,0,1,0,0)"><path stroke-linecap="round" stroke-linejoin="round" fill-opacity="0" stroke="inherit" stroke-opacity="1" stroke-width="0" d=" M-96.5,-92 C-96.5,-92 -86.25,-49.5 -70,-38.5 C-53.75,-27.5 101,68 111.25,69 C121.5,70 115,40 115,40 C112.21700286865234,27.104999542236328 106.62799835205078,11.821000099182129 94.2020034790039,6.53000020980835 C78.90599822998047,0.017999999225139618 66.02899932861328,14.163999557495117 51.95600128173828,6.6519999504089355 C35.54199981689453,-2.1089999675750732 44.95899963378906,-19.753999710083008 28.54400062561035,-28.514999389648438 C12.128999710083008,-37.277000427246094 2.7109999656677246,-19.631999969482422 -13.704000473022461,-28.393999099731445 C-30.118999481201172,-37.154998779296875 -20.701000213623047,-54.79999923706055 -37.11600112915039,-63.56100082397461 C-51.224998474121094,-71.09200286865234 -64.6510009765625,-56.375 -79.36699676513672,-63.44300079345703 C-90.34200286865234,-68.71399688720703 -94.60399627685547,-82.40499877929688 -96.5,-92z"></path><path fill="inherit" fill-opacity="1" d=" M-96.5,-92 C-96.5,-92 -86.25,-49.5 -70,-38.5 C-53.75,-27.5 101,68 111.25,69 C121.5,70 115,40 115,40 C112.21700286865234,27.104999542236328 106.62799835205078,11.821000099182129 94.2020034790039,6.53000020980835 C78.90599822998047,0.017999999225139618 66.02899932861328,14.163999557495117 51.95600128173828,6.6519999504089355 C35.54199981689453,-2.1089999675750732 44.95899963378906,-19.753999710083008 28.54400062561035,-28.514999389648438 C12.128999710083008,-37.277000427246094 2.7109999656677246,-19.631999969482422 -13.704000473022461,-28.393999099731445 C-30.118999481201172,-37.154998779296875 -20.701000213623047,-54.79999923706055 -37.11600112915039,-63.56100082397461 C-51.224998474121094,-71.09200286865234 -64.6510009765625,-56.375 -79.36699676513672,-63.44300079345703 C-90.34200286865234,-68.71399688720703 -94.60399627685547,-82.40499877929688 -96.5,-92z"></path></g></g></g></symbol><clipPath id="__lottie_element_3375"><path d="M0,0 L500,0 L500,500 L0,500z"></path></clipPath><symbol id="__lottie_element_3379"><g><g transform="matrix(0.9999997615814209,-0.0007123885443434119,0.0007123885443434119,0.9999997615814209,250.001708984375,249.99635314941406)" opacity="1" style="display: block;"><path fill="inherit" fill-opacity="1" d=" M158.83900451660156,76.74500274658203 C158.83900451660156,76.74500274658203 158.83799743652344,76.74500274658203 158.83799743652344,76.74500274658203 C150.82699584960938,91.677001953125 132.0570068359375,97.33899688720703 117.125,89.3280029296875 C117.125,89.3280029296875 -141.0240020751953,-49.16400146484375 -141.0240020751953,-49.16400146484375 C-155.95599365234375,-57.17499923706055 -161.61900329589844,-75.94499969482422 -153.60800170898438,-90.87699890136719 C-153.60800170898438,-90.87699890136719 -153.60800170898438,-90.87699890136719 -153.60800170898438,-90.87699890136719 C-145.5970001220703,-105.80899810791016 -126.82599639892578,-111.47200012207031 -111.89399719238281,-103.46099853515625 C-111.89399719238281,-103.46099853515625 146.2550048828125,35.03099822998047 146.2550048828125,35.03099822998047 C161.18699645996094,43.04199981689453 166.85000610351562,61.8129997253418 158.83900451660156,76.74500274658203z"></path><g opacity="1" transform="matrix(1,0,0,1,0,0)"><path stroke-linecap="round" stroke-linejoin="round" fill-opacity="0" stroke="inherit" stroke-opacity="1" stroke-width="0" d=" M158.83900451660156,76.74500274658203 C158.83900451660156,76.74500274658203 158.83799743652344,76.74500274658203 158.83799743652344,76.74500274658203 C150.82699584960938,91.677001953125 132.0570068359375,97.33899688720703 117.125,89.3280029296875 C117.125,89.3280029296875 -141.0240020751953,-49.16400146484375 -141.0240020751953,-49.16400146484375 C-155.95599365234375,-57.17499923706055 -161.61900329589844,-75.94499969482422 -153.60800170898438,-90.87699890136719 C-153.60800170898438,-90.87699890136719 -153.60800170898438,-90.87699890136719 -153.60800170898438,-90.87699890136719 C-145.5970001220703,-105.80899810791016 -126.82599639892578,-111.47200012207031 -111.89399719238281,-103.46099853515625 C-111.89399719238281,-103.46099853515625 146.2550048828125,35.03099822998047 146.2550048828125,35.03099822998047 C161.18699645996094,43.04199981689453 166.85000610351562,61.8129997253418 158.83900451660156,76.74500274658203z"></path></g></g></g></symbol><filter id="__lottie_element_3385" filterUnits="objectBoundingBox" x="0%" y="0%" width="100%" height="100%"><feComponentTransfer in="SourceGraphic"><feFuncA type="table" tableValues="1.0 0.0"></feFuncA></feComponentTransfer></filter><mask id="__lottie_element_3379_2" mask-type="alpha"><g filter="url(#__lottie_element_3385)"><rect width="500" height="500" x="0" y="0" fill="#ffffff" opacity="0"></rect><use xlink:href="#__lottie_element_3379"></use></g></mask><filter id="__lottie_element_3386" filterUnits="objectBoundingBox" x="0%" y="0%" width="100%" height="100%"><feComponentTransfer in="SourceGraphic"><feFuncA type="table" tableValues="1.0 0.0"></feFuncA></feComponentTransfer></filter><mask id="__lottie_element_3371_2" mask-type="alpha"><g filter="url(#__lottie_element_3386)"><rect width="500" height="500" x="0" y="0" fill="#ffffff" opacity="0"></rect><use xlink:href="#__lottie_element_3371"></use></g></mask><filter id="__lottie_element_3387" filterUnits="objectBoundingBox" x="0%" y="0%" width="100%" height="100%"><feComponentTransfer in="SourceGraphic"><feFuncA type="table" tableValues="1.0 0.0"></feFuncA></feComponentTransfer></filter><mask id="__lottie_element_3353_2" mask-type="alpha"><g filter="url(#__lottie_element_3387)"><rect width="500" height="500" x="0" y="0" fill="#ffffff" opacity="0"></rect><use xlink:href="#__lottie_element_3353"></use></g></mask><filter id="__lottie_element_3388" filterUnits="objectBoundingBox" x="0%" y="0%" width="100%" height="100%"><feComponentTransfer in="SourceGraphic"><feFuncA type="table" tableValues="1.0 0.0"></feFuncA></feComponentTransfer></filter><mask id="__lottie_element_3342_2" mask-type="alpha"><g filter="url(#__lottie_element_3388)"><rect width="500" height="500" x="0" y="0" fill="#ffffff" opacity="0"></rect><use xlink:href="#__lottie_element_3342"></use></g></mask></defs><g clip-path="url(#__lottie_element_3330)"><g mask="url(#__lottie_element_3342_2)" style="display: block;"><g clip-path="url(#__lottie_element_3346)" transform="matrix(1,0,0,1,0,0)" opacity="1"><g mask="url(#__lottie_element_3353_2)" style="display: block;"><g clip-path="url(#__lottie_element_3357)" transform="matrix(1,0,0,1,0,0)" opacity="1"><g mask="url(#__lottie_element_3371_2)" style="display: block;"><g clip-path="url(#__lottie_element_3375)" transform="matrix(1,0,0,1,0,0)" opacity="1"><g mask="url(#__lottie_element_3379_2)" style="display: block;"><g transform="matrix(0.9999997615814209,-0.0007123885443434119,0.0007123885443434119,0.9999997615814209,249.99246215820312,250.01454162597656)" opacity="1"><g opacity="1" transform="matrix(1,0,0,1,0,0)"></g><g opacity="1" transform="matrix(1,0,0,1,0,0)"><path stroke-linecap="round" stroke-linejoin="round" fill-opacity="0" stroke="inherit" stroke-opacity="1" stroke-width="12.6" d=" M118.19300079345703,-31.24799919128418 C74.80699920654297,-40.31999969482422 33.47600173950195,-57.70100021362305 -3.056999921798706,-82.86100006103516 C-11.798999786376953,-88.88200378417969 -20.62700080871582,-95.0770034790039 -28.520999908447266,-102.18499755859375 C-36.54399871826172,-109.40899658203125 -44.108001708984375,-117.3479995727539 -53.51300048828125,-122.822998046875 C-76.4540023803711,-136.1790008544922 -109.47200012207031,-129.59500122070312 -116.0770034790039,-100.83300018310547 C-119.94100189208984,-84.00800323486328 -111.22100067138672,-68.052001953125 -99.93399810791016,-56.159000396728516 C-84.94000244140625,-40.36000061035156 -66.19100189208984,-26.864999771118164 -48.26300048828125,-14.611000061035156 C-29.450000762939453,-1.7519999742507935 -9.574000358581543,9.553000450134277 11.098999977111816,19.139999389648438 C30.0049991607666,27.908000946044922 49.59299850463867,35.236000061035156 69.61199951171875,41.02799987792969 C96.80799865722656,48.9109992980957 141.54200744628906,60.262001037597656 154.60299682617188,24.323999404907227 C158.3509979248047,14.01200008392334 157.0749969482422,2.5169999599456787 151.71099853515625,-6.986999988555908 C144.6820068359375,-19.44099998474121 132.1529998779297,-28.32900047302246 118.19300079345703,-31.24799919128418z"></path></g></g></g></g></g><g mask="url(#__lottie_element_3364_2)" style="display: block;"><g transform="matrix(0.9999997615814209,-0.0007123885443434119,0.0007123885443434119,0.9999997615814209,250.001708984375,249.99635314941406)" opacity="1"><g opacity="1" transform="matrix(1,0,0,1,0,0)"><path stroke-linecap="round" stroke-linejoin="round" fill-opacity="0" stroke="inherit" stroke-opacity="1" stroke-width="12.6" d=" M158.83900451660156,76.74500274658203 C158.83900451660156,76.74500274658203 158.83799743652344,76.74500274658203 158.83799743652344,76.74500274658203 C150.82699584960938,91.677001953125 132.0570068359375,97.33899688720703 117.125,89.3280029296875 C117.125,89.3280029296875 -141.0240020751953,-49.16400146484375 -141.0240020751953,-49.16400146484375 C-155.95599365234375,-57.17499923706055 -161.61900329589844,-75.94499969482422 -153.60800170898438,-90.87699890136719 C-153.60800170898438,-90.87699890136719 -153.60800170898438,-90.87699890136719 -153.60800170898438,-90.87699890136719 C-145.5970001220703,-105.80899810791016 -126.82599639892578,-111.47200012207031 -111.89399719238281,-103.46099853515625 C-111.89399719238281,-103.46099853515625 146.2550048828125,35.03099822998047 146.2550048828125,35.03099822998047 C161.18699645996094,43.04199981689453 166.85000610351562,61.8129997253418 158.83900451660156,76.74500274658203z"></path></g></g></g><g transform="matrix(0.9999997615814209,-0.0007123885443434119,0.0007123885443434119,0.9999997615814209,247.50888061523438,248.98265075683594)" opacity="1" style="display: block;"><g opacity="1" transform="matrix(1,0,0,1,0,0)"><path stroke-linecap="round" stroke-linejoin="round" fill-opacity="0" stroke="inherit" stroke-opacity="1" stroke-width="12.6" d=" M115,40 C112.21700286865234,27.104999542236328 106.62799835205078,11.821000099182129 94.2020034790039,6.53000020980835 C78.90599822998047,0.017999999225139618 66.02899932861328,14.163999557495117 51.95600128173828,6.6519999504089355 C35.54199981689453,-2.1089999675750732 44.95800018310547,-19.753999710083008 28.54400062561035,-28.514999389648438 C12.128999710083008,-37.277000427246094 2.7109999656677246,-19.631999969482422 -13.704000473022461,-28.393999099731445 C-30.118999481201172,-37.154998779296875 -20.701000213623047,-54.79999923706055 -37.11600112915039,-63.56100082397461 C-51.224998474121094,-71.09200286865234 -64.6510009765625,-56.375 -79.36699676513672,-63.44300079345703 C-90.34200286865234,-68.71399688720703 -94.60399627685547,-82.40499877929688 -96.5,-92"></path></g></g></g></g><g transform="matrix(0.9999997615814209,-0.0007123885443434119,0.0007123885443434119,0.9999997615814209,250.01785278320312,249.96461486816406)" opacity="1" style="display: block;"><g opacity="1" transform="matrix(1,0,0,1,0,0)"></g><g opacity="1" transform="matrix(1,0,0,1,0,0)"><path stroke-linecap="round" stroke-linejoin="round" fill-opacity="0" stroke="inherit" stroke-opacity="1" stroke-width="12.6" d=" M72.55799865722656,48.4630012512207 C29.201000213623047,39.40599822998047 -12.097999572753906,22.04199981689453 -48.599998474121094,-3.1019999980926514 C-57.334999084472656,-9.119000434875488 -66.15599822998047,-15.3100004196167 -74.04299926757812,-22.413999557495117 C-82.05899810791016,-29.634000778198242 -89.61499786376953,-37.569000244140625 -99.01300048828125,-43.04100036621094 C-121.93599700927734,-56.387001037597656 -154.93600463867188,-49.79399871826172 -161.54600524902344,-21.03499984741211 C-165.41299438476562,-4.211999893188477 -156.7030029296875,11.73900032043457 -145.427001953125,23.625999450683594 C-130.447998046875,39.41699981689453 -111.71399688720703,52.904998779296875 -93.8010025024414,65.1510009765625 C-75.00299835205078,78.0009994506836 -55.143001556396484,89.2979965209961 -34.486000061035156,98.87699890136719 C-15.595000267028809,107.63700103759766 3.9800000190734863,114.95800018310547 23.983999252319336,120.74299621582031 C51.1609992980957,128.61599731445312 95.86399841308594,139.9499969482422 108.9280014038086,104.01399993896484 C112.677001953125,93.7030029296875 111.40499877929688,82.20899963378906 106.0479965209961,72.70899963378906 C99.0270004272461,60.25899887084961 86.50900268554688,51.37699890136719 72.55799865722656,48.4630012512207z"></path></g></g></g></g><g style="display: none;"><g><path stroke-linecap="round" stroke-linejoin="round" fill-opacity="0"></path></g></g><g class="com" style="display: none;"><g><path></path></g><g><path></path></g><g><path></path></g><g><path></path></g><g><path></path></g><g><path></path></g><g><path></path></g><g><path></path></g><g><path></path></g><g><path></path></g><g><path></path></g><g><path></path></g></g></g></svg>