<svg xmlns="http://www.w3.org/2000/svg" xmlns:xlink="http://www.w3.org/1999/xlink" viewBox="0 0 500 500" width="500" height="500" preserveAspectRatio="xMidYMid meet" style="width: 100%; height: 100%; transform: translate3d(0px, 0px, 0px); content-visibility: visible;"><defs><clipPath id="__lottie_element_3390"><rect width="500" height="500" x="0" y="0"></rect></clipPath><symbol id="__lottie_element_3400"><g><g transform="matrix(1,0,0,1,250,250)" opacity="1" style="display: block;"><g opacity="1" transform="matrix(1,0,0,1,0,0)"><path fill="inherit" fill-opacity="1" d=" M-158.88299560546875,69.6510009765625 C-158.88299560546875,107.43399810791016 -128.2550048828125,138.06199645996094 -90.47200012207031,138.06199645996094 C-52.68899917602539,138.06199645996094 -22.059999465942383,107.43399810791016 -22.059999465942383,69.6510009765625 C-22.059999465942383,31.868000030517578 -52.68899917602539,1.2389999628067017 -90.47200012207031,1.2389999628067017 C-128.2550048828125,1.2389999628067017 -158.88299560546875,31.868000030517578 -158.88299560546875,69.6510009765625z"></path><path stroke-linecap="round" stroke-linejoin="round" fill-opacity="0" stroke="inherit" stroke-opacity="1" stroke-width="0" d=" M-158.88299560546875,69.6510009765625 C-158.88299560546875,107.43399810791016 -128.2550048828125,138.06199645996094 -90.47200012207031,138.06199645996094 C-52.68899917602539,138.06199645996094 -22.059999465942383,107.43399810791016 -22.059999465942383,69.6510009765625 C-22.059999465942383,31.868000030517578 -52.68899917602539,1.2389999628067017 -90.47200012207031,1.2389999628067017 C-128.2550048828125,1.2389999628067017 -158.88299560546875,31.868000030517578 -158.88299560546875,69.6510009765625z"></path></g><g opacity="1" transform="matrix(1,0,0,1,0,0)"><path stroke-linecap="round" stroke-linejoin="round" fill-opacity="0" stroke="inherit" stroke-opacity="1" stroke-width="0" d=" M-98.46800231933594,67.13500213623047 C-98.46800231933594,67.13500213623047 -104.16300201416016,73.08499908447266 -104.16300201416016,73.08499908447266 C-104.16300201416016,73.08499908447266 -98.21299743652344,67.38999938964844 -98.21299743652344,67.38999938964844 C-98.21299743652344,67.38999938964844 -92.26300048828125,73.08499908447266 -92.26300048828125,73.08499908447266 C-92.26300048828125,73.08499908447266 -97.95800018310547,67.13500213623047 -97.95800018310547,67.13500213623047 C-97.95800018310547,67.13500213623047 -92.26300048828125,61.185001373291016 -92.26300048828125,61.185001373291016 C-92.26300048828125,61.185001373291016 -98.21299743652344,66.87999725341797 -98.21299743652344,66.87999725341797 C-98.21299743652344,66.87999725341797 -104.16300201416016,61.185001373291016 -104.16300201416016,61.185001373291016 C-104.16300201416016,61.185001373291016 -98.46800231933594,67.13500213623047 -98.46800231933594,67.13500213623047z"></path></g></g></g></symbol><clipPath id="__lottie_element_3404"><path d="M0,0 L500,0 L500,500 L0,500z"></path></clipPath><symbol id="__lottie_element_3410"><g><g transform="matrix(1,0,0,1,250,250)" opacity="1" style="display: block;"><g opacity="1" transform="matrix(1,0,0,1,0,0)"><path fill="inherit" fill-opacity="1" d=" M-95.14299774169922,-6.728000164031982 C-95.14299774169922,31.05500030517578 -64.51399993896484,61.68299865722656 -26.731000900268555,61.68299865722656 C11.052000045776367,61.68299865722656 41.68000030517578,31.05500030517578 41.68000030517578,-6.728000164031982 C41.68000030517578,-44.51100158691406 11.052000045776367,-75.13999938964844 -26.731000900268555,-75.13999938964844 C-64.51399993896484,-75.13999938964844 -95.14299774169922,-44.51100158691406 -95.14299774169922,-6.728000164031982z"></path><path stroke-linecap="round" stroke-linejoin="round" fill-opacity="0" stroke="inherit" stroke-opacity="1" stroke-width="0" d=" M-95.14299774169922,-6.728000164031982 C-95.14299774169922,31.05500030517578 -64.51399993896484,61.68299865722656 -26.731000900268555,61.68299865722656 C11.052000045776367,61.68299865722656 41.68000030517578,31.05500030517578 41.68000030517578,-6.728000164031982 C41.68000030517578,-44.51100158691406 11.052000045776367,-75.13999938964844 -26.731000900268555,-75.13999938964844 C-64.51399993896484,-75.13999938964844 -95.14299774169922,-44.51100158691406 -95.14299774169922,-6.728000164031982z"></path></g><g opacity="1" transform="matrix(1,0,0,1,0,0)"><path stroke-linecap="round" stroke-linejoin="round" fill-opacity="0" stroke="inherit" stroke-opacity="1" stroke-width="0" d=" M-25.31599998474121,-32.4370002746582 C-25.31599998474121,-32.4370002746582 -31.219999313354492,-26.270000457763672 -31.219999313354492,-26.270000457763672 C-31.219999313354492,-26.270000457763672 -25.052000045776367,-32.17300033569336 -25.052000045776367,-32.17300033569336 C-25.052000045776367,-32.17300033569336 -18.884000778198242,-26.270000457763672 -18.884000778198242,-26.270000457763672 C-18.884000778198242,-26.270000457763672 -24.788000106811523,-32.4370002746582 -24.788000106811523,-32.4370002746582 C-24.788000106811523,-32.4370002746582 -18.884000778198242,-38.60499954223633 -18.884000778198242,-38.60499954223633 C-18.884000778198242,-38.60499954223633 -25.052000045776367,-32.70199966430664 -25.052000045776367,-32.70199966430664 C-25.052000045776367,-32.70199966430664 -31.219999313354492,-38.60499954223633 -31.219999313354492,-38.60499954223633 C-31.219999313354492,-38.60499954223633 -25.31599998474121,-32.4370002746582 -25.31599998474121,-32.4370002746582z"></path></g></g></g></symbol><clipPath id="__lottie_element_3414"><path d="M0,0 L500,0 L500,500 L0,500z"></path></clipPath><symbol id="__lottie_element_3420"><g><g transform="matrix(1,0,0,1,250,250)" opacity="1" style="display: block;"><g opacity="1" transform="matrix(1,0,0,1,0,0)"><path fill="inherit" fill-opacity="1" d=" M-38.54499816894531,92.72899627685547 C-38.54499816894531,130.51199340820312 -7.915999889373779,161.14100646972656 29.867000579833984,161.14100646972656 C67.6500015258789,161.14100646972656 98.27799987792969,130.51199340820312 98.27799987792969,92.72899627685547 C98.27799987792969,54.94599914550781 67.6500015258789,24.31800079345703 29.867000579833984,24.31800079345703 C-7.915999889373779,24.31800079345703 -38.54499816894531,54.94599914550781 -38.54499816894531,92.72899627685547z"></path><path stroke-linecap="round" stroke-linejoin="round" fill-opacity="0" stroke="inherit" stroke-opacity="1" stroke-width="0" d=" M-38.54499816894531,92.72899627685547 C-38.54499816894531,130.51199340820312 -7.915999889373779,161.14100646972656 29.867000579833984,161.14100646972656 C67.6500015258789,161.14100646972656 98.27799987792969,130.51199340820312 98.27799987792969,92.72899627685547 C98.27799987792969,54.94599914550781 67.6500015258789,24.31800079345703 29.867000579833984,24.31800079345703 C-7.915999889373779,24.31800079345703 -38.54499816894531,54.94599914550781 -38.54499816894531,92.72899627685547z"></path></g><g opacity="1" transform="matrix(1,0,0,1,0,0)"><path stroke-linecap="round" stroke-linejoin="round" fill-opacity="0" stroke="inherit" stroke-opacity="1" stroke-width="0" d=" M40.5890007019043,90.56400299072266 C40.5890007019043,90.56400299072266 34.68600082397461,96.73200225830078 34.68600082397461,96.73200225830078 C34.68600082397461,96.73200225830078 40.854000091552734,90.8280029296875 40.854000091552734,90.8280029296875 C40.854000091552734,90.8280029296875 47.020999908447266,96.73200225830078 47.020999908447266,96.73200225830078 C47.020999908447266,96.73200225830078 41.11800003051758,90.56400299072266 41.11800003051758,90.56400299072266 C41.11800003051758,90.56400299072266 47.020999908447266,84.39600372314453 47.020999908447266,84.39600372314453 C47.020999908447266,84.39600372314453 40.854000091552734,90.30000305175781 40.854000091552734,90.30000305175781 C40.854000091552734,90.30000305175781 34.68600082397461,84.39600372314453 34.68600082397461,84.39600372314453 C34.68600082397461,84.39600372314453 40.5890007019043,90.56400299072266 40.5890007019043,90.56400299072266z"></path></g></g></g></symbol><clipPath id="__lottie_element_3424"><path d="M0,0 L500,0 L500,500 L0,500z"></path></clipPath><symbol id="__lottie_element_3431"><g><g transform="matrix(1,0,0,1,250.00001525878906,250.00099182128906)" opacity="1" style="display: block;"><g opacity="1" transform="matrix(1,0,0,1,0,0)"><path stroke-linecap="round" stroke-linejoin="round" fill-opacity="0" stroke="inherit" stroke-opacity="1" stroke-width="0" d=" M117.33699798583984,-11.902000427246094 C89.00599670410156,18.059999465942383 52.15399932861328,32.025001525878906 23.47800064086914,26.50200080871582 C16.361000061035156,-1.8209999799728394 28.243999481201172,-39.39500045776367 56.57500076293945,-69.35700225830078 C84.90699768066406,-99.31900024414062 121.75900268554688,-113.28399658203125 150.43499755859375,-107.76100158691406 C157.55299377441406,-79.43800354003906 145.66900634765625,-41.86399841308594 117.33699798583984,-11.902000427246094z"></path><path fill="inherit" fill-opacity="1" d=" M117.33699798583984,-11.902000427246094 C89.00599670410156,18.059999465942383 52.15399932861328,32.025001525878906 23.47800064086914,26.50200080871582 C16.361000061035156,-1.8209999799728394 28.243999481201172,-39.39500045776367 56.57500076293945,-69.35700225830078 C84.90699768066406,-99.31900024414062 121.75900268554688,-113.28399658203125 150.43499755859375,-107.76100158691406 C157.55299377441406,-79.43800354003906 145.66900634765625,-41.86399841308594 117.33699798583984,-11.902000427246094z"></path></g><g opacity="1" transform="matrix(1,0,0,1,0,0)"><path stroke-linecap="round" stroke-linejoin="round" fill-opacity="0" stroke="inherit" stroke-opacity="1" stroke-width="0" d=" M89.5790023803711,-42.92300033569336 C82.88200378417969,-37.3390007019043 75.97100067138672,-31.18600082397461 68.96199798583984,-24.420000076293945 C57.90999984741211,-13.751999855041504 48.32699966430664,-3.2119998931884766 40.06100082397461,6.770999908447266"></path><path fill="inherit" fill-opacity="1" d=" M89.5790023803711,-42.92300033569336 C82.88200378417969,-37.3390007019043 75.97100067138672,-31.18600082397461 68.96199798583984,-24.420000076293945 C57.90999984741211,-13.751999855041504 48.32699966430664,-3.2119998931884766 40.06100082397461,6.770999908447266"></path></g></g></g></symbol><filter id="__lottie_element_3437" filterUnits="objectBoundingBox" x="0%" y="0%" width="100%" height="100%"><feComponentTransfer in="SourceGraphic"><feFuncA type="table" tableValues="1.0 0.0"></feFuncA></feComponentTransfer></filter><mask id="__lottie_element_3431_2" mask-type="alpha"><g filter="url(#__lottie_element_3437)"><rect width="500" height="500" x="0" y="0" fill="#ffffff" opacity="0"></rect><use xlink:href="#__lottie_element_3431"></use></g></mask><filter id="__lottie_element_3438" filterUnits="objectBoundingBox" x="0%" y="0%" width="100%" height="100%"><feComponentTransfer in="SourceGraphic"><feFuncA type="table" tableValues="1.0 0.0"></feFuncA></feComponentTransfer></filter><mask id="__lottie_element_3420_2" mask-type="alpha"><g filter="url(#__lottie_element_3438)"><rect width="500" height="500" x="0" y="0" fill="#ffffff" opacity="0"></rect><use xlink:href="#__lottie_element_3420"></use></g></mask><filter id="__lottie_element_3439" filterUnits="objectBoundingBox" x="0%" y="0%" width="100%" height="100%"><feComponentTransfer in="SourceGraphic"><feFuncA type="table" tableValues="1.0 0.0"></feFuncA></feComponentTransfer></filter><mask id="__lottie_element_3410_2" mask-type="alpha"><g filter="url(#__lottie_element_3439)"><rect width="500" height="500" x="0" y="0" fill="#ffffff" opacity="0"></rect><use xlink:href="#__lottie_element_3410"></use></g></mask><filter id="__lottie_element_3440" filterUnits="objectBoundingBox" x="0%" y="0%" width="100%" height="100%"><feComponentTransfer in="SourceGraphic"><feFuncA type="table" tableValues="1.0 0.0"></feFuncA></feComponentTransfer></filter><mask id="__lottie_element_3400_2" mask-type="alpha"><g filter="url(#__lottie_element_3440)"><rect width="500" height="500" x="0" y="0" fill="#ffffff" opacity="0"></rect><use xlink:href="#__lottie_element_3400"></use></g></mask></defs><g clip-path="url(#__lottie_element_3390)"><g mask="url(#__lottie_element_3400_2)" style="display: block;"><g clip-path="url(#__lottie_element_3404)" transform="matrix(1,0,0,1,0,0)" opacity="1"><g mask="url(#__lottie_element_3410_2)" style="display: block;"><g clip-path="url(#__lottie_element_3414)" transform="matrix(1,0,0,1,0,0)" opacity="1"><g mask="url(#__lottie_element_3420_2)" style="display: block;"><g clip-path="url(#__lottie_element_3424)" transform="matrix(1,0,0,1,0,0)" opacity="1"><g mask="url(#__lottie_element_3431_2)" style="display: block;"><g transform="matrix(1,0,0,1,249.9990234375,250)" opacity="1"><g opacity="1" transform="matrix(1,0,0,1,0,0)"><path stroke-linecap="round" stroke-linejoin="round" fill-opacity="0" stroke="inherit" stroke-opacity="1" stroke-width="12.6" d=" M39.08599853515625,-81.6240005493164 C45,-43.665000915527344 34.27000045776367,-8.552000045776367 13.845999717712402,9.42300033569336 C-11.07800006866455,-1.4869999885559082 -31.981000900268555,-31.672000885009766 -37.89500045776367,-69.63099670410156 C-43.808998107910156,-107.59100341796875 -33.077999114990234,-142.70399475097656 -12.654000282287598,-160.6790008544922 C12.270000457763672,-149.7689971923828 33.172000885009766,-119.58399963378906 39.08599853515625,-81.6240005493164z"></path></g></g></g><g transform="matrix(1,0,0,1,250.00001525878906,250.00099182128906)" opacity="1" style="display: block;"><g opacity="1" transform="matrix(1,0,0,1,0,0)"><path stroke-linecap="round" stroke-linejoin="round" fill-opacity="0" stroke="inherit" stroke-opacity="1" stroke-width="12.6" d=" M117.33699798583984,-11.902000427246094 C89.00599670410156,18.059999465942383 52.15399932861328,32.025001525878906 23.47800064086914,26.50200080871582 C16.361000061035156,-1.8209999799728394 28.243999481201172,-39.39500045776367 56.57500076293945,-69.35700225830078 C84.90699768066406,-99.31900024414062 121.75900268554688,-113.28399658203125 150.43499755859375,-107.76100158691406 C157.55299377441406,-79.43800354003906 145.66900634765625,-41.86399841308594 117.33699798583984,-11.902000427246094z"></path></g><g opacity="1" transform="matrix(1,0,0,1,0,0)"><path stroke-linecap="round" stroke-linejoin="round" fill-opacity="0" stroke="inherit" stroke-opacity="1" stroke-width="12.6" d=" M89.5790023803711,-42.92300033569336 C82.88200378417969,-37.3390007019043 75.97100067138672,-31.18600082397461 68.96199798583984,-24.420000076293945 C57.90999984741211,-13.751999855041504 48.32699966430664,-3.2119998931884766 40.06100082397461,6.770999908447266"></path></g></g></g></g><g transform="matrix(1,0,0,1,250,250)" opacity="1" style="display: block;"><g opacity="1" transform="matrix(1,0,0,1,0,0)"><path stroke-linecap="round" stroke-linejoin="round" fill-opacity="0" stroke="inherit" stroke-opacity="1" stroke-width="12.6" d=" M-38.54499816894531,92.72899627685547 C-38.54499816894531,130.51199340820312 -7.915999889373779,161.14100646972656 29.867000579833984,161.14100646972656 C67.6500015258789,161.14100646972656 98.27799987792969,130.51199340820312 98.27799987792969,92.72899627685547 C98.27799987792969,54.94599914550781 67.6500015258789,24.31800079345703 29.867000579833984,24.31800079345703 C-7.915999889373779,24.31800079345703 -38.54499816894531,54.94599914550781 -38.54499816894531,92.72899627685547z"></path></g><g opacity="1" transform="matrix(1,0,0,1,0,0)"><path stroke-linecap="round" stroke-linejoin="round" fill-opacity="0" stroke="inherit" stroke-opacity="1" stroke-width="12.6" d=" M40.5890007019043,90.56400299072266 C40.5890007019043,90.56400299072266 34.68600082397461,96.73200225830078 34.68600082397461,96.73200225830078 C34.68600082397461,96.73200225830078 40.854000091552734,90.8280029296875 40.854000091552734,90.8280029296875 C40.854000091552734,90.8280029296875 47.020999908447266,96.73200225830078 47.020999908447266,96.73200225830078 C47.020999908447266,96.73200225830078 41.11800003051758,90.56400299072266 41.11800003051758,90.56400299072266 C41.11800003051758,90.56400299072266 47.020999908447266,84.39600372314453 47.020999908447266,84.39600372314453 C47.020999908447266,84.39600372314453 40.854000091552734,90.30000305175781 40.854000091552734,90.30000305175781 C40.854000091552734,90.30000305175781 34.68600082397461,84.39600372314453 34.68600082397461,84.39600372314453 C34.68600082397461,84.39600372314453 40.5890007019043,90.56400299072266 40.5890007019043,90.56400299072266z"></path></g></g></g></g><g transform="matrix(1,0,0,1,250,250)" opacity="1" style="display: block;"><g opacity="1" transform="matrix(1,0,0,1,0,0)"><path stroke-linecap="round" stroke-linejoin="round" fill-opacity="0" stroke="inherit" stroke-opacity="1" stroke-width="12.6" d=" M-95.14299774169922,-6.728000164031982 C-95.14299774169922,31.05500030517578 -64.51399993896484,61.68299865722656 -26.731000900268555,61.68299865722656 C11.052000045776367,61.68299865722656 41.68000030517578,31.05500030517578 41.68000030517578,-6.728000164031982 C41.68000030517578,-44.51100158691406 11.052000045776367,-75.13999938964844 -26.731000900268555,-75.13999938964844 C-64.51399993896484,-75.13999938964844 -95.14299774169922,-44.51100158691406 -95.14299774169922,-6.728000164031982z"></path></g><g opacity="1" transform="matrix(1,0,0,1,0,0)"><path stroke-linecap="round" stroke-linejoin="round" fill-opacity="0" stroke="inherit" stroke-opacity="1" stroke-width="12.6" d=" M-25.31599998474121,-32.4370002746582 C-25.31599998474121,-32.4370002746582 -31.219999313354492,-26.270000457763672 -31.219999313354492,-26.270000457763672 C-31.219999313354492,-26.270000457763672 -25.052000045776367,-32.17300033569336 -25.052000045776367,-32.17300033569336 C-25.052000045776367,-32.17300033569336 -18.884000778198242,-26.270000457763672 -18.884000778198242,-26.270000457763672 C-18.884000778198242,-26.270000457763672 -24.788000106811523,-32.4370002746582 -24.788000106811523,-32.4370002746582 C-24.788000106811523,-32.4370002746582 -18.884000778198242,-38.60499954223633 -18.884000778198242,-38.60499954223633 C-18.884000778198242,-38.60499954223633 -25.052000045776367,-32.70199966430664 -25.052000045776367,-32.70199966430664 C-25.052000045776367,-32.70199966430664 -31.219999313354492,-38.60499954223633 -31.219999313354492,-38.60499954223633 C-31.219999313354492,-38.60499954223633 -25.31599998474121,-32.4370002746582 -25.31599998474121,-32.4370002746582z"></path></g></g></g></g><g transform="matrix(1,0,0,1,250,250)" opacity="1" style="display: block;"><g opacity="1" transform="matrix(1,0,0,1,0,0)"><path stroke-linecap="round" stroke-linejoin="round" fill-opacity="0" stroke="inherit" stroke-opacity="1" stroke-width="12.6" d=" M-158.88299560546875,69.6510009765625 C-158.88299560546875,107.43399810791016 -128.2550048828125,138.06199645996094 -90.47200012207031,138.06199645996094 C-52.68899917602539,138.06199645996094 -22.059999465942383,107.43399810791016 -22.059999465942383,69.6510009765625 C-22.059999465942383,31.868000030517578 -52.68899917602539,1.2389999628067017 -90.47200012207031,1.2389999628067017 C-128.2550048828125,1.2389999628067017 -158.88299560546875,31.868000030517578 -158.88299560546875,69.6510009765625z"></path></g><g opacity="1" transform="matrix(1,0,0,1,0,0)"><path stroke-linecap="round" stroke-linejoin="round" fill-opacity="0" stroke="inherit" stroke-opacity="1" stroke-width="12.6" d=" M-98.46800231933594,67.13500213623047 C-98.46800231933594,67.13500213623047 -104.16300201416016,73.08499908447266 -104.16300201416016,73.08499908447266 C-104.16300201416016,73.08499908447266 -98.21299743652344,67.38999938964844 -98.21299743652344,67.38999938964844 C-98.21299743652344,67.38999938964844 -92.26300048828125,73.08499908447266 -92.26300048828125,73.08499908447266 C-92.26300048828125,73.08499908447266 -97.95800018310547,67.13500213623047 -97.95800018310547,67.13500213623047 C-97.95800018310547,67.13500213623047 -92.26300048828125,61.185001373291016 -92.26300048828125,61.185001373291016 C-92.26300048828125,61.185001373291016 -98.21299743652344,66.87999725341797 -98.21299743652344,66.87999725341797 C-98.21299743652344,66.87999725341797 -104.16300201416016,61.185001373291016 -104.16300201416016,61.185001373291016 C-104.16300201416016,61.185001373291016 -98.46800231933594,67.13500213623047 -98.46800231933594,67.13500213623047z"></path></g></g><g class="com" style="display: none;"><g><path></path></g><g><path></path></g><g><path></path></g><g><path></path></g><g><path></path></g><g><path></path></g><g><path></path></g><g><path></path></g><g><path></path></g><g><path></path></g><g><path></path></g><g><path></path></g></g></g></svg>