<svg xmlns="http://www.w3.org/2000/svg" xmlns:xlink="http://www.w3.org/1999/xlink" viewBox="0 0 500 500" width="500" height="500" preserveAspectRatio="xMidYMid meet" style="width: 100%; height: 100%; transform: translate3d(0px, 0px, 0px); content-visibility: visible;"><defs><clipPath id="__lottie_element_3442"><rect width="500" height="500" x="0" y="0"></rect></clipPath><symbol id="__lottie_element_3453"><g><g transform="matrix(1,0,0,1,250,250)" opacity="1" style="display: block;"><g opacity="1" transform="matrix(1,0,0,1,0,0)"><path fill="inherit" fill-opacity="1" d=" M76.4520034790039,1.5290000438690186 C71.25299835205078,-1.2230000495910645 65.61199951171875,-2.2839999198913574 60.1510009765625,-1.8609999418258667 C63.409000396728516,-14.916000366210938 57.518001556396484,-28.993000030517578 45.09299850463867,-35.57099914550781 C34.96500015258789,-40.93299865722656 23.158000946044922,-39.9010009765625 14.281999588012695,-33.904998779296875 C11.79699993133545,-40.50299835205078 6.99399995803833,-46.257999420166016 0.27300000190734863,-49.816001892089844 C-12.692000389099121,-56.68000030517578 -28.409000396728516,-53.06700134277344 -37.202999114990234,-41.96900177001953 C-39.9119987487793,-46.393001556396484 -43.801998138427734,-50.17399978637695 -48.71900177001953,-52.777000427246094 C-63.34299850463867,-60.51900100708008 -81.4729995727539,-54.941001892089844 -89.21499633789062,-40.31700134277344 C-96.75199890136719,-26.08099937438965 -91.66000366210938,-8.52400016784668 -77.89299774169922,-0.460999995470047 C-86.60900115966797,1.1330000162124634 -94.53700256347656,6.551000118255615 -99.00399780273438,14.98900032043457 C-106.74600219726562,29.613000869750977 -101.16699981689453,47.74300003051758 -86.54299926757812,55.48500061035156 C-85.48600006103516,56.04499816894531 -84.41000366210938,56.5260009765625 -83.3219985961914,56.948001861572266 C-87.0770034790039,59.58100128173828 -90.28700256347656,63.11199951171875 -92.58000183105469,67.44400024414062 C-96.83699798583984,75.48500061035156 -97.05899810791016,84.58499908447266 -93.97100067138672,92.43699645996094 C-105.38500213623047,91.69499969482422 -116.71199798583984,97.54900360107422 -122.41000366210938,108.31300354003906 C-130.15199279785156,122.93699645996094 -124.572998046875,141.06700134277344 -109.9489974975586,148.8090057373047 C-97.96700286865234,155.15199279785156 -83.63400268554688,152.54800415039062 -74.58699798583984,143.35699462890625 C-71.89099884033203,148.73399353027344 -67.56099700927734,153.3560028076172 -61.84000015258789,156.38499450683594 C-47.215999603271484,164.1269989013672 -29.086000442504883,158.54800415039062 -21.3439998626709,143.9239959716797 C-18.64900016784668,138.83399963378906 -17.572999954223633,133.32000732421875 -17.926000595092773,127.96600341796875 C-5.163000106811523,130.6790008544922 8.359999656677246,124.78099822998047 14.767999649047852,112.677001953125 C17.270999908447266,107.9489974975586 18.374000549316406,102.8550033569336 18.23699951171875,97.86299896240234 C31.488000869750977,101.5199966430664 45.96099853515625,95.64600372314453 52.659000396728516,82.99400329589844 C57.17499923706055,74.46399688720703 57.1510009765625,64.74400329589844 53.45100021362305,56.584999084472656 C66.97799682617188,60.854000091552734 82.03900146484375,55.00899887084961 88.91300201416016,42.025001525878906 C96.65499877929688,27.400999069213867 91.07599639892578,9.270999908447266 76.4520034790039,1.5290000438690186z"></path></g></g></g></symbol><filter id="__lottie_element_3459" filterUnits="objectBoundingBox" x="0%" y="0%" width="100%" height="100%"><feComponentTransfer in="SourceGraphic"><feFuncA type="table" tableValues="1.0 0.0"></feFuncA></feComponentTransfer></filter><mask id="__lottie_element_3453_2" mask-type="alpha"><g filter="url(#__lottie_element_3459)"><rect width="500" height="500" x="0" y="0" fill="#ffffff" opacity="0"></rect><use xlink:href="#__lottie_element_3453"></use></g></mask><symbol id="__lottie_element_3460"><g><g transform="matrix(1,0,0,1,250,250)" opacity="1" style="display: block;"><g opacity="1" transform="matrix(1,0,0,1,0,0)"><path fill="inherit" fill-opacity="1" d=" M76.4520034790039,1.5290000438690186 C71.25299835205078,-1.2230000495910645 65.61199951171875,-2.2839999198913574 60.1510009765625,-1.8609999418258667 C63.409000396728516,-14.916000366210938 57.518001556396484,-28.993000030517578 45.09299850463867,-35.57099914550781 C34.96500015258789,-40.93299865722656 23.158000946044922,-39.9010009765625 14.281999588012695,-33.904998779296875 C11.79699993133545,-40.50299835205078 6.99399995803833,-46.257999420166016 0.27300000190734863,-49.816001892089844 C-12.692000389099121,-56.68000030517578 -28.409000396728516,-53.06700134277344 -37.202999114990234,-41.96900177001953 C-39.9119987487793,-46.393001556396484 -43.801998138427734,-50.17399978637695 -48.71900177001953,-52.777000427246094 C-63.34299850463867,-60.51900100708008 -81.4729995727539,-54.941001892089844 -89.21499633789062,-40.31700134277344 C-96.75199890136719,-26.08099937438965 -91.66000366210938,-8.52400016784668 -77.89299774169922,-0.460999995470047 C-86.60900115966797,1.1330000162124634 -94.53700256347656,6.551000118255615 -99.00399780273438,14.98900032043457 C-106.74600219726562,29.613000869750977 -101.16699981689453,47.74300003051758 -86.54299926757812,55.48500061035156 C-85.48600006103516,56.04499816894531 -84.41000366210938,56.5260009765625 -83.3219985961914,56.948001861572266 C-87.0770034790039,59.58100128173828 -90.28700256347656,63.11199951171875 -92.58000183105469,67.44400024414062 C-96.83699798583984,75.48500061035156 -97.05899810791016,84.58499908447266 -93.97100067138672,92.43699645996094 C-105.38500213623047,91.69499969482422 -116.71199798583984,97.54900360107422 -122.41000366210938,108.31300354003906 C-130.15199279785156,122.93699645996094 -124.572998046875,141.06700134277344 -109.9489974975586,148.8090057373047 C-97.96700286865234,155.15199279785156 -83.63400268554688,152.54800415039062 -74.58699798583984,143.35699462890625 C-71.89099884033203,148.73399353027344 -67.56099700927734,153.3560028076172 -61.84000015258789,156.38499450683594 C-47.215999603271484,164.1269989013672 -29.086000442504883,158.54800415039062 -21.3439998626709,143.9239959716797 C-18.64900016784668,138.83399963378906 -17.572999954223633,133.32000732421875 -17.926000595092773,127.96600341796875 C-5.163000106811523,130.6790008544922 8.359999656677246,124.78099822998047 14.767999649047852,112.677001953125 C17.270999908447266,107.9489974975586 18.374000549316406,102.8550033569336 18.23699951171875,97.86299896240234 C31.488000869750977,101.5199966430664 45.96099853515625,95.64600372314453 52.659000396728516,82.99400329589844 C57.17499923706055,74.46399688720703 57.1510009765625,64.74400329589844 53.45100021362305,56.584999084472656 C66.97799682617188,60.854000091552734 82.03900146484375,55.00899887084961 88.91300201416016,42.025001525878906 C96.65499877929688,27.400999069213867 91.07599639892578,9.270999908447266 76.4520034790039,1.5290000438690186z"></path></g></g></g></symbol><filter id="__lottie_element_3466" filterUnits="objectBoundingBox" x="0%" y="0%" width="100%" height="100%"><feComponentTransfer in="SourceGraphic"><feFuncA type="table" tableValues="1.0 0.0"></feFuncA></feComponentTransfer></filter><mask id="__lottie_element_3460_2" mask-type="alpha"><g filter="url(#__lottie_element_3466)"><rect width="500" height="500" x="0" y="0" fill="#ffffff" opacity="0"></rect><use xlink:href="#__lottie_element_3460"></use></g></mask><symbol id="__lottie_element_3467"><g><g transform="matrix(1,0,0,1,250,250)" opacity="1" style="display: block;"><g opacity="1" transform="matrix(1,0,0,1,0,0)"><path fill="inherit" fill-opacity="1" d=" M76.4520034790039,1.5290000438690186 C71.25299835205078,-1.2230000495910645 65.61199951171875,-2.2839999198913574 60.1510009765625,-1.8609999418258667 C63.409000396728516,-14.916000366210938 57.518001556396484,-28.993000030517578 45.09299850463867,-35.57099914550781 C34.96500015258789,-40.93299865722656 23.158000946044922,-39.9010009765625 14.281999588012695,-33.904998779296875 C11.79699993133545,-40.50299835205078 6.99399995803833,-46.257999420166016 0.27300000190734863,-49.816001892089844 C-12.692000389099121,-56.68000030517578 -28.409000396728516,-53.06700134277344 -37.202999114990234,-41.96900177001953 C-39.9119987487793,-46.393001556396484 -43.801998138427734,-50.17399978637695 -48.71900177001953,-52.777000427246094 C-63.34299850463867,-60.51900100708008 -81.4729995727539,-54.941001892089844 -89.21499633789062,-40.31700134277344 C-96.75199890136719,-26.08099937438965 -91.66000366210938,-8.52400016784668 -77.89299774169922,-0.460999995470047 C-86.60900115966797,1.1330000162124634 -94.53700256347656,6.551000118255615 -99.00399780273438,14.98900032043457 C-106.74600219726562,29.613000869750977 -101.16699981689453,47.74300003051758 -86.54299926757812,55.48500061035156 C-85.48600006103516,56.04499816894531 -84.41000366210938,56.5260009765625 -83.3219985961914,56.948001861572266 C-87.0770034790039,59.58100128173828 -90.28700256347656,63.11199951171875 -92.58000183105469,67.44400024414062 C-96.83699798583984,75.48500061035156 -97.05899810791016,84.58499908447266 -93.97100067138672,92.43699645996094 C-105.38500213623047,91.69499969482422 -116.71199798583984,97.54900360107422 -122.41000366210938,108.31300354003906 C-130.15199279785156,122.93699645996094 -124.572998046875,141.06700134277344 -109.9489974975586,148.8090057373047 C-97.96700286865234,155.15199279785156 -83.63400268554688,152.54800415039062 -74.58699798583984,143.35699462890625 C-71.89099884033203,148.73399353027344 -67.56099700927734,153.3560028076172 -61.84000015258789,156.38499450683594 C-47.215999603271484,164.1269989013672 -29.086000442504883,158.54800415039062 -21.3439998626709,143.9239959716797 C-18.64900016784668,138.83399963378906 -17.572999954223633,133.32000732421875 -17.926000595092773,127.96600341796875 C-5.163000106811523,130.6790008544922 8.359999656677246,124.78099822998047 14.767999649047852,112.677001953125 C17.270999908447266,107.9489974975586 18.374000549316406,102.8550033569336 18.23699951171875,97.86299896240234 C31.488000869750977,101.5199966430664 45.96099853515625,95.64600372314453 52.659000396728516,82.99400329589844 C57.17499923706055,74.46399688720703 57.1510009765625,64.74400329589844 53.45100021362305,56.584999084472656 C66.97799682617188,60.854000091552734 82.03900146484375,55.00899887084961 88.91300201416016,42.025001525878906 C96.65499877929688,27.400999069213867 91.07599639892578,9.270999908447266 76.4520034790039,1.5290000438690186z"></path></g></g></g></symbol><filter id="__lottie_element_3473" filterUnits="objectBoundingBox" x="0%" y="0%" width="100%" height="100%"><feComponentTransfer in="SourceGraphic"><feFuncA type="table" tableValues="1.0 0.0"></feFuncA></feComponentTransfer></filter><mask id="__lottie_element_3467_2" mask-type="alpha"><g filter="url(#__lottie_element_3473)"><rect width="500" height="500" x="0" y="0" fill="#ffffff" opacity="0"></rect><use xlink:href="#__lottie_element_3467"></use></g></mask></defs><g clip-path="url(#__lottie_element_3442)"><g mask="url(#__lottie_element_3467_2)" style="display: block;"><g transform="matrix(1,0,0,1,250,250)" opacity="1"><g opacity="1" transform="matrix(1,0,0,1,0,0)"><path stroke-linecap="round" stroke-linejoin="round" fill-opacity="0" stroke="inherit" stroke-opacity="1" stroke-width="12.6" d=" M76.0510025024414,24.909000396728516 C89.95600128173828,12.406999588012695 106.4530029296875,-0.2840000092983246 125.8759994506836,-11.942999839782715 C133.875,-16.7450008392334 141.76800537109375,-21.010000228881836 149.4759979248047,-24.805999755859375 C127.95600128173828,-24.777999877929688 106.43499755859375,-24.750999450683594 84.91500091552734,-24.722999572753906 C95.52100372314453,-42.98500061035156 106.1259994506836,-61.24599838256836 116.7300033569336,-79.50800323486328 C93.52999877929688,-77.85399627685547 73.6510009765625,-67.45700073242188 57.29399871826172,-52.78099822998047 C49.63199996948242,-45.90599822998047 42.847999572753906,-38.020999908447266 36.04499816894531,-30.177000045776367 C31.440000534057617,-24.867000579833984 22.916000366210938,-18.606000900268555 24.851999282836914,-8.986000061035156 C28.759000778198242,10.423999786376953 73.26300048828125,24.07699966430664 76.0510025024414,24.909000396728516z"></path></g></g></g><g mask="url(#__lottie_element_3460_2)" style="display: block;"><g transform="matrix(1,0,0,1,250,249.99899291992188)" opacity="1"><g opacity="1" transform="matrix(1,0,0,1,0,0)"><path stroke-linecap="round" stroke-linejoin="round" fill-opacity="0" stroke="inherit" stroke-opacity="1" stroke-width="12.6" d=" M-76.32599639892578,-40.33700180053711 C-75.61399841308594,-59.02299880981445 -76.41600036621094,-79.8219985961914 -79.88200378417969,-102.20899963378906 C-81.30999755859375,-111.4280014038086 -83.08200073242188,-120.2229995727539 -85.09600067138672,-128.5749969482422 C-71.3489990234375,-112.01799774169922 -57.599998474121094,-95.46199798583984 -43.85300064086914,-78.90499877929688 C-36.604000091552734,-98.73999786376953 -29.354000091552734,-118.5739974975586 -22.104000091552734,-138.40699768066406 C-8.531999588012695,-119.51899719238281 -3.802999973297119,-97.58999633789062 -4.617000102996826,-75.62899780273438 C-4.998000144958496,-65.34200286865234 -6.7179999351501465,-55.082000732421875 -8.394000053405762,-44.83599853515625 C-9.529000282287598,-37.89899826049805 -8.88700008392334,-27.341999053955078 -17.518999099731445,-22.674999237060547 C-34.93600082397461,-13.258999824523926 -73.90299987792969,-38.72700119018555 -76.32599639892578,-40.33700180053711z"></path></g></g></g><g mask="url(#__lottie_element_3453_2)" style="display: block;"><g transform="matrix(1,0,0,1,250,250)" opacity="1"><g opacity="1" transform="matrix(1,0,0,1,0,0)"><path stroke-linecap="round" stroke-linejoin="round" fill-opacity="0" stroke="inherit" stroke-opacity="1" stroke-width="12.6" d=" M65.25599670410156,-175.0659942626953 C61.83399963378906,-168.88800048828125 49.2599983215332,-144.552001953125 59.03300094604492,-121.26799774169922 C62.60599899291992,-112.75499725341797 67.68699645996094,-103.38200378417969 77.64399719238281,-101.61799621582031 C85.16500091552734,-100.28600311279297 94.54299926757812,-103.2229995727539 98.63899993896484,-109.95500183105469 C105.20500183105469,-120.74500274658203 96.76799774169922,-134.15899658203125 85.68499755859375,-137.4969940185547 C61.91600036621094,-144.656005859375 42.667999267578125,-103.75800323486328 34.29399871826172,-87.28700256347656 C25.893999099731445,-70.76499938964844 14.664999961853027,-42.09199905395508 14.692000389099121,-1.4700000286102295"></path></g></g></g><g transform="matrix(1,0,0,1,250,250)" opacity="1" style="display: block;"><g opacity="1" transform="matrix(1,0,0,1,0,0)"><path stroke-linecap="round" stroke-linejoin="round" fill-opacity="0" stroke="inherit" stroke-opacity="1" stroke-width="12.6" d=" M-92.87000274658203,92.41999816894531 C-104.27999877929688,91.69000244140625 -115.5999984741211,97.55000305175781 -121.30000305175781,108.30999755859375 C-129.0399932861328,122.94000244140625 -123.45999908447266,141.07000732421875 -108.83999633789062,148.80999755859375 C-96.86000061035156,155.14999389648438 -82.5199966430664,152.5500030517578 -73.4800033569336,143.36000061035156"></path></g><g opacity="1" transform="matrix(1,0,0,1,0,0)"><path stroke-linecap="round" stroke-linejoin="round" fill-opacity="0" stroke="inherit" stroke-opacity="1" stroke-width="12.6" d=" M-40.5,100.5999984741211 C-40.90999984741211,100.5 -41.33000183105469,100.43000030517578 -41.7400016784668,100.36000061035156"></path></g><g opacity="1" transform="matrix(1,0,0,1,0,0)"><path stroke-linecap="round" stroke-linejoin="round" fill-opacity="0" stroke="inherit" stroke-opacity="1" stroke-width="12.6" d=" M-16.81999969482422,127.97000122070312 C-16.459999084472656,133.32000732421875 -17.540000915527344,138.8300018310547 -20.239999771118164,143.9199981689453 C-27.979999542236328,158.5500030517578 -46.11000061035156,164.1300048828125 -60.72999954223633,156.3800048828125 C-66.44999694824219,153.36000061035156 -70.79000091552734,148.74000549316406 -73.4800033569336,143.36000061035156 C-77.68000030517578,135 -77.9000015258789,124.79000091552734 -73.19000244140625,115.88999938964844 C-72.26000213623047,114.12999725341797 -71.18000030517578,112.51000213623047 -69.97000122070312,111.0199966430664 C-69.97000122070312,111.0199966430664 -69.95999908447266,111.0199966430664 -69.95999908447266,111.0199966430664"></path></g><g opacity="1" transform="matrix(1,0,0,1,0,0)"><path stroke-linecap="round" stroke-linejoin="round" fill-opacity="0" stroke="inherit" stroke-opacity="1" stroke-width="12.6" d=" M-76.79000091552734,-0.46000000834465027 C-90.55999755859375,-8.520000457763672 -95.6500015258789,-26.079999923706055 -88.11000061035156,-40.31999969482422 C-80.36000061035156,-54.939998626708984 -62.22999954223633,-60.52000045776367 -47.61000061035156,-52.779998779296875 C-42.70000076293945,-50.18000030517578 -38.79999923706055,-46.400001525878906 -36.09000015258789,-41.970001220703125"></path></g><g opacity="1" transform="matrix(1,0,0,1,0,0)"><path stroke-linecap="round" stroke-linejoin="round" fill-opacity="0" stroke="inherit" stroke-opacity="1" stroke-width="12.6" d=" M35.95000076293945,40.29999923706055 C37.77000045776367,40.849998474121094 39.56999969482422,41.58000183105469 41.310001373291016,42.5 C55.93000030517578,50.2400016784668 61.5099983215332,68.37000274658203 53.77000045776367,82.98999786376953 C47.08000183105469,95.63999938964844 32.599998474121094,101.52999877929688 19.350000381469727,97.87000274658203"></path></g><g opacity="1" transform="matrix(1,0,0,1,0,0)"><path stroke-linecap="round" stroke-linejoin="round" fill-opacity="0" stroke="inherit" stroke-opacity="1" stroke-width="12.6" d=" M61.2599983215332,-1.8700000047683716 C66.72000122070312,-2.2899999618530273 72.36000061035156,-1.2200000286102295 77.55999755859375,1.5299999713897705 C92.18000030517578,9.270000457763672 97.76000213623047,27.399999618530273 90.0199966430664,42.029998779296875 C83.1500015258789,55 68.0999984741211,60.86000061035156 54.58000183105469,56.599998474121094"></path></g><g opacity="1" transform="matrix(1,0,0,1,0,0)"><path stroke-linecap="round" stroke-linejoin="round" fill-opacity="0" stroke="inherit" stroke-opacity="1" stroke-width="12.6" d=" M36.27000045776367,40.40999984741211 C36.189998626708984,40.25 36.119998931884766,40.09000015258789 36.04999923706055,39.93000030517578 C36.060001373291016,39.91999816894531 36.04999923706055,39.91999816894531 36.04999923706055,39.91999816894531"></path></g><g opacity="1" transform="matrix(1,0,0,1,0,0)"><path stroke-linecap="round" stroke-linejoin="round" fill-opacity="0" stroke="inherit" stroke-opacity="1" stroke-width="12.6" d=" M-40.56999969482422,98.81999969482422 C-40.939998626708984,99.3499984741211 -41.33000183105469,99.86000061035156 -41.7400016784668,100.36000061035156 C-47.91999816894531,107.9800033569336 -57.400001525878906,111.9800033569336 -66.94000244140625,111.37000274658203 C-67.94999694824219,111.30000305175781 -68.94999694824219,111.19000244140625 -69.95999908447266,111.0199966430664 C-69.95999908447266,111.0199966430664 -69.97000122070312,111.0199966430664 -69.97000122070312,111.0199966430664 C-73.05000305175781,110.5 -76.08999633789062,109.4800033569336 -79.01000213623047,107.94000244140625 C-85.5999984741211,104.44999694824219 -90.3499984741211,98.8499984741211 -92.87000274658203,92.41999816894531 C-95.94999694824219,84.56999969482422 -95.72000122070312,75.4800033569336 -91.47000122070312,67.44000244140625 C-89.18000030517578,63.119998931884766 -85.9800033569336,59.58000183105469 -82.2300033569336,56.95000076293945"></path></g><g opacity="1" transform="matrix(1,0,0,1,0,0)"><path stroke-linecap="round" stroke-linejoin="round" fill-opacity="0" stroke="inherit" stroke-opacity="1" stroke-width="12.6" d=" M-43.02000045776367,38.58000183105469 C-43.540000915527344,40.08000183105469 -44.16999816894531,41.56999969482422 -44.939998626708984,43.02000045776367 C-52.68000030517578,57.650001525878906 -70.80999755859375,63.22999954223633 -85.44000244140625,55.4900016784668 C-100.05999755859375,47.7400016784668 -105.63999938964844,29.610000610351562 -97.9000015258789,14.989999771118164 C-90.37999725341797,0.800000011920929 -73.08999633789062,-4.869999885559082 -58.709999084472656,1.8799999952316284"></path></g><g opacity="1" transform="matrix(1,0,0,1,0,0)"><path stroke-linecap="round" stroke-linejoin="round" fill-opacity="0" stroke="inherit" stroke-opacity="1" stroke-width="12.6" d=" M-38.65999984741211,88.1500015258789 C-39.970001220703125,91.62999725341797 -40.59000015258789,95.25 -40.56999969482422,98.81999969482422 C-40.56999969482422,99.41000366210938 -40.540000915527344,100.01000213623047 -40.5,100.5999984741211 C-39.849998474121094,110.47000122070312 -34.31999969482422,119.80999755859375 -25.040000915527344,124.9000015258789 C-24.899999618530273,124.98999786376953 -24.760000228881836,125.05999755859375 -24.6200008392334,125.13999938964844 C-22.100000381469727,126.47000122070312 -19.479999542236328,127.41000366210938 -16.81999969482422,127.97000122070312 C-4.059999942779541,130.69000244140625 9.470000267028809,124.77999877929688 15.880000114440918,112.68000030517578 C18.3799991607666,107.94999694824219 19.489999771118164,102.86000061035156 19.350000381469727,97.87000274658203 C19.350000381469727,97.87000274658203 19.360000610351562,97.87000274658203 19.350000381469727,97.86000061035156 C19.06999969482422,87.41000366210938 13.3100004196167,77.41999816894531 3.4200000762939453,72.18000030517578 C2.0899999141693115,71.4800033569336 0.7300000190734863,70.88999938964844 -0.6399999856948853,70.4000015258789"></path></g><g opacity="1" transform="matrix(1,0,0,1,0,0)"><path stroke-linecap="round" stroke-linejoin="round" fill-opacity="0" stroke="inherit" stroke-opacity="1" stroke-width="12.6" d=" M-58.40999984741211,55.9900016784668 C-59.9900016784668,68.04000091552734 -54.09000015258789,80.3499984741211 -42.709999084472656,86.37000274658203 C-41.380001068115234,87.06999969482422 -40.029998779296875,87.66999816894531 -38.65999984741211,88.1500015258789 C-24.889999389648438,93.02999877929688 -9.260000228881836,87.20999908447266 -2.2200000286102295,73.91000366210938 C-1.6100000143051147,72.76000213623047 -1.0800000429153442,71.58999633789062 -0.6399999856948853,70.4000015258789 C0.4699999988079071,67.47000122070312 1.0800000429153442,64.44000244140625 1.2300000190734863,61.43000030517578"></path></g><g opacity="1" transform="matrix(1,0,0,1,0,0)"><path stroke-linecap="round" stroke-linejoin="round" fill-opacity="0" stroke="inherit" stroke-opacity="1" stroke-width="12.6" d=" M15.390000343322754,-33.900001525878906 C24.270000457763672,-39.900001525878906 36.06999969482422,-40.93000030517578 46.20000076293945,-35.56999969482422 C60.83000183105469,-27.829999923706055 66.4000015258789,-9.699999809265137 58.65999984741211,4.920000076293945 C53.7400016784668,14.220000267028809 44.630001068115234,19.860000610351562 34.88999938964844,20.75"></path></g><g opacity="1" transform="matrix(1,0,0,1,0,0)"><path stroke-linecap="round" stroke-linejoin="round" fill-opacity="0" stroke="inherit" stroke-opacity="1" stroke-width="12.6" d=" M-41.7400016784668,-16.25 C-43.41999816894531,-23.1200008392334 -42.68000030517578,-30.610000610351562 -39.11000061035156,-37.349998474121094 C-31.3700008392334,-51.97999954223633 -13.239999771118164,-57.560001373291016 1.3799999952316284,-49.81999969482422 C16,-42.06999969482422 21.579999923706055,-23.940000534057617 13.84000015258789,-9.319999694824219 C11.15999984741211,-4.260000228881836 7.239999771118164,-0.28999999165534973 2.6500000953674316,2.430000066757202"></path></g><g opacity="1" transform="matrix(1,0,0,1,0,0)"><path stroke-linecap="round" stroke-linejoin="round" fill-opacity="0" stroke="inherit" stroke-opacity="1" stroke-width="12.6" d=" M-1.4600000381469727,3.3499999046325684 C-3.609999895095825,-4.269999980926514 -8.75,-11.029999732971191 -16.299999237060547,-15.029999732971191 C-30.920000076293945,-22.770000457763672 -49.04999923706055,-17.190000534057617 -56.790000915527344,-2.569999933242798 C-64.52999877929688,12.0600004196167 -58.95000076293945,30.190000534057617 -44.33000183105469,37.93000030517578 C-37.09000015258789,41.7599983215332 -28.979999542236328,42.33000183105469 -21.700000762939453,40.150001525878906"></path></g><g opacity="1" transform="matrix(1,0,0,1,0,0)"><path stroke-linecap="round" stroke-linejoin="round" fill-opacity="0" stroke="inherit" stroke-opacity="1" stroke-width="12.6" d=" M-19.33300018310547,18.033000946044922 C-27.075000762939453,32.65700149536133 -21.496000289916992,50.7869987487793 -6.872000217437744,58.52899932861328 C7.751999855041504,66.27100372314453 25.881999969482422,60.69200134277344 33.624000549316406,46.06800079345703 C41.36600112915039,31.444000244140625 35.7869987487793,13.314000129699707 21.163000106811523,5.572000026702881 C6.539000034332275,-2.1700000762939453 -11.590999603271484,3.4089999198913574 -19.33300018310547,18.033000946044922z"></path></g></g><g class="com" style="display: none;"><g><path></path></g><g><path></path></g><g><path></path></g><g><path></path></g><g><path></path></g><g><path></path></g><g><path></path></g><g><path></path></g><g><path></path></g><g><path></path></g><g><path></path></g><g><path></path></g></g></g></svg>