<?xml version="1.0" encoding="utf-8"?>
<!-- Generator: Adobe Illustrator 25.0.1, SVG Export Plug-In . SVG Version: 6.00 Build 0)  -->
<svg version="1.1" id="Layer_1" xmlns="http://www.w3.org/2000/svg" xmlns:xlink="http://www.w3.org/1999/xlink" x="0px" y="0px"
	 viewBox="0 0 430 430" style="enable-background:new 0 0 430 430;" xml:space="preserve">
<path stroke="inherit" d="M247.3,240.4c-2.7,0-5.5-0.2-8.1-0.5c-2.3-0.3-4.3-1.9-5-4.1c-10.1-30.4,0.4-71,26.8-103.5
	c26.4-32.5,64-51.1,95.8-47.4c2.3,0.3,4.3,1.9,5,4.1c10.1,30.4-0.4,71-26.8,103.5C310.8,222.3,277.2,240.4,247.3,240.4z
	 M244.4,228.3c1,0,2,0.1,3,0.1c26.3,0,56.3-16.5,78.2-43.4c22.8-28,32.6-62.2,25.8-88.4c-27-1.3-58.5,15.3-81.3,43.4
	C247.5,167.9,237.6,202.2,244.4,228.3z"/>
<path stroke="inherit" d="M158.5,262.2c-19.2,0-40.6-8-58.6-22.7c-24.1-19.6-37.9-47.6-35.2-71.4c0.3-2.3,1.9-4.3,4.1-5
	c22.7-7.6,53,0.2,77.1,19.8c0,0,0,0,0,0c24.1,19.6,37.9,47.6,35.2,71.4c-0.3,2.3-1.9,4.3-4.1,5C171.3,261.2,165,262.2,158.5,262.2z
	 M76.4,173.4c-0.4,19,11.5,40.8,31.1,56.8c19.7,16,43.5,23.1,62,18.8c0.4-19-11.5-40.8-31.1-56.8S94.9,169.1,76.4,173.4z"/>
<path stroke="inherit" d="M206.3,345.5c-3,0-5.5-2.2-5.9-5.2c-0.7-5.1-1.2-11-1.2-17.7c-0.5-3.5-1.1-7-1.9-10.4
	c-10.8-47.7-48.2-77.3-69.5-90.7c-2.8-1.8-3.6-5.5-1.9-8.3c1.8-2.8,5.5-3.6,8.3-1.9c19.9,12.5,52.7,38.2,68.7,78.7
	c1.2-5,2.7-10.1,4.7-15.3c4.4-11.8,9.8-20.5,27.4-44.4c15.6-21.1,32.2-42.4,49.4-63.1c2.1-2.6,5.9-2.9,8.4-0.8
	c2.6,2.1,2.9,5.9,0.8,8.4c-17,20.5-33.5,41.6-48.9,62.6c-16.8,22.8-21.9,30.9-25.8,41.5c-5.8,15.7-7.7,30.5-7.7,42.8
	c0.8,5.8,1.1,11.7,1.1,17.7c0,3.2-2.4,5.8-5.6,6C206.6,345.5,206.4,345.5,206.3,345.5z"/>
</svg>
