<svg xmlns="http://www.w3.org/2000/svg" xmlns:xlink="http://www.w3.org/1999/xlink" viewBox="0 0 500 500" width="500" height="500" preserveAspectRatio="xMidYMid meet" style="width: 100%; height: 100%; transform: translate3d(0px, 0px, 0px); content-visibility: visible;"><defs><clipPath id="__lottie_element_3495"><rect width="500" height="500" x="0" y="0"></rect></clipPath><symbol id="__lottie_element_3512"><g><g clip-path="url(#__lottie_element_3513)" transform="matrix(1,0,0,1,0,-13)" opacity="1" style="display: block;"><g transform="matrix(1,0,0,1,250,250.00001525878906)" opacity="1" style="display: block;"><g opacity="1" transform="matrix(1,0,0,1,0,0)"></g></g><g transform="matrix(1,0,0,1,250,250.00001525878906)" opacity="1" style="display: block;"><g opacity="1" transform="matrix(1,0,0,1,0,0)"><path fill="inherit" fill-opacity="1" d=" M32.987998962402344,15.140999794006348 C29.75,17.77199935913086 25.9950008392334,19.834999084472656 22.27899932861328,21.695999145507812 C15.00100040435791,25.341999053955078 8.032999992370605,27.190000534057617 -0.004000000189989805,28.184999465942383 C0.12999999523162842,28.167999267578125 -0.14499999582767487,13.293999671936035 -0.13500000536441803,12.012999534606934 C-0.08500000089406967,5.925000190734863 0.27799999713897705,-0.4189999997615814 3.1019999980926514,-5.941999912261963 C6.620999813079834,-12.824000358581543 13.494999885559082,-17.489999771118164 20.115999221801758,-21.077999114990234 C30.198999404907227,-26.54199981689453 42.07500076293945,-28.35300064086914 53.16899871826172,-25.235000610351562 C53.36600112915039,-22.051000595092773 53.31700134277344,-17.475000381469727 52.03900146484375,-12.222999572753906 C48.435001373291016,2.5889999866485596 37.882999420166016,11.163000106811523 32.987998962402344,15.140999794006348z"></path></g></g><g transform="matrix(1,0,0,1,250,250.00001525878906)" opacity="1" style="display: block;"><g opacity="1" transform="matrix(1,0,0,1,0,0)"><path fill="inherit" fill-opacity="1" d=" M-32.987998962402344,15.043000221252441 C-29.75,17.673999786376953 -25.9950008392334,19.73699951171875 -22.27899932861328,21.597999572753906 C-15.00100040435791,25.243999481201172 -8.032999992370605,27.090999603271484 0.004000000189989805,28.086000442504883 C-0.12999999523162842,28.069000244140625 0.14499999582767487,13.196000099182129 0.13500000536441803,11.914999961853027 C0.08500000089406967,5.827000141143799 -0.27799999713897705,-0.5180000066757202 -3.1019999980926514,-6.040999889373779 C-6.620999813079834,-12.92300033569336 -13.494999885559082,-17.589000701904297 -20.115999221801758,-21.177000045776367 C-30.198999404907227,-26.641000747680664 -42.07500076293945,-28.451000213623047 -53.16899871826172,-25.33300018310547 C-53.36600112915039,-22.14900016784668 -53.31700134277344,-17.572999954223633 -52.03900146484375,-12.321000099182129 C-48.435001373291016,2.490999937057495 -37.882999420166016,11.0649995803833 -32.987998962402344,15.043000221252441z"></path></g></g></g></g></symbol><clipPath id="__lottie_element_3513"><path d="M0,0 L500,0 L500,500 L0,500z"></path></clipPath><symbol id="__lottie_element_3531"><g><g clip-path="url(#__lottie_element_3532)" transform="matrix(1,0,0,1,0,-13)" opacity="1" style="display: block;"><g transform="matrix(1,0,0,1,250,250.00001525878906)" opacity="0" style="display: block;"><g opacity="1" transform="matrix(1,0,0,1,0,0)"></g></g><g transform="matrix(1,0,0,1,250,250.00001525878906)" opacity="1" style="display: block;"><g opacity="1" transform="matrix(1,0,0,1,0,0)"><path fill="inherit" fill-opacity="1" d=" M32.856998443603516,-11.484000205993652 C29.618999481201172,-8.852999687194824 25.86400032043457,-6.789999961853027 22.148000717163086,-4.928999900817871 C14.869999885559082,-1.2829999923706055 7.9019999504089355,0.5649999976158142 -0.13500000536441803,1.559999942779541 C-0.0010000000474974513,1.5429999828338623 -0.2759999930858612,-13.331000328063965 -0.26600000262260437,-14.612000465393066 C-0.2160000056028366,-20.700000762939453 0.1459999978542328,-27.04400062561035 2.9700000286102295,-32.56700134277344 C6.488999843597412,-39.44900131225586 13.36400032043457,-44.11600112915039 19.985000610351562,-47.70399856567383 C30.06800079345703,-53.167999267578125 41.94300079345703,-54.97800064086914 53.0369987487793,-51.86000061035156 C53.23400115966797,-48.67599868774414 53.18600082397461,-44.099998474121094 51.90800094604492,-38.847999572753906 C48.30400085449219,-24.035999298095703 37.75199890136719,-15.461999893188477 32.856998443603516,-11.484000205993652z"></path></g></g><g transform="matrix(1,0,0,1,250,250.00001525878906)" opacity="1" style="display: block;"><g opacity="1" transform="matrix(1,0,0,1,0,0)"><path fill="inherit" fill-opacity="1" d=" M-32.82400131225586,-11.484000205993652 C-29.586000442504883,-8.852999687194824 -25.83099937438965,-6.789999961853027 -22.114999771118164,-4.928999900817871 C-14.836999893188477,-1.2829999923706055 -7.86899995803833,0.5649999976158142 0.1679999977350235,1.559999942779541 C0.03400000184774399,1.5429999828338623 0.3089999854564667,-13.331000328063965 0.29899999499320984,-14.612000465393066 C0.24899999797344208,-20.700000762939453 -0.11400000005960464,-27.04400062561035 -2.937999963760376,-32.56700134277344 C-6.456999778747559,-39.44900131225586 -13.331000328063965,-44.11600112915039 -19.95199966430664,-47.70399856567383 C-30.03499984741211,-53.167999267578125 -41.9109992980957,-54.97800064086914 -53.005001068115234,-51.86000061035156 C-53.20199966430664,-48.67599868774414 -53.15299987792969,-44.099998474121094 -51.875,-38.847999572753906 C-48.270999908447266,-24.035999298095703 -37.71900177001953,-15.461999893188477 -32.82400131225586,-11.484000205993652z"></path></g></g></g></g></symbol><clipPath id="__lottie_element_3532"><path d="M0,0 L500,0 L500,500 L0,500z"></path></clipPath><symbol id="__lottie_element_3550"><g><g clip-path="url(#__lottie_element_3551)" transform="matrix(1,0,0,1,0,-13)" opacity="1" style="display: block;"><g transform="matrix(1,0,0,1,250,250.00001525878906)" opacity="1" style="display: block;"><g opacity="1" transform="matrix(1,0,0,1,0,0)"></g></g><g transform="matrix(1,0,0,1,250,250.00001525878906)" opacity="1" style="display: block;"><g opacity="1" transform="matrix(1,0,0,1,0,0)"><path fill="inherit" fill-opacity="1" d=" M32.987998962402344,15.140999794006348 C29.75,17.77199935913086 25.9950008392334,19.834999084472656 22.27899932861328,21.695999145507812 C15.00100040435791,25.341999053955078 8.032999992370605,27.190000534057617 -0.004000000189989805,28.184999465942383 C0.12999999523162842,28.167999267578125 -0.14499999582767487,13.293999671936035 -0.13500000536441803,12.012999534606934 C-0.08500000089406967,5.925000190734863 0.27799999713897705,-0.4189999997615814 3.1019999980926514,-5.941999912261963 C6.620999813079834,-12.824000358581543 13.494999885559082,-17.489999771118164 20.115999221801758,-21.077999114990234 C30.198999404907227,-26.54199981689453 42.07500076293945,-28.35300064086914 53.16899871826172,-25.235000610351562 C53.36600112915039,-22.051000595092773 53.31700134277344,-17.475000381469727 52.03900146484375,-12.222999572753906 C48.435001373291016,2.5889999866485596 37.882999420166016,11.163000106811523 32.987998962402344,15.140999794006348z"></path></g></g><g transform="matrix(1,0,0,1,250,250.00001525878906)" opacity="1" style="display: block;"><g opacity="1" transform="matrix(1,0,0,1,0,0)"><path fill="inherit" fill-opacity="1" d=" M-32.987998962402344,15.043000221252441 C-29.75,17.673999786376953 -25.9950008392334,19.73699951171875 -22.27899932861328,21.597999572753906 C-15.00100040435791,25.243999481201172 -8.032999992370605,27.090999603271484 0.004000000189989805,28.086000442504883 C-0.12999999523162842,28.069000244140625 0.14499999582767487,13.196000099182129 0.13500000536441803,11.914999961853027 C0.08500000089406967,5.827000141143799 -0.27799999713897705,-0.5180000066757202 -3.1019999980926514,-6.040999889373779 C-6.620999813079834,-12.92300033569336 -13.494999885559082,-17.589000701904297 -20.115999221801758,-21.177000045776367 C-30.198999404907227,-26.641000747680664 -42.07500076293945,-28.451000213623047 -53.16899871826172,-25.33300018310547 C-53.36600112915039,-22.14900016784668 -53.31700134277344,-17.572999954223633 -52.03900146484375,-12.321000099182129 C-48.435001373291016,2.490999937057495 -37.882999420166016,11.0649995803833 -32.987998962402344,15.043000221252441z"></path></g></g></g></g></symbol><clipPath id="__lottie_element_3551"><path d="M0,0 L500,0 L500,500 L0,500z"></path></clipPath><symbol id="__lottie_element_3571"><g><g clip-path="url(#__lottie_element_3572)" transform="matrix(1,0,0,1,0,-13)" opacity="1" style="display: block;"><g transform="matrix(1,0,0,1,250,250.00001525878906)" opacity="0" style="display: block;"><g opacity="1" transform="matrix(1,0,0,1,0,0)"></g></g><g transform="matrix(1,0,0,1,250,250.00001525878906)" opacity="1" style="display: block;"><g opacity="1" transform="matrix(1,0,0,1,0,0)"><path fill="inherit" fill-opacity="1" d=" M32.856998443603516,41.89699935913086 C29.618999481201172,44.52799987792969 25.86400032043457,46.59199905395508 22.148000717163086,48.452999114990234 C14.869999885559082,52.0989990234375 7.9019999504089355,53.94599914550781 -0.13500000536441803,54.941001892089844 C-0.0010000000474974513,54.92399978637695 -0.2759999930858612,40.04999923706055 -0.26600000262260437,38.76900100708008 C-0.2160000056028366,32.680999755859375 0.1459999978542328,26.336999893188477 2.9700000286102295,20.81399917602539 C6.488999843597412,13.932000160217285 13.36400032043457,9.265999794006348 19.985000610351562,5.677999973297119 C30.06800079345703,0.21400000154972076 41.94300079345703,-1.5959999561309814 53.0369987487793,1.5219999551773071 C53.23400115966797,4.705999851226807 53.18600082397461,9.281000137329102 51.90800094604492,14.532999992370605 C48.30400085449219,29.344999313354492 37.75199890136719,37.91899871826172 32.856998443603516,41.89699935913086z"></path></g></g><g transform="matrix(1,0,0,1,250,250.00001525878906)" opacity="1" style="display: block;"><g opacity="1" transform="matrix(1,0,0,1,0,0)"><path fill="inherit" fill-opacity="1" d=" M-32.82400131225586,41.89699935913086 C-29.586000442504883,44.52799987792969 -25.83099937438965,46.59199905395508 -22.114999771118164,48.452999114990234 C-18.878999710083008,50.07400131225586 -16.239999771118164,51.04600143432617 -15.119000434875488,51.45199966430664 C-11.555000305175781,52.74300003051758 -6.460000038146973,54.23099899291992 -0.06400000303983688,54.9640007019043 C0.04899999871850014,49.645999908447266 0.08500000089406967,44.21200180053711 0.03400000184774399,38.66699981689453 C0.009999999776482582,36.095001220703125 -0.03099999949336052,33.54800033569336 -0.09000000357627869,31.025999069213867 C-0.3179999887943268,28.52899932861328 -0.9610000252723694,24.805999755859375 -2.937999963760376,20.81399917602539 C-7.355000019073486,11.892000198364258 -15.383000373840332,8.154000282287598 -19.95199966430664,5.677999973297119 C-30.03499984741211,0.21400000154972076 -41.9109992980957,-1.5959999561309814 -53.005001068115234,1.5219999551773071 C-53.20199966430664,4.705999851226807 -53.15299987792969,9.281000137329102 -51.875,14.532999992370605 C-48.270999908447266,29.344999313354492 -37.71900177001953,37.91899871826172 -32.82400131225586,41.89699935913086z"></path></g></g></g></g></symbol><clipPath id="__lottie_element_3572"><path d="M0,0 L500,0 L500,500 L0,500z"></path></clipPath><filter id="__lottie_element_3587" filterUnits="objectBoundingBox" x="0%" y="0%" width="100%" height="100%"><feComponentTransfer in="SourceGraphic"><feFuncA type="table" tableValues="1.0 0.0"></feFuncA></feComponentTransfer></filter><mask id="__lottie_element_3571_2" mask-type="alpha"><g filter="url(#__lottie_element_3587)"><rect width="500" height="500" x="0" y="0" fill="#ffffff" opacity="0"></rect><use xlink:href="#__lottie_element_3571"></use></g></mask><symbol id="__lottie_element_3588"><g><g clip-path="url(#__lottie_element_3589)" transform="matrix(1,0,0,1,0,-13)" opacity="1" style="display: block;"><g transform="matrix(1,0,0,1,250,250.00001525878906)" opacity="0" style="display: block;"><g opacity="1" transform="matrix(1,0,0,1,0,0)"></g></g><g transform="matrix(1,0,0,1,250,250.00001525878906)" opacity="1" style="display: block;"><g opacity="1" transform="matrix(1,0,0,1,0,0)"><path fill="inherit" fill-opacity="1" d=" M32.856998443603516,41.89699935913086 C29.618999481201172,44.52799987792969 25.86400032043457,46.59199905395508 22.148000717163086,48.452999114990234 C14.869999885559082,52.0989990234375 7.9019999504089355,53.94599914550781 -0.13500000536441803,54.941001892089844 C-0.0010000000474974513,54.92399978637695 -0.2759999930858612,40.04999923706055 -0.26600000262260437,38.76900100708008 C-0.2160000056028366,32.680999755859375 0.1459999978542328,26.336999893188477 2.9700000286102295,20.81399917602539 C6.488999843597412,13.932000160217285 13.36400032043457,9.265999794006348 19.985000610351562,5.677999973297119 C30.06800079345703,0.21400000154972076 41.94300079345703,-1.5959999561309814 53.0369987487793,1.5219999551773071 C53.23400115966797,4.705999851226807 53.18600082397461,9.281000137329102 51.90800094604492,14.532999992370605 C48.30400085449219,29.344999313354492 37.75199890136719,37.91899871826172 32.856998443603516,41.89699935913086z"></path></g></g><g transform="matrix(1,0,0,1,250,250.00001525878906)" opacity="1" style="display: block;"><g opacity="1" transform="matrix(1,0,0,1,0,0)"><path fill="inherit" fill-opacity="1" d=" M-32.82400131225586,41.89699935913086 C-29.586000442504883,44.52799987792969 -25.83099937438965,46.59199905395508 -22.114999771118164,48.452999114990234 C-18.878999710083008,50.07400131225586 -16.239999771118164,51.04600143432617 -15.119000434875488,51.45199966430664 C-11.555000305175781,52.74300003051758 -6.460000038146973,54.23099899291992 -0.06400000303983688,54.9640007019043 C0.04899999871850014,49.645999908447266 0.08500000089406967,44.21200180053711 0.03400000184774399,38.66699981689453 C0.009999999776482582,36.095001220703125 -0.03099999949336052,33.54800033569336 -0.09000000357627869,31.025999069213867 C-0.3179999887943268,28.52899932861328 -0.9610000252723694,24.805999755859375 -2.937999963760376,20.81399917602539 C-7.355000019073486,11.892000198364258 -15.383000373840332,8.154000282287598 -19.95199966430664,5.677999973297119 C-30.03499984741211,0.21400000154972076 -41.9109992980957,-1.5959999561309814 -53.005001068115234,1.5219999551773071 C-53.20199966430664,4.705999851226807 -53.15299987792969,9.281000137329102 -51.875,14.532999992370605 C-48.270999908447266,29.344999313354492 -37.71900177001953,37.91899871826172 -32.82400131225586,41.89699935913086z"></path></g></g></g></g></symbol><clipPath id="__lottie_element_3589"><path d="M0,0 L500,0 L500,500 L0,500z"></path></clipPath><filter id="__lottie_element_3604" filterUnits="objectBoundingBox" x="0%" y="0%" width="100%" height="100%"><feComponentTransfer in="SourceGraphic"><feFuncA type="table" tableValues="1.0 0.0"></feFuncA></feComponentTransfer></filter><mask id="__lottie_element_3588_2" mask-type="alpha"><g filter="url(#__lottie_element_3604)"><rect width="500" height="500" x="0" y="0" fill="#ffffff" opacity="0"></rect><use xlink:href="#__lottie_element_3588"></use></g></mask><filter id="__lottie_element_3611" filterUnits="objectBoundingBox" x="0%" y="0%" width="100%" height="100%"><feComponentTransfer in="SourceGraphic"><feFuncA type="table" tableValues="1.0 0.0"></feFuncA></feComponentTransfer></filter><mask id="__lottie_element_3550_2" mask-type="alpha"><g filter="url(#__lottie_element_3611)"><rect width="500" height="500" x="0" y="0" fill="#ffffff" opacity="0"></rect><use xlink:href="#__lottie_element_3550"></use></g></mask><filter id="__lottie_element_3612" filterUnits="objectBoundingBox" x="0%" y="0%" width="100%" height="100%"><feComponentTransfer in="SourceGraphic"><feFuncA type="table" tableValues="1.0 0.0"></feFuncA></feComponentTransfer></filter><mask id="__lottie_element_3531_2" mask-type="alpha"><g filter="url(#__lottie_element_3612)"><rect width="500" height="500" x="0" y="0" fill="#ffffff" opacity="0"></rect><use xlink:href="#__lottie_element_3531"></use></g></mask><filter id="__lottie_element_3613" filterUnits="objectBoundingBox" x="0%" y="0%" width="100%" height="100%"><feComponentTransfer in="SourceGraphic"><feFuncA type="table" tableValues="1.0 0.0"></feFuncA></feComponentTransfer></filter><mask id="__lottie_element_3512_2" mask-type="alpha"><g filter="url(#__lottie_element_3613)"><rect width="500" height="500" x="0" y="0" fill="#ffffff" opacity="0"></rect><use xlink:href="#__lottie_element_3512"></use></g></mask></defs><g clip-path="url(#__lottie_element_3495)"><g transform="matrix(1,0,0,1,250,237)" opacity="1" style="display: block;"><g opacity="1" transform="matrix(1,0,0,1,0,0)"><path stroke-linecap="round" stroke-linejoin="round" fill-opacity="0" stroke="inherit" stroke-opacity="1" stroke-width="12.6" d=" M-0.052000001072883606,-22.552000045776367 C-0.052000001072883606,-22.552000045776367 -0.052000001072883606,121.26100158691406 -0.052000001072883606,121.26100158691406"></path></g></g><g mask="url(#__lottie_element_3531_2)" style="display: block;"><g transform="matrix(1,0,0,1,250,237)" opacity="1"><g opacity="1" transform="matrix(1,0,0,1,0,0)"><path stroke-linecap="round" stroke-linejoin="round" fill-opacity="0" stroke="inherit" stroke-opacity="1" stroke-width="12.6" d=" M17.969999313354492,-56.58300018310547 C17.969999313354492,-41.375999450683594 10.569000244140625,-28.29800033569336 -0.039000000804662704,-22.511999130249023 C-10.647000312805176,-28.29800033569336 -18.047000885009766,-41.375999450683594 -18.047000885009766,-56.58300018310547 C-18.047000885009766,-71.79000091552734 -10.647000312805176,-84.86900329589844 -0.039000000804662704,-90.65499877929688 C10.569000244140625,-84.86900329589844 17.969999313354492,-71.79000091552734 17.969999313354492,-56.58300018310547z"></path></g></g></g><g transform="matrix(1,0,0,1,250,237)" opacity="1" style="display: block;"><g opacity="1" transform="matrix(1,0,0,1,0,0)"><path stroke-linecap="round" stroke-linejoin="round" fill-opacity="0" stroke="inherit" stroke-opacity="1" stroke-width="12.6" d=" M-17.634000778198242,-50.41600036621094 C-17.9060001373291,-52.422000885009766 -18.047000885009766,-54.481998443603516 -18.047000885009766,-56.58300018310547 C-18.047000885009766,-71.79000091552734 -10.647000312805176,-84.86900329589844 -0.039000000804662704,-90.65499877929688 C10.569000244140625,-84.86900329589844 17.969999313354492,-71.79000091552734 17.969999313354492,-56.58300018310547 C17.969999313354492,-56.58300018310547 17.969999313354492,-56.58300018310547 17.969999313354492,-56.58300018310547 C17.969999313354492,-54.29100036621094 17.802000045776367,-52.04800033569336 17.479999542236328,-49.87099838256836"></path></g></g><g style="display: none;"><g><path stroke-linecap="round" stroke-linejoin="round" fill-opacity="0"></path></g></g><g mask="url(#__lottie_element_3512_2)" style="display: block;"><g transform="matrix(1,0,0,1,250,237)" opacity="1"><g opacity="1" transform="matrix(1,0,0,1,0,0)"><path stroke-linecap="round" stroke-linejoin="round" fill-opacity="0" stroke="inherit" stroke-opacity="1" stroke-width="12.6" d=" M32.856998443603516,-11.484000205993652 C29.618999481201172,-8.852999687194824 25.86400032043457,-6.789999961853027 22.148000717163086,-4.928999900817871 C14.869999885559082,-1.2829999923706055 7.9019999504089355,0.5649999976158142 -0.13500000536441803,1.559999942779541 C-0.0010000000474974513,1.5429999828338623 -0.2759999930858612,-13.331000328063965 -0.26600000262260437,-14.612000465393066 C-0.2160000056028366,-20.700000762939453 0.1459999978542328,-27.04400062561035 2.9700000286102295,-32.56700134277344 C6.488999843597412,-39.44900131225586 13.36400032043457,-44.11600112915039 19.985000610351562,-47.70399856567383 C30.06800079345703,-53.167999267578125 41.94300079345703,-54.97800064086914 53.0369987487793,-51.86000061035156 C53.23400115966797,-48.67599868774414 53.18600082397461,-44.099998474121094 51.90800094604492,-38.847999572753906 C48.30400085449219,-24.035999298095703 37.75199890136719,-15.461999893188477 32.856998443603516,-11.484000205993652z"></path></g></g></g><g mask="url(#__lottie_element_3550_2)" style="display: block;"><g transform="matrix(1,0,0,1,250,237)" opacity="1"><g opacity="1" transform="matrix(1,0,0,1,0,0)"><path stroke-linecap="round" stroke-linejoin="round" fill-opacity="0" stroke="inherit" stroke-opacity="1" stroke-width="12.6" d=" M-32.82400131225586,-11.484000205993652 C-29.586000442504883,-8.852999687194824 -25.83099937438965,-6.789999961853027 -22.114999771118164,-4.928999900817871 C-14.836999893188477,-1.2829999923706055 -7.86899995803833,0.5649999976158142 0.1679999977350235,1.559999942779541 C0.03400000184774399,1.5429999828338623 0.3089999854564667,-13.331000328063965 0.29899999499320984,-14.612000465393066 C0.24899999797344208,-20.700000762939453 -0.11400000005960464,-27.04400062561035 -2.937999963760376,-32.56700134277344 C-6.456999778747559,-39.44900131225586 -13.331000328063965,-44.11600112915039 -19.95199966430664,-47.70399856567383 C-30.03499984741211,-53.167999267578125 -41.9109992980957,-54.97800064086914 -53.005001068115234,-51.86000061035156 C-53.20199966430664,-48.67599868774414 -53.15299987792969,-44.099998474121094 -51.875,-38.847999572753906 C-48.270999908447266,-24.035999298095703 -37.71900177001953,-15.461999893188477 -32.82400131225586,-11.484000205993652z"></path></g></g></g><g mask="url(#__lottie_element_3588_2)" style="display: block;"><g transform="matrix(1,0,0,1,250,237)" opacity="1"><g opacity="1" transform="matrix(1,0,0,1,0,0)"><path stroke-linecap="round" stroke-linejoin="round" fill-opacity="0" stroke="inherit" stroke-opacity="1" stroke-width="12.6" d=" M32.987998962402344,15.140999794006348 C29.75,17.77199935913086 25.9950008392334,19.834999084472656 22.27899932861328,21.695999145507812 C15.00100040435791,25.341999053955078 8.032999992370605,27.190000534057617 -0.004000000189989805,28.184999465942383 C0.12999999523162842,28.167999267578125 -0.14499999582767487,13.293999671936035 -0.13500000536441803,12.012999534606934 C-0.08500000089406967,5.925000190734863 0.27799999713897705,-0.4189999997615814 3.1019999980926514,-5.941999912261963 C6.620999813079834,-12.824000358581543 13.494999885559082,-17.489999771118164 20.115999221801758,-21.077999114990234 C30.198999404907227,-26.54199981689453 42.07500076293945,-28.35300064086914 53.16899871826172,-25.235000610351562 C53.36600112915039,-22.051000595092773 53.31700134277344,-17.475000381469727 52.03900146484375,-12.222999572753906 C48.435001373291016,2.5889999866485596 37.882999420166016,11.163000106811523 32.987998962402344,15.140999794006348z"></path></g></g></g><g mask="url(#__lottie_element_3571_2)" style="display: block;"><g transform="matrix(1,0,0,1,250,237)" opacity="1"><g opacity="1" transform="matrix(1,0,0,1,0,0)"><path stroke-linecap="round" stroke-linejoin="round" fill-opacity="0" stroke="inherit" stroke-opacity="1" stroke-width="12.6" d=" M-32.987998962402344,15.043000221252441 C-29.75,17.673999786376953 -25.9950008392334,19.73699951171875 -22.27899932861328,21.597999572753906 C-15.00100040435791,25.243999481201172 -8.032999992370605,27.090999603271484 0.004000000189989805,28.086000442504883 C-0.12999999523162842,28.069000244140625 0.14499999582767487,13.196000099182129 0.13500000536441803,11.914999961853027 C0.08500000089406967,5.827000141143799 -0.27799999713897705,-0.5180000066757202 -3.1019999980926514,-6.040999889373779 C-6.620999813079834,-12.92300033569336 -13.494999885559082,-17.589000701904297 -20.115999221801758,-21.177000045776367 C-30.198999404907227,-26.641000747680664 -42.07500076293945,-28.451000213623047 -53.16899871826172,-25.33300018310547 C-53.36600112915039,-22.14900016784668 -53.31700134277344,-17.572999954223633 -52.03900146484375,-12.321000099182129 C-48.435001373291016,2.490999937057495 -37.882999420166016,11.0649995803833 -32.987998962402344,15.043000221252441z"></path></g></g></g><g transform="matrix(1,0,0,1,250,237)" opacity="1" style="display: block;"><g opacity="1" transform="matrix(1,0,0,1,0,0)"><path stroke-linecap="round" stroke-linejoin="round" fill-opacity="0" stroke="inherit" stroke-opacity="1" stroke-width="12.6" d=" M32.856998443603516,41.89699935913086 C29.618999481201172,44.52799987792969 25.86400032043457,46.59199905395508 22.148000717163086,48.452999114990234 C14.869999885559082,52.0989990234375 7.9019999504089355,53.94599914550781 -0.13500000536441803,54.941001892089844 C-0.0010000000474974513,54.92399978637695 -0.2759999930858612,40.04999923706055 -0.26600000262260437,38.76900100708008 C-0.2160000056028366,32.680999755859375 0.1459999978542328,26.336999893188477 2.9700000286102295,20.81399917602539 C6.488999843597412,13.932000160217285 13.36400032043457,9.265999794006348 19.985000610351562,5.677999973297119 C30.06800079345703,0.21400000154972076 41.94300079345703,-1.5959999561309814 53.0369987487793,1.5219999551773071 C53.23400115966797,4.705999851226807 53.18600082397461,9.281000137329102 51.90800094604492,14.532999992370605 C48.30400085449219,29.344999313354492 37.75199890136719,37.91899871826172 32.856998443603516,41.89699935913086z"></path></g></g><g transform="matrix(1,0,0,1,250,237)" opacity="1" style="display: block;"><g opacity="1" transform="matrix(1,0,0,1,0,0)"><path stroke-linecap="round" stroke-linejoin="round" fill-opacity="0" stroke="inherit" stroke-opacity="1" stroke-width="12.6" d=" M-32.82400131225586,41.89699935913086 C-29.586000442504883,44.52799987792969 -25.83099937438965,46.59199905395508 -22.114999771118164,48.452999114990234 C-18.878999710083008,50.07400131225586 -16.239999771118164,51.04600143432617 -15.119000434875488,51.45199966430664 C-11.555000305175781,52.74300003051758 -6.460000038146973,54.23099899291992 -0.06400000303983688,54.9640007019043 C0.04899999871850014,49.645999908447266 0.08500000089406967,44.21200180053711 0.03400000184774399,38.66699981689453 C0.009999999776482582,36.095001220703125 -0.03099999949336052,33.54800033569336 -0.09000000357627869,31.025999069213867 C-0.3179999887943268,28.52899932861328 -0.9610000252723694,24.805999755859375 -2.937999963760376,20.81399917602539 C-7.355000019073486,11.892000198364258 -15.383000373840332,8.154000282287598 -19.95199966430664,5.677999973297119 C-30.03499984741211,0.21400000154972076 -41.9109992980957,-1.5959999561309814 -53.005001068115234,1.5219999551773071 C-53.20199966430664,4.705999851226807 -53.15299987792969,9.281000137329102 -51.875,14.532999992370605 C-48.270999908447266,29.344999313354492 -37.71900177001953,37.91899871826172 -32.82400131225586,41.89699935913086z"></path></g></g><g transform="matrix(1,0,0,1,250,237)" opacity="1" style="display: block;"><g opacity="1" transform="matrix(1,0,0,1,0,0)"><path stroke-linecap="round" stroke-linejoin="round" fill-opacity="0" stroke="inherit" stroke-opacity="1" stroke-width="12.6" d=" M-53.00600051879883,-51.86199951171875 C-53.00600051879883,-51.86199951171875 -53.00600051879883,-89.20899963378906 -53.00600051879883,-89.20899963378906"></path></g></g><g transform="matrix(1,0,0,1,250,237)" opacity="1" style="display: block;"><g opacity="1" transform="matrix(1,0,0,1,0,0)"><path stroke-linecap="round" stroke-linejoin="round" fill-opacity="0" stroke="inherit" stroke-opacity="1" stroke-width="12.6" d=" M-0.024000000208616257,-90.63899993896484 C-0.024000000208616257,-90.63899993896484 -0.024000000208616257,-121.26100158691406 -0.024000000208616257,-121.26100158691406"></path></g></g><g transform="matrix(1,0,0,1,250,237)" opacity="1" style="display: block;"><g opacity="1" transform="matrix(1,0,0,1,0,0)"><path stroke-linecap="round" stroke-linejoin="round" fill-opacity="0" stroke="inherit" stroke-opacity="1" stroke-width="12.6" d=" M53.03799819946289,-51.86199951171875 C53.03799819946289,-51.86199951171875 53.03799819946289,-89.20899963378906 53.03799819946289,-89.20899963378906"></path></g></g><g transform="matrix(1,0,0,1,250,237)" opacity="1" style="display: block;"><g opacity="1" transform="matrix(1,0,0,1,0,0)"><path stroke-linecap="round" stroke-linejoin="round" fill-opacity="0" stroke="inherit" stroke-opacity="1" stroke-width="12.6" d=" M-113.1240005493164,-113.1240005493164 C-113.1240005493164,-113.1240005493164 113.1240005493164,113.1240005493164 113.1240005493164,113.1240005493164"></path></g><g opacity="1" transform="matrix(1,0,0,1,0,0)"><path stroke-linecap="round" stroke-linejoin="round" fill-opacity="0" stroke="inherit" stroke-opacity="1" stroke-width="12.6" d=" M-160.11900329589844,0 C-160.11900329589844,88.43099975585938 -88.43099975585938,160.11900329589844 0,160.11900329589844 C88.43099975585938,160.11900329589844 160.11900329589844,88.43099975585938 160.11900329589844,0 C160.11900329589844,-88.43099975585938 88.43099975585938,-160.11900329589844 0,-160.11900329589844 C-88.43099975585938,-160.11900329589844 -160.11900329589844,-88.43099975585938 -160.11900329589844,0z"></path></g></g><g class="com" style="display: none;"><g><path></path></g><g><path></path></g><g><path></path></g><g><path></path></g><g><path></path></g><g><path></path></g><g><path></path></g><g><path></path></g><g><path></path></g><g><path></path></g><g><path></path></g><g><path></path></g></g></g></svg>