<svg xmlns="http://www.w3.org/2000/svg" xmlns:xlink="http://www.w3.org/1999/xlink" viewBox="0 0 500 500" width="500" height="500" preserveAspectRatio="xMidYMid meet" style="width: 100%; height: 100%; transform: translate3d(0px, 0px, 0px); content-visibility: visible;"><defs><clipPath id="__lottie_element_3615"><rect width="500" height="500" x="0" y="0"></rect></clipPath></defs><g clip-path="url(#__lottie_element_3615)"><g transform="matrix(1,0,0,1,250.00099182128906,250)" opacity="1" style="display: block;"><g opacity="1" transform="matrix(1,0,0,1,0,0)"><path stroke-linecap="round" stroke-linejoin="round" fill-opacity="0" stroke="inherit" stroke-opacity="1" stroke-width="12.6" d=" M-132.2239990234375,-8.89799976348877 C-161.52499389648438,-41.36399841308594 -157.97300720214844,-92.33100128173828 -124.28399658203125,-122.73600006103516 C-90.5999984741211,-153.13600158691406 -39.5369987487793,-151.45899963378906 -10.236000061035156,-118.99299621582031 C-10.236000061035156,-118.99299621582031 -132.2239990234375,-8.89799976348877 -132.2239990234375,-8.89799976348877z"></path></g><g opacity="1" transform="matrix(1,0,0,1,0,0)"><path stroke-linecap="round" stroke-linejoin="round" fill-opacity="0" stroke="inherit" stroke-opacity="1" stroke-width="12.6" d=" M-110.60399627685547,-28.409000396728516 C-129.6649932861328,-49.529998779296875 -127.3550033569336,-82.68599700927734 -105.43900299072266,-102.46600341796875 C-83.5260009765625,-122.24199676513672 -50.30699920654297,-121.1520004272461 -31.246000289916992,-100.03099822998047 C-31.246000289916992,-100.03099822998047 -110.60399627685547,-28.409000396728516 -110.60399627685547,-28.409000396728516z"></path></g><g opacity="1" transform="matrix(1,0,0,1,0,0)"><path stroke-linecap="round" stroke-linejoin="round" fill-opacity="0" stroke="inherit" stroke-opacity="1" stroke-width="12.6" d=" M-105.44100189208984,-102.46499633789062 C-105.44100189208984,-102.46499633789062 -70.92500305175781,-64.22000122070312 -70.92500305175781,-64.22000122070312"></path></g><g opacity="1" transform="matrix(1,0,0,1,0,0)"><path stroke-linecap="round" stroke-linejoin="round" fill-opacity="0" stroke="inherit" stroke-opacity="1" stroke-width="12.6" d=" M-70.88300323486328,-64.25700378417969 C-70.88300323486328,-64.25700378417969 -70.19000244140625,-116.5979995727539 -70.19000244140625,-116.5979995727539"></path></g><g opacity="1" transform="matrix(1,0,0,1,0,0)"><path stroke-linecap="round" stroke-linejoin="round" fill-opacity="0" stroke="inherit" stroke-opacity="1" stroke-width="12.6" d=" M-123.10399627685547,-68.84300231933594 C-123.10399627685547,-68.84300231933594 -70.96600341796875,-64.18199920654297 -70.96600341796875,-64.18199920654297"></path></g></g><g transform="matrix(1,0,0,1,252,303.0009765625)" opacity="1" style="display: block;"><g opacity="1" transform="matrix(1,0,0,1,0,0)"><path stroke-linecap="round" stroke-linejoin="round" fill-opacity="0" stroke="inherit" stroke-opacity="1" stroke-width="12.6" d=" M71.0199966430664,-53.073001861572266 C6.340000152587891,-53.073001861572266 -32.900001525878906,-53.073001861572266 -76.0199966430664,-53.073001861572266"></path></g></g><g transform="matrix(1,0,0,1,250.0449981689453,249.52999877929688)" opacity="1" style="display: block;"><g opacity="1" transform="matrix(1,0,0,1,0,0)"><path stroke-linecap="round" stroke-linejoin="round" fill-opacity="0" stroke="inherit" stroke-opacity="1" stroke-width="12.6" d=" M-61.979000091552734,160.11900329589844 C-61.979000091552734,160.11900329589844 61.064998626708984,160.11900329589844 61.064998626708984,160.11900329589844 C61.064998626708984,160.11900329589844 79.19499969482422,-76.93000030517578 79.19499969482422,-76.93000030517578 C79.19499969482422,-76.93000030517578 -80.10800170898438,-76.93000030517578 -80.10800170898438,-76.93000030517578 C-80.10800170898438,-76.93000030517578 -61.979000091552734,160.11900329589844 -61.979000091552734,160.11900329589844z"></path></g></g><g transform="matrix(1,0,0,1,250,250)" opacity="1" style="display: block;"><g opacity="1" transform="matrix(1,0,0,1,0,0)"><path stroke-linecap="round" stroke-linejoin="round" fill-opacity="0" stroke="inherit" stroke-opacity="1" stroke-width="12.6" d=" M11.878000259399414,97.55599975585938 C16.825000762939453,16.343000411987305 21.77199935913086,-64.86900329589844 26.7189998626709,-146.08200073242188 C44.319000244140625,-153.281005859375 61.91899871826172,-160.47999572753906 79.51899719238281,-167.6790008544922"></path></g></g><g class="com" style="display: none;"><g><path></path></g><g><path></path></g><g><path></path></g><g><path></path></g><g><path></path></g><g><path></path></g><g><path></path></g><g><path></path></g><g><path></path></g><g><path></path></g><g><path></path></g><g><path></path></g></g></g></svg>