<svg xmlns="http://www.w3.org/2000/svg" xmlns:xlink="http://www.w3.org/1999/xlink" viewBox="0 0 500 500" width="500" height="500" preserveAspectRatio="xMidYMid meet" style="width: 100%; height: 100%; transform: translate3d(0px, 0px, 0px); content-visibility: visible;"><defs><clipPath id="__lottie_element_3635"><rect width="500" height="500" x="0" y="0"></rect></clipPath><symbol id="__lottie_element_3645"><g><g transform="matrix(1,0,0,1,250,250)" opacity="1" style="display: block;"><g opacity="1" transform="matrix(1,0,0,1,0,0)"><path fill="inherit" fill-opacity="1" d=" M186.80999755859375,89.58999633789062 C186.80999755859375,89.58999633789062 100.33999633789062,136.6199951171875 100.33999633789062,136.6199951171875 C100.33999633789062,136.6199951171875 -100.33999633789062,136.6199951171875 -100.33999633789062,136.6199951171875 C-100.33999633789062,136.6199951171875 -114.25,129.0500030517578 -114.25,129.0500030517578 C-114.25,129.0500030517578 -116.52999877929688,127.80999755859375 -116.52999877929688,127.80999755859375 C-116.52999877929688,127.80999755859375 -142.9199981689453,113.45999908447266 -142.9199981689453,113.45999908447266 C-142.9199981689453,113.45999908447266 -186.80999755859375,89.58999633789062 -186.80999755859375,89.58999633789062 C-186.80999755859375,89.58999633789062 186.80999755859375,89.58999633789062 186.80999755859375,89.58999633789062z"></path></g><g opacity="1" transform="matrix(1,0,0,1,0,0)"><path fill="inherit" fill-opacity="1" d=" M100.16999816894531,136.6199951171875 C100.16999816894531,136.6199951171875 100.16999816894531,166 100.16999816894531,166 C100.16999816894531,166 -100.16999816894531,166 -100.16999816894531,166 C-100.16999816894531,166 -100.16999816894531,136.6199951171875 -100.16999816894531,136.6199951171875 C-100.16999816894531,136.6199951171875 100.16999816894531,136.6199951171875 100.16999816894531,136.6199951171875z"></path></g></g></g></symbol><filter id="__lottie_element_3651" filterUnits="objectBoundingBox" x="0%" y="0%" width="100%" height="100%"><feComponentTransfer in="SourceGraphic"><feFuncA type="table" tableValues="1.0 0.0"></feFuncA></feComponentTransfer></filter><mask id="__lottie_element_3645_2" mask-type="alpha"><g filter="url(#__lottie_element_3651)"><rect width="500" height="500" x="0" y="0" fill="#ffffff" opacity="0"></rect><use xlink:href="#__lottie_element_3645"></use></g></mask></defs><g clip-path="url(#__lottie_element_3635)"><g transform="matrix(1,0,0,1,250,250)" opacity="1" style="display: block;"><g opacity="1" transform="matrix(1,0,0,1,0,0)"><path stroke-linecap="round" stroke-linejoin="round" fill-opacity="0" stroke="inherit" stroke-opacity="1" stroke-width="12.6" d=" M-65.7509994506836,-158.9770050048828 C-73.39299774169922,-158.89199829101562 -80.31999969482422,-144.7550048828125 -81.7509994506836,-132.8090057373047 C-83.2979965209961,-119.89199829101562 -78.93299865722656,-107.03500366210938 -79.97000122070312,-94.0459976196289 C-81.01799774169922,-80.927001953125 -85.02899932861328,-67.95999908447266 -91.81600189208984,-56"></path></g></g><g transform="matrix(1,0,0,1,250,250)" opacity="1" style="display: block;"><g opacity="1" transform="matrix(1,0,0,1,0,0)"><path stroke-linecap="round" stroke-linejoin="round" fill-opacity="0" stroke="inherit" stroke-opacity="1" stroke-width="12.6" d=" M142.57000732421875,-96.37799835205078 C141.69000244140625,-88.95800018310547 134.9600067138672,-83.64800262451172 127.54000091552734,-84.52799987792969 C127.54000091552734,-84.52799987792969 -19.739999771118164,-101.9280014038086 -19.739999771118164,-101.9280014038086 C-19.719999313354492,-102.03800201416016 -19.700000762939453,-102.14800262451172 -19.690000534057617,-102.25800323486328 C-19.690000534057617,-102.25800323486328 -16.549999237060547,-128.8179931640625 -16.549999237060547,-128.8179931640625 C-16.549999237060547,-128.8179931640625 130.7100067138672,-111.41799926757812 130.7100067138672,-111.41799926757812 C138.13999938964844,-110.53800201416016 143.4499969482422,-103.80799865722656 142.57000732421875,-96.37799835205078z"></path></g><g opacity="1" transform="matrix(1,0,0,1,0,0)"><path stroke-linecap="round" stroke-linejoin="round" fill-opacity="0" stroke="inherit" stroke-opacity="1" stroke-width="12.6" d=" M-98.5250015258789,-124.60700225830078 C-98.5250015258789,-124.60700225830078 -45.43000030517578,-118.33300018310547 -45.43000030517578,-118.33300018310547"></path></g><g opacity="1" transform="matrix(1,0,0,1,0,0)"><path stroke-linecap="round" stroke-linejoin="round" fill-opacity="0" stroke="inherit" stroke-opacity="1" stroke-width="12.6" d=" M-41.86800003051758,-145.8300018310547 C-41.86800003051758,-145.8300018310547 -48.141998291015625,-92.73500061035156 -48.141998291015625,-92.73500061035156"></path></g><g opacity="1" transform="matrix(1,0,0,1,0,0)"><path stroke-linecap="round" stroke-linejoin="round" fill-opacity="0" stroke="inherit" stroke-opacity="1" stroke-width="12.6" d=" M-95.37000274658203,-152.4980010986328 C-95.37000274658203,-152.4980010986328 -27.510000228881836,-144.47799682617188 -27.510000228881836,-144.47799682617188 C-20.530000686645508,-143.6580047607422 -15.550000190734863,-137.3280029296875 -16.3700008392334,-130.35800170898438 C-16.3700008392334,-130.35800170898438 -16.549999237060547,-128.8179931640625 -16.549999237060547,-128.8179931640625 C-16.549999237060547,-128.8179931640625 -19.690000534057617,-102.25800323486328 -19.690000534057617,-102.25800323486328 C-19.700000762939453,-102.14800262451172 -19.719999313354492,-102.03800201416016 -19.739999771118164,-101.9280014038086 C-20.719999313354492,-95.12799835205078 -26.950000762939453,-90.30799865722656 -33.810001373291016,-91.12799835205078 C-33.810001373291016,-91.12799835205078 -101.68000030517578,-99.14800262451172 -101.68000030517578,-99.14800262451172"></path></g></g><g transform="matrix(1,0,0,1,250,250)" opacity="1" style="display: block;"><g opacity="1" transform="matrix(1,0,0,1,0,0)"><path stroke-linecap="round" stroke-linejoin="round" fill-opacity="0" stroke="inherit" stroke-opacity="1" stroke-width="12.6" d=" M-77.24199676513672,36.67300033569336 C-77.83699798583984,10.088000297546387 -76.49400329589844,-17.11400032043457 -75,-26.656999588012695 C-67.33000183105469,-75.63999938964844 -51.75,-149.2209930419922 -64.14600372314453,-157.87100219726562"></path></g></g><g mask="url(#__lottie_element_3645_2)" style="display: block;"><g transform="matrix(1,0,0,1,250,250)" opacity="1"><g opacity="1" transform="matrix(1,0,0,1,0,0)"><g opacity="1" transform="matrix(1,0,0,1,0,0)"><path stroke-linecap="round" stroke-linejoin="round" fill-opacity="0" stroke="inherit" stroke-opacity="1" stroke-width="12.6" d=" M-73.33999633789062,37.08000183105469 C-65.05000305175781,4.829999923706055 -35.779998779296875,-19 -0.949999988079071,-19 C32.560001373291016,-19 60.91999816894531,3.049999952316284 70.4000015258789,33.439998626708984"></path></g><g opacity="1" transform="matrix(1,0,0,1,0,0)"><path stroke-linecap="round" stroke-linejoin="round" fill-opacity="0" stroke="inherit" stroke-opacity="1" stroke-width="12.6" d=" M-63.75,96.25 C-63.7599983215332,96.23999786376953 -63.7599983215332,96.23999786376953 -63.75,96.2300033569336"></path></g></g><g opacity="1" transform="matrix(1,0,0,1,0,0)"><path stroke-linecap="round" stroke-linejoin="round" fill-opacity="0" stroke="inherit" stroke-opacity="1" stroke-width="12.6" d=" M-46.16999816894531,69.6500015258789 C-46.16999816894531,69.6500015258789 -46.16999816894531,69.63999938964844 -46.16999816894531,69.63999938964844 C-46.16999816894531,69.63999938964844 -46.18000030517578,69.62000274658203 -46.18000030517578,69.62000274658203"></path></g><g opacity="1" transform="matrix(1,0,0,1,0,0)"><path stroke-linecap="round" stroke-linejoin="round" fill-opacity="0" stroke="inherit" stroke-opacity="1" stroke-width="12.6" d=" M44,40.959999084472656 C44,40.959999084472656 44,40.95000076293945 44,40.95000076293945 C43.2400016784668,38.599998474121094 42.290000915527344,36.349998474121094 41.16999816894531,34.18000030517578 C33.34000015258789,18.889999389648438 17.420000076293945,8.420000076293945 -0.949999988079071,8.420000076293945 C-20.15999984741211,8.420000076293945 -36.70000076293945,19.8799991607666 -44.11000061035156,36.34000015258789 C-44.790000915527344,37.86000061035156 -45.400001525878906,39.40999984741211 -45.91999816894531,41.0099983215332"></path></g><g opacity="1" transform="matrix(1,0,0,1,0,0)"><g opacity="1" transform="matrix(1,0,0,1,0,0)"><path stroke-linecap="round" stroke-linejoin="round" fill-opacity="0" stroke="inherit" stroke-opacity="1" stroke-width="12.6" d=" M50.20000076293945,44.529998779296875 C55.88999938964844,39.380001068115234 62.779998779296875,35.529998779296875 70.4000015258789,33.439998626708984 C74.61000061035156,32.290000915527344 79.04000091552734,31.670000076293945 83.62000274658203,31.670000076293945 C111.16000366210938,31.670000076293945 133.47999572753906,53.9900016784668 133.47999572753906,81.52999877929688 C133.47999572753906,109.06999969482422 111.16000366210938,131.39999389648438 83.62000274658203,131.39999389648438"></path></g><g opacity="1" transform="matrix(1,0,0,1,0,0)"><path stroke-linecap="round" stroke-linejoin="round" fill-opacity="0" stroke="inherit" stroke-opacity="1" stroke-width="12.6" d=" M70.0999984741211,63.279998779296875 C73.87999725341797,60.470001220703125 78.55000305175781,58.81999969482422 83.62000274658203,58.81999969482422 C96.16000366210938,58.81999969482422 106.33000183105469,68.98999786376953 106.33000183105469,81.52999877929688 C106.33000183105469,93.83999633789062 96.55000305175781,103.8499984741211 84.3499984741211,104.2300033569336"></path></g></g><g opacity="1" transform="matrix(1,0,0,1,0,0)"><g opacity="1" transform="matrix(1,0,0,1,0,0)"><path stroke-linecap="round" stroke-linejoin="round" fill-opacity="0" stroke="inherit" stroke-opacity="1" stroke-width="12.6" d=" M-33.540000915527344,46.65999984741211 C-30.739999771118164,44.63999938964844 -27.770000457763672,42.810001373291016 -24.649999618530273,41.18000030517578 C-21.030000686645508,39.290000915527344 -17.190000534057617,37.66999816894531 -13.180000305175781,36.36000061035156 C-12.989999771118164,36.290000915527344 -12.819999694824219,36.22999954223633 -12.630000114440918,36.18000030517578 C-12.630000114440918,36.18000030517578 -12.619999885559082,36.18000030517578 -12.619999885559082,36.18000030517578 C-11.869999885559082,35.939998626708984 -11.109999656677246,35.70000076293945 -10.359999656677246,35.4900016784668 C-10.350000381469727,35.47999954223633 -10.350000381469727,35.47999954223633 -10.34000015258789,35.47999954223633 C-10.329999923706055,35.47999954223633 -10.329999923706055,35.47999954223633 -10.319999694824219,35.47999954223633 C-4.059999942779541,33.720001220703125 2.259999990463257,32.810001373291016 8.5,32.68000030517578 C8.5,32.68000030517578 8.5,32.68000030517578 8.510000228881836,32.68000030517578 C14.619999885559082,32.560001373291016 20.649999618530273,33.20000076293945 26.489999771118164,34.54999923706055 C26.489999771118164,34.54999923706055 26.5,34.54999923706055 26.5,34.54999923706055 C26.5,34.54999923706055 26.510000228881836,34.54999923706055 26.510000228881836,34.54999923706055 C26.510000228881836,34.54999923706055 26.520000457763672,34.54999923706055 26.520000457763672,34.54999923706055 C32.619998931884766,35.939998626708984 38.470001220703125,38.099998474121094 44,40.95000076293945 C44,40.95000076293945 44,40.959999084472656 44,40.959999084472656 C45.2400016784668,41.59000015258789 46.470001220703125,42.27000045776367 47.68000030517578,42.97999954223633 C48.529998779296875,43.47999954223633 49.369998931884766,43.9900016784668 50.20000076293945,44.529998779296875 C51.5099983215332,45.369998931884766 52.79999923706055,46.25 54.060001373291016,47.18000030517578 C60.13999938964844,51.63999938964844 65.56999969482422,57.04999923706055 70.0999984741211,63.279998779296875 C70.6500015258789,64.02999877929688 71.18000030517578,64.79000091552734 71.69999694824219,65.55999755859375 C72.3499984741211,66.5199966430664 72.9800033569336,67.5 73.58000183105469,68.48999786376953 C76.48999786376953,73.29000091552734 78.88999938964844,78.48999786376953 80.70999908447266,84.05000305175781 C80.80000305175781,84.3499984741211 80.91000366210938,84.6500015258789 81,84.94999694824219 C82.98999786376953,91.36000061035156 84.08999633789062,97.83000183105469 84.3499984741211,104.2300033569336 C84.37999725341797,105.16000366210938 84.4000015258789,106.08000183105469 84.4000015258789,107.01000213623047 C84.41000366210938,109.66000366210938 84.2699966430664,112.30000305175781 84,114.9000015258789 C83.41999816894531,120.4000015258789 82.2300033569336,125.7699966430664 80.45999908447266,130.9600067138672 C80.45999908447266,130.9600067138672 80.45999908447266,130.97000122070312 80.45999908447266,130.97000122070312"></path></g><g opacity="1" transform="matrix(1,0,0,1,0,0)"><path stroke-linecap="round" stroke-linejoin="round" fill-opacity="0" stroke="inherit" stroke-opacity="1" stroke-width="12.6" d=" M-63.75,96.25 C-63.7599983215332,96.23999786376953 -63.7599983215332,96.23999786376953 -63.75,96.2300033569336"></path></g><g opacity="1" transform="matrix(1,0,0,1,0,0)"><path stroke-linecap="round" stroke-linejoin="round" fill-opacity="0" stroke="inherit" stroke-opacity="1" stroke-width="12.6" d=" M53.31999969482422,92.16000366210938 C51.04999923706055,85.22000122070312 47.34000015258789,79.16000366210938 42.61000061035156,74.20999908447266 C40.459999084472656,71.94999694824219 38.099998474121094,69.91999816894531 35.56999969482422,68.1500015258789 C23.799999237060547,59.869998931884766 8.40999984741211,57.040000915527344 -6.329999923706055,61.849998474121094 C-8.569999694824219,62.58000183105469 -10.710000038146973,63.459999084472656 -12.75,64.4800033569336"></path></g></g><g opacity="1" transform="matrix(1,0,0,1,0,0)"><g opacity="1" transform="matrix(1,0,0,1,0,0)"><path stroke-linecap="round" stroke-linejoin="round" fill-opacity="0" stroke="inherit" stroke-opacity="1" stroke-width="12.6" d=" M-142.91900634765625,110.25499725341797 C-142.91900634765625,104.01799774169922 -142.13800048828125,97.96499633789062 -140.67799377441406,92.18499755859375 C-140.44500732421875,91.2509994506836 -140.19200134277344,90.32599639892578 -139.91799926757812,89.4020004272461 C-131.5449981689453,61.11399841308594 -106.5989990234375,39.965999603271484 -76.35099792480469,37.29499816894531 C-75.40799713134766,37.20399856567383 -74.45500183105469,37.141998291015625 -73.49199676513672,37.090999603271484 C-73.49199676513672,37.090999603271484 -73.48200225830078,37.090999603271484 -73.48200225830078,37.090999603271484 C-72.26599884033203,37.029998779296875 -71.05000305175781,37 -69.822998046875,37 C-69.46800231933594,37 -69.1240005493164,37 -68.76899719238281,37.0099983215332 C-61.35900115966797,37.11199951171875 -54.233001708984375,38.31999969482422 -47.512001037597656,40.48400115966797 C-47.512001037597656,40.48400115966797 -47.50199890136719,40.48400115966797 -47.50199890136719,40.48400115966797 C-41.51100158691406,42.39400100708008 -35.8650016784668,45.07500076293945 -30.665000915527344,48.38600158691406 C-30.280000686645508,48.630001068115234 -29.895000457763672,48.874000549316406 -29.520000457763672,49.12799835205078 C-27.857999801635742,50.224998474121094 -26.2450008392334,51.393001556396484 -24.68400001525879,52.62200164794922 C-19.058000564575195,57.06100082397461 -14.090999603271484,62.301998138427734 -9.965999603271484,68.18299865722656 C-6.22599983215332,73.51599884033203 -3.184000015258789,79.36599731445312 -0.9639999866485596,85.61299896240234 C-0.5180000066757202,86.86199951171875 -0.10300000011920929,88.12200164794922 0.2720000147819519,89.4020004272461 C0.5460000038146973,90.31600189208984 0.8100000023841858,91.2509994506836 1.0429999828338623,92.18499755859375 C2.492000102996826,97.90399932861328 3.263000011444092,103.89600372314453 3.2829999923706055,110.0719985961914 C3.2829999923706055,110.0719985961914 3.2829999923706055,110.25499725341797 3.2829999923706055,110.25499725341797"></path></g><g opacity="1" transform="matrix(1,0,0,1,0,0)"><path stroke-linecap="round" stroke-linejoin="round" fill-opacity="0" stroke="inherit" stroke-opacity="1" stroke-width="12.6" d=" M-111.427001953125,89.58999633789062 C-111.10600280761719,88.91000366210938 -110.7760009765625,88.25 -110.4260025024414,87.58999633789062 C-103.38800048828125,74.22000122070312 -90.25499725341797,64.73999786376953 -74.85800170898438,63.06999969482422 C-74.46900177001953,63.029998779296875 -74.09100341796875,62.9900016784668 -73.7020034790039,62.959999084472656 C-73.14800262451172,62.91999816894531 -72.58399963378906,62.880001068115234 -72.0199966430664,62.86000061035156 C-71.3489990234375,62.83000183105469 -70.66899871826172,62.810001373291016 -69.98799896240234,62.810001373291016 C-62.941001892089844,62.810001373291016 -56.27199935913086,64.44000244140625 -50.30400085449219,67.3499984741211 C-41.46799850463867,71.66000366210938 -34.1870002746582,78.77999877929688 -29.549999237060547,87.58999633789062 C-29.200000762939453,88.25 -28.860000610351562,88.91000366210938 -28.548999786376953,89.58999633789062 C-25.632999420166016,95.80000305175781 -24,102.7699966430664 -24,110.12000274658203"></path></g></g></g></g><g transform="matrix(1,0,0,1,250,250)" opacity="1" style="display: block;"><g opacity="1" transform="matrix(1,0,0,1,0,0)"><path stroke-linecap="round" stroke-linejoin="round" fill-opacity="0" stroke="inherit" stroke-opacity="1" stroke-width="12.6" d=" M186.80999755859375,89.58999633789062 C186.80999755859375,89.58999633789062 100.33999633789062,136.6199951171875 100.33999633789062,136.6199951171875 C100.33999633789062,136.6199951171875 -100.33999633789062,136.6199951171875 -100.33999633789062,136.6199951171875 C-100.33999633789062,136.6199951171875 -114.25,129.0500030517578 -114.25,129.0500030517578 C-114.25,129.0500030517578 -116.52999877929688,127.80999755859375 -116.52999877929688,127.80999755859375 C-116.52999877929688,127.80999755859375 -142.9199981689453,113.45999908447266 -142.9199981689453,113.45999908447266 C-142.9199981689453,113.45999908447266 -186.80999755859375,89.58999633789062 -186.80999755859375,89.58999633789062 C-186.80999755859375,89.58999633789062 186.80999755859375,89.58999633789062 186.80999755859375,89.58999633789062z"></path></g><g opacity="1" transform="matrix(1,0,0,1,0,0)"><path stroke-linecap="round" stroke-linejoin="round" fill-opacity="0" stroke="inherit" stroke-opacity="1" stroke-width="12.6" d=" M100.16999816894531,136.6199951171875 C100.16999816894531,136.6199951171875 100.16999816894531,166 100.16999816894531,166 C100.16999816894531,166 -100.16999816894531,166 -100.16999816894531,166 C-100.16999816894531,166 -100.16999816894531,136.6199951171875 -100.16999816894531,136.6199951171875 C-100.16999816894531,136.6199951171875 100.16999816894531,136.6199951171875 100.16999816894531,136.6199951171875z"></path></g></g><g class="com" style="display: none;"><g><path></path></g><g><path></path></g><g><path></path></g><g><path></path></g><g><path></path></g><g><path></path></g><g><path></path></g><g><path></path></g><g><path></path></g><g><path></path></g><g><path></path></g><g><path></path></g></g></g></svg>