<svg xmlns="http://www.w3.org/2000/svg" xmlns:xlink="http://www.w3.org/1999/xlink" viewBox="0 0 500 500" width="500" height="500" preserveAspectRatio="xMidYMid meet" style="width: 100%; height: 100%; transform: translate3d(0px, 0px, 0px); content-visibility: visible;"><defs><clipPath id="__lottie_element_3662"><rect width="500" height="500" x="0" y="0"></rect></clipPath></defs><g clip-path="url(#__lottie_element_3662)"><g transform="matrix(1,0,0,1,249.7570037841797,249.60800170898438)" opacity="1" style="display: block;"><g opacity="1" transform="matrix(1,0,0,1,0,0)"><g opacity="1" transform="matrix(1,0,0,1,0,0)"><path stroke-linecap="round" stroke-linejoin="round" fill-opacity="0" stroke="inherit" stroke-opacity="1" stroke-width="12.6" d=" M-19.604000091552734,-44.071998596191406 C45.22700119018555,-72.48899841308594 114.69100189208984,-102.93699645996094 114.69100189208984,-102.93699645996094 C114.69100189208984,-102.93699645996094 114.69100189208984,-102.93699645996094 114.69100189208984,-102.93699645996094 C144.25,-35.500999450683594 113.54000091552734,43.12099838256836 46.104000091552734,72.68000030517578 C-21.332000732421875,102.23899841308594 -99.95099639892578,71.53800201416016 -129.50999450683594,4.1020002365112305 C-129.50999450683594,4.1020002365112305 -76.33000183105469,-19.20800018310547 -19.604000091552734,-44.071998596191406"></path></g><g opacity="1" transform="matrix(1,0,0,1,0,0)"><path stroke-linecap="round" stroke-linejoin="round" fill-opacity="0" stroke="inherit" stroke-opacity="1" stroke-width="12.6" d=" M143.69700622558594,-115.6510009765625 C180.2729949951172,-32.20500183105469 142.2729949951172,65.10600280761719 58.81800079345703,101.68599700927734 C-24.628000259399414,138.26199340820312 -121.94000244140625,100.26200103759766 -158.51600646972656,16.81599998474121 C-158.51600646972656,16.81599998474121 -129.50999450683594,4.1020002365112305 -129.50999450683594,4.1020002365112305 C-99.95099639892578,71.53800201416016 -21.332000732421875,102.23899841308594 46.104000091552734,72.68000030517578 C113.54000091552734,43.12099838256836 144.25,-35.500999450683594 114.69100189208984,-102.93699645996094 C114.69100189208984,-102.93699645996094 143.69700622558594,-115.6510009765625 143.69700622558594,-115.6510009765625z"></path></g></g><g opacity="1" transform="matrix(1,0,0,1,0,0)"><path stroke-linecap="round" stroke-linejoin="round" fill-opacity="0" stroke="inherit" stroke-opacity="1" stroke-width="12.6" d=" M-11.621999740600586,-47.56100082397461 C21.288000106811523,-61.986000061035156 56.54999923706055,-77.44200134277344 56.54999923706055,-77.44200134277344 C56.54999923706055,-77.44200134277344 56.54999923706055,-77.44200134277344 56.54999923706055,-77.44200134277344 C71.55500030517578,-43.209999084472656 55.96500015258789,-3.2990000247955322 21.732999801635742,11.706000328063965 C-12.49899959564209,26.711000442504883 -52.40800094604492,11.12600040435791 -67.41300201416016,-23.106000900268555 C-67.41300201416016,-23.106000900268555 -40.41699981689453,-34.93899917602539 -11.621999740600586,-47.56100082397461"></path></g><g opacity="1" transform="matrix(1,0,0,1,0,0)"><path stroke-linecap="round" stroke-linejoin="round" fill-opacity="0" stroke="inherit" stroke-opacity="1" stroke-width="12.6" d=" M11.003000259399414,-13.03600025177002 C11.135000228881836,-12.845000267028809 11.267999649047852,-12.652999877929688 11.399999618530273,-12.461999893188477"></path></g><g opacity="1" transform="matrix(1,0,0,1,0,0)"><g opacity="1" transform="matrix(1,0,0,1,0,0)"><path stroke-linecap="round" stroke-linejoin="round" fill-opacity="0" stroke="inherit" stroke-opacity="1" stroke-width="12.6" d=" M-20.27400016784668,-17.32200050354004 C-20.142000198364258,-17.131000518798828 -20.010000228881836,-16.940000534057617 -19.878000259399414,-16.749000549316406"></path></g><g opacity="1" transform="matrix(1,0,0,1,0,0)"><path stroke-linecap="round" stroke-linejoin="round" fill-opacity="0" stroke="inherit" stroke-opacity="1" stroke-width="12.6" d=" M28.832000732421875,-39.09000015258789 C28.964000701904297,-38.89899826049805 29.097000122070312,-38.707000732421875 29.229000091552734,-38.51599884033203"></path></g></g></g><g style="display: none;"><g><path stroke-linecap="round" stroke-linejoin="round" fill-opacity="0"></path></g></g><g class="com" style="display: none;"><g><path></path></g><g><path></path></g><g><path></path></g><g><path></path></g><g><path></path></g><g><path></path></g><g><path></path></g><g><path></path></g><g><path></path></g><g><path></path></g><g><path></path></g><g><path></path></g></g></g></svg>