<svg xmlns="http://www.w3.org/2000/svg" xmlns:xlink="http://www.w3.org/1999/xlink" viewBox="0 0 500 500" width="500" height="500" preserveAspectRatio="xMidYMid meet" style="width: 100%; height: 100%; transform: translate3d(0px, 0px, 0px); content-visibility: visible;"><defs><clipPath id="__lottie_element_3676"><rect width="500" height="500" x="0" y="0"></rect></clipPath></defs><g clip-path="url(#__lottie_element_3676)"><g transform="matrix(1,0,0,1,249.864990234375,250.36900329589844)" opacity="1" style="display: block;"><g opacity="1" transform="matrix(1,0,0,1,0,0)"><path stroke-linecap="round" stroke-linejoin="round" fill-opacity="0" stroke="inherit" stroke-opacity="1" stroke-width="12.6" d=" M-89.44999694824219,55.87099838256836 C-119.30000305175781,60.87099838256836 -149.14999389648438,65.87100219726562 -179,70.85099792480469 C-171.83999633789062,61.020999908447266 -164.6699981689453,51.191001892089844 -157.50999450683594,41.35100173950195 C-157.50999450683594,41.35100173950195 -179,11.85099983215332 -179,11.85099983215332 C-179,11.85099983215332 -157.50999450683594,-17.659000396728516 -157.50999450683594,-17.659000396728516 C-164.6699981689453,-27.48900032043457 -171.83999633789062,-37.32899856567383 -179,-47.159000396728516 C-149.5399932861328,-41.71900177001953 -120.08999633789062,-36.27899932861328 -90.62999725341797,-30.82900047302246"></path></g><g opacity="1" transform="matrix(1,0,0,1,0,0)"><path stroke-linecap="round" stroke-linejoin="round" fill-opacity="0" stroke="inherit" stroke-opacity="1" stroke-width="12.6" d=" M67.30999755859375,-30.958999633789062 C96.54000091552734,-36.35900115966797 125.7699966430664,-41.75899887084961 155,-47.159000396728516 C147.83999633789062,-37.32899856567383 140.6699981689453,-27.48900032043457 133.50999450683594,-17.659000396728516 C133.50999450683594,-17.659000396728516 155,11.85099983215332 155,11.85099983215332 C155,11.85099983215332 133.50999450683594,41.35100173950195 133.50999450683594,41.35100173950195 C140.6699981689453,51.191001892089844 147.83999633789062,61.020999908447266 155,70.85099792480469 C125.37999725341797,65.9010009765625 95.76000213623047,60.95100021362305 66.13999938964844,55.99100112915039"></path></g></g><g transform="matrix(1,0,0,1,249.864990234375,250.36900329589844)" opacity="1" style="display: block;"><g opacity="1" transform="matrix(1,0,0,1,0,0)"><path stroke-linecap="round" stroke-linejoin="round" fill-opacity="0" stroke="inherit" stroke-opacity="1" stroke-width="12.6" d=" M83.20600128173828,11.84000015258789 C83.20999908447266,12.652999877929688 83.1969985961914,13.467000007629395 83.16699981689453,14.281999588012695 C82.44200134277344,33.95500183105469 71.90699768066406,52.58300018310547 56.79999923706055,65.20600128173828 C41.69300079345703,77.8290023803711 22.381999969482422,84.7760009765625 2.8340001106262207,87.1050033569336 C-25.582000732421875,90.49099731445312 -55.72200012207031,83.99299621582031 -78.16300201416016,66.23500061035156 C-93.02899932861328,54.47100067138672 -104.35700225830078,37.4379997253418 -106.42500305175781,18.593000411987305 C-108.79000091552734,-2.9619998931884766 -98.61799621582031,-24.788999557495117 -82.52100372314453,-39.31800079345703 C-48.439998626708984,-70.08000183105469 9.34000015258789,-72.83300018310547 47.60300064086914,-48.38999938964844 C47.78799819946289,-48.27299880981445 47.97200012207031,-48.15399932861328 48.15599822998047,-48.034000396728516 C68.37100219726562,-34.90700149536133 83.09400177001953,-12.170000076293945 83.20600128173828,11.84000015258789z"></path></g><g opacity="1" transform="matrix(1,0,0,1,0,0)"><path stroke-linecap="round" stroke-linejoin="round" fill-opacity="0" stroke="inherit" stroke-opacity="1" stroke-width="12.6" d=" M-57.66600036621094,-55.17900085449219 C-48.38399887084961,-35.87300109863281 -39.8129997253418,-9.640999794006348 -41.1349983215332,21.479999542236328 C-42.10200119018555,44.25 -48.125999450683594,63.983001708984375 -55.12300109863281,79.82099914550781"></path></g><g opacity="1" transform="matrix(1,0,0,1,0,0)"><path stroke-linecap="round" stroke-linejoin="round" fill-opacity="0" stroke="inherit" stroke-opacity="1" stroke-width="12.6" d=" M15.666999816894531,-61.345001220703125 C25.67300033569336,-40.5 34.91299819946289,-12.178000450134277 33.487998962402344,21.42300033569336 C32.44499969482422,46.007999420166016 25.95199966430664,67.31500244140625 18.409000396728516,84.41500091552734"></path></g></g><g class="com" style="display: none;"><g><path></path></g><g><path></path></g><g><path></path></g><g><path></path></g><g><path></path></g><g><path></path></g><g><path></path></g><g><path></path></g><g><path></path></g><g><path></path></g><g><path></path></g><g><path></path></g></g></g></svg>