<svg xmlns="http://www.w3.org/2000/svg" xmlns:xlink="http://www.w3.org/1999/xlink" viewBox="0 0 500 500" width="500" height="500" preserveAspectRatio="xMidYMid meet" style="width: 100%; height: 100%; transform: translate3d(0px, 0px, 0px); content-visibility: visible;"><defs><clipPath id="__lottie_element_3690"><rect width="500" height="500" x="0" y="0"></rect></clipPath></defs><g clip-path="url(#__lottie_element_3690)"><g transform="matrix(1,0,0,1,250,249.875)" opacity="1" style="display: block;"><g opacity="1" transform="matrix(1,0,0,1,0,0)"><g opacity="1" transform="matrix(1,0,0,1,0,0)"><path stroke-linecap="round" stroke-linejoin="round" fill-opacity="0" stroke="inherit" stroke-opacity="1" stroke-width="12.6" d=" M0.08399999886751175,158.37600708007812 C-193.85299682617188,157.67999267578125 -241.5590057373047,-133.09100341796875 -69.17500305175781,-133.09100341796875 C-34.04199981689453,-133.09100341796875 1.7860000133514404,-121.31700134277344 23.142000198364258,-91.86299896240234 C23.3700008392334,-91.54100036621094 23.610000610351562,-91.22000122070312 23.827999114990234,-90.89800262451172 C36.00600051879883,-73.63300323486328 41.49800109863281,-52.29800033569336 37.428001403808594,-28.937999725341797 C35.24800109863281,-16.375999450683594 30.139999389648438,-5.442999839782715 23.204999923706055,4.035999774932861"></path></g><g opacity="1" transform="matrix(1,0,0,1,0,0)"><path stroke-linecap="round" stroke-linejoin="round" fill-opacity="0" stroke="inherit" stroke-opacity="1" stroke-width="12.6" d=" M0.13600000739097595,-16.304000854492188 C-11.616999626159668,-32.084999084472656 -9.592000007629395,-52.95100021362305 0.13600000739097595,-69.16799926757812"></path></g><g opacity="1" transform="matrix(1,0,0,1,0,0)"><path stroke-linecap="round" stroke-linejoin="round" fill-opacity="0" stroke="inherit" stroke-opacity="1" stroke-width="12.6" d=" M123.81700134277344,-15.57800006866455 C119.41600036621094,15.104000091552734 101.63099670410156,33.07500076293945 101.63099670410156,33.07500076293945 C101.63099670410156,33.07500076293945 55.62799835205078,22.79599952697754 23.204999923706055,4.035999774932861 C23.204999923706055,4.035999774932861 6.191999912261963,-6.750999927520752 0.13600000739097595,-16.301000595092773 M23.827999114990234,-90.89800262451172 C24.59600067138672,-91.24099731445312 25.36400032043457,-91.56199645996094 26.152999877929688,-91.86299896240234 C63.518001556396484,-106.09700012207031 112.4489974975586,-90.58599853515625 121.44999694824219,-55.2869987487793 C125.23400115966797,-40.441001892089844 125.47100067138672,-27.11199951171875 123.81700134277344,-15.57800006866455"></path></g><g opacity="1" transform="matrix(1,0,0,1,0,0)"><path stroke-linecap="round" stroke-linejoin="round" fill-opacity="0" stroke="inherit" stroke-opacity="1" stroke-width="12.6" d=" M0.13699999451637268,-16.30299949645996 C11.890000343322754,-32.08399963378906 9.86400032043457,-52.96200180053711 0.13600000739097595,-69.16799926757812 C-5.573999881744385,-78.6989974975586 -13.932000160217285,-86.62100219726562 -23.65999984741211,-90.94999694824219 C-24.386999130249023,-91.27200317382812 -25.12299919128418,-91.58300018310547 -25.871000289916992,-91.86299896240234 C-63.236000061035156,-106.09700012207031 -112.16799926757812,-90.58599853515625 -121.16899871826172,-55.2869987487793 C-135.0189971923828,-0.9470000267028809 -101.3489990234375,33.07500076293945 -101.3489990234375,33.07500076293945 C-101.3489990234375,33.07500076293945 -55.40800094604492,23.41900062561035 -22.964000701904297,4.171000003814697"></path></g><g opacity="1" transform="matrix(1,0,0,1,0,0)"><path stroke-linecap="round" stroke-linejoin="round" fill-opacity="0" stroke="inherit" stroke-opacity="1" stroke-width="12.6" d=" M0.12300000339746475,90.92900085449219 C-56.823001861572266,90.92900085449219 -77.12799835205078,61.7400016784668 -77.12799835205078,61.7400016784668 C-77.12799835205078,61.7400016784668 -35.527000427246094,53.63100051879883 -1.3279999494552612,29.66900062561035 C-0.5699999928474426,29.139999389648438 0.1770000010728836,28.59000015258789 0.9139999747276306,28.018999099731445"></path></g><g opacity="1" transform="matrix(1,0,0,1,0,0)"><path stroke-linecap="round" stroke-linejoin="round" fill-opacity="0" stroke="inherit" stroke-opacity="1" stroke-width="12.6" d=" M-22.961000442504883,4.171999931335449 C-15.901000022888184,13.473999977111816 -6.425000190734863,22.909000396728516 3.0230000019073486,29.542999267578125 C37.22200012207031,53.505001068115234 78.81900024414062,61.60599899291992 78.81900024414062,61.60599899291992 C78.81900024414062,61.60599899291992 57.082000732421875,90.927001953125 0.13600000739097595,90.927001953125"></path></g><g opacity="1" transform="matrix(1,0,0,1,0,0)"><path stroke-linecap="round" stroke-linejoin="round" fill-opacity="0" stroke="inherit" stroke-opacity="1" stroke-width="12.6" d=" M173.66000366210938,3.138000011444092 C162.48199462890625,78.84500122070312 101.14199829101562,157.98699951171875 0.08399999886751175,158.37600708007812 C0.07400000095367432,158.37600708007812 0.052000001072883606,158.37600708007812 0.041999999433755875,158.37600708007812 M0.0010000000474974513,-114.04000091552734 C19.97599983215332,-127.49500274658203 44.654998779296875,-133.09100341796875 69.31199645996094,-133.09100341796875 C151.85000610351562,-133.09100341796875 183.9320068359375,-66.427001953125 173.66000366210938,3.138000011444092"></path></g><g opacity="1" transform="matrix(1,0,0,1,0,0)"><path stroke-linecap="round" stroke-linejoin="round" fill-opacity="0" stroke="inherit" stroke-opacity="1" stroke-width="12.6" d=" M-22.964000701904297,4.171000003814697 C-29.951000213623047,-5.339000225067139 -35.10100173950195,-16.312999725341797 -37.29199981689453,-28.937999725341797 C-41.36199951171875,-52.31800079345703 -35.85900115966797,-73.67400360107422 -23.65999984741211,-90.94999694824219"></path></g></g><g opacity="1" transform="matrix(1,0,0,1,0,0)"><path stroke-linecap="round" stroke-linejoin="round" fill-opacity="0" stroke="inherit" stroke-opacity="1" stroke-width="12.6" d=" M77.63300323486328,-112.42400360107422 C77.63300323486328,-112.42400360107422 77.79499816894531,-112.42400360107422 77.79499816894531,-112.42400360107422"></path></g><g opacity="1" transform="matrix(1,0,0,1,0,0)"><path stroke-linecap="round" stroke-linejoin="round" fill-opacity="0" stroke="inherit" stroke-opacity="1" stroke-width="12.6" d=" M92.45500183105469,86.57599639892578 C92.45500183105469,86.57599639892578 92.61699676513672,86.57599639892578 92.61699676513672,86.57599639892578"></path></g><g opacity="1" transform="matrix(1,0,0,1,0,0)"><path stroke-linecap="round" stroke-linejoin="round" fill-opacity="0" stroke="inherit" stroke-opacity="1" stroke-width="12.6" d=" M-127.1709976196289,-97.11699676513672 C-127.1709976196289,-97.11699676513672 -127.00900268554688,-97.11699676513672 -127.00900268554688,-97.11699676513672"></path></g><g opacity="1" transform="matrix(1,0,0,1,0,0)"><path stroke-linecap="round" stroke-linejoin="round" fill-opacity="0" stroke="inherit" stroke-opacity="1" stroke-width="12.6" d=" M38.71900177001953,30.15399932861328 C38.71900177001953,30.15399932861328 38.73899841308594,30.15399932861328 38.73899841308594,30.15399932861328"></path></g><g opacity="1" transform="matrix(1,0,0,1,0,0)"><path stroke-linecap="round" stroke-linejoin="round" fill-opacity="0" stroke="inherit" stroke-opacity="1" stroke-width="12.6" d=" M153.71800231933594,-19.35099983215332 C153.71800231933594,-19.35099983215332 153.73800659179688,-19.35099983215332 153.73800659179688,-19.35099983215332"></path></g><g opacity="1" transform="matrix(1,0,0,1,0,0)"><path stroke-linecap="round" stroke-linejoin="round" fill-opacity="0" stroke="inherit" stroke-opacity="1" stroke-width="12.6" d=" M-134.11099243164062,25.64900016784668 C-134.11099243164062,25.64900016784668 -134.09100341796875,25.64900016784668 -134.09100341796875,25.64900016784668"></path></g><g opacity="1" transform="matrix(1,0,0,1,0,0)"><path stroke-linecap="round" stroke-linejoin="round" fill-opacity="0" stroke="inherit" stroke-opacity="1" stroke-width="12.6" d=" M-17.867000579833984,127.57599639892578 C-17.867000579833984,127.57599639892578 -17.84600067138672,127.57599639892578 -17.84600067138672,127.57599639892578"></path></g></g><g style="display: none;"><g><path stroke-linecap="round" stroke-linejoin="round" fill-opacity="0"></path></g></g><g class="com" style="display: none;"><g><path></path></g><g><path></path></g><g><path></path></g><g><path></path></g><g><path></path></g><g><path></path></g><g><path></path></g><g><path></path></g><g><path></path></g><g><path></path></g><g><path></path></g><g><path></path></g></g></g></svg>