<svg xmlns="http://www.w3.org/2000/svg" xmlns:xlink="http://www.w3.org/1999/xlink" viewBox="0 0 500 500" width="500" height="500" preserveAspectRatio="xMidYMid meet" style="width: 100%; height: 100%; transform: translate3d(0px, 0px, 0px); content-visibility: visible;"><defs><clipPath id="__lottie_element_3704"><rect width="500" height="500" x="0" y="0"></rect></clipPath></defs><g clip-path="url(#__lottie_element_3704)"><g transform="matrix(1,0,0,1,250,250)" opacity="1" style="display: block;"><g opacity="1" transform="matrix(1,0,0,1,0,0)"><path stroke-linecap="round" stroke-linejoin="round" fill-opacity="0" stroke="inherit" stroke-opacity="1" stroke-width="12.04" d=" M-144.17599487304688,80.60299682617188 C-144.17599487304688,80.60299682617188 -144.17599487304688,37.099998474121094 -144.17599487304688,37.099998474121094"></path></g><g opacity="1" transform="matrix(1,0,0,1,0,0)"><path stroke-linecap="round" stroke-linejoin="round" fill-opacity="0" stroke="inherit" stroke-opacity="1" stroke-width="12.04" d=" M134.5570068359375,37.099998474121094 C134.5570068359375,37.099998474121094 134.5570068359375,80.60299682617188 134.5570068359375,80.60299682617188"></path></g><g opacity="1" transform="matrix(1,0,0,1,0,0)"><g opacity="1" transform="matrix(1,0,0,1,0,0)"><path stroke-linecap="round" stroke-linejoin="round" fill-opacity="0" stroke="inherit" stroke-opacity="1" stroke-width="12.04" d=" M14.420000076293945,-101.79000091552734 C14.420000076293945,-101.79000091552734 9.420000076293945,-64.4800033569336 9.420000076293945,-64.4800033569336"></path></g><g opacity="1" transform="matrix(1,0,0,1,0,0)"><path stroke-linecap="round" stroke-linejoin="round" fill-opacity="0" stroke="inherit" stroke-opacity="1" stroke-width="12.04" d=" M-148.76199340820312,37.409000396728516 C-197.66700744628906,0 -172.94700622558594,-53.33399963378906 -111.7699966430664,-67.43900299072266 C-31.229000091552734,-86.00800323486328 125.66699981689453,-43.66699981689453 164.02499389648438,-3.7790000438690186 C178.81199645996094,11.597999572753906 169.19500732421875,36.944000244140625 147.86099243164062,36.974998474121094 C147.86099243164062,36.974998474121094 103.49800109863281,37.19599914550781 -3.500999927520752,37.19599914550781 C-110.5,37.19599914550781 -148.76199340820312,37.409000396728516 -148.76199340820312,37.409000396728516z"></path></g></g><g opacity="1" transform="matrix(1,0,0,1,0,0)"><path stroke-linecap="round" stroke-linejoin="round" fill-opacity="0" stroke="inherit" stroke-opacity="1" stroke-width="12.04" d=" M134.5570068359375,80.60299682617188 C134.5570068359375,80.66000366210938 72.16100311279297,80.70600128173828 -4.809000015258789,80.70600128173828 C-81.77899932861328,80.70600128173828 -144.17599487304688,80.66000366210938 -144.17599487304688,80.60299682617188 C-144.17599487304688,80.5459976196289 -81.77899932861328,80.5 -4.809000015258789,80.5 C72.16100311279297,80.5 134.5570068359375,80.5459976196289 134.5570068359375,80.60299682617188z"></path></g></g><g class="com" style="display: none;"><g><path></path></g><g><path></path></g><g><path></path></g><g><path></path></g><g><path></path></g><g><path></path></g><g><path></path></g><g><path></path></g><g><path></path></g><g><path></path></g><g><path></path></g><g><path></path></g></g></g></svg>