<svg xmlns="http://www.w3.org/2000/svg" xmlns:xlink="http://www.w3.org/1999/xlink" viewBox="0 0 500 500" width="500" height="500" preserveAspectRatio="xMidYMid meet" style="width: 100%; height: 100%; transform: translate3d(0px, 0px, 0px); content-visibility: visible;"><defs><clipPath id="__lottie_element_3715"><rect width="500" height="500" x="0" y="0"></rect></clipPath><symbol id="__lottie_element_3725"><g><g transform="matrix(1,0,0,1,353.96600341796875,315.1239929199219)" opacity="1" style="display: block;"><g opacity="1" transform="matrix(1,0,0,1,0,0)"><path stroke-linecap="round" stroke-linejoin="round" fill-opacity="0" stroke="inherit" stroke-opacity="1" stroke-width="0" d=" M-45.880001068115234,0 C-45.880001068115234,0 -36.0369987487793,-11.710000038146973 -36.0369987487793,-11.710000038146973 C-36.0369987487793,-11.710000038146973 -37.11899948120117,-26.972000122070312 -37.11899948120117,-26.972000122070312 C-37.11899948120117,-26.972000122070312 -22.263999938964844,-30.650999069213867 -22.263999938964844,-30.650999069213867 C-22.263999938964844,-30.650999069213867 -14.180999755859375,-43.645999908447266 -14.180999755859375,-43.645999908447266 C-14.180999755859375,-43.645999908447266 0,-37.880001068115234 0,-37.880001068115234 C0,-37.880001068115234 14.180999755859375,-43.645999908447266 14.180999755859375,-43.645999908447266 C14.180999755859375,-43.645999908447266 22.263999938964844,-30.649999618530273 22.263999938964844,-30.649999618530273 C22.263999938964844,-30.649999618530273 37.11899948120117,-26.97100067138672 37.11899948120117,-26.97100067138672 C37.11899948120117,-26.97100067138672 36.0369987487793,-11.710000038146973 36.0369987487793,-11.710000038146973 C36.0369987487793,-11.710000038146973 45.880001068115234,0 45.880001068115234,0 C45.880001068115234,0 36.0369987487793,11.710000038146973 36.0369987487793,11.710000038146973 C36.0369987487793,11.710000038146973 37.11899948120117,26.972000122070312 37.11899948120117,26.972000122070312 C37.11899948120117,26.972000122070312 22.263999938964844,30.650999069213867 22.263999938964844,30.650999069213867 C22.263999938964844,30.650999069213867 14.180999755859375,43.645999908447266 14.180999755859375,43.645999908447266 C14.180999755859375,43.645999908447266 0,37.880001068115234 0,37.880001068115234 C0,37.880001068115234 -14.180999755859375,43.645999908447266 -14.180999755859375,43.645999908447266 C-14.180999755859375,43.645999908447266 -22.263999938964844,30.649999618530273 -22.263999938964844,30.649999618530273 C-22.263999938964844,30.649999618530273 -37.11899948120117,26.97100067138672 -37.11899948120117,26.97100067138672 C-37.11899948120117,26.97100067138672 -36.0369987487793,11.710000038146973 -36.0369987487793,11.710000038146973 C-36.0369987487793,11.710000038146973 -45.880001068115234,0 -45.880001068115234,0z"></path><path fill="inherit" fill-opacity="1" d=" M-45.880001068115234,0 C-45.880001068115234,0 -36.0369987487793,-11.710000038146973 -36.0369987487793,-11.710000038146973 C-36.0369987487793,-11.710000038146973 -37.11899948120117,-26.972000122070312 -37.11899948120117,-26.972000122070312 C-37.11899948120117,-26.972000122070312 -22.263999938964844,-30.650999069213867 -22.263999938964844,-30.650999069213867 C-22.263999938964844,-30.650999069213867 -14.180999755859375,-43.645999908447266 -14.180999755859375,-43.645999908447266 C-14.180999755859375,-43.645999908447266 0,-37.880001068115234 0,-37.880001068115234 C0,-37.880001068115234 14.180999755859375,-43.645999908447266 14.180999755859375,-43.645999908447266 C14.180999755859375,-43.645999908447266 22.263999938964844,-30.649999618530273 22.263999938964844,-30.649999618530273 C22.263999938964844,-30.649999618530273 37.11899948120117,-26.97100067138672 37.11899948120117,-26.97100067138672 C37.11899948120117,-26.97100067138672 36.0369987487793,-11.710000038146973 36.0369987487793,-11.710000038146973 C36.0369987487793,-11.710000038146973 45.880001068115234,0 45.880001068115234,0 C45.880001068115234,0 36.0369987487793,11.710000038146973 36.0369987487793,11.710000038146973 C36.0369987487793,11.710000038146973 37.11899948120117,26.972000122070312 37.11899948120117,26.972000122070312 C37.11899948120117,26.972000122070312 22.263999938964844,30.650999069213867 22.263999938964844,30.650999069213867 C22.263999938964844,30.650999069213867 14.180999755859375,43.645999908447266 14.180999755859375,43.645999908447266 C14.180999755859375,43.645999908447266 0,37.880001068115234 0,37.880001068115234 C0,37.880001068115234 -14.180999755859375,43.645999908447266 -14.180999755859375,43.645999908447266 C-14.180999755859375,43.645999908447266 -22.263999938964844,30.649999618530273 -22.263999938964844,30.649999618530273 C-22.263999938964844,30.649999618530273 -37.11899948120117,26.97100067138672 -37.11899948120117,26.97100067138672 C-37.11899948120117,26.97100067138672 -36.0369987487793,11.710000038146973 -36.0369987487793,11.710000038146973 C-36.0369987487793,11.710000038146973 -45.880001068115234,0 -45.880001068115234,0z"></path></g></g></g></symbol><filter id="__lottie_element_3731" filterUnits="objectBoundingBox" x="0%" y="0%" width="100%" height="100%"><feComponentTransfer in="SourceGraphic"><feFuncA type="table" tableValues="1.0 0.0"></feFuncA></feComponentTransfer></filter><mask id="__lottie_element_3725_2" mask-type="alpha"><g filter="url(#__lottie_element_3731)"><rect width="500" height="500" x="0" y="0" fill="#ffffff" opacity="0"></rect><use xlink:href="#__lottie_element_3725"></use></g></mask><clipPath id="__lottie_element_3733"><path d="M0,0 L500,0 L500,500 L0,500z"></path></clipPath><clipPath id="__lottie_element_3734"><path fill="#ffffff" clip-rule="nonzero" d=" M294,128 C294,128 189,128 189,128 C189,128 189,368 189,368 C189,368 294,368 294,368 C294,368 294,128 294,128" fill-opacity="1"></path></clipPath><symbol id="__lottie_element_3745"><g><g transform="matrix(3.552000045776367,0,0,3.552000045776367,395.4419860839844,-17.409000396728516)" opacity="1" style="display: block;"><path fill="inherit" fill-opacity="1" d=" M28.965999603271484,43.95800018310547 C28.965999603271484,43.95800018310547 -28.965999603271484,43.95800018310547 -28.965999603271484,43.95800018310547 C-28.965999603271484,43.95800018310547 -28.965999603271484,-43.005001068115234 -28.965999603271484,-43.005001068115234 C-28.965999603271484,-43.005001068115234 12.927000045776367,-43.005001068115234 12.927000045776367,-43.005001068115234 C12.927000045776367,-43.005001068115234 20.94700050354004,-34.98500061035156 20.94700050354004,-34.98500061035156 C20.94700050354004,-34.98500061035156 28.965999603271484,-26.965999603271484 28.965999603271484,-26.965999603271484 C28.965999603271484,-26.965999603271484 28.965999603271484,43.95800018310547 28.965999603271484,43.95800018310547z"></path><g opacity="1" transform="matrix(1,0,0,1,0,0)"><path stroke-linecap="round" stroke-linejoin="round" fill-opacity="0" stroke="inherit" stroke-opacity="1" stroke-width="0" d=" M28.965999603271484,43.95800018310547 C28.965999603271484,43.95800018310547 -28.965999603271484,43.95800018310547 -28.965999603271484,43.95800018310547 C-28.965999603271484,43.95800018310547 -28.965999603271484,-43.005001068115234 -28.965999603271484,-43.005001068115234 C-28.965999603271484,-43.005001068115234 12.927000045776367,-43.005001068115234 12.927000045776367,-43.005001068115234 C12.927000045776367,-43.005001068115234 20.94700050354004,-34.98500061035156 20.94700050354004,-34.98500061035156 C20.94700050354004,-34.98500061035156 28.965999603271484,-26.965999603271484 28.965999603271484,-26.965999603271484 C28.965999603271484,-26.965999603271484 28.965999603271484,43.95800018310547 28.965999603271484,43.95800018310547z"></path></g></g></g></symbol><clipPath id="__lottie_element_3749"><path d="M0,0 L500,0 L500,500 L0,500z"></path></clipPath><mask id="__lottie_element_3745_1" mask-type="alpha"><use xlink:href="#__lottie_element_3745"></use></mask><symbol id="__lottie_element_3756"><g><g transform="matrix(3.552000045776367,0,0,3.552000045776367,395.4419860839844,-17.409000396728516)" opacity="1" style="display: block;"><path fill="inherit" fill-opacity="1" d=" M28.965999603271484,43.95800018310547 C28.965999603271484,43.95800018310547 -28.965999603271484,43.95800018310547 -28.965999603271484,43.95800018310547 C-28.965999603271484,43.95800018310547 -28.965999603271484,-43.005001068115234 -28.965999603271484,-43.005001068115234 C-28.965999603271484,-43.005001068115234 12.927000045776367,-43.005001068115234 12.927000045776367,-43.005001068115234 C12.927000045776367,-43.005001068115234 20.94700050354004,-34.98500061035156 20.94700050354004,-34.98500061035156 C20.94700050354004,-34.98500061035156 28.965999603271484,-26.965999603271484 28.965999603271484,-26.965999603271484 C28.965999603271484,-26.965999603271484 28.965999603271484,43.95800018310547 28.965999603271484,43.95800018310547z"></path><g opacity="1" transform="matrix(1,0,0,1,0,0)"><path stroke-linecap="round" stroke-linejoin="round" fill-opacity="0" stroke="inherit" stroke-opacity="1" stroke-width="0" d=" M28.965999603271484,43.95800018310547 C28.965999603271484,43.95800018310547 -28.965999603271484,43.95800018310547 -28.965999603271484,43.95800018310547 C-28.965999603271484,43.95800018310547 -28.965999603271484,-43.005001068115234 -28.965999603271484,-43.005001068115234 C-28.965999603271484,-43.005001068115234 12.927000045776367,-43.005001068115234 12.927000045776367,-43.005001068115234 C12.927000045776367,-43.005001068115234 20.94700050354004,-34.98500061035156 20.94700050354004,-34.98500061035156 C20.94700050354004,-34.98500061035156 28.965999603271484,-26.965999603271484 28.965999603271484,-26.965999603271484 C28.965999603271484,-26.965999603271484 28.965999603271484,43.95800018310547 28.965999603271484,43.95800018310547z"></path></g></g></g></symbol><clipPath id="__lottie_element_3760"><path d="M0,0 L500,0 L500,500 L0,500z"></path></clipPath><filter id="__lottie_element_3767" filterUnits="objectBoundingBox" x="0%" y="0%" width="100%" height="100%"><feComponentTransfer in="SourceGraphic"><feFuncA type="table" tableValues="1.0 0.0"></feFuncA></feComponentTransfer></filter><mask id="__lottie_element_3756_2" mask-type="alpha"><g filter="url(#__lottie_element_3767)"><rect width="500" height="500" x="0" y="0" fill="#ffffff" opacity="0"></rect><use xlink:href="#__lottie_element_3756"></use></g></mask><symbol id="__lottie_element_3768"><g><g clip-path="url(#__lottie_element_3769)" transform="matrix(1,0,0,1,0,0)" opacity="1" style="display: block;"><g transform="matrix(1,0,0,1,353.96600341796875,377.73199462890625)" opacity="1" style="display: block;"><g opacity="1" transform="matrix(1,0,0,1,0,0)"><path stroke-linecap="round" stroke-linejoin="round" fill-opacity="0" stroke="inherit" stroke-opacity="1" stroke-width="0" d=" M29.41900062561035,58.4739990234375 C29.41900062561035,58.4739990234375 0,35.24300003051758 0,35.24300003051758 C0,35.24300003051758 -29.41900062561035,58.4739990234375 -29.41900062561035,58.4739990234375 C-29.41900062561035,58.4739990234375 -29.41900062561035,-22.23200035095215 -29.41900062561035,-58.472999572753906 C-29.41900062561035,-78.08599853515625 20.604000091552734,-75.99299621582031 29.41900062561035,-58.472999572753906 C29.41900062561035,-15.732000350952148 29.41900062561035,58.4739990234375 29.41900062561035,58.4739990234375z"></path><path fill="inherit" fill-opacity="1" d=" M29.41900062561035,58.4739990234375 C29.41900062561035,58.4739990234375 0,35.24300003051758 0,35.24300003051758 C0,35.24300003051758 -29.41900062561035,58.4739990234375 -29.41900062561035,58.4739990234375 C-29.41900062561035,58.4739990234375 -29.41900062561035,-22.23200035095215 -29.41900062561035,-58.472999572753906 C-29.41900062561035,-78.08599853515625 20.604000091552734,-75.99299621582031 29.41900062561035,-58.472999572753906 C29.41900062561035,-15.732000350952148 29.41900062561035,58.4739990234375 29.41900062561035,58.4739990234375z"></path></g></g><g transform="matrix(1,0,0,1,353.96600341796875,315.1239929199219)" opacity="1" style="display: block;"><g opacity="1" transform="matrix(1,0,0,1,0,0)"><path stroke-linecap="round" stroke-linejoin="round" fill-opacity="0" stroke="inherit" stroke-opacity="1" stroke-width="0" d=" M-45.880001068115234,0 C-45.880001068115234,0 -36.0369987487793,-11.710000038146973 -36.0369987487793,-11.710000038146973 C-36.0369987487793,-11.710000038146973 -37.11899948120117,-26.972000122070312 -37.11899948120117,-26.972000122070312 C-37.11899948120117,-26.972000122070312 -22.263999938964844,-30.650999069213867 -22.263999938964844,-30.650999069213867 C-22.263999938964844,-30.650999069213867 -14.180999755859375,-43.645999908447266 -14.180999755859375,-43.645999908447266 C-14.180999755859375,-43.645999908447266 0,-37.880001068115234 0,-37.880001068115234 C0,-37.880001068115234 14.180999755859375,-43.645999908447266 14.180999755859375,-43.645999908447266 C14.180999755859375,-43.645999908447266 22.263999938964844,-30.649999618530273 22.263999938964844,-30.649999618530273 C22.263999938964844,-30.649999618530273 37.11899948120117,-26.97100067138672 37.11899948120117,-26.97100067138672 C37.11899948120117,-26.97100067138672 36.0369987487793,-11.710000038146973 36.0369987487793,-11.710000038146973 C36.0369987487793,-11.710000038146973 45.880001068115234,0 45.880001068115234,0 C45.880001068115234,0 36.0369987487793,11.710000038146973 36.0369987487793,11.710000038146973 C36.0369987487793,11.710000038146973 37.11899948120117,26.972000122070312 37.11899948120117,26.972000122070312 C37.11899948120117,26.972000122070312 22.263999938964844,30.650999069213867 22.263999938964844,30.650999069213867 C22.263999938964844,30.650999069213867 14.180999755859375,43.645999908447266 14.180999755859375,43.645999908447266 C14.180999755859375,43.645999908447266 0,37.880001068115234 0,37.880001068115234 C0,37.880001068115234 -14.180999755859375,43.645999908447266 -14.180999755859375,43.645999908447266 C-14.180999755859375,43.645999908447266 -22.263999938964844,30.649999618530273 -22.263999938964844,30.649999618530273 C-22.263999938964844,30.649999618530273 -37.11899948120117,26.97100067138672 -37.11899948120117,26.97100067138672 C-37.11899948120117,26.97100067138672 -36.0369987487793,11.710000038146973 -36.0369987487793,11.710000038146973 C-36.0369987487793,11.710000038146973 -45.880001068115234,0 -45.880001068115234,0z"></path><path fill="inherit" fill-opacity="1" d=" M-45.880001068115234,0 C-45.880001068115234,0 -36.0369987487793,-11.710000038146973 -36.0369987487793,-11.710000038146973 C-36.0369987487793,-11.710000038146973 -37.11899948120117,-26.972000122070312 -37.11899948120117,-26.972000122070312 C-37.11899948120117,-26.972000122070312 -22.263999938964844,-30.650999069213867 -22.263999938964844,-30.650999069213867 C-22.263999938964844,-30.650999069213867 -14.180999755859375,-43.645999908447266 -14.180999755859375,-43.645999908447266 C-14.180999755859375,-43.645999908447266 0,-37.880001068115234 0,-37.880001068115234 C0,-37.880001068115234 14.180999755859375,-43.645999908447266 14.180999755859375,-43.645999908447266 C14.180999755859375,-43.645999908447266 22.263999938964844,-30.649999618530273 22.263999938964844,-30.649999618530273 C22.263999938964844,-30.649999618530273 37.11899948120117,-26.97100067138672 37.11899948120117,-26.97100067138672 C37.11899948120117,-26.97100067138672 36.0369987487793,-11.710000038146973 36.0369987487793,-11.710000038146973 C36.0369987487793,-11.710000038146973 45.880001068115234,0 45.880001068115234,0 C45.880001068115234,0 36.0369987487793,11.710000038146973 36.0369987487793,11.710000038146973 C36.0369987487793,11.710000038146973 37.11899948120117,26.972000122070312 37.11899948120117,26.972000122070312 C37.11899948120117,26.972000122070312 22.263999938964844,30.650999069213867 22.263999938964844,30.650999069213867 C22.263999938964844,30.650999069213867 14.180999755859375,43.645999908447266 14.180999755859375,43.645999908447266 C14.180999755859375,43.645999908447266 0,37.880001068115234 0,37.880001068115234 C0,37.880001068115234 -14.180999755859375,43.645999908447266 -14.180999755859375,43.645999908447266 C-14.180999755859375,43.645999908447266 -22.263999938964844,30.649999618530273 -22.263999938964844,30.649999618530273 C-22.263999938964844,30.649999618530273 -37.11899948120117,26.97100067138672 -37.11899948120117,26.97100067138672 C-37.11899948120117,26.97100067138672 -36.0369987487793,11.710000038146973 -36.0369987487793,11.710000038146973 C-36.0369987487793,11.710000038146973 -45.880001068115234,0 -45.880001068115234,0z"></path></g></g></g></g></symbol><clipPath id="__lottie_element_3769"><path d="M0,0 L500,0 L500,500 L0,500z"></path></clipPath><clipPath id="__lottie_element_3779"><path d="M0,0 L500,0 L500,500 L0,500z"></path></clipPath><symbol id="__lottie_element_3791"><g><g transform="matrix(3.552000045776367,0,0,3.552000045776367,395.4419860839844,-17.409000396728516)" opacity="1" style="display: block;"><path fill="inherit" fill-opacity="1" d=" M28.965999603271484,43.95800018310547 C28.965999603271484,43.95800018310547 -28.965999603271484,43.95800018310547 -28.965999603271484,43.95800018310547 C-28.965999603271484,43.95800018310547 -28.965999603271484,-43.005001068115234 -28.965999603271484,-43.005001068115234 C-28.965999603271484,-43.005001068115234 12.927000045776367,-43.005001068115234 12.927000045776367,-43.005001068115234 C12.927000045776367,-43.005001068115234 20.94700050354004,-34.98500061035156 20.94700050354004,-34.98500061035156 C20.94700050354004,-34.98500061035156 28.965999603271484,-26.965999603271484 28.965999603271484,-26.965999603271484 C28.965999603271484,-26.965999603271484 28.965999603271484,43.95800018310547 28.965999603271484,43.95800018310547z"></path><g opacity="1" transform="matrix(1,0,0,1,0,0)"><path stroke-linecap="round" stroke-linejoin="round" fill-opacity="0" stroke="inherit" stroke-opacity="1" stroke-width="0" d=" M28.965999603271484,43.95800018310547 C28.965999603271484,43.95800018310547 -28.965999603271484,43.95800018310547 -28.965999603271484,43.95800018310547 C-28.965999603271484,43.95800018310547 -28.965999603271484,-43.005001068115234 -28.965999603271484,-43.005001068115234 C-28.965999603271484,-43.005001068115234 12.927000045776367,-43.005001068115234 12.927000045776367,-43.005001068115234 C12.927000045776367,-43.005001068115234 20.94700050354004,-34.98500061035156 20.94700050354004,-34.98500061035156 C20.94700050354004,-34.98500061035156 28.965999603271484,-26.965999603271484 28.965999603271484,-26.965999603271484 C28.965999603271484,-26.965999603271484 28.965999603271484,43.95800018310547 28.965999603271484,43.95800018310547z"></path></g></g></g></symbol><clipPath id="__lottie_element_3795"><path d="M0,0 L500,0 L500,500 L0,500z"></path></clipPath><mask id="__lottie_element_3791_1" mask-type="alpha"><use xlink:href="#__lottie_element_3791"></use></mask><symbol id="__lottie_element_3802"><g><g transform="matrix(3.552000045776367,0,0,3.552000045776367,395.4419860839844,-17.409000396728516)" opacity="1" style="display: block;"><path fill="inherit" fill-opacity="1" d=" M28.965999603271484,43.95800018310547 C28.965999603271484,43.95800018310547 -28.965999603271484,43.95800018310547 -28.965999603271484,43.95800018310547 C-28.965999603271484,43.95800018310547 -28.965999603271484,-43.005001068115234 -28.965999603271484,-43.005001068115234 C-28.965999603271484,-43.005001068115234 12.927000045776367,-43.005001068115234 12.927000045776367,-43.005001068115234 C12.927000045776367,-43.005001068115234 20.94700050354004,-34.98500061035156 20.94700050354004,-34.98500061035156 C20.94700050354004,-34.98500061035156 28.965999603271484,-26.965999603271484 28.965999603271484,-26.965999603271484 C28.965999603271484,-26.965999603271484 28.965999603271484,43.95800018310547 28.965999603271484,43.95800018310547z"></path><g opacity="1" transform="matrix(1,0,0,1,0,0)"><path stroke-linecap="round" stroke-linejoin="round" fill-opacity="0" stroke="inherit" stroke-opacity="1" stroke-width="0" d=" M28.965999603271484,43.95800018310547 C28.965999603271484,43.95800018310547 -28.965999603271484,43.95800018310547 -28.965999603271484,43.95800018310547 C-28.965999603271484,43.95800018310547 -28.965999603271484,-43.005001068115234 -28.965999603271484,-43.005001068115234 C-28.965999603271484,-43.005001068115234 12.927000045776367,-43.005001068115234 12.927000045776367,-43.005001068115234 C12.927000045776367,-43.005001068115234 20.94700050354004,-34.98500061035156 20.94700050354004,-34.98500061035156 C20.94700050354004,-34.98500061035156 28.965999603271484,-26.965999603271484 28.965999603271484,-26.965999603271484 C28.965999603271484,-26.965999603271484 28.965999603271484,43.95800018310547 28.965999603271484,43.95800018310547z"></path></g></g></g></symbol><clipPath id="__lottie_element_3806"><path d="M0,0 L500,0 L500,500 L0,500z"></path></clipPath><filter id="__lottie_element_3813" filterUnits="objectBoundingBox" x="0%" y="0%" width="100%" height="100%"><feComponentTransfer in="SourceGraphic"><feFuncA type="table" tableValues="1.0 0.0"></feFuncA></feComponentTransfer></filter><mask id="__lottie_element_3802_2" mask-type="alpha"><g filter="url(#__lottie_element_3813)"><rect width="500" height="500" x="0" y="0" fill="#ffffff" opacity="0"></rect><use xlink:href="#__lottie_element_3802"></use></g></mask><filter id="__lottie_element_3814" filterUnits="objectBoundingBox" x="0%" y="0%" width="100%" height="100%"><feComponentTransfer in="SourceGraphic"><feFuncA type="table" tableValues="1.0 0.0"></feFuncA></feComponentTransfer></filter><mask id="__lottie_element_3768_2" mask-type="alpha"><g filter="url(#__lottie_element_3814)"><rect width="500" height="500" x="0" y="0" fill="#ffffff" opacity="0"></rect><use xlink:href="#__lottie_element_3768"></use></g></mask></defs><g clip-path="url(#__lottie_element_3715)"><g mask="url(#__lottie_element_3768_2)" style="display: block;"><g clip-path="url(#__lottie_element_3779)" transform="matrix(1,0,0,1,0,0)" opacity="1"><g mask="url(#__lottie_element_3802_2)" style="display: block;"><g clip-path="url(#__lottie_element_3806)" transform="matrix(0.9599999785423279,0,0,0.9599999785423279,7.313995361328125,-5.2169952392578125)" opacity="1"><g transform="matrix(1.0000064373016357,0,0,1.0000064373016357,-0.00048158408026210964,26.997407913208008)" opacity="1" style="display: block;"><g opacity="1" transform="matrix(1,0,0,1,250,259.85699462890625)"><path stroke-linecap="round" stroke-linejoin="round" fill-opacity="0" stroke="inherit" stroke-opacity="1" stroke-width="13.3" d=" M28.413000106811523,24.76300048828125 C28.413000106811523,24.76300048828125 -28.413000106811523,24.76300048828125 -28.413000106811523,24.76300048828125 C-28.413000106811523,24.76300048828125 -28.413000106811523,-24.76300048828125 -28.413000106811523,-24.76300048828125 C-28.413000106811523,-24.76300048828125 28.413000106811523,-24.76300048828125 28.413000106811523,-24.76300048828125 C28.413000106811523,-24.76300048828125 28.413000106811523,24.76300048828125 28.413000106811523,24.76300048828125z"></path></g><g opacity="1" transform="matrix(1,0,0,1,250,236.572998046875)"><path stroke-linecap="round" stroke-linejoin="round" fill-opacity="0" stroke="inherit" stroke-opacity="1" stroke-width="13.3" d=" M28.413000106811523,-17.155000686645508 C28.413000106811523,-17.155000686645508 28.413000106811523,103.96600341796875 28.413000106811523,103.96600341796875 C28.413000106811523,103.96600341796875 -28.413000106811523,103.96600341796875 -28.413000106811523,103.96600341796875 C-28.413000106811523,103.96600341796875 -28.413000106811523,-17.349000930786133 -28.413000106811523,-17.349000930786133 C-28.413000106811523,-29.763999938964844 -20.427000045776367,-40.308998107910156 -9.310999870300293,-44.132999420166016 C-9.310999870300293,-44.132999420166016 -9.310999870300293,-103.96600341796875 -9.310999870300293,-103.96600341796875 C-9.310999870300293,-103.96600341796875 9.310999870300293,-103.96600341796875 9.310999870300293,-103.96600341796875 C9.310999870300293,-103.96600341796875 9.310999870300293,-44.07500076293945 9.310999870300293,-44.07500076293945 C13.402000427246094,-42.645999908447266 17.062999725341797,-40.314998626708984 20.062999725341797,-37.314998626708984 C25.2189998626709,-32.15299987792969 28.413000106811523,-25.024999618530273 28.413000106811523,-17.155000686645508z"></path></g></g></g></g><g mask="url(#__lottie_element_3791_1)" style="display: none;"><g clip-path="url(#__lottie_element_3795)"><g style="display: none;"><g><path stroke-linecap="round" stroke-linejoin="round" fill-opacity="0"></path></g><g><path stroke-linecap="round" stroke-linejoin="round" fill-opacity="0"></path></g></g></g></g><g transform="matrix(3.552000045776367,0,0,3.552000045776367,246.25799560546875,236.5590057373047)" opacity="1" style="display: block;"><g opacity="1" transform="matrix(1,0,0,1,0,0)"><path stroke-linecap="round" stroke-linejoin="round" fill-opacity="0" stroke="inherit" stroke-opacity="1" stroke-width="3.57" d=" M28.965999603271484,43.95800018310547 C28.965999603271484,43.95800018310547 -12.482000350952148,43.95800018310547 -12.482000350952148,43.95800018310547 C-12.482000350952148,43.95800018310547 -28.965999603271484,43.95800018310547 -28.965999603271484,43.95800018310547 C-28.965999603271484,43.95800018310547 -28.965999603271484,33.672000885009766 -28.965999603271484,33.672000885009766 C-28.965999603271484,33.672000885009766 -28.965999603271484,-43.005001068115234 -28.965999603271484,-43.005001068115234 C-28.965999603271484,-43.005001068115234 12.927000045776367,-43.005001068115234 12.927000045776367,-43.005001068115234 C12.927000045776367,-43.005001068115234 20.94700050354004,-34.98500061035156 20.94700050354004,-34.98500061035156 C20.94700050354004,-34.98500061035156 28.965999603271484,-26.965999603271484 28.965999603271484,-26.965999603271484 C28.965999603271484,-26.965999603271484 28.965999603271484,43.95800018310547 28.965999603271484,43.95800018310547z"></path></g></g><g transform="matrix(3.552000045776367,0,0,3.552000045776367,395.4419860839844,-17.409000396728516)" opacity="1" style="display: block;"><g opacity="1" transform="matrix(1,0,0,1,0,0)"><path stroke-linecap="round" stroke-linejoin="round" fill-opacity="0" stroke="inherit" stroke-opacity="1" stroke-width="3.57" d=" M-15.89799976348877,43.95800018310547 C-23.486000061035156,43.95800018310547 -28.965999603271484,43.95800018310547 -28.965999603271484,43.95800018310547 C-28.965999603271484,43.95800018310547 -28.965999603271484,37.90299987792969 -28.965999603271484,28.98900032043457"></path></g></g><g transform="matrix(3.552000045776367,0,0,3.552000045776367,544.6259765625,-271.37701416015625)" opacity="1" style="display: block;"><g opacity="1" transform="matrix(1,0,0,1,0,0)"><path stroke-linecap="round" stroke-linejoin="round" fill-opacity="0" stroke="inherit" stroke-opacity="1" stroke-width="3.57" d="M0 0"></path></g></g></g></g><g clip-path="url(#__lottie_element_3733)" transform="matrix(1,0,0,1,0,0)" opacity="1" style="display: block;"><g clip-path="url(#__lottie_element_3734)"><g mask="url(#__lottie_element_3756_2)" style="display: block;"><g clip-path="url(#__lottie_element_3760)" transform="matrix(0.9599999785423279,0,0,0.9599999785423279,7.313995361328125,-5.2169952392578125)" opacity="1"><g transform="matrix(1.0000064373016357,0,0,1.0000064373016357,-0.00048158408026210964,26.997407913208008)" opacity="1" style="display: block;"><g opacity="1" transform="matrix(1,0,0,1,250,259.85699462890625)"><path stroke-linecap="round" stroke-linejoin="round" fill-opacity="0" stroke="inherit" stroke-opacity="1" stroke-width="13.3" d=" M28.413000106811523,24.76300048828125 C28.413000106811523,24.76300048828125 -28.413000106811523,24.76300048828125 -28.413000106811523,24.76300048828125 C-28.413000106811523,24.76300048828125 -28.413000106811523,-24.76300048828125 -28.413000106811523,-24.76300048828125 C-28.413000106811523,-24.76300048828125 28.413000106811523,-24.76300048828125 28.413000106811523,-24.76300048828125 C28.413000106811523,-24.76300048828125 28.413000106811523,24.76300048828125 28.413000106811523,24.76300048828125z"></path></g><g opacity="1" transform="matrix(1,0,0,1,250,236.572998046875)"><path stroke-linecap="round" stroke-linejoin="round" fill-opacity="0" stroke="inherit" stroke-opacity="1" stroke-width="13.3" d=" M28.413000106811523,-17.155000686645508 C28.413000106811523,-17.155000686645508 28.413000106811523,103.96600341796875 28.413000106811523,103.96600341796875 C28.413000106811523,103.96600341796875 -28.413000106811523,103.96600341796875 -28.413000106811523,103.96600341796875 C-28.413000106811523,103.96600341796875 -28.413000106811523,-17.349000930786133 -28.413000106811523,-17.349000930786133 C-28.413000106811523,-29.763999938964844 -20.427000045776367,-40.308998107910156 -9.310999870300293,-44.132999420166016 C-9.310999870300293,-44.132999420166016 -9.310999870300293,-103.96600341796875 -9.310999870300293,-103.96600341796875 C-9.310999870300293,-103.96600341796875 9.310999870300293,-103.96600341796875 9.310999870300293,-103.96600341796875 C9.310999870300293,-103.96600341796875 9.310999870300293,-44.07500076293945 9.310999870300293,-44.07500076293945 C13.402000427246094,-42.645999908447266 17.062999725341797,-40.314998626708984 20.062999725341797,-37.314998626708984 C25.2189998626709,-32.15299987792969 28.413000106811523,-25.024999618530273 28.413000106811523,-17.155000686645508z"></path></g></g></g></g><g mask="url(#__lottie_element_3745_1)" style="display: none;"><g clip-path="url(#__lottie_element_3749)"><g style="display: none;"><g><path stroke-linecap="round" stroke-linejoin="round" fill-opacity="0"></path></g><g><path stroke-linecap="round" stroke-linejoin="round" fill-opacity="0"></path></g></g></g></g><g transform="matrix(3.552000045776367,0,0,3.552000045776367,246.25799560546875,236.5590057373047)" opacity="1" style="display: block;"><g opacity="1" transform="matrix(1,0,0,1,0,0)"><path stroke-linecap="round" stroke-linejoin="round" fill-opacity="0" stroke="inherit" stroke-opacity="1" stroke-width="3.57" d=" M28.965999603271484,43.95800018310547 C28.965999603271484,43.95800018310547 -12.482000350952148,43.95800018310547 -12.482000350952148,43.95800018310547 C-12.482000350952148,43.95800018310547 -28.965999603271484,43.95800018310547 -28.965999603271484,43.95800018310547 C-28.965999603271484,43.95800018310547 -28.965999603271484,33.672000885009766 -28.965999603271484,33.672000885009766 C-28.965999603271484,33.672000885009766 -28.965999603271484,-43.005001068115234 -28.965999603271484,-43.005001068115234 C-28.965999603271484,-43.005001068115234 12.927000045776367,-43.005001068115234 12.927000045776367,-43.005001068115234 C12.927000045776367,-43.005001068115234 20.94700050354004,-34.98500061035156 20.94700050354004,-34.98500061035156 C20.94700050354004,-34.98500061035156 28.965999603271484,-26.965999603271484 28.965999603271484,-26.965999603271484 C28.965999603271484,-26.965999603271484 28.965999603271484,43.95800018310547 28.965999603271484,43.95800018310547z"></path></g></g><g transform="matrix(3.552000045776367,0,0,3.552000045776367,395.4419860839844,-17.409000396728516)" opacity="1" style="display: block;"><g opacity="1" transform="matrix(1,0,0,1,0,0)"><path stroke-linecap="round" stroke-linejoin="round" fill-opacity="0" stroke="inherit" stroke-opacity="1" stroke-width="3.57" d=" M-15.89799976348877,43.95800018310547 C-23.486000061035156,43.95800018310547 -28.965999603271484,43.95800018310547 -28.965999603271484,43.95800018310547 C-28.965999603271484,43.95800018310547 -28.965999603271484,37.90299987792969 -28.965999603271484,28.98900032043457"></path></g></g><g transform="matrix(3.552000045776367,0,0,3.552000045776367,544.6259765625,-271.37701416015625)" opacity="1" style="display: block;"><g opacity="1" transform="matrix(1,0,0,1,0,0)"><path stroke-linecap="round" stroke-linejoin="round" fill-opacity="0" stroke="inherit" stroke-opacity="1" stroke-width="3.57" d="M0 0"></path></g></g></g></g><g mask="url(#__lottie_element_3725_2)" style="display: block;"><g transform="matrix(1,0,0,1,353.96600341796875,377.73199462890625)" opacity="1"><g opacity="1" transform="matrix(1,0,0,1,0,0)"><path stroke-linecap="round" stroke-linejoin="round" fill-opacity="0" stroke="inherit" stroke-opacity="1" stroke-width="12.04" d=" M29.41900062561035,58.4739990234375 C29.41900062561035,58.4739990234375 0,35.24300003051758 0,35.24300003051758 C0,35.24300003051758 -29.41900062561035,58.4739990234375 -29.41900062561035,58.4739990234375 C-29.41900062561035,58.4739990234375 -29.41900062561035,-22.23200035095215 -29.41900062561035,-58.472999572753906 C-29.41900062561035,-78.08599853515625 20.604000091552734,-75.99299621582031 29.41900062561035,-58.472999572753906 C29.41900062561035,-15.732000350952148 29.41900062561035,58.4739990234375 29.41900062561035,58.4739990234375z"></path></g></g></g><g transform="matrix(1,0,0,1,353.96600341796875,315.1239929199219)" opacity="1" style="display: block;"><g opacity="1" transform="matrix(1,0,0,1,0,0)"><path stroke-linecap="round" stroke-linejoin="round" fill-opacity="0" stroke="inherit" stroke-opacity="1" stroke-width="12.04" d=" M-45.880001068115234,0 C-45.880001068115234,0 -36.0369987487793,-11.710000038146973 -36.0369987487793,-11.710000038146973 C-36.0369987487793,-11.710000038146973 -37.11899948120117,-26.972000122070312 -37.11899948120117,-26.972000122070312 C-37.11899948120117,-26.972000122070312 -22.263999938964844,-30.650999069213867 -22.263999938964844,-30.650999069213867 C-22.263999938964844,-30.650999069213867 -14.180999755859375,-43.645999908447266 -14.180999755859375,-43.645999908447266 C-14.180999755859375,-43.645999908447266 0,-37.880001068115234 0,-37.880001068115234 C0,-37.880001068115234 14.180999755859375,-43.645999908447266 14.180999755859375,-43.645999908447266 C14.180999755859375,-43.645999908447266 22.263999938964844,-30.649999618530273 22.263999938964844,-30.649999618530273 C22.263999938964844,-30.649999618530273 37.11899948120117,-26.97100067138672 37.11899948120117,-26.97100067138672 C37.11899948120117,-26.97100067138672 36.0369987487793,-11.710000038146973 36.0369987487793,-11.710000038146973 C36.0369987487793,-11.710000038146973 45.880001068115234,0 45.880001068115234,0 C45.880001068115234,0 36.0369987487793,11.710000038146973 36.0369987487793,11.710000038146973 C36.0369987487793,11.710000038146973 37.11899948120117,26.972000122070312 37.11899948120117,26.972000122070312 C37.11899948120117,26.972000122070312 22.263999938964844,30.650999069213867 22.263999938964844,30.650999069213867 C22.263999938964844,30.650999069213867 14.180999755859375,43.645999908447266 14.180999755859375,43.645999908447266 C14.180999755859375,43.645999908447266 0,37.880001068115234 0,37.880001068115234 C0,37.880001068115234 -14.180999755859375,43.645999908447266 -14.180999755859375,43.645999908447266 C-14.180999755859375,43.645999908447266 -22.263999938964844,30.649999618530273 -22.263999938964844,30.649999618530273 C-22.263999938964844,30.649999618530273 -37.11899948120117,26.97100067138672 -37.11899948120117,26.97100067138672 C-37.11899948120117,26.97100067138672 -36.0369987487793,11.710000038146973 -36.0369987487793,11.710000038146973 C-36.0369987487793,11.710000038146973 -45.880001068115234,0 -45.880001068115234,0z"></path></g></g><g class="com" style="display: none;"><g><path></path></g><g><path></path></g><g><path></path></g><g><path></path></g><g><path></path></g><g><path></path></g><g><path></path></g><g><path></path></g><g><path></path></g><g><path></path></g><g><path></path></g><g><path></path></g></g></g></svg>