<?xml version="1.0" encoding="UTF-8"?>
<svg id="Layer_2" data-name="Layer 2" xmlns="http://www.w3.org/2000/svg" xmlns:xlink="http://www.w3.org/1999/xlink" viewBox="0 0 7744.12 1775.41">
  <defs>
    <style>
      .cls-1 {
        fill: url(#linear-gradient);
      }

      .cls-2 {
        letter-spacing: -.03em;
      }

      .cls-3 {
        letter-spacing: 0em;
      }

      .cls-4 {
        fill: #d70466;
        font-family: GreycliffThaiCF-ExBold, 'Greycliff Thai CF';
        font-size: 1197.1px;
        font-weight: 700;
      }
    </style>
    <linearGradient id="linear-gradient" x1="0" y1="887.7" x2="1775.41" y2="887.7" gradientUnits="userSpaceOnUse">
      <stop offset="0" stop-color="#e71e4d"/>
      <stop offset=".5" stop-color="#e21a5f"/>
      <stop offset="1" stop-color="#d70466"/>
    </linearGradient>
  </defs>
  <g id="Layer_1-2" data-name="Layer 1">
    <g>
      <text class="cls-4" transform="translate(2111.88 1310.65)"><tspan class="cls-2" x="0" y="0">C</tspan><tspan class="cls-3" x="800.85" y="0">ookBook</tspan></text>
      <path class="cls-1" d="m1617.8,0H157.61C70.56,0,0,70.56,0,157.61v1460.19c0,87.04,70.56,157.61,157.61,157.61h1460.19c87.04,0,157.61-70.56,157.61-157.61V157.61c0-87.04-70.56-157.61-157.61-157.61ZM268.35,1696.11h-88.53c-55.51,0-100.52-45-100.52-100.52V179.82c0-55.51,45-100.52,100.52-100.52h88.53v1616.8Zm1109.3-284.4h-706.3v-101.06h706.3v101.06Zm0-496.89v353.5h-706.3v-283.29c-136.31-14.55-242.48-129.91-242.48-270.07,0-150.02,121.61-271.63,271.63-271.63,18.82,0,37.2,1.92,54.94,5.56,44.09-90.43,136.91-152.74,244.29-152.74,85.58,0,161.91,39.59,211.7,101.45,27.64-9.47,57.28-14.63,88.13-14.63,150.02,0,271.63,121.61,271.63,271.63,0,122.88-81.59,226.68-193.55,260.22Z"/>
    </g>
  </g>
</svg>